M48
; DRILL file KiCad 10.0.5 date 2026-09-28T21:52:01
; FORMAT={-:-/ absolute / metric / decimal}
; #@! TF.CreationDate,2026-09-28T21:52:01+03:00
; #@! TF.GenerationSoftware,Kicad,Pcbnew,10.0.5
; #@! TF.FileFunction,Plated,1,4,PTH
FMAT,2
METRIC
; #@! TA.AperFunction,Plated,PTH,ViaDrill
T1C0.300
; #@! TA.AperFunction,Plated,PTH,ComponentDrill
T2C0.300
; #@! TA.AperFunction,Plated,PTH,ViaDrill
T3C0.400
; #@! TA.AperFunction,Plated,PTH,ComponentDrill
T4C0.500
; #@! TA.AperFunction,Plated,PTH,ComponentDrill
T5C1.000
; #@! TA.AperFunction,Plated,PTH,ComponentDrill
T6C2.000
%
G90
G05
T1
X1.5Y81.0
X1.5Y76.0
X1.5Y73.5
X1.5Y66.0
X1.5Y63.5
X1.5Y61.0
X1.5Y56.0
X1.5Y51.0
X1.5Y46.0
X1.5Y41.0
X1.5Y36.0
X1.5Y31.0
X1.5Y26.0
X1.5Y21.0
X1.5Y16.0
X1.5Y11.0
X2.5Y77.5
X2.5Y57.5
X2.5Y52.5
X2.5Y47.5
X2.5Y42.5
X2.5Y37.5
X2.5Y32.5
X2.5Y27.5
X2.5Y22.5
X2.5Y17.5
X2.5Y12.5
X4.321Y42.091
X6.0Y49.566
X6.0Y38.0
X6.1Y45.0
X7.413Y57.248
X7.5Y77.5
X7.5Y72.5
X7.5Y42.5
X7.5Y32.5
X7.5Y27.5
X7.5Y22.5
X7.5Y17.5
X9.0Y88.5
X9.6Y62.875
X12.5Y87.5
X12.5Y47.5
X12.5Y27.5
X12.5Y22.5
X12.5Y17.5
X12.5Y7.5
X12.669Y83.524
X13.102Y62.936
X14.0Y88.5
X15.9Y19.0
X16.5Y88.5
X17.5Y77.5
X17.5Y72.5
X17.5Y67.5
X17.5Y57.5
X17.5Y47.5
X17.5Y22.5
X17.5Y12.5
X17.5Y7.5
X17.5Y2.5
X18.0Y29.8
X18.0Y27.4
X18.239Y34.101
X18.331Y83.524
X18.85Y65.075
X18.925Y48.6
X19.25Y30.721
X19.485Y42.603
X19.581Y33.4
X20.25Y58.835
X20.65Y83.665
X20.65Y78.885
X21.365Y23.739
X21.465Y48.6
X21.465Y40.4
X21.563Y32.425
X21.6Y85.255
X22.594Y33.499
X22.7Y39.13
X22.796Y34.358
X22.95Y74.975
X23.26Y81.043
X23.6Y53.3
X23.85Y89.075
X23.85Y87.775
X23.85Y80.155
X24.8Y84.285
X24.8Y81.745
X25.425Y29.277
X26.425Y29.05
X27.041Y85.143
X27.45Y89.045
X27.5Y12.5
X27.5Y7.5
X27.5Y2.5
X29.0Y72.8
X29.0Y1.5
X30.201Y83.585
X30.55Y34.3
X30.6Y31.55
X31.06Y82.695
X31.785Y69.985
X32.35Y66.2
X32.5Y87.5
X32.5Y67.5
X32.5Y12.5
X32.5Y7.5
X32.5Y2.5
X33.055Y28.55
X33.1Y26.7
X33.667Y77.934
X33.792Y77.007
X34.0Y88.5
X34.0Y1.5
X34.005Y31.9
X34.5Y29.4
X34.625Y17.55
X36.5Y67.1
X36.5Y1.5
X37.5Y87.5
X37.5Y17.5
X37.5Y12.5
X37.5Y7.5
X37.605Y33.1
X37.605Y30.4
X39.0Y88.5
X39.0Y67.1
X42.4Y76.25
X42.5Y87.5
X42.5Y67.5
X42.5Y22.5
X42.5Y17.5
X42.5Y12.5
X42.5Y7.5
X43.5Y25.5
X44.0Y1.5
X44.5Y73.8
X44.974Y78.885
X44.982Y83.577
X44.996Y87.775
X46.5Y1.5
X46.601Y68.261
X47.5Y22.5
X47.5Y17.5
X47.5Y7.5
X47.507Y82.695
X47.55Y89.045
X47.601Y71.697
X47.602Y74.388
X47.65Y81.25
X47.652Y73.513
X48.169Y68.524
X48.412Y74.005
X48.49Y84.965
X48.604Y76.284
X49.539Y86.505
X50.2Y88.45
X50.4Y85.35
X50.75Y82.5
X50.844Y83.915
X53.5Y72.8
X53.831Y68.524
X54.361Y73.59
X54.95Y82.245
X55.3Y88.45
X55.582Y69.047
X55.9Y72.8
X57.0Y76.25
X57.051Y70.1
X57.1Y72.236
X57.5Y7.5
X57.5Y2.5
X58.033Y78.885
X58.205Y76.24
X58.3Y72.8
X58.659Y80.155
X58.7Y50.1
X59.0Y88.5
X59.0Y1.5
X60.7Y72.8
X61.0Y54.65
X61.0Y44.7
X61.5Y88.5
X61.9Y54.65
X61.9Y44.7
X62.5Y7.5
X62.5Y2.5
X63.1Y72.8
X63.2Y54.65
X63.2Y44.7
X64.0Y88.5
X64.0Y54.65
X64.0Y44.7
X64.135Y79.917
X64.2Y65.5
X64.8Y66.35
X64.8Y54.65
X64.8Y44.7
X65.5Y72.8
X66.659Y70.55
X66.897Y71.63
X67.5Y87.5
X67.9Y72.8
X68.0Y75.995
X68.733Y69.835
X68.9Y56.8
X69.0Y88.5
X69.095Y68.4
X69.7Y56.8
X69.769Y67.666
X70.3Y69.0
X70.5Y56.8
X71.3Y56.8
X71.4Y69.4
X72.1Y56.8
X72.104Y13.574
X72.5Y77.5
X72.5Y69.4
X73.45Y88.245
X73.45Y82.245
X73.6Y69.4
X73.627Y70.55
X74.0Y1.5
X74.7Y69.4
X74.95Y50.1
X75.6Y15.6
X75.8Y69.4
X76.422Y70.8
X76.9Y69.4
X77.0Y57.8
X77.05Y88.245
X77.05Y82.245
X77.2Y16.7
X77.5Y7.5
X77.5Y2.5
X77.525Y76.25
X77.95Y24.2
X78.0Y65.0
X78.0Y62.0
X78.025Y11.85
X78.3Y63.5
X78.597Y67.048
X78.6Y58.75
X78.7Y28.05
X79.0Y88.5
X79.0Y1.5
X79.2Y64.25
X79.2Y62.727
X79.2Y61.25
X79.2Y59.75
X79.75Y39.5
X80.45Y38.45
X81.637Y74.4
X81.672Y65.727
X82.402Y60.497
X82.5Y87.5
X82.5Y82.5
X82.887Y66.8
X83.154Y64.95
X84.0Y88.5
X84.467Y81.095
X84.978Y68.825
X87.0Y81.095
X87.325Y76.25
X87.5Y87.5
X87.5Y82.5
X87.5Y62.5
X89.35Y88.245
X89.35Y82.245
X91.2Y50.1
X91.9Y67.5
X92.5Y77.5
X92.5Y62.5
X92.5Y22.5
X92.5Y12.5
X93.5Y54.65
X93.5Y44.7
X94.4Y54.65
X94.4Y44.7
X95.7Y54.65
X95.7Y44.7
X96.5Y54.65
X96.5Y44.7
X97.3Y54.65
X97.3Y44.7
X97.5Y77.5
X97.5Y72.5
X97.5Y67.5
X97.5Y37.5
X97.5Y32.5
X97.5Y27.5
X97.5Y22.5
X97.5Y17.5
X97.5Y12.5
X98.5Y81.0
X98.5Y76.0
X98.5Y71.0
X98.5Y66.0
X98.5Y63.5
X98.5Y56.0
X98.5Y51.0
X98.5Y48.5
X98.5Y46.0
X98.5Y41.0
X98.5Y36.0
X98.5Y31.0
X98.5Y26.0
X98.5Y21.0
X98.5Y16.0
X98.5Y11.0
T2
X14.25Y62.675
X14.25Y61.675
X14.25Y60.675
X15.65Y62.675
X15.65Y61.675
X15.65Y60.675
X25.775Y33.25
X25.775Y32.5
X25.775Y31.75
X26.775Y33.25
X26.775Y32.5
X26.775Y31.75
X27.775Y33.25
X27.775Y32.5
X27.775Y31.75
X35.3Y82.025
X35.3Y80.625
X36.7Y82.025
X36.7Y80.625
T3
X13.7Y15.4
X16.8Y54.6
X20.6Y54.6
X21.302Y42.973
X21.52Y87.971
X23.45Y57.535
X25.454Y88.89
X30.761Y62.375
X31.65Y37.67
X37.4Y23.2
X55.6Y51.65
X57.1Y15.25
X61.8Y68.25
X71.85Y51.65
X73.35Y15.25
X78.561Y16.183
X80.477Y59.345
X88.1Y51.65
X89.6Y15.25
T4
X24.005Y22.75
X24.005Y21.25
X24.005Y19.75
X25.505Y22.75
X25.505Y21.25
X25.505Y19.75
X27.005Y22.75
X27.005Y21.25
X27.005Y19.75
X55.505Y44.55
X55.505Y43.05
X55.505Y41.55
X55.505Y34.15
X55.505Y32.65
X55.505Y31.15
X57.005Y44.55
X57.005Y43.05
X57.005Y41.55
X57.005Y34.15
X57.005Y32.65
X57.005Y31.15
X58.505Y44.55
X58.505Y43.05
X58.505Y41.55
X58.505Y34.15
X58.505Y32.65
X58.505Y31.15
X71.755Y44.55
X71.755Y43.05
X71.755Y41.55
X71.755Y34.15
X71.755Y32.65
X71.755Y31.15
X71.772Y64.477
X71.772Y62.977
X71.772Y61.477
X73.255Y44.55
X73.255Y43.05
X73.255Y41.55
X73.255Y34.15
X73.255Y32.65
X73.255Y31.15
X73.272Y64.477
X73.272Y62.977
X73.272Y61.477
X74.755Y44.55
X74.755Y43.05
X74.755Y41.55
X74.755Y34.15
X74.755Y32.65
X74.755Y31.15
X74.772Y64.477
X74.772Y62.977
X74.772Y61.477
X88.005Y44.55
X88.005Y43.05
X88.005Y41.55
X88.005Y34.15
X88.005Y32.65
X88.005Y31.15
X89.505Y44.55
X89.505Y43.05
X89.505Y41.55
X89.505Y34.15
X89.505Y32.65
X89.505Y31.15
X91.005Y44.55
X91.005Y43.05
X91.005Y41.55
X91.005Y34.15
X91.005Y32.65
X91.005Y31.15
T5
X41.0Y41.5
X41.0Y32.5
X45.0Y41.5
X45.0Y32.5
T6
X9.6Y10.55
X9.6Y2.65
X14.6Y10.55
X14.6Y2.65
X20.1Y10.55
X20.1Y2.65
X25.1Y10.55
X25.1Y2.65
X49.6Y10.55
X49.6Y2.65
X54.6Y10.55
X54.6Y2.65
X65.85Y10.55
X65.85Y2.65
X70.85Y10.55
X70.85Y2.65
X82.1Y10.55
X82.1Y2.65
X87.1Y10.55
X87.1Y2.65
M30
