%TF.GenerationSoftware,KiCad,Pcbnew,10.0.5*%
%TF.CreationDate,2026-09-28T21:52:01+03:00*%
%TF.ProjectId,ESC3Phase,45534333-5068-4617-9365-2e6b69636164,B*%
%TF.SameCoordinates,Original*%
%TF.FileFunction,Legend,Bot*%
%TF.FilePolarity,Positive*%
%FSLAX46Y46*%
G04 Gerber Fmt 4.6, Leading zero omitted, Abs format (unit mm)*
G04 Created by KiCad (PCBNEW 10.0.5) date 2026-09-28 21:52:01*
%MOMM*%
%LPD*%
G01*
G04 APERTURE LIST*
%ADD10C,0.150000*%
%ADD11C,0.200000*%
%ADD12C,0.250000*%
%ADD13C,0.000000*%
G04 APERTURE END LIST*
D10*
X23517857Y42792169D02*
X23517857Y43792169D01*
X23517857Y43792169D02*
X23279762Y43792169D01*
X23279762Y43792169D02*
X23136905Y43744550D01*
X23136905Y43744550D02*
X23041667Y43649312D01*
X23041667Y43649312D02*
X22994048Y43554074D01*
X22994048Y43554074D02*
X22946429Y43363598D01*
X22946429Y43363598D02*
X22946429Y43220741D01*
X22946429Y43220741D02*
X22994048Y43030265D01*
X22994048Y43030265D02*
X23041667Y42935027D01*
X23041667Y42935027D02*
X23136905Y42839788D01*
X23136905Y42839788D02*
X23279762Y42792169D01*
X23279762Y42792169D02*
X23517857Y42792169D01*
X22136905Y42839788D02*
X22232143Y42792169D01*
X22232143Y42792169D02*
X22422619Y42792169D01*
X22422619Y42792169D02*
X22517857Y42839788D01*
X22517857Y42839788D02*
X22565476Y42935027D01*
X22565476Y42935027D02*
X22565476Y43315979D01*
X22565476Y43315979D02*
X22517857Y43411217D01*
X22517857Y43411217D02*
X22422619Y43458836D01*
X22422619Y43458836D02*
X22232143Y43458836D01*
X22232143Y43458836D02*
X22136905Y43411217D01*
X22136905Y43411217D02*
X22089286Y43315979D01*
X22089286Y43315979D02*
X22089286Y43220741D01*
X22089286Y43220741D02*
X22565476Y43125503D01*
X21708333Y42839788D02*
X21613095Y42792169D01*
X21613095Y42792169D02*
X21422619Y42792169D01*
X21422619Y42792169D02*
X21327381Y42839788D01*
X21327381Y42839788D02*
X21279762Y42935027D01*
X21279762Y42935027D02*
X21279762Y42982646D01*
X21279762Y42982646D02*
X21327381Y43077884D01*
X21327381Y43077884D02*
X21422619Y43125503D01*
X21422619Y43125503D02*
X21565476Y43125503D01*
X21565476Y43125503D02*
X21660714Y43173122D01*
X21660714Y43173122D02*
X21708333Y43268360D01*
X21708333Y43268360D02*
X21708333Y43315979D01*
X21708333Y43315979D02*
X21660714Y43411217D01*
X21660714Y43411217D02*
X21565476Y43458836D01*
X21565476Y43458836D02*
X21422619Y43458836D01*
X21422619Y43458836D02*
X21327381Y43411217D01*
X20851190Y42792169D02*
X20851190Y43458836D01*
X20851190Y43792169D02*
X20898809Y43744550D01*
X20898809Y43744550D02*
X20851190Y43696931D01*
X20851190Y43696931D02*
X20803571Y43744550D01*
X20803571Y43744550D02*
X20851190Y43792169D01*
X20851190Y43792169D02*
X20851190Y43696931D01*
X19946429Y43458836D02*
X19946429Y42649312D01*
X19946429Y42649312D02*
X19994048Y42554074D01*
X19994048Y42554074D02*
X20041667Y42506455D01*
X20041667Y42506455D02*
X20136905Y42458836D01*
X20136905Y42458836D02*
X20279762Y42458836D01*
X20279762Y42458836D02*
X20375000Y42506455D01*
X19946429Y42839788D02*
X20041667Y42792169D01*
X20041667Y42792169D02*
X20232143Y42792169D01*
X20232143Y42792169D02*
X20327381Y42839788D01*
X20327381Y42839788D02*
X20375000Y42887408D01*
X20375000Y42887408D02*
X20422619Y42982646D01*
X20422619Y42982646D02*
X20422619Y43268360D01*
X20422619Y43268360D02*
X20375000Y43363598D01*
X20375000Y43363598D02*
X20327381Y43411217D01*
X20327381Y43411217D02*
X20232143Y43458836D01*
X20232143Y43458836D02*
X20041667Y43458836D01*
X20041667Y43458836D02*
X19946429Y43411217D01*
X19470238Y43458836D02*
X19470238Y42792169D01*
X19470238Y43363598D02*
X19422619Y43411217D01*
X19422619Y43411217D02*
X19327381Y43458836D01*
X19327381Y43458836D02*
X19184524Y43458836D01*
X19184524Y43458836D02*
X19089286Y43411217D01*
X19089286Y43411217D02*
X19041667Y43315979D01*
X19041667Y43315979D02*
X19041667Y42792169D01*
X18565476Y42887408D02*
X18517857Y42839788D01*
X18517857Y42839788D02*
X18565476Y42792169D01*
X18565476Y42792169D02*
X18613095Y42839788D01*
X18613095Y42839788D02*
X18565476Y42887408D01*
X18565476Y42887408D02*
X18565476Y42792169D01*
X18565476Y43411217D02*
X18517857Y43363598D01*
X18517857Y43363598D02*
X18565476Y43315979D01*
X18565476Y43315979D02*
X18613095Y43363598D01*
X18613095Y43363598D02*
X18565476Y43411217D01*
X18565476Y43411217D02*
X18565476Y43315979D01*
X17327381Y43315979D02*
X16994048Y43315979D01*
X16851191Y42792169D02*
X17327381Y42792169D01*
X17327381Y42792169D02*
X17327381Y43792169D01*
X17327381Y43792169D02*
X16851191Y43792169D01*
X16422619Y42792169D02*
X16422619Y43792169D01*
X16327381Y43173122D02*
X16041667Y42792169D01*
X16041667Y43458836D02*
X16422619Y43077884D01*
X15613095Y42792169D02*
X15613095Y43458836D01*
X15613095Y43268360D02*
X15565476Y43363598D01*
X15565476Y43363598D02*
X15517857Y43411217D01*
X15517857Y43411217D02*
X15422619Y43458836D01*
X15422619Y43458836D02*
X15327381Y43458836D01*
X14613095Y42839788D02*
X14708333Y42792169D01*
X14708333Y42792169D02*
X14898809Y42792169D01*
X14898809Y42792169D02*
X14994047Y42839788D01*
X14994047Y42839788D02*
X15041666Y42935027D01*
X15041666Y42935027D02*
X15041666Y43315979D01*
X15041666Y43315979D02*
X14994047Y43411217D01*
X14994047Y43411217D02*
X14898809Y43458836D01*
X14898809Y43458836D02*
X14708333Y43458836D01*
X14708333Y43458836D02*
X14613095Y43411217D01*
X14613095Y43411217D02*
X14565476Y43315979D01*
X14565476Y43315979D02*
X14565476Y43220741D01*
X14565476Y43220741D02*
X15041666Y43125503D01*
X14136904Y42792169D02*
X14136904Y43458836D01*
X14136904Y43363598D02*
X14089285Y43411217D01*
X14089285Y43411217D02*
X13994047Y43458836D01*
X13994047Y43458836D02*
X13851190Y43458836D01*
X13851190Y43458836D02*
X13755952Y43411217D01*
X13755952Y43411217D02*
X13708333Y43315979D01*
X13708333Y43315979D02*
X13708333Y42792169D01*
X13708333Y43315979D02*
X13660714Y43411217D01*
X13660714Y43411217D02*
X13565476Y43458836D01*
X13565476Y43458836D02*
X13422619Y43458836D01*
X13422619Y43458836D02*
X13327380Y43411217D01*
X13327380Y43411217D02*
X13279761Y43315979D01*
X13279761Y43315979D02*
X13279761Y42792169D01*
X12184523Y43792169D02*
X11613095Y43792169D01*
X11898809Y42792169D02*
X11898809Y43792169D01*
X10851190Y43458836D02*
X10851190Y42792169D01*
X11279761Y43458836D02*
X11279761Y42935027D01*
X11279761Y42935027D02*
X11232142Y42839788D01*
X11232142Y42839788D02*
X11136904Y42792169D01*
X11136904Y42792169D02*
X10994047Y42792169D01*
X10994047Y42792169D02*
X10898809Y42839788D01*
X10898809Y42839788D02*
X10851190Y42887408D01*
X10374999Y42792169D02*
X10374999Y43458836D01*
X10374999Y43268360D02*
X10327380Y43363598D01*
X10327380Y43363598D02*
X10279761Y43411217D01*
X10279761Y43411217D02*
X10184523Y43458836D01*
X10184523Y43458836D02*
X10089285Y43458836D01*
X9327380Y42792169D02*
X9327380Y43315979D01*
X9327380Y43315979D02*
X9374999Y43411217D01*
X9374999Y43411217D02*
X9470237Y43458836D01*
X9470237Y43458836D02*
X9660713Y43458836D01*
X9660713Y43458836D02*
X9755951Y43411217D01*
X9327380Y42839788D02*
X9422618Y42792169D01*
X9422618Y42792169D02*
X9660713Y42792169D01*
X9660713Y42792169D02*
X9755951Y42839788D01*
X9755951Y42839788D02*
X9803570Y42935027D01*
X9803570Y42935027D02*
X9803570Y43030265D01*
X9803570Y43030265D02*
X9755951Y43125503D01*
X9755951Y43125503D02*
X9660713Y43173122D01*
X9660713Y43173122D02*
X9422618Y43173122D01*
X9422618Y43173122D02*
X9327380Y43220741D01*
X8851189Y43458836D02*
X8851189Y42792169D01*
X8851189Y43363598D02*
X8803570Y43411217D01*
X8803570Y43411217D02*
X8708332Y43458836D01*
X8708332Y43458836D02*
X8565475Y43458836D01*
X8565475Y43458836D02*
X8470237Y43411217D01*
X8470237Y43411217D02*
X8422618Y43315979D01*
X8422618Y43315979D02*
X8422618Y42792169D01*
X6851189Y43315979D02*
X7184522Y43315979D01*
X7184522Y42792169D02*
X7184522Y43792169D01*
X7184522Y43792169D02*
X6708332Y43792169D01*
X6327379Y42792169D02*
X6327379Y43458836D01*
X6327379Y43792169D02*
X6374998Y43744550D01*
X6374998Y43744550D02*
X6327379Y43696931D01*
X6327379Y43696931D02*
X6279760Y43744550D01*
X6279760Y43744550D02*
X6327379Y43792169D01*
X6327379Y43792169D02*
X6327379Y43696931D01*
X5851189Y42792169D02*
X5851189Y43458836D01*
X5851189Y43268360D02*
X5803570Y43363598D01*
X5803570Y43363598D02*
X5755951Y43411217D01*
X5755951Y43411217D02*
X5660713Y43458836D01*
X5660713Y43458836D02*
X5565475Y43458836D01*
X4803570Y42792169D02*
X4803570Y43315979D01*
X4803570Y43315979D02*
X4851189Y43411217D01*
X4851189Y43411217D02*
X4946427Y43458836D01*
X4946427Y43458836D02*
X5136903Y43458836D01*
X5136903Y43458836D02*
X5232141Y43411217D01*
X4803570Y42839788D02*
X4898808Y42792169D01*
X4898808Y42792169D02*
X5136903Y42792169D01*
X5136903Y42792169D02*
X5232141Y42839788D01*
X5232141Y42839788D02*
X5279760Y42935027D01*
X5279760Y42935027D02*
X5279760Y43030265D01*
X5279760Y43030265D02*
X5232141Y43125503D01*
X5232141Y43125503D02*
X5136903Y43173122D01*
X5136903Y43173122D02*
X4898808Y43173122D01*
X4898808Y43173122D02*
X4803570Y43220741D01*
X4470236Y43458836D02*
X4089284Y43458836D01*
X4327379Y43792169D02*
X4327379Y42935027D01*
X4327379Y42935027D02*
X4279760Y42839788D01*
X4279760Y42839788D02*
X4184522Y42792169D01*
X4184522Y42792169D02*
X4089284Y42792169D01*
X19845238Y40759157D02*
X19845238Y41759157D01*
X19845238Y41759157D02*
X19511905Y41044872D01*
X19511905Y41044872D02*
X19178572Y41759157D01*
X19178572Y41759157D02*
X19178572Y40759157D01*
X18702381Y41282967D02*
X18369048Y41282967D01*
X18226191Y40759157D02*
X18702381Y40759157D01*
X18702381Y40759157D02*
X18702381Y41759157D01*
X18702381Y41759157D02*
X18226191Y41759157D01*
X17940476Y41759157D02*
X17369048Y41759157D01*
X17654762Y40759157D02*
X17654762Y41759157D01*
X17035714Y41759157D02*
X17035714Y40949634D01*
X17035714Y40949634D02*
X16988095Y40854396D01*
X16988095Y40854396D02*
X16940476Y40806776D01*
X16940476Y40806776D02*
X16845238Y40759157D01*
X16845238Y40759157D02*
X16654762Y40759157D01*
X16654762Y40759157D02*
X16559524Y40806776D01*
X16559524Y40806776D02*
X16511905Y40854396D01*
X16511905Y40854396D02*
X16464286Y40949634D01*
X16464286Y40949634D02*
X16464286Y41759157D01*
X15226190Y40759157D02*
X15226190Y41759157D01*
X15226190Y41759157D02*
X14845238Y41759157D01*
X14845238Y41759157D02*
X14750000Y41711538D01*
X14750000Y41711538D02*
X14702381Y41663919D01*
X14702381Y41663919D02*
X14654762Y41568681D01*
X14654762Y41568681D02*
X14654762Y41425824D01*
X14654762Y41425824D02*
X14702381Y41330586D01*
X14702381Y41330586D02*
X14750000Y41282967D01*
X14750000Y41282967D02*
X14845238Y41235348D01*
X14845238Y41235348D02*
X15226190Y41235348D01*
X14083333Y40759157D02*
X14178571Y40806776D01*
X14178571Y40806776D02*
X14226190Y40854396D01*
X14226190Y40854396D02*
X14273809Y40949634D01*
X14273809Y40949634D02*
X14273809Y41235348D01*
X14273809Y41235348D02*
X14226190Y41330586D01*
X14226190Y41330586D02*
X14178571Y41378205D01*
X14178571Y41378205D02*
X14083333Y41425824D01*
X14083333Y41425824D02*
X13940476Y41425824D01*
X13940476Y41425824D02*
X13845238Y41378205D01*
X13845238Y41378205D02*
X13797619Y41330586D01*
X13797619Y41330586D02*
X13750000Y41235348D01*
X13750000Y41235348D02*
X13750000Y40949634D01*
X13750000Y40949634D02*
X13797619Y40854396D01*
X13797619Y40854396D02*
X13845238Y40806776D01*
X13845238Y40806776D02*
X13940476Y40759157D01*
X13940476Y40759157D02*
X14083333Y40759157D01*
X13416666Y41425824D02*
X13226190Y40759157D01*
X13226190Y40759157D02*
X13035714Y41235348D01*
X13035714Y41235348D02*
X12845238Y40759157D01*
X12845238Y40759157D02*
X12654762Y41425824D01*
X11892857Y40806776D02*
X11988095Y40759157D01*
X11988095Y40759157D02*
X12178571Y40759157D01*
X12178571Y40759157D02*
X12273809Y40806776D01*
X12273809Y40806776D02*
X12321428Y40902015D01*
X12321428Y40902015D02*
X12321428Y41282967D01*
X12321428Y41282967D02*
X12273809Y41378205D01*
X12273809Y41378205D02*
X12178571Y41425824D01*
X12178571Y41425824D02*
X11988095Y41425824D01*
X11988095Y41425824D02*
X11892857Y41378205D01*
X11892857Y41378205D02*
X11845238Y41282967D01*
X11845238Y41282967D02*
X11845238Y41187729D01*
X11845238Y41187729D02*
X12321428Y41092491D01*
X11416666Y40759157D02*
X11416666Y41425824D01*
X11416666Y41235348D02*
X11369047Y41330586D01*
X11369047Y41330586D02*
X11321428Y41378205D01*
X11321428Y41378205D02*
X11226190Y41425824D01*
X11226190Y41425824D02*
X11130952Y41425824D01*
X10321428Y40759157D02*
X10797618Y40759157D01*
X10797618Y40759157D02*
X10797618Y41759157D01*
X9559523Y40759157D02*
X9559523Y41282967D01*
X9559523Y41282967D02*
X9607142Y41378205D01*
X9607142Y41378205D02*
X9702380Y41425824D01*
X9702380Y41425824D02*
X9892856Y41425824D01*
X9892856Y41425824D02*
X9988094Y41378205D01*
X9559523Y40806776D02*
X9654761Y40759157D01*
X9654761Y40759157D02*
X9892856Y40759157D01*
X9892856Y40759157D02*
X9988094Y40806776D01*
X9988094Y40806776D02*
X10035713Y40902015D01*
X10035713Y40902015D02*
X10035713Y40997253D01*
X10035713Y40997253D02*
X9988094Y41092491D01*
X9988094Y41092491D02*
X9892856Y41140110D01*
X9892856Y41140110D02*
X9654761Y41140110D01*
X9654761Y41140110D02*
X9559523Y41187729D01*
X9083332Y40759157D02*
X9083332Y41759157D01*
X9083332Y41378205D02*
X8988094Y41425824D01*
X8988094Y41425824D02*
X8797618Y41425824D01*
X8797618Y41425824D02*
X8702380Y41378205D01*
X8702380Y41378205D02*
X8654761Y41330586D01*
X8654761Y41330586D02*
X8607142Y41235348D01*
X8607142Y41235348D02*
X8607142Y40949634D01*
X8607142Y40949634D02*
X8654761Y40854396D01*
X8654761Y40854396D02*
X8702380Y40806776D01*
X8702380Y40806776D02*
X8797618Y40759157D01*
X8797618Y40759157D02*
X8988094Y40759157D01*
X8988094Y40759157D02*
X9083332Y40806776D01*
X21988095Y39392812D02*
X21988095Y38392812D01*
X21988095Y39345193D02*
X21892857Y39392812D01*
X21892857Y39392812D02*
X21702381Y39392812D01*
X21702381Y39392812D02*
X21607143Y39345193D01*
X21607143Y39345193D02*
X21559524Y39297574D01*
X21559524Y39297574D02*
X21511905Y39202336D01*
X21511905Y39202336D02*
X21511905Y38916622D01*
X21511905Y38916622D02*
X21559524Y38821384D01*
X21559524Y38821384D02*
X21607143Y38773764D01*
X21607143Y38773764D02*
X21702381Y38726145D01*
X21702381Y38726145D02*
X21892857Y38726145D01*
X21892857Y38726145D02*
X21988095Y38773764D01*
X20940476Y38726145D02*
X21035714Y38773764D01*
X21035714Y38773764D02*
X21083333Y38821384D01*
X21083333Y38821384D02*
X21130952Y38916622D01*
X21130952Y38916622D02*
X21130952Y39202336D01*
X21130952Y39202336D02*
X21083333Y39297574D01*
X21083333Y39297574D02*
X21035714Y39345193D01*
X21035714Y39345193D02*
X20940476Y39392812D01*
X20940476Y39392812D02*
X20797619Y39392812D01*
X20797619Y39392812D02*
X20702381Y39345193D01*
X20702381Y39345193D02*
X20654762Y39297574D01*
X20654762Y39297574D02*
X20607143Y39202336D01*
X20607143Y39202336D02*
X20607143Y38916622D01*
X20607143Y38916622D02*
X20654762Y38821384D01*
X20654762Y38821384D02*
X20702381Y38773764D01*
X20702381Y38773764D02*
X20797619Y38726145D01*
X20797619Y38726145D02*
X20940476Y38726145D01*
X20273809Y39392812D02*
X20083333Y38726145D01*
X20083333Y38726145D02*
X19892857Y39202336D01*
X19892857Y39202336D02*
X19702381Y38726145D01*
X19702381Y38726145D02*
X19511905Y39392812D01*
X18750000Y38773764D02*
X18845238Y38726145D01*
X18845238Y38726145D02*
X19035714Y38726145D01*
X19035714Y38726145D02*
X19130952Y38773764D01*
X19130952Y38773764D02*
X19178571Y38869003D01*
X19178571Y38869003D02*
X19178571Y39249955D01*
X19178571Y39249955D02*
X19130952Y39345193D01*
X19130952Y39345193D02*
X19035714Y39392812D01*
X19035714Y39392812D02*
X18845238Y39392812D01*
X18845238Y39392812D02*
X18750000Y39345193D01*
X18750000Y39345193D02*
X18702381Y39249955D01*
X18702381Y39249955D02*
X18702381Y39154717D01*
X18702381Y39154717D02*
X19178571Y39059479D01*
X18273809Y38726145D02*
X18273809Y39392812D01*
X18273809Y39202336D02*
X18226190Y39297574D01*
X18226190Y39297574D02*
X18178571Y39345193D01*
X18178571Y39345193D02*
X18083333Y39392812D01*
X18083333Y39392812D02*
X17988095Y39392812D01*
X17654761Y38821384D02*
X17607142Y38773764D01*
X17607142Y38773764D02*
X17654761Y38726145D01*
X17654761Y38726145D02*
X17702380Y38773764D01*
X17702380Y38773764D02*
X17654761Y38821384D01*
X17654761Y38821384D02*
X17654761Y38726145D01*
X16797619Y38773764D02*
X16892857Y38726145D01*
X16892857Y38726145D02*
X17083333Y38726145D01*
X17083333Y38726145D02*
X17178571Y38773764D01*
X17178571Y38773764D02*
X17226190Y38869003D01*
X17226190Y38869003D02*
X17226190Y39249955D01*
X17226190Y39249955D02*
X17178571Y39345193D01*
X17178571Y39345193D02*
X17083333Y39392812D01*
X17083333Y39392812D02*
X16892857Y39392812D01*
X16892857Y39392812D02*
X16797619Y39345193D01*
X16797619Y39345193D02*
X16750000Y39249955D01*
X16750000Y39249955D02*
X16750000Y39154717D01*
X16750000Y39154717D02*
X17226190Y39059479D01*
X15940476Y38773764D02*
X16035714Y38726145D01*
X16035714Y38726145D02*
X16226190Y38726145D01*
X16226190Y38726145D02*
X16321428Y38773764D01*
X16321428Y38773764D02*
X16369047Y38869003D01*
X16369047Y38869003D02*
X16369047Y39249955D01*
X16369047Y39249955D02*
X16321428Y39345193D01*
X16321428Y39345193D02*
X16226190Y39392812D01*
X16226190Y39392812D02*
X16035714Y39392812D01*
X16035714Y39392812D02*
X15940476Y39345193D01*
X15940476Y39345193D02*
X15892857Y39249955D01*
X15892857Y39249955D02*
X15892857Y39154717D01*
X15892857Y39154717D02*
X16369047Y39059479D01*
X15083333Y38773764D02*
X15178571Y38726145D01*
X15178571Y38726145D02*
X15369047Y38726145D01*
X15369047Y38726145D02*
X15464285Y38773764D01*
X15464285Y38773764D02*
X15511904Y38869003D01*
X15511904Y38869003D02*
X15511904Y39249955D01*
X15511904Y39249955D02*
X15464285Y39345193D01*
X15464285Y39345193D02*
X15369047Y39392812D01*
X15369047Y39392812D02*
X15178571Y39392812D01*
X15178571Y39392812D02*
X15083333Y39345193D01*
X15083333Y39345193D02*
X15035714Y39249955D01*
X15035714Y39249955D02*
X15035714Y39154717D01*
X15035714Y39154717D02*
X15511904Y39059479D01*
X14607142Y38821384D02*
X14559523Y38773764D01*
X14559523Y38773764D02*
X14607142Y38726145D01*
X14607142Y38726145D02*
X14654761Y38773764D01*
X14654761Y38773764D02*
X14607142Y38821384D01*
X14607142Y38821384D02*
X14607142Y38726145D01*
X13988095Y38726145D02*
X14083333Y38773764D01*
X14083333Y38773764D02*
X14130952Y38821384D01*
X14130952Y38821384D02*
X14178571Y38916622D01*
X14178571Y38916622D02*
X14178571Y39202336D01*
X14178571Y39202336D02*
X14130952Y39297574D01*
X14130952Y39297574D02*
X14083333Y39345193D01*
X14083333Y39345193D02*
X13988095Y39392812D01*
X13988095Y39392812D02*
X13845238Y39392812D01*
X13845238Y39392812D02*
X13750000Y39345193D01*
X13750000Y39345193D02*
X13702381Y39297574D01*
X13702381Y39297574D02*
X13654762Y39202336D01*
X13654762Y39202336D02*
X13654762Y38916622D01*
X13654762Y38916622D02*
X13702381Y38821384D01*
X13702381Y38821384D02*
X13750000Y38773764D01*
X13750000Y38773764D02*
X13845238Y38726145D01*
X13845238Y38726145D02*
X13988095Y38726145D01*
X12797619Y38726145D02*
X12797619Y39726145D01*
X12797619Y38773764D02*
X12892857Y38726145D01*
X12892857Y38726145D02*
X13083333Y38726145D01*
X13083333Y38726145D02*
X13178571Y38773764D01*
X13178571Y38773764D02*
X13226190Y38821384D01*
X13226190Y38821384D02*
X13273809Y38916622D01*
X13273809Y38916622D02*
X13273809Y39202336D01*
X13273809Y39202336D02*
X13226190Y39297574D01*
X13226190Y39297574D02*
X13178571Y39345193D01*
X13178571Y39345193D02*
X13083333Y39392812D01*
X13083333Y39392812D02*
X12892857Y39392812D01*
X12892857Y39392812D02*
X12797619Y39345193D01*
X12464285Y39392812D02*
X12083333Y39392812D01*
X12321428Y39726145D02*
X12321428Y38869003D01*
X12321428Y38869003D02*
X12273809Y38773764D01*
X12273809Y38773764D02*
X12178571Y38726145D01*
X12178571Y38726145D02*
X12083333Y38726145D01*
X11321428Y39392812D02*
X11321428Y38726145D01*
X11749999Y39392812D02*
X11749999Y38869003D01*
X11749999Y38869003D02*
X11702380Y38773764D01*
X11702380Y38773764D02*
X11607142Y38726145D01*
X11607142Y38726145D02*
X11464285Y38726145D01*
X11464285Y38726145D02*
X11369047Y38773764D01*
X11369047Y38773764D02*
X11321428Y38821384D01*
X10845237Y38821384D02*
X10797618Y38773764D01*
X10797618Y38773764D02*
X10845237Y38726145D01*
X10845237Y38726145D02*
X10892856Y38773764D01*
X10892856Y38773764D02*
X10845237Y38821384D01*
X10845237Y38821384D02*
X10845237Y38726145D01*
X9988095Y38773764D02*
X10083333Y38726145D01*
X10083333Y38726145D02*
X10273809Y38726145D01*
X10273809Y38726145D02*
X10369047Y38773764D01*
X10369047Y38773764D02*
X10416666Y38869003D01*
X10416666Y38869003D02*
X10416666Y39249955D01*
X10416666Y39249955D02*
X10369047Y39345193D01*
X10369047Y39345193D02*
X10273809Y39392812D01*
X10273809Y39392812D02*
X10083333Y39392812D01*
X10083333Y39392812D02*
X9988095Y39345193D01*
X9988095Y39345193D02*
X9940476Y39249955D01*
X9940476Y39249955D02*
X9940476Y39154717D01*
X9940476Y39154717D02*
X10416666Y39059479D01*
X9083333Y38726145D02*
X9083333Y39726145D01*
X9083333Y38773764D02*
X9178571Y38726145D01*
X9178571Y38726145D02*
X9369047Y38726145D01*
X9369047Y38726145D02*
X9464285Y38773764D01*
X9464285Y38773764D02*
X9511904Y38821384D01*
X9511904Y38821384D02*
X9559523Y38916622D01*
X9559523Y38916622D02*
X9559523Y39202336D01*
X9559523Y39202336D02*
X9511904Y39297574D01*
X9511904Y39297574D02*
X9464285Y39345193D01*
X9464285Y39345193D02*
X9369047Y39392812D01*
X9369047Y39392812D02*
X9178571Y39392812D01*
X9178571Y39392812D02*
X9083333Y39345193D01*
X8178571Y39392812D02*
X8178571Y38726145D01*
X8607142Y39392812D02*
X8607142Y38869003D01*
X8607142Y38869003D02*
X8559523Y38773764D01*
X8559523Y38773764D02*
X8464285Y38726145D01*
X8464285Y38726145D02*
X8321428Y38726145D01*
X8321428Y38726145D02*
X8226190Y38773764D01*
X8226190Y38773764D02*
X8178571Y38821384D01*
X7702380Y38821384D02*
X7654761Y38773764D01*
X7654761Y38773764D02*
X7702380Y38726145D01*
X7702380Y38726145D02*
X7749999Y38773764D01*
X7749999Y38773764D02*
X7702380Y38821384D01*
X7702380Y38821384D02*
X7702380Y38726145D01*
X7369047Y39392812D02*
X6988095Y39392812D01*
X7226190Y39726145D02*
X7226190Y38869003D01*
X7226190Y38869003D02*
X7178571Y38773764D01*
X7178571Y38773764D02*
X7083333Y38726145D01*
X7083333Y38726145D02*
X6988095Y38726145D01*
X6654761Y38726145D02*
X6654761Y39392812D01*
X6654761Y39202336D02*
X6607142Y39297574D01*
X6607142Y39297574D02*
X6559523Y39345193D01*
X6559523Y39345193D02*
X6464285Y39392812D01*
X6464285Y39392812D02*
X6369047Y39392812D01*
X28430460Y50991027D02*
X28430460Y50276742D01*
X28430460Y50276742D02*
X28478079Y50133885D01*
X28478079Y50133885D02*
X28573317Y50038646D01*
X28573317Y50038646D02*
X28716174Y49991027D01*
X28716174Y49991027D02*
X28811412Y49991027D01*
X27430460Y49991027D02*
X28001888Y49991027D01*
X27716174Y49991027D02*
X27716174Y50991027D01*
X27716174Y50991027D02*
X27811412Y50848170D01*
X27811412Y50848170D02*
X27906650Y50752932D01*
X27906650Y50752932D02*
X28001888Y50705313D01*
X26239983Y50991027D02*
X26239983Y50181504D01*
X26239983Y50181504D02*
X26192364Y50086266D01*
X26192364Y50086266D02*
X26144745Y50038646D01*
X26144745Y50038646D02*
X26049507Y49991027D01*
X26049507Y49991027D02*
X25859031Y49991027D01*
X25859031Y49991027D02*
X25763793Y50038646D01*
X25763793Y50038646D02*
X25716174Y50086266D01*
X25716174Y50086266D02*
X25668555Y50181504D01*
X25668555Y50181504D02*
X25668555Y50991027D01*
X25239983Y50276742D02*
X24763793Y50276742D01*
X25335221Y49991027D02*
X25001888Y50991027D01*
X25001888Y50991027D02*
X24668555Y49991027D01*
X23763793Y49991027D02*
X24097126Y50467218D01*
X24335221Y49991027D02*
X24335221Y50991027D01*
X24335221Y50991027D02*
X23954269Y50991027D01*
X23954269Y50991027D02*
X23859031Y50943408D01*
X23859031Y50943408D02*
X23811412Y50895789D01*
X23811412Y50895789D02*
X23763793Y50800551D01*
X23763793Y50800551D02*
X23763793Y50657694D01*
X23763793Y50657694D02*
X23811412Y50562456D01*
X23811412Y50562456D02*
X23859031Y50514837D01*
X23859031Y50514837D02*
X23954269Y50467218D01*
X23954269Y50467218D02*
X24335221Y50467218D01*
X23478078Y50991027D02*
X22906650Y50991027D01*
X23192364Y49991027D02*
X23192364Y50991027D01*
X22573316Y50086266D02*
X22525697Y50038646D01*
X22525697Y50038646D02*
X22573316Y49991027D01*
X22573316Y49991027D02*
X22620935Y50038646D01*
X22620935Y50038646D02*
X22573316Y50086266D01*
X22573316Y50086266D02*
X22573316Y49991027D01*
X22573316Y50610075D02*
X22525697Y50562456D01*
X22525697Y50562456D02*
X22573316Y50514837D01*
X22573316Y50514837D02*
X22620935Y50562456D01*
X22620935Y50562456D02*
X22573316Y50610075D01*
X22573316Y50610075D02*
X22573316Y50514837D01*
X20811412Y49991027D02*
X21382840Y49991027D01*
X21097126Y49991027D02*
X21097126Y50991027D01*
X21097126Y50991027D02*
X21192364Y50848170D01*
X21192364Y50848170D02*
X21287602Y50752932D01*
X21287602Y50752932D02*
X21382840Y50705313D01*
X20382840Y50514837D02*
X19620936Y50514837D01*
X19620936Y50229123D02*
X20382840Y50229123D01*
X19239983Y50991027D02*
X18620936Y50991027D01*
X18620936Y50991027D02*
X18954269Y50610075D01*
X18954269Y50610075D02*
X18811412Y50610075D01*
X18811412Y50610075D02*
X18716174Y50562456D01*
X18716174Y50562456D02*
X18668555Y50514837D01*
X18668555Y50514837D02*
X18620936Y50419599D01*
X18620936Y50419599D02*
X18620936Y50181504D01*
X18620936Y50181504D02*
X18668555Y50086266D01*
X18668555Y50086266D02*
X18716174Y50038646D01*
X18716174Y50038646D02*
X18811412Y49991027D01*
X18811412Y49991027D02*
X19097126Y49991027D01*
X19097126Y49991027D02*
X19192364Y50038646D01*
X19192364Y50038646D02*
X19239983Y50086266D01*
X18335221Y50991027D02*
X18001888Y49991027D01*
X18001888Y49991027D02*
X17668555Y50991027D01*
X17430459Y50991027D02*
X16811412Y50991027D01*
X16811412Y50991027D02*
X17144745Y50610075D01*
X17144745Y50610075D02*
X17001888Y50610075D01*
X17001888Y50610075D02*
X16906650Y50562456D01*
X16906650Y50562456D02*
X16859031Y50514837D01*
X16859031Y50514837D02*
X16811412Y50419599D01*
X16811412Y50419599D02*
X16811412Y50181504D01*
X16811412Y50181504D02*
X16859031Y50086266D01*
X16859031Y50086266D02*
X16906650Y50038646D01*
X16906650Y50038646D02*
X17001888Y49991027D01*
X17001888Y49991027D02*
X17287602Y49991027D01*
X17287602Y49991027D02*
X17382840Y50038646D01*
X17382840Y50038646D02*
X17430459Y50086266D01*
X15668554Y50895789D02*
X15620935Y50943408D01*
X15620935Y50943408D02*
X15525697Y50991027D01*
X15525697Y50991027D02*
X15287602Y50991027D01*
X15287602Y50991027D02*
X15192364Y50943408D01*
X15192364Y50943408D02*
X15144745Y50895789D01*
X15144745Y50895789D02*
X15097126Y50800551D01*
X15097126Y50800551D02*
X15097126Y50705313D01*
X15097126Y50705313D02*
X15144745Y50562456D01*
X15144745Y50562456D02*
X15716173Y49991027D01*
X15716173Y49991027D02*
X15097126Y49991027D01*
X14668554Y50514837D02*
X13906650Y50514837D01*
X13906650Y50229123D02*
X14668554Y50229123D01*
X13573316Y50991027D02*
X13001888Y50991027D01*
X13287602Y49991027D02*
X13287602Y50991027D01*
X12763792Y50991027D02*
X12097126Y49991027D01*
X12097126Y50991027D02*
X12763792Y49991027D01*
X11049506Y50991027D02*
X10430459Y50991027D01*
X10430459Y50991027D02*
X10763792Y50610075D01*
X10763792Y50610075D02*
X10620935Y50610075D01*
X10620935Y50610075D02*
X10525697Y50562456D01*
X10525697Y50562456D02*
X10478078Y50514837D01*
X10478078Y50514837D02*
X10430459Y50419599D01*
X10430459Y50419599D02*
X10430459Y50181504D01*
X10430459Y50181504D02*
X10478078Y50086266D01*
X10478078Y50086266D02*
X10525697Y50038646D01*
X10525697Y50038646D02*
X10620935Y49991027D01*
X10620935Y49991027D02*
X10906649Y49991027D01*
X10906649Y49991027D02*
X11001887Y50038646D01*
X11001887Y50038646D02*
X11049506Y50086266D01*
X10001887Y50514837D02*
X9239983Y50514837D01*
X9239983Y50229123D02*
X10001887Y50229123D01*
X8192364Y49991027D02*
X8525697Y50467218D01*
X8763792Y49991027D02*
X8763792Y50991027D01*
X8763792Y50991027D02*
X8382840Y50991027D01*
X8382840Y50991027D02*
X8287602Y50943408D01*
X8287602Y50943408D02*
X8239983Y50895789D01*
X8239983Y50895789D02*
X8192364Y50800551D01*
X8192364Y50800551D02*
X8192364Y50657694D01*
X8192364Y50657694D02*
X8239983Y50562456D01*
X8239983Y50562456D02*
X8287602Y50514837D01*
X8287602Y50514837D02*
X8382840Y50467218D01*
X8382840Y50467218D02*
X8763792Y50467218D01*
X7859030Y50991027D02*
X7192364Y49991027D01*
X7192364Y50991027D02*
X7859030Y49991027D01*
X5620935Y50657694D02*
X5620935Y49991027D01*
X5859030Y51038646D02*
X6097125Y50324361D01*
X6097125Y50324361D02*
X5478078Y50324361D01*
X5097125Y50514837D02*
X4335221Y50514837D01*
X4335221Y50229123D02*
X5097125Y50229123D01*
X3335221Y50943408D02*
X3430459Y50991027D01*
X3430459Y50991027D02*
X3573316Y50991027D01*
X3573316Y50991027D02*
X3716173Y50943408D01*
X3716173Y50943408D02*
X3811411Y50848170D01*
X3811411Y50848170D02*
X3859030Y50752932D01*
X3859030Y50752932D02*
X3906649Y50562456D01*
X3906649Y50562456D02*
X3906649Y50419599D01*
X3906649Y50419599D02*
X3859030Y50229123D01*
X3859030Y50229123D02*
X3811411Y50133885D01*
X3811411Y50133885D02*
X3716173Y50038646D01*
X3716173Y50038646D02*
X3573316Y49991027D01*
X3573316Y49991027D02*
X3478078Y49991027D01*
X3478078Y49991027D02*
X3335221Y50038646D01*
X3335221Y50038646D02*
X3287602Y50086266D01*
X3287602Y50086266D02*
X3287602Y50419599D01*
X3287602Y50419599D02*
X3478078Y50419599D01*
X2859030Y49991027D02*
X2859030Y50991027D01*
X2859030Y50991027D02*
X2287602Y49991027D01*
X2287602Y49991027D02*
X2287602Y50991027D01*
X1811411Y49991027D02*
X1811411Y50991027D01*
X1811411Y50991027D02*
X1573316Y50991027D01*
X1573316Y50991027D02*
X1430459Y50943408D01*
X1430459Y50943408D02*
X1335221Y50848170D01*
X1335221Y50848170D02*
X1287602Y50752932D01*
X1287602Y50752932D02*
X1239983Y50562456D01*
X1239983Y50562456D02*
X1239983Y50419599D01*
X1239983Y50419599D02*
X1287602Y50229123D01*
X1287602Y50229123D02*
X1335221Y50133885D01*
X1335221Y50133885D02*
X1430459Y50038646D01*
X1430459Y50038646D02*
X1573316Y49991027D01*
X1573316Y49991027D02*
X1811411Y49991027D01*
X31996180Y52909269D02*
X31996180Y52194984D01*
X31996180Y52194984D02*
X32043799Y52052127D01*
X32043799Y52052127D02*
X32139037Y51956888D01*
X32139037Y51956888D02*
X32281894Y51909269D01*
X32281894Y51909269D02*
X32377132Y51909269D01*
X31377132Y52480698D02*
X31472370Y52528317D01*
X31472370Y52528317D02*
X31519989Y52575936D01*
X31519989Y52575936D02*
X31567608Y52671174D01*
X31567608Y52671174D02*
X31567608Y52718793D01*
X31567608Y52718793D02*
X31519989Y52814031D01*
X31519989Y52814031D02*
X31472370Y52861650D01*
X31472370Y52861650D02*
X31377132Y52909269D01*
X31377132Y52909269D02*
X31186656Y52909269D01*
X31186656Y52909269D02*
X31091418Y52861650D01*
X31091418Y52861650D02*
X31043799Y52814031D01*
X31043799Y52814031D02*
X30996180Y52718793D01*
X30996180Y52718793D02*
X30996180Y52671174D01*
X30996180Y52671174D02*
X31043799Y52575936D01*
X31043799Y52575936D02*
X31091418Y52528317D01*
X31091418Y52528317D02*
X31186656Y52480698D01*
X31186656Y52480698D02*
X31377132Y52480698D01*
X31377132Y52480698D02*
X31472370Y52433079D01*
X31472370Y52433079D02*
X31519989Y52385460D01*
X31519989Y52385460D02*
X31567608Y52290222D01*
X31567608Y52290222D02*
X31567608Y52099746D01*
X31567608Y52099746D02*
X31519989Y52004508D01*
X31519989Y52004508D02*
X31472370Y51956888D01*
X31472370Y51956888D02*
X31377132Y51909269D01*
X31377132Y51909269D02*
X31186656Y51909269D01*
X31186656Y51909269D02*
X31091418Y51956888D01*
X31091418Y51956888D02*
X31043799Y52004508D01*
X31043799Y52004508D02*
X30996180Y52099746D01*
X30996180Y52099746D02*
X30996180Y52290222D01*
X30996180Y52290222D02*
X31043799Y52385460D01*
X31043799Y52385460D02*
X31091418Y52433079D01*
X31091418Y52433079D02*
X31186656Y52480698D01*
X29234275Y52004508D02*
X29281894Y51956888D01*
X29281894Y51956888D02*
X29424751Y51909269D01*
X29424751Y51909269D02*
X29519989Y51909269D01*
X29519989Y51909269D02*
X29662846Y51956888D01*
X29662846Y51956888D02*
X29758084Y52052127D01*
X29758084Y52052127D02*
X29805703Y52147365D01*
X29805703Y52147365D02*
X29853322Y52337841D01*
X29853322Y52337841D02*
X29853322Y52480698D01*
X29853322Y52480698D02*
X29805703Y52671174D01*
X29805703Y52671174D02*
X29758084Y52766412D01*
X29758084Y52766412D02*
X29662846Y52861650D01*
X29662846Y52861650D02*
X29519989Y52909269D01*
X29519989Y52909269D02*
X29424751Y52909269D01*
X29424751Y52909269D02*
X29281894Y52861650D01*
X29281894Y52861650D02*
X29234275Y52814031D01*
X28853322Y52194984D02*
X28377132Y52194984D01*
X28948560Y51909269D02*
X28615227Y52909269D01*
X28615227Y52909269D02*
X28281894Y51909269D01*
X27948560Y51909269D02*
X27948560Y52909269D01*
X27948560Y52909269D02*
X27377132Y51909269D01*
X27377132Y51909269D02*
X27377132Y52909269D01*
X26900941Y52004508D02*
X26853322Y51956888D01*
X26853322Y51956888D02*
X26900941Y51909269D01*
X26900941Y51909269D02*
X26948560Y51956888D01*
X26948560Y51956888D02*
X26900941Y52004508D01*
X26900941Y52004508D02*
X26900941Y51909269D01*
X26900941Y52528317D02*
X26853322Y52480698D01*
X26853322Y52480698D02*
X26900941Y52433079D01*
X26900941Y52433079D02*
X26948560Y52480698D01*
X26948560Y52480698D02*
X26900941Y52528317D01*
X26900941Y52528317D02*
X26900941Y52433079D01*
X25139037Y51909269D02*
X25710465Y51909269D01*
X25424751Y51909269D02*
X25424751Y52909269D01*
X25424751Y52909269D02*
X25519989Y52766412D01*
X25519989Y52766412D02*
X25615227Y52671174D01*
X25615227Y52671174D02*
X25710465Y52623555D01*
X24710465Y52433079D02*
X23948561Y52433079D01*
X23948561Y52147365D02*
X24710465Y52147365D01*
X22900942Y52004508D02*
X22948561Y51956888D01*
X22948561Y51956888D02*
X23091418Y51909269D01*
X23091418Y51909269D02*
X23186656Y51909269D01*
X23186656Y51909269D02*
X23329513Y51956888D01*
X23329513Y51956888D02*
X23424751Y52052127D01*
X23424751Y52052127D02*
X23472370Y52147365D01*
X23472370Y52147365D02*
X23519989Y52337841D01*
X23519989Y52337841D02*
X23519989Y52480698D01*
X23519989Y52480698D02*
X23472370Y52671174D01*
X23472370Y52671174D02*
X23424751Y52766412D01*
X23424751Y52766412D02*
X23329513Y52861650D01*
X23329513Y52861650D02*
X23186656Y52909269D01*
X23186656Y52909269D02*
X23091418Y52909269D01*
X23091418Y52909269D02*
X22948561Y52861650D01*
X22948561Y52861650D02*
X22900942Y52814031D01*
X22519989Y52194984D02*
X22043799Y52194984D01*
X22615227Y51909269D02*
X22281894Y52909269D01*
X22281894Y52909269D02*
X21948561Y51909269D01*
X21615227Y51909269D02*
X21615227Y52909269D01*
X21615227Y52909269D02*
X21043799Y51909269D01*
X21043799Y51909269D02*
X21043799Y52909269D01*
X20567608Y51909269D02*
X20567608Y52909269D01*
X20567608Y52433079D02*
X19996180Y52433079D01*
X19996180Y51909269D02*
X19996180Y52909269D01*
X18805703Y52814031D02*
X18758084Y52861650D01*
X18758084Y52861650D02*
X18662846Y52909269D01*
X18662846Y52909269D02*
X18424751Y52909269D01*
X18424751Y52909269D02*
X18329513Y52861650D01*
X18329513Y52861650D02*
X18281894Y52814031D01*
X18281894Y52814031D02*
X18234275Y52718793D01*
X18234275Y52718793D02*
X18234275Y52623555D01*
X18234275Y52623555D02*
X18281894Y52480698D01*
X18281894Y52480698D02*
X18853322Y51909269D01*
X18853322Y51909269D02*
X18234275Y51909269D01*
X17805703Y52433079D02*
X17043799Y52433079D01*
X17043799Y52147365D02*
X17805703Y52147365D01*
X15996180Y52004508D02*
X16043799Y51956888D01*
X16043799Y51956888D02*
X16186656Y51909269D01*
X16186656Y51909269D02*
X16281894Y51909269D01*
X16281894Y51909269D02*
X16424751Y51956888D01*
X16424751Y51956888D02*
X16519989Y52052127D01*
X16519989Y52052127D02*
X16567608Y52147365D01*
X16567608Y52147365D02*
X16615227Y52337841D01*
X16615227Y52337841D02*
X16615227Y52480698D01*
X16615227Y52480698D02*
X16567608Y52671174D01*
X16567608Y52671174D02*
X16519989Y52766412D01*
X16519989Y52766412D02*
X16424751Y52861650D01*
X16424751Y52861650D02*
X16281894Y52909269D01*
X16281894Y52909269D02*
X16186656Y52909269D01*
X16186656Y52909269D02*
X16043799Y52861650D01*
X16043799Y52861650D02*
X15996180Y52814031D01*
X15615227Y52194984D02*
X15139037Y52194984D01*
X15710465Y51909269D02*
X15377132Y52909269D01*
X15377132Y52909269D02*
X15043799Y51909269D01*
X14710465Y51909269D02*
X14710465Y52909269D01*
X14710465Y52909269D02*
X14139037Y51909269D01*
X14139037Y51909269D02*
X14139037Y52909269D01*
X13186656Y51909269D02*
X13662846Y51909269D01*
X13662846Y51909269D02*
X13662846Y52909269D01*
X12186655Y52909269D02*
X11567608Y52909269D01*
X11567608Y52909269D02*
X11900941Y52528317D01*
X11900941Y52528317D02*
X11758084Y52528317D01*
X11758084Y52528317D02*
X11662846Y52480698D01*
X11662846Y52480698D02*
X11615227Y52433079D01*
X11615227Y52433079D02*
X11567608Y52337841D01*
X11567608Y52337841D02*
X11567608Y52099746D01*
X11567608Y52099746D02*
X11615227Y52004508D01*
X11615227Y52004508D02*
X11662846Y51956888D01*
X11662846Y51956888D02*
X11758084Y51909269D01*
X11758084Y51909269D02*
X12043798Y51909269D01*
X12043798Y51909269D02*
X12139036Y51956888D01*
X12139036Y51956888D02*
X12186655Y52004508D01*
X11139036Y52433079D02*
X10377132Y52433079D01*
X10377132Y52147365D02*
X11139036Y52147365D01*
X9377132Y52861650D02*
X9472370Y52909269D01*
X9472370Y52909269D02*
X9615227Y52909269D01*
X9615227Y52909269D02*
X9758084Y52861650D01*
X9758084Y52861650D02*
X9853322Y52766412D01*
X9853322Y52766412D02*
X9900941Y52671174D01*
X9900941Y52671174D02*
X9948560Y52480698D01*
X9948560Y52480698D02*
X9948560Y52337841D01*
X9948560Y52337841D02*
X9900941Y52147365D01*
X9900941Y52147365D02*
X9853322Y52052127D01*
X9853322Y52052127D02*
X9758084Y51956888D01*
X9758084Y51956888D02*
X9615227Y51909269D01*
X9615227Y51909269D02*
X9519989Y51909269D01*
X9519989Y51909269D02*
X9377132Y51956888D01*
X9377132Y51956888D02*
X9329513Y52004508D01*
X9329513Y52004508D02*
X9329513Y52337841D01*
X9329513Y52337841D02*
X9519989Y52337841D01*
X8900941Y51909269D02*
X8900941Y52909269D01*
X8900941Y52909269D02*
X8329513Y51909269D01*
X8329513Y51909269D02*
X8329513Y52909269D01*
X7853322Y51909269D02*
X7853322Y52909269D01*
X7853322Y52909269D02*
X7615227Y52909269D01*
X7615227Y52909269D02*
X7472370Y52861650D01*
X7472370Y52861650D02*
X7377132Y52766412D01*
X7377132Y52766412D02*
X7329513Y52671174D01*
X7329513Y52671174D02*
X7281894Y52480698D01*
X7281894Y52480698D02*
X7281894Y52337841D01*
X7281894Y52337841D02*
X7329513Y52147365D01*
X7329513Y52147365D02*
X7377132Y52052127D01*
X7377132Y52052127D02*
X7472370Y51956888D01*
X7472370Y51956888D02*
X7615227Y51909269D01*
X7615227Y51909269D02*
X7853322Y51909269D01*
X5662846Y52575936D02*
X5662846Y51909269D01*
X5900941Y52956888D02*
X6139036Y52242603D01*
X6139036Y52242603D02*
X5519989Y52242603D01*
X5139036Y52433079D02*
X4377132Y52433079D01*
X4377132Y52147365D02*
X5139036Y52147365D01*
X3377132Y52861650D02*
X3472370Y52909269D01*
X3472370Y52909269D02*
X3615227Y52909269D01*
X3615227Y52909269D02*
X3758084Y52861650D01*
X3758084Y52861650D02*
X3853322Y52766412D01*
X3853322Y52766412D02*
X3900941Y52671174D01*
X3900941Y52671174D02*
X3948560Y52480698D01*
X3948560Y52480698D02*
X3948560Y52337841D01*
X3948560Y52337841D02*
X3900941Y52147365D01*
X3900941Y52147365D02*
X3853322Y52052127D01*
X3853322Y52052127D02*
X3758084Y51956888D01*
X3758084Y51956888D02*
X3615227Y51909269D01*
X3615227Y51909269D02*
X3519989Y51909269D01*
X3519989Y51909269D02*
X3377132Y51956888D01*
X3377132Y51956888D02*
X3329513Y52004508D01*
X3329513Y52004508D02*
X3329513Y52337841D01*
X3329513Y52337841D02*
X3519989Y52337841D01*
X2900941Y51909269D02*
X2900941Y52909269D01*
X2900941Y52909269D02*
X2329513Y51909269D01*
X2329513Y51909269D02*
X2329513Y52909269D01*
X1853322Y51909269D02*
X1853322Y52909269D01*
X1853322Y52909269D02*
X1615227Y52909269D01*
X1615227Y52909269D02*
X1472370Y52861650D01*
X1472370Y52861650D02*
X1377132Y52766412D01*
X1377132Y52766412D02*
X1329513Y52671174D01*
X1329513Y52671174D02*
X1281894Y52480698D01*
X1281894Y52480698D02*
X1281894Y52337841D01*
X1281894Y52337841D02*
X1329513Y52147365D01*
X1329513Y52147365D02*
X1377132Y52052127D01*
X1377132Y52052127D02*
X1472370Y51956888D01*
X1472370Y51956888D02*
X1615227Y51909269D01*
X1615227Y51909269D02*
X1853322Y51909269D01*
X31108101Y37291190D02*
X31108101Y36481666D01*
X31108101Y36481666D02*
X31155720Y36386428D01*
X31155720Y36386428D02*
X31203339Y36338809D01*
X31203339Y36338809D02*
X31298577Y36291190D01*
X31298577Y36291190D02*
X31441434Y36291190D01*
X31441434Y36291190D02*
X31536672Y36338809D01*
X31108101Y36672142D02*
X31203339Y36624523D01*
X31203339Y36624523D02*
X31393815Y36624523D01*
X31393815Y36624523D02*
X31489053Y36672142D01*
X31489053Y36672142D02*
X31536672Y36719762D01*
X31536672Y36719762D02*
X31584291Y36815000D01*
X31584291Y36815000D02*
X31584291Y37100714D01*
X31584291Y37100714D02*
X31536672Y37195952D01*
X31536672Y37195952D02*
X31489053Y37243571D01*
X31489053Y37243571D02*
X31393815Y37291190D01*
X31393815Y37291190D02*
X31203339Y37291190D01*
X31203339Y37291190D02*
X31108101Y37243571D01*
X30631910Y36624523D02*
X30631910Y37291190D01*
X30631910Y37624523D02*
X30679529Y37576904D01*
X30679529Y37576904D02*
X30631910Y37529285D01*
X30631910Y37529285D02*
X30584291Y37576904D01*
X30584291Y37576904D02*
X30631910Y37624523D01*
X30631910Y37624523D02*
X30631910Y37529285D01*
X30298577Y37291190D02*
X29917625Y37291190D01*
X30155720Y37624523D02*
X30155720Y36767381D01*
X30155720Y36767381D02*
X30108101Y36672142D01*
X30108101Y36672142D02*
X30012863Y36624523D01*
X30012863Y36624523D02*
X29917625Y36624523D01*
X29584291Y36624523D02*
X29584291Y37624523D01*
X29155720Y36624523D02*
X29155720Y37148333D01*
X29155720Y37148333D02*
X29203339Y37243571D01*
X29203339Y37243571D02*
X29298577Y37291190D01*
X29298577Y37291190D02*
X29441434Y37291190D01*
X29441434Y37291190D02*
X29536672Y37243571D01*
X29536672Y37243571D02*
X29584291Y37195952D01*
X28250958Y37291190D02*
X28250958Y36624523D01*
X28679529Y37291190D02*
X28679529Y36767381D01*
X28679529Y36767381D02*
X28631910Y36672142D01*
X28631910Y36672142D02*
X28536672Y36624523D01*
X28536672Y36624523D02*
X28393815Y36624523D01*
X28393815Y36624523D02*
X28298577Y36672142D01*
X28298577Y36672142D02*
X28250958Y36719762D01*
X27774767Y36624523D02*
X27774767Y37624523D01*
X27774767Y37243571D02*
X27679529Y37291190D01*
X27679529Y37291190D02*
X27489053Y37291190D01*
X27489053Y37291190D02*
X27393815Y37243571D01*
X27393815Y37243571D02*
X27346196Y37195952D01*
X27346196Y37195952D02*
X27298577Y37100714D01*
X27298577Y37100714D02*
X27298577Y36815000D01*
X27298577Y36815000D02*
X27346196Y36719762D01*
X27346196Y36719762D02*
X27393815Y36672142D01*
X27393815Y36672142D02*
X27489053Y36624523D01*
X27489053Y36624523D02*
X27679529Y36624523D01*
X27679529Y36624523D02*
X27774767Y36672142D01*
X26870005Y36719762D02*
X26822386Y36672142D01*
X26822386Y36672142D02*
X26870005Y36624523D01*
X26870005Y36624523D02*
X26917624Y36672142D01*
X26917624Y36672142D02*
X26870005Y36719762D01*
X26870005Y36719762D02*
X26870005Y36624523D01*
X25965244Y36672142D02*
X26060482Y36624523D01*
X26060482Y36624523D02*
X26250958Y36624523D01*
X26250958Y36624523D02*
X26346196Y36672142D01*
X26346196Y36672142D02*
X26393815Y36719762D01*
X26393815Y36719762D02*
X26441434Y36815000D01*
X26441434Y36815000D02*
X26441434Y37100714D01*
X26441434Y37100714D02*
X26393815Y37195952D01*
X26393815Y37195952D02*
X26346196Y37243571D01*
X26346196Y37243571D02*
X26250958Y37291190D01*
X26250958Y37291190D02*
X26060482Y37291190D01*
X26060482Y37291190D02*
X25965244Y37243571D01*
X25393815Y36624523D02*
X25489053Y36672142D01*
X25489053Y36672142D02*
X25536672Y36719762D01*
X25536672Y36719762D02*
X25584291Y36815000D01*
X25584291Y36815000D02*
X25584291Y37100714D01*
X25584291Y37100714D02*
X25536672Y37195952D01*
X25536672Y37195952D02*
X25489053Y37243571D01*
X25489053Y37243571D02*
X25393815Y37291190D01*
X25393815Y37291190D02*
X25250958Y37291190D01*
X25250958Y37291190D02*
X25155720Y37243571D01*
X25155720Y37243571D02*
X25108101Y37195952D01*
X25108101Y37195952D02*
X25060482Y37100714D01*
X25060482Y37100714D02*
X25060482Y36815000D01*
X25060482Y36815000D02*
X25108101Y36719762D01*
X25108101Y36719762D02*
X25155720Y36672142D01*
X25155720Y36672142D02*
X25250958Y36624523D01*
X25250958Y36624523D02*
X25393815Y36624523D01*
X24631910Y36624523D02*
X24631910Y37291190D01*
X24631910Y37195952D02*
X24584291Y37243571D01*
X24584291Y37243571D02*
X24489053Y37291190D01*
X24489053Y37291190D02*
X24346196Y37291190D01*
X24346196Y37291190D02*
X24250958Y37243571D01*
X24250958Y37243571D02*
X24203339Y37148333D01*
X24203339Y37148333D02*
X24203339Y36624523D01*
X24203339Y37148333D02*
X24155720Y37243571D01*
X24155720Y37243571D02*
X24060482Y37291190D01*
X24060482Y37291190D02*
X23917625Y37291190D01*
X23917625Y37291190D02*
X23822386Y37243571D01*
X23822386Y37243571D02*
X23774767Y37148333D01*
X23774767Y37148333D02*
X23774767Y36624523D01*
X22584292Y37672142D02*
X23441434Y36386428D01*
X22108101Y36624523D02*
X22203339Y36672142D01*
X22203339Y36672142D02*
X22250958Y36719762D01*
X22250958Y36719762D02*
X22298577Y36815000D01*
X22298577Y36815000D02*
X22298577Y37100714D01*
X22298577Y37100714D02*
X22250958Y37195952D01*
X22250958Y37195952D02*
X22203339Y37243571D01*
X22203339Y37243571D02*
X22108101Y37291190D01*
X22108101Y37291190D02*
X21965244Y37291190D01*
X21965244Y37291190D02*
X21870006Y37243571D01*
X21870006Y37243571D02*
X21822387Y37195952D01*
X21822387Y37195952D02*
X21774768Y37100714D01*
X21774768Y37100714D02*
X21774768Y36815000D01*
X21774768Y36815000D02*
X21822387Y36719762D01*
X21822387Y36719762D02*
X21870006Y36672142D01*
X21870006Y36672142D02*
X21965244Y36624523D01*
X21965244Y36624523D02*
X22108101Y36624523D01*
X20917625Y36624523D02*
X20917625Y37624523D01*
X20917625Y36672142D02*
X21012863Y36624523D01*
X21012863Y36624523D02*
X21203339Y36624523D01*
X21203339Y36624523D02*
X21298577Y36672142D01*
X21298577Y36672142D02*
X21346196Y36719762D01*
X21346196Y36719762D02*
X21393815Y36815000D01*
X21393815Y36815000D02*
X21393815Y37100714D01*
X21393815Y37100714D02*
X21346196Y37195952D01*
X21346196Y37195952D02*
X21298577Y37243571D01*
X21298577Y37243571D02*
X21203339Y37291190D01*
X21203339Y37291190D02*
X21012863Y37291190D01*
X21012863Y37291190D02*
X20917625Y37243571D01*
X20584291Y37291190D02*
X20203339Y37291190D01*
X20441434Y37624523D02*
X20441434Y36767381D01*
X20441434Y36767381D02*
X20393815Y36672142D01*
X20393815Y36672142D02*
X20298577Y36624523D01*
X20298577Y36624523D02*
X20203339Y36624523D01*
X19441434Y37291190D02*
X19441434Y36624523D01*
X19870005Y37291190D02*
X19870005Y36767381D01*
X19870005Y36767381D02*
X19822386Y36672142D01*
X19822386Y36672142D02*
X19727148Y36624523D01*
X19727148Y36624523D02*
X19584291Y36624523D01*
X19584291Y36624523D02*
X19489053Y36672142D01*
X19489053Y36672142D02*
X19441434Y36719762D01*
D11*
X22503570Y44838752D02*
X22903570Y45410180D01*
X23189284Y44838752D02*
X23189284Y46038752D01*
X23189284Y46038752D02*
X22732141Y46038752D01*
X22732141Y46038752D02*
X22617856Y45981609D01*
X22617856Y45981609D02*
X22560713Y45924466D01*
X22560713Y45924466D02*
X22503570Y45810180D01*
X22503570Y45810180D02*
X22503570Y45638752D01*
X22503570Y45638752D02*
X22560713Y45524466D01*
X22560713Y45524466D02*
X22617856Y45467323D01*
X22617856Y45467323D02*
X22732141Y45410180D01*
X22732141Y45410180D02*
X23189284Y45410180D01*
X21532141Y44895894D02*
X21646427Y44838752D01*
X21646427Y44838752D02*
X21874999Y44838752D01*
X21874999Y44838752D02*
X21989284Y44895894D01*
X21989284Y44895894D02*
X22046427Y45010180D01*
X22046427Y45010180D02*
X22046427Y45467323D01*
X22046427Y45467323D02*
X21989284Y45581609D01*
X21989284Y45581609D02*
X21874999Y45638752D01*
X21874999Y45638752D02*
X21646427Y45638752D01*
X21646427Y45638752D02*
X21532141Y45581609D01*
X21532141Y45581609D02*
X21474999Y45467323D01*
X21474999Y45467323D02*
X21474999Y45353037D01*
X21474999Y45353037D02*
X22046427Y45238752D01*
X21074999Y45638752D02*
X20789285Y44838752D01*
X20789285Y44838752D02*
X20503570Y45638752D01*
X18732141Y45467323D02*
X18560713Y45410180D01*
X18560713Y45410180D02*
X18503570Y45353037D01*
X18503570Y45353037D02*
X18446427Y45238752D01*
X18446427Y45238752D02*
X18446427Y45067323D01*
X18446427Y45067323D02*
X18503570Y44953037D01*
X18503570Y44953037D02*
X18560713Y44895894D01*
X18560713Y44895894D02*
X18674998Y44838752D01*
X18674998Y44838752D02*
X19132141Y44838752D01*
X19132141Y44838752D02*
X19132141Y46038752D01*
X19132141Y46038752D02*
X18732141Y46038752D01*
X18732141Y46038752D02*
X18617856Y45981609D01*
X18617856Y45981609D02*
X18560713Y45924466D01*
X18560713Y45924466D02*
X18503570Y45810180D01*
X18503570Y45810180D02*
X18503570Y45695894D01*
X18503570Y45695894D02*
X18560713Y45581609D01*
X18560713Y45581609D02*
X18617856Y45524466D01*
X18617856Y45524466D02*
X18732141Y45467323D01*
X18732141Y45467323D02*
X19132141Y45467323D01*
X16160712Y45924466D02*
X16103569Y45981609D01*
X16103569Y45981609D02*
X15989284Y46038752D01*
X15989284Y46038752D02*
X15703569Y46038752D01*
X15703569Y46038752D02*
X15589284Y45981609D01*
X15589284Y45981609D02*
X15532141Y45924466D01*
X15532141Y45924466D02*
X15474998Y45810180D01*
X15474998Y45810180D02*
X15474998Y45695894D01*
X15474998Y45695894D02*
X15532141Y45524466D01*
X15532141Y45524466D02*
X16217855Y44838752D01*
X16217855Y44838752D02*
X15474998Y44838752D01*
X14732141Y46038752D02*
X14617855Y46038752D01*
X14617855Y46038752D02*
X14503569Y45981609D01*
X14503569Y45981609D02*
X14446427Y45924466D01*
X14446427Y45924466D02*
X14389284Y45810180D01*
X14389284Y45810180D02*
X14332141Y45581609D01*
X14332141Y45581609D02*
X14332141Y45295894D01*
X14332141Y45295894D02*
X14389284Y45067323D01*
X14389284Y45067323D02*
X14446427Y44953037D01*
X14446427Y44953037D02*
X14503569Y44895894D01*
X14503569Y44895894D02*
X14617855Y44838752D01*
X14617855Y44838752D02*
X14732141Y44838752D01*
X14732141Y44838752D02*
X14846427Y44895894D01*
X14846427Y44895894D02*
X14903569Y44953037D01*
X14903569Y44953037D02*
X14960712Y45067323D01*
X14960712Y45067323D02*
X15017855Y45295894D01*
X15017855Y45295894D02*
X15017855Y45581609D01*
X15017855Y45581609D02*
X14960712Y45810180D01*
X14960712Y45810180D02*
X14903569Y45924466D01*
X14903569Y45924466D02*
X14846427Y45981609D01*
X14846427Y45981609D02*
X14732141Y46038752D01*
X13874998Y45924466D02*
X13817855Y45981609D01*
X13817855Y45981609D02*
X13703570Y46038752D01*
X13703570Y46038752D02*
X13417855Y46038752D01*
X13417855Y46038752D02*
X13303570Y45981609D01*
X13303570Y45981609D02*
X13246427Y45924466D01*
X13246427Y45924466D02*
X13189284Y45810180D01*
X13189284Y45810180D02*
X13189284Y45695894D01*
X13189284Y45695894D02*
X13246427Y45524466D01*
X13246427Y45524466D02*
X13932141Y44838752D01*
X13932141Y44838752D02*
X13189284Y44838752D01*
X12160713Y46038752D02*
X12389284Y46038752D01*
X12389284Y46038752D02*
X12503570Y45981609D01*
X12503570Y45981609D02*
X12560713Y45924466D01*
X12560713Y45924466D02*
X12674998Y45753037D01*
X12674998Y45753037D02*
X12732141Y45524466D01*
X12732141Y45524466D02*
X12732141Y45067323D01*
X12732141Y45067323D02*
X12674998Y44953037D01*
X12674998Y44953037D02*
X12617855Y44895894D01*
X12617855Y44895894D02*
X12503570Y44838752D01*
X12503570Y44838752D02*
X12274998Y44838752D01*
X12274998Y44838752D02*
X12160713Y44895894D01*
X12160713Y44895894D02*
X12103570Y44953037D01*
X12103570Y44953037D02*
X12046427Y45067323D01*
X12046427Y45067323D02*
X12046427Y45353037D01*
X12046427Y45353037D02*
X12103570Y45467323D01*
X12103570Y45467323D02*
X12160713Y45524466D01*
X12160713Y45524466D02*
X12274998Y45581609D01*
X12274998Y45581609D02*
X12503570Y45581609D01*
X12503570Y45581609D02*
X12617855Y45524466D01*
X12617855Y45524466D02*
X12674998Y45467323D01*
X12674998Y45467323D02*
X12732141Y45353037D01*
X11532141Y45295894D02*
X10617856Y45295894D01*
X9817856Y46038752D02*
X9703570Y46038752D01*
X9703570Y46038752D02*
X9589284Y45981609D01*
X9589284Y45981609D02*
X9532142Y45924466D01*
X9532142Y45924466D02*
X9474999Y45810180D01*
X9474999Y45810180D02*
X9417856Y45581609D01*
X9417856Y45581609D02*
X9417856Y45295894D01*
X9417856Y45295894D02*
X9474999Y45067323D01*
X9474999Y45067323D02*
X9532142Y44953037D01*
X9532142Y44953037D02*
X9589284Y44895894D01*
X9589284Y44895894D02*
X9703570Y44838752D01*
X9703570Y44838752D02*
X9817856Y44838752D01*
X9817856Y44838752D02*
X9932142Y44895894D01*
X9932142Y44895894D02*
X9989284Y44953037D01*
X9989284Y44953037D02*
X10046427Y45067323D01*
X10046427Y45067323D02*
X10103570Y45295894D01*
X10103570Y45295894D02*
X10103570Y45581609D01*
X10103570Y45581609D02*
X10046427Y45810180D01*
X10046427Y45810180D02*
X9989284Y45924466D01*
X9989284Y45924466D02*
X9932142Y45981609D01*
X9932142Y45981609D02*
X9817856Y46038752D01*
X8846427Y44838752D02*
X8617856Y44838752D01*
X8617856Y44838752D02*
X8503570Y44895894D01*
X8503570Y44895894D02*
X8446427Y44953037D01*
X8446427Y44953037D02*
X8332142Y45124466D01*
X8332142Y45124466D02*
X8274999Y45353037D01*
X8274999Y45353037D02*
X8274999Y45810180D01*
X8274999Y45810180D02*
X8332142Y45924466D01*
X8332142Y45924466D02*
X8389285Y45981609D01*
X8389285Y45981609D02*
X8503570Y46038752D01*
X8503570Y46038752D02*
X8732142Y46038752D01*
X8732142Y46038752D02*
X8846427Y45981609D01*
X8846427Y45981609D02*
X8903570Y45924466D01*
X8903570Y45924466D02*
X8960713Y45810180D01*
X8960713Y45810180D02*
X8960713Y45524466D01*
X8960713Y45524466D02*
X8903570Y45410180D01*
X8903570Y45410180D02*
X8846427Y45353037D01*
X8846427Y45353037D02*
X8732142Y45295894D01*
X8732142Y45295894D02*
X8503570Y45295894D01*
X8503570Y45295894D02*
X8389285Y45353037D01*
X8389285Y45353037D02*
X8332142Y45410180D01*
X8332142Y45410180D02*
X8274999Y45524466D01*
X7760713Y45295894D02*
X6846428Y45295894D01*
X6332142Y45924466D02*
X6274999Y45981609D01*
X6274999Y45981609D02*
X6160714Y46038752D01*
X6160714Y46038752D02*
X5874999Y46038752D01*
X5874999Y46038752D02*
X5760714Y45981609D01*
X5760714Y45981609D02*
X5703571Y45924466D01*
X5703571Y45924466D02*
X5646428Y45810180D01*
X5646428Y45810180D02*
X5646428Y45695894D01*
X5646428Y45695894D02*
X5703571Y45524466D01*
X5703571Y45524466D02*
X6389285Y44838752D01*
X6389285Y44838752D02*
X5646428Y44838752D01*
X4960714Y45524466D02*
X5074999Y45581609D01*
X5074999Y45581609D02*
X5132142Y45638752D01*
X5132142Y45638752D02*
X5189285Y45753037D01*
X5189285Y45753037D02*
X5189285Y45810180D01*
X5189285Y45810180D02*
X5132142Y45924466D01*
X5132142Y45924466D02*
X5074999Y45981609D01*
X5074999Y45981609D02*
X4960714Y46038752D01*
X4960714Y46038752D02*
X4732142Y46038752D01*
X4732142Y46038752D02*
X4617857Y45981609D01*
X4617857Y45981609D02*
X4560714Y45924466D01*
X4560714Y45924466D02*
X4503571Y45810180D01*
X4503571Y45810180D02*
X4503571Y45753037D01*
X4503571Y45753037D02*
X4560714Y45638752D01*
X4560714Y45638752D02*
X4617857Y45581609D01*
X4617857Y45581609D02*
X4732142Y45524466D01*
X4732142Y45524466D02*
X4960714Y45524466D01*
X4960714Y45524466D02*
X5074999Y45467323D01*
X5074999Y45467323D02*
X5132142Y45410180D01*
X5132142Y45410180D02*
X5189285Y45295894D01*
X5189285Y45295894D02*
X5189285Y45067323D01*
X5189285Y45067323D02*
X5132142Y44953037D01*
X5132142Y44953037D02*
X5074999Y44895894D01*
X5074999Y44895894D02*
X4960714Y44838752D01*
X4960714Y44838752D02*
X4732142Y44838752D01*
X4732142Y44838752D02*
X4617857Y44895894D01*
X4617857Y44895894D02*
X4560714Y44953037D01*
X4560714Y44953037D02*
X4503571Y45067323D01*
X4503571Y45067323D02*
X4503571Y45295894D01*
X4503571Y45295894D02*
X4560714Y45410180D01*
X4560714Y45410180D02*
X4617857Y45467323D01*
X4617857Y45467323D02*
X4732142Y45524466D01*
D12*
X24928571Y48819072D02*
X23999999Y48819072D01*
X23999999Y48819072D02*
X24499999Y48247643D01*
X24499999Y48247643D02*
X24285714Y48247643D01*
X24285714Y48247643D02*
X24142857Y48176215D01*
X24142857Y48176215D02*
X24071428Y48104786D01*
X24071428Y48104786D02*
X23999999Y47961929D01*
X23999999Y47961929D02*
X23999999Y47604786D01*
X23999999Y47604786D02*
X24071428Y47461929D01*
X24071428Y47461929D02*
X24142857Y47390500D01*
X24142857Y47390500D02*
X24285714Y47319072D01*
X24285714Y47319072D02*
X24714285Y47319072D01*
X24714285Y47319072D02*
X24857142Y47390500D01*
X24857142Y47390500D02*
X24928571Y47461929D01*
X23357143Y47890500D02*
X22214286Y47890500D01*
X21500000Y47319072D02*
X21500000Y48819072D01*
X21500000Y48819072D02*
X20928571Y48819072D01*
X20928571Y48819072D02*
X20785714Y48747643D01*
X20785714Y48747643D02*
X20714285Y48676215D01*
X20714285Y48676215D02*
X20642857Y48533358D01*
X20642857Y48533358D02*
X20642857Y48319072D01*
X20642857Y48319072D02*
X20714285Y48176215D01*
X20714285Y48176215D02*
X20785714Y48104786D01*
X20785714Y48104786D02*
X20928571Y48033358D01*
X20928571Y48033358D02*
X21500000Y48033358D01*
X20000000Y47319072D02*
X20000000Y48819072D01*
X19357143Y47319072D02*
X19357143Y48104786D01*
X19357143Y48104786D02*
X19428571Y48247643D01*
X19428571Y48247643D02*
X19571428Y48319072D01*
X19571428Y48319072D02*
X19785714Y48319072D01*
X19785714Y48319072D02*
X19928571Y48247643D01*
X19928571Y48247643D02*
X20000000Y48176215D01*
X18000000Y47319072D02*
X18000000Y48104786D01*
X18000000Y48104786D02*
X18071428Y48247643D01*
X18071428Y48247643D02*
X18214285Y48319072D01*
X18214285Y48319072D02*
X18500000Y48319072D01*
X18500000Y48319072D02*
X18642857Y48247643D01*
X18000000Y47390500D02*
X18142857Y47319072D01*
X18142857Y47319072D02*
X18500000Y47319072D01*
X18500000Y47319072D02*
X18642857Y47390500D01*
X18642857Y47390500D02*
X18714285Y47533358D01*
X18714285Y47533358D02*
X18714285Y47676215D01*
X18714285Y47676215D02*
X18642857Y47819072D01*
X18642857Y47819072D02*
X18500000Y47890500D01*
X18500000Y47890500D02*
X18142857Y47890500D01*
X18142857Y47890500D02*
X18000000Y47961929D01*
X17357142Y47390500D02*
X17214285Y47319072D01*
X17214285Y47319072D02*
X16928571Y47319072D01*
X16928571Y47319072D02*
X16785714Y47390500D01*
X16785714Y47390500D02*
X16714285Y47533358D01*
X16714285Y47533358D02*
X16714285Y47604786D01*
X16714285Y47604786D02*
X16785714Y47747643D01*
X16785714Y47747643D02*
X16928571Y47819072D01*
X16928571Y47819072D02*
X17142857Y47819072D01*
X17142857Y47819072D02*
X17285714Y47890500D01*
X17285714Y47890500D02*
X17357142Y48033358D01*
X17357142Y48033358D02*
X17357142Y48104786D01*
X17357142Y48104786D02*
X17285714Y48247643D01*
X17285714Y48247643D02*
X17142857Y48319072D01*
X17142857Y48319072D02*
X16928571Y48319072D01*
X16928571Y48319072D02*
X16785714Y48247643D01*
X15499999Y47390500D02*
X15642856Y47319072D01*
X15642856Y47319072D02*
X15928571Y47319072D01*
X15928571Y47319072D02*
X16071428Y47390500D01*
X16071428Y47390500D02*
X16142856Y47533358D01*
X16142856Y47533358D02*
X16142856Y48104786D01*
X16142856Y48104786D02*
X16071428Y48247643D01*
X16071428Y48247643D02*
X15928571Y48319072D01*
X15928571Y48319072D02*
X15642856Y48319072D01*
X15642856Y48319072D02*
X15499999Y48247643D01*
X15499999Y48247643D02*
X15428571Y48104786D01*
X15428571Y48104786D02*
X15428571Y47961929D01*
X15428571Y47961929D02*
X16142856Y47819072D01*
X13142857Y48104786D02*
X12928571Y48033358D01*
X12928571Y48033358D02*
X12857142Y47961929D01*
X12857142Y47961929D02*
X12785714Y47819072D01*
X12785714Y47819072D02*
X12785714Y47604786D01*
X12785714Y47604786D02*
X12857142Y47461929D01*
X12857142Y47461929D02*
X12928571Y47390500D01*
X12928571Y47390500D02*
X13071428Y47319072D01*
X13071428Y47319072D02*
X13642857Y47319072D01*
X13642857Y47319072D02*
X13642857Y48819072D01*
X13642857Y48819072D02*
X13142857Y48819072D01*
X13142857Y48819072D02*
X13000000Y48747643D01*
X13000000Y48747643D02*
X12928571Y48676215D01*
X12928571Y48676215D02*
X12857142Y48533358D01*
X12857142Y48533358D02*
X12857142Y48390500D01*
X12857142Y48390500D02*
X12928571Y48247643D01*
X12928571Y48247643D02*
X13000000Y48176215D01*
X13000000Y48176215D02*
X13142857Y48104786D01*
X13142857Y48104786D02*
X13642857Y48104786D01*
X11428571Y47319072D02*
X12142857Y47319072D01*
X12142857Y47319072D02*
X12142857Y48819072D01*
X10928571Y47319072D02*
X10928571Y48819072D01*
X10928571Y48819072D02*
X10571428Y48819072D01*
X10571428Y48819072D02*
X10357142Y48747643D01*
X10357142Y48747643D02*
X10214285Y48604786D01*
X10214285Y48604786D02*
X10142856Y48461929D01*
X10142856Y48461929D02*
X10071428Y48176215D01*
X10071428Y48176215D02*
X10071428Y47961929D01*
X10071428Y47961929D02*
X10142856Y47676215D01*
X10142856Y47676215D02*
X10214285Y47533358D01*
X10214285Y47533358D02*
X10357142Y47390500D01*
X10357142Y47390500D02*
X10571428Y47319072D01*
X10571428Y47319072D02*
X10928571Y47319072D01*
X8571428Y47461929D02*
X8642856Y47390500D01*
X8642856Y47390500D02*
X8857142Y47319072D01*
X8857142Y47319072D02*
X8999999Y47319072D01*
X8999999Y47319072D02*
X9214285Y47390500D01*
X9214285Y47390500D02*
X9357142Y47533358D01*
X9357142Y47533358D02*
X9428571Y47676215D01*
X9428571Y47676215D02*
X9499999Y47961929D01*
X9499999Y47961929D02*
X9499999Y48176215D01*
X9499999Y48176215D02*
X9428571Y48461929D01*
X9428571Y48461929D02*
X9357142Y48604786D01*
X9357142Y48604786D02*
X9214285Y48747643D01*
X9214285Y48747643D02*
X8999999Y48819072D01*
X8999999Y48819072D02*
X8857142Y48819072D01*
X8857142Y48819072D02*
X8642856Y48747643D01*
X8642856Y48747643D02*
X8571428Y48676215D01*
X6785714Y48104786D02*
X6285714Y48104786D01*
X6071428Y47319072D02*
X6785714Y47319072D01*
X6785714Y47319072D02*
X6785714Y48819072D01*
X6785714Y48819072D02*
X6071428Y48819072D01*
X5499999Y47390500D02*
X5285714Y47319072D01*
X5285714Y47319072D02*
X4928571Y47319072D01*
X4928571Y47319072D02*
X4785714Y47390500D01*
X4785714Y47390500D02*
X4714285Y47461929D01*
X4714285Y47461929D02*
X4642856Y47604786D01*
X4642856Y47604786D02*
X4642856Y47747643D01*
X4642856Y47747643D02*
X4714285Y47890500D01*
X4714285Y47890500D02*
X4785714Y47961929D01*
X4785714Y47961929D02*
X4928571Y48033358D01*
X4928571Y48033358D02*
X5214285Y48104786D01*
X5214285Y48104786D02*
X5357142Y48176215D01*
X5357142Y48176215D02*
X5428571Y48247643D01*
X5428571Y48247643D02*
X5499999Y48390500D01*
X5499999Y48390500D02*
X5499999Y48533358D01*
X5499999Y48533358D02*
X5428571Y48676215D01*
X5428571Y48676215D02*
X5357142Y48747643D01*
X5357142Y48747643D02*
X5214285Y48819072D01*
X5214285Y48819072D02*
X4857142Y48819072D01*
X4857142Y48819072D02*
X4642856Y48747643D01*
X3142857Y47461929D02*
X3214285Y47390500D01*
X3214285Y47390500D02*
X3428571Y47319072D01*
X3428571Y47319072D02*
X3571428Y47319072D01*
X3571428Y47319072D02*
X3785714Y47390500D01*
X3785714Y47390500D02*
X3928571Y47533358D01*
X3928571Y47533358D02*
X4000000Y47676215D01*
X4000000Y47676215D02*
X4071428Y47961929D01*
X4071428Y47961929D02*
X4071428Y48176215D01*
X4071428Y48176215D02*
X4000000Y48461929D01*
X4000000Y48461929D02*
X3928571Y48604786D01*
X3928571Y48604786D02*
X3785714Y48747643D01*
X3785714Y48747643D02*
X3571428Y48819072D01*
X3571428Y48819072D02*
X3428571Y48819072D01*
X3428571Y48819072D02*
X3214285Y48747643D01*
X3214285Y48747643D02*
X3142857Y48676215D01*
D13*
%TO.C,LOGO1*%
G36*
X56600000Y78050000D02*
G01*
X56200000Y78050000D01*
X56200000Y78550000D01*
X56600000Y78550000D01*
X56600000Y78050000D01*
G37*
G36*
X56600000Y77150000D02*
G01*
X56200000Y77150000D01*
X56200000Y77650000D01*
X56600000Y77650000D01*
X56600000Y77150000D01*
G37*
G36*
X57500000Y78850000D02*
G01*
X56400000Y78850000D01*
X56400000Y78950000D01*
X57500000Y78950000D01*
X57500000Y78850000D01*
G37*
G36*
X57500000Y78750000D02*
G01*
X56300000Y78750000D01*
X56300000Y78850000D01*
X57500000Y78850000D01*
X57500000Y78750000D01*
G37*
G36*
X57500000Y78550000D02*
G01*
X56200000Y78550000D01*
X56200000Y78750000D01*
X57500000Y78750000D01*
X57500000Y78550000D01*
G37*
G36*
X57500000Y78050000D02*
G01*
X57100000Y78050000D01*
X57100000Y78550000D01*
X57500000Y78550000D01*
X57500000Y78050000D01*
G37*
G36*
X57500000Y77950000D02*
G01*
X56200000Y77950000D01*
X56200000Y78050000D01*
X57500000Y78050000D01*
X57500000Y77950000D01*
G37*
G36*
X57500000Y77750000D02*
G01*
X56300000Y77750000D01*
X56300000Y77950000D01*
X57500000Y77950000D01*
X57500000Y77750000D01*
G37*
G36*
X57500000Y77650000D02*
G01*
X56200000Y77650000D01*
X56200000Y77750000D01*
X57500000Y77750000D01*
X57500000Y77650000D01*
G37*
G36*
X57500000Y77150000D02*
G01*
X57100000Y77150000D01*
X57100000Y77650000D01*
X57500000Y77650000D01*
X57500000Y77150000D01*
G37*
G36*
X57500000Y76850000D02*
G01*
X56200000Y76850000D01*
X56200000Y77150000D01*
X57500000Y77150000D01*
X57500000Y76850000D01*
G37*
G36*
X57500000Y76750000D02*
G01*
X56400000Y76750000D01*
X56400000Y76850000D01*
X57500000Y76850000D01*
X57500000Y76750000D01*
G37*
G36*
X58100000Y76750000D02*
G01*
X57800000Y76750000D01*
X57800000Y76850000D01*
X58100000Y76850000D01*
X58100000Y76750000D01*
G37*
G36*
X58200000Y76850000D02*
G01*
X57800000Y76850000D01*
X57800000Y77150000D01*
X58200000Y77150000D01*
X58200000Y76850000D01*
G37*
G36*
X58400000Y77550000D02*
G01*
X58000000Y77550000D01*
X58000000Y77950000D01*
X58400000Y77950000D01*
X58400000Y77550000D01*
G37*
G36*
X58500000Y77950000D02*
G01*
X58100000Y77950000D01*
X58100000Y78350000D01*
X58500000Y78350000D01*
X58500000Y77950000D01*
G37*
G36*
X58800000Y78850000D02*
G01*
X58300000Y78850000D01*
X58300000Y78950000D01*
X58800000Y78950000D01*
X58800000Y78850000D01*
G37*
G36*
X58900000Y78750000D02*
G01*
X58300000Y78750000D01*
X58300000Y78850000D01*
X58900000Y78850000D01*
X58900000Y78750000D01*
G37*
G36*
X58900000Y78450000D02*
G01*
X58200000Y78450000D01*
X58200000Y78750000D01*
X58900000Y78750000D01*
X58900000Y78450000D01*
G37*
G36*
X59000000Y78350000D02*
G01*
X58200000Y78350000D01*
X58200000Y78450000D01*
X59000000Y78450000D01*
X59000000Y78350000D01*
G37*
G36*
X59000000Y78050000D02*
G01*
X58600000Y78050000D01*
X58600000Y78350000D01*
X59000000Y78350000D01*
X59000000Y78050000D01*
G37*
G36*
X59100000Y77650000D02*
G01*
X58700000Y77650000D01*
X58700000Y78050000D01*
X59100000Y78050000D01*
X59100000Y77650000D01*
G37*
G36*
X59200000Y77550000D02*
G01*
X58700000Y77550000D01*
X58700000Y77650000D01*
X59200000Y77650000D01*
X59200000Y77550000D01*
G37*
G36*
X59200000Y77250000D02*
G01*
X57900000Y77250000D01*
X57900000Y77550000D01*
X59200000Y77550000D01*
X59200000Y77250000D01*
G37*
G36*
X59300000Y77150000D02*
G01*
X57900000Y77150000D01*
X57900000Y77250000D01*
X59300000Y77250000D01*
X59300000Y77150000D01*
G37*
G36*
X59300000Y76850000D02*
G01*
X58900000Y76850000D01*
X58900000Y77150000D01*
X59300000Y77150000D01*
X59300000Y76850000D01*
G37*
G36*
X59400000Y76750000D02*
G01*
X59000000Y76750000D01*
X59000000Y76850000D01*
X59400000Y76850000D01*
X59400000Y76750000D01*
G37*
G36*
X60900000Y77150000D02*
G01*
X60500000Y77150000D01*
X60500000Y79250000D01*
X60900000Y79250000D01*
X60900000Y77150000D01*
G37*
G36*
X60900000Y77050000D02*
G01*
X59700000Y77050000D01*
X59700000Y77150000D01*
X60900000Y77150000D01*
X60900000Y77050000D01*
G37*
G36*
X60900000Y76850000D02*
G01*
X59600000Y76850000D01*
X59600000Y77050000D01*
X60900000Y77050000D01*
X60900000Y76850000D01*
G37*
G36*
X60900000Y76750000D02*
G01*
X59700000Y76750000D01*
X59700000Y76850000D01*
X60900000Y76850000D01*
X60900000Y76750000D01*
G37*
G36*
X62500000Y77850000D02*
G01*
X62100000Y77850000D01*
X62100000Y78550000D01*
X62500000Y78550000D01*
X62500000Y77850000D01*
G37*
G36*
X62500000Y76750000D02*
G01*
X62100000Y76750000D01*
X62100000Y77150000D01*
X62500000Y77150000D01*
X62500000Y76750000D01*
G37*
G36*
X62600000Y77750000D02*
G01*
X62100000Y77750000D01*
X62100000Y77850000D01*
X62600000Y77850000D01*
X62600000Y77750000D01*
G37*
G36*
X62600000Y77150000D02*
G01*
X62200000Y77150000D01*
X62200000Y77350000D01*
X62600000Y77350000D01*
X62600000Y77150000D01*
G37*
G36*
X63300000Y78850000D02*
G01*
X62200000Y78850000D01*
X62200000Y78950000D01*
X63300000Y78950000D01*
X63300000Y78850000D01*
G37*
G36*
X63300000Y78550000D02*
G01*
X62100000Y78550000D01*
X62100000Y78850000D01*
X63300000Y78850000D01*
X63300000Y78550000D01*
G37*
G36*
X63300000Y77850000D02*
G01*
X62900000Y77850000D01*
X62900000Y78550000D01*
X63300000Y78550000D01*
X63300000Y77850000D01*
G37*
G36*
X63300000Y77750000D02*
G01*
X62800000Y77750000D01*
X62800000Y77850000D01*
X63300000Y77850000D01*
X63300000Y77750000D01*
G37*
G36*
X63300000Y77550000D02*
G01*
X62100000Y77550000D01*
X62100000Y77750000D01*
X63300000Y77750000D01*
X63300000Y77550000D01*
G37*
G36*
X63300000Y77350000D02*
G01*
X62200000Y77350000D01*
X62200000Y77550000D01*
X63300000Y77550000D01*
X63300000Y77350000D01*
G37*
G36*
X63300000Y76750000D02*
G01*
X62900000Y76750000D01*
X62900000Y77350000D01*
X63300000Y77350000D01*
X63300000Y76750000D01*
G37*
G36*
X64900000Y78550000D02*
G01*
X63600000Y78550000D01*
X63600000Y78950000D01*
X64900000Y78950000D01*
X64900000Y78550000D01*
G37*
G36*
X64900000Y78050000D02*
G01*
X64500000Y78050000D01*
X64500000Y78550000D01*
X64900000Y78550000D01*
X64900000Y78050000D01*
G37*
G36*
X64900000Y77950000D02*
G01*
X63900000Y77950000D01*
X63900000Y78050000D01*
X64900000Y78050000D01*
X64900000Y77950000D01*
G37*
G36*
X64900000Y77650000D02*
G01*
X63800000Y77650000D01*
X63800000Y77950000D01*
X64900000Y77950000D01*
X64900000Y77650000D01*
G37*
G36*
X64900000Y77150000D02*
G01*
X64500000Y77150000D01*
X64500000Y77650000D01*
X64900000Y77650000D01*
X64900000Y77150000D01*
G37*
G36*
X64900000Y77050000D02*
G01*
X63700000Y77050000D01*
X63700000Y77150000D01*
X64900000Y77150000D01*
X64900000Y77050000D01*
G37*
G36*
X64900000Y76750000D02*
G01*
X63600000Y76750000D01*
X63600000Y77050000D01*
X64900000Y77050000D01*
X64900000Y76750000D01*
G37*
G36*
X65600000Y78850000D02*
G01*
X65200000Y78850000D01*
X65200000Y78950000D01*
X65600000Y78950000D01*
X65600000Y78850000D01*
G37*
G36*
X65700000Y78750000D02*
G01*
X65200000Y78750000D01*
X65200000Y78850000D01*
X65700000Y78850000D01*
X65700000Y78750000D01*
G37*
G36*
X65700000Y78050000D02*
G01*
X65300000Y78050000D01*
X65300000Y78750000D01*
X65700000Y78750000D01*
X65700000Y78050000D01*
G37*
G36*
X65800000Y77950000D02*
G01*
X65300000Y77950000D01*
X65300000Y78050000D01*
X65800000Y78050000D01*
X65800000Y77950000D01*
G37*
G36*
X65800000Y77650000D02*
G01*
X65400000Y77650000D01*
X65400000Y77950000D01*
X65800000Y77950000D01*
X65800000Y77650000D01*
G37*
G36*
X66000000Y76750000D02*
G01*
X65500000Y76750000D01*
X65500000Y76950000D01*
X66000000Y76950000D01*
X66000000Y76750000D01*
G37*
G36*
X66100000Y77350000D02*
G01*
X65400000Y77350000D01*
X65400000Y77450000D01*
X66100000Y77450000D01*
X66100000Y77350000D01*
G37*
G36*
X66100000Y76950000D02*
G01*
X65500000Y76950000D01*
X65500000Y77350000D01*
X66100000Y77350000D01*
X66100000Y76950000D01*
G37*
G36*
X66200000Y77650000D02*
G01*
X65900000Y77650000D01*
X65900000Y77850000D01*
X66200000Y77850000D01*
X66200000Y77650000D01*
G37*
G36*
X66200000Y77450000D02*
G01*
X65400000Y77450000D01*
X65400000Y77650000D01*
X66200000Y77650000D01*
X66200000Y77450000D01*
G37*
G36*
X66300000Y77850000D02*
G01*
X65900000Y77850000D01*
X65900000Y77950000D01*
X66300000Y77950000D01*
X66300000Y77850000D01*
G37*
G36*
X66500000Y78850000D02*
G01*
X66200000Y78850000D01*
X66200000Y78950000D01*
X66500000Y78950000D01*
X66500000Y78850000D01*
G37*
G36*
X66500000Y78650000D02*
G01*
X66100000Y78650000D01*
X66100000Y78850000D01*
X66500000Y78850000D01*
X66500000Y78650000D01*
G37*
G36*
X66600000Y78450000D02*
G01*
X66100000Y78450000D01*
X66100000Y78650000D01*
X66600000Y78650000D01*
X66600000Y78450000D01*
G37*
G36*
X66600000Y78150000D02*
G01*
X66000000Y78150000D01*
X66000000Y78450000D01*
X66600000Y78450000D01*
X66600000Y78150000D01*
G37*
G36*
X66700000Y78050000D02*
G01*
X66000000Y78050000D01*
X66000000Y78150000D01*
X66700000Y78150000D01*
X66700000Y78050000D01*
G37*
G36*
X66700000Y77950000D02*
G01*
X65900000Y77950000D01*
X65900000Y78050000D01*
X66700000Y78050000D01*
X66700000Y77950000D01*
G37*
G36*
X66700000Y77750000D02*
G01*
X66400000Y77750000D01*
X66400000Y77950000D01*
X66700000Y77950000D01*
X66700000Y77750000D01*
G37*
G36*
X66800000Y77650000D02*
G01*
X66400000Y77650000D01*
X66400000Y77750000D01*
X66800000Y77750000D01*
X66800000Y77650000D01*
G37*
G36*
X67100000Y76750000D02*
G01*
X66600000Y76750000D01*
X66600000Y77050000D01*
X67100000Y77050000D01*
X67100000Y76750000D01*
G37*
G36*
X67200000Y77650000D02*
G01*
X66900000Y77650000D01*
X66900000Y77750000D01*
X67200000Y77750000D01*
X67200000Y77650000D01*
G37*
G36*
X67200000Y77550000D02*
G01*
X66400000Y77550000D01*
X66400000Y77650000D01*
X67200000Y77650000D01*
X67200000Y77550000D01*
G37*
G36*
X67200000Y77150000D02*
G01*
X66500000Y77150000D01*
X66500000Y77550000D01*
X67200000Y77550000D01*
X67200000Y77150000D01*
G37*
G36*
X67200000Y77050000D02*
G01*
X66600000Y77050000D01*
X66600000Y77150000D01*
X67200000Y77150000D01*
X67200000Y77050000D01*
G37*
G36*
X67300000Y77750000D02*
G01*
X66900000Y77750000D01*
X66900000Y78550000D01*
X67300000Y78550000D01*
X67300000Y77750000D01*
G37*
G36*
X67400000Y78650000D02*
G01*
X67000000Y78650000D01*
X67000000Y78950000D01*
X67400000Y78950000D01*
X67400000Y78650000D01*
G37*
G36*
X67400000Y78550000D02*
G01*
X66900000Y78550000D01*
X66900000Y78650000D01*
X67400000Y78650000D01*
X67400000Y78550000D01*
G37*
G36*
X68000000Y77150000D02*
G01*
X67600000Y77150000D01*
X67600000Y78550000D01*
X68000000Y78550000D01*
X68000000Y77150000D01*
G37*
G36*
X68700000Y78850000D02*
G01*
X67800000Y78850000D01*
X67800000Y78950000D01*
X68700000Y78950000D01*
X68700000Y78850000D01*
G37*
G36*
X68700000Y76750000D02*
G01*
X67800000Y76750000D01*
X67800000Y76850000D01*
X68700000Y76850000D01*
X68700000Y76750000D01*
G37*
G36*
X68800000Y78750000D02*
G01*
X67700000Y78750000D01*
X67700000Y78850000D01*
X68800000Y78850000D01*
X68800000Y78750000D01*
G37*
G36*
X68800000Y76850000D02*
G01*
X67700000Y76850000D01*
X67700000Y76950000D01*
X68800000Y76950000D01*
X68800000Y76850000D01*
G37*
G36*
X68900000Y78650000D02*
G01*
X67700000Y78650000D01*
X67700000Y78750000D01*
X68900000Y78750000D01*
X68900000Y78650000D01*
G37*
G36*
X68900000Y78550000D02*
G01*
X67600000Y78550000D01*
X67600000Y78650000D01*
X68900000Y78650000D01*
X68900000Y78550000D01*
G37*
G36*
X68900000Y77150000D02*
G01*
X68500000Y77150000D01*
X68500000Y78550000D01*
X68900000Y78550000D01*
X68900000Y77150000D01*
G37*
G36*
X68900000Y76950000D02*
G01*
X67600000Y76950000D01*
X67600000Y77150000D01*
X68900000Y77150000D01*
X68900000Y76950000D01*
G37*
G36*
X69700000Y78050000D02*
G01*
X69200000Y78050000D01*
X69200000Y78850000D01*
X69700000Y78850000D01*
X69700000Y78050000D01*
G37*
G36*
X69800000Y77950000D02*
G01*
X69200000Y77950000D01*
X69200000Y78050000D01*
X69800000Y78050000D01*
X69800000Y77950000D01*
G37*
G36*
X70500000Y79150000D02*
G01*
X69400000Y79150000D01*
X69400000Y79250000D01*
X70500000Y79250000D01*
X70500000Y79150000D01*
G37*
G36*
X70500000Y78850000D02*
G01*
X69300000Y78850000D01*
X69300000Y79150000D01*
X70500000Y79150000D01*
X70500000Y78850000D01*
G37*
G36*
X70500000Y78050000D02*
G01*
X70100000Y78050000D01*
X70100000Y78850000D01*
X70500000Y78850000D01*
X70500000Y78050000D01*
G37*
G36*
X70500000Y77950000D02*
G01*
X70000000Y77950000D01*
X70000000Y78050000D01*
X70500000Y78050000D01*
X70500000Y77950000D01*
G37*
G36*
X70500000Y77750000D02*
G01*
X69300000Y77750000D01*
X69300000Y77950000D01*
X70500000Y77950000D01*
X70500000Y77750000D01*
G37*
G36*
X70500000Y77650000D02*
G01*
X69400000Y77650000D01*
X69400000Y77750000D01*
X70500000Y77750000D01*
X70500000Y77650000D01*
G37*
G36*
X70500000Y77550000D02*
G01*
X69600000Y77550000D01*
X69600000Y77650000D01*
X70500000Y77650000D01*
X70500000Y77550000D01*
G37*
G36*
X70500000Y76750000D02*
G01*
X70100000Y76750000D01*
X70100000Y77550000D01*
X70500000Y77550000D01*
X70500000Y76750000D01*
G37*
G36*
X72200000Y79250000D02*
G01*
X71900000Y79250000D01*
X71900000Y79350000D01*
X72200000Y79350000D01*
X72200000Y79250000D01*
G37*
G36*
X72200000Y79150000D02*
G01*
X71800000Y79150000D01*
X71800000Y79250000D01*
X72200000Y79250000D01*
X72200000Y79150000D01*
G37*
G36*
X72200000Y77250000D02*
G01*
X71800000Y77250000D01*
X71800000Y77350000D01*
X72200000Y77350000D01*
X72200000Y77250000D01*
G37*
G36*
X72300000Y77350000D02*
G01*
X71800000Y77350000D01*
X71800000Y79150000D01*
X72300000Y79150000D01*
X72300000Y77350000D01*
G37*
G36*
X72300000Y77150000D02*
G01*
X71800000Y77150000D01*
X71800000Y77250000D01*
X72300000Y77250000D01*
X72300000Y77150000D01*
G37*
G36*
X72700000Y76650000D02*
G01*
X72200000Y76650000D01*
X72200000Y76750000D01*
X72700000Y76750000D01*
X72700000Y76650000D01*
G37*
G36*
X73000000Y79250000D02*
G01*
X72700000Y79250000D01*
X72700000Y79350000D01*
X73000000Y79350000D01*
X73000000Y79250000D01*
G37*
G36*
X73000000Y76750000D02*
G01*
X71900000Y76750000D01*
X71900000Y76850000D01*
X73000000Y76850000D01*
X73000000Y76750000D01*
G37*
G36*
X73100000Y79050000D02*
G01*
X72700000Y79050000D01*
X72700000Y79250000D01*
X73100000Y79250000D01*
X73100000Y79050000D01*
G37*
G36*
X73100000Y78750000D02*
G01*
X72600000Y78750000D01*
X72600000Y79050000D01*
X73100000Y79050000D01*
X73100000Y78750000D01*
G37*
G36*
X73100000Y78650000D02*
G01*
X72700000Y78650000D01*
X72700000Y78750000D01*
X73100000Y78750000D01*
X73100000Y78650000D01*
G37*
G36*
X73100000Y78550000D02*
G01*
X72600000Y78550000D01*
X72600000Y78650000D01*
X73100000Y78650000D01*
X73100000Y78550000D01*
G37*
G36*
X73100000Y78250000D02*
G01*
X72700000Y78250000D01*
X72700000Y78550000D01*
X73100000Y78550000D01*
X73100000Y78250000D01*
G37*
G36*
X73100000Y77350000D02*
G01*
X72600000Y77350000D01*
X72600000Y78250000D01*
X73100000Y78250000D01*
X73100000Y77350000D01*
G37*
G36*
X73100000Y77250000D02*
G01*
X72700000Y77250000D01*
X72700000Y77350000D01*
X73100000Y77350000D01*
X73100000Y77250000D01*
G37*
G36*
X73100000Y77150000D02*
G01*
X72600000Y77150000D01*
X72600000Y77250000D01*
X73100000Y77250000D01*
X73100000Y77150000D01*
G37*
G36*
X73100000Y76950000D02*
G01*
X71800000Y76950000D01*
X71800000Y77150000D01*
X73100000Y77150000D01*
X73100000Y76950000D01*
G37*
G36*
X73100000Y76850000D02*
G01*
X71900000Y76850000D01*
X71900000Y76950000D01*
X73100000Y76950000D01*
X73100000Y76850000D01*
G37*
G36*
X74200000Y76650000D02*
G01*
X73900000Y76650000D01*
X73900000Y76750000D01*
X74200000Y76750000D01*
X74200000Y76650000D01*
G37*
G36*
X74300000Y76750000D02*
G01*
X73800000Y76750000D01*
X73800000Y78850000D01*
X74300000Y78850000D01*
X74300000Y76750000D01*
G37*
G36*
X74600000Y79250000D02*
G01*
X73400000Y79250000D01*
X73400000Y79350000D01*
X74600000Y79350000D01*
X74600000Y79250000D01*
G37*
G36*
X74700000Y79050000D02*
G01*
X73400000Y79050000D01*
X73400000Y79250000D01*
X74700000Y79250000D01*
X74700000Y79050000D01*
G37*
G36*
X74700000Y78950000D02*
G01*
X73300000Y78950000D01*
X73300000Y79050000D01*
X74700000Y79050000D01*
X74700000Y78950000D01*
G37*
G36*
X74700000Y78850000D02*
G01*
X73400000Y78850000D01*
X73400000Y78950000D01*
X74700000Y78950000D01*
X74700000Y78850000D01*
G37*
G36*
X76200000Y79250000D02*
G01*
X75000000Y79250000D01*
X75000000Y79350000D01*
X76200000Y79350000D01*
X76200000Y79250000D01*
G37*
G36*
X76200000Y78850000D02*
G01*
X74900000Y78850000D01*
X74900000Y79250000D01*
X76200000Y79250000D01*
X76200000Y78850000D01*
G37*
G36*
X76200000Y78250000D02*
G01*
X75800000Y78250000D01*
X75800000Y78850000D01*
X76200000Y78850000D01*
X76200000Y78250000D01*
G37*
G36*
X76200000Y77750000D02*
G01*
X75100000Y77750000D01*
X75100000Y78250000D01*
X76200000Y78250000D01*
X76200000Y77750000D01*
G37*
G36*
X76200000Y77150000D02*
G01*
X75800000Y77150000D01*
X75800000Y77750000D01*
X76200000Y77750000D01*
X76200000Y77150000D01*
G37*
G36*
X76200000Y76750000D02*
G01*
X74900000Y76750000D01*
X74900000Y77150000D01*
X76200000Y77150000D01*
X76200000Y76750000D01*
G37*
G36*
X76200000Y76650000D02*
G01*
X75000000Y76650000D01*
X75000000Y76750000D01*
X76200000Y76750000D01*
X76200000Y76650000D01*
G37*
G36*
X76900000Y76650000D02*
G01*
X76600000Y76650000D01*
X76600000Y76750000D01*
X76900000Y76750000D01*
X76900000Y76650000D01*
G37*
G36*
X77000000Y79250000D02*
G01*
X76600000Y79250000D01*
X76600000Y79350000D01*
X77000000Y79350000D01*
X77000000Y79250000D01*
G37*
G36*
X77000000Y76750000D02*
G01*
X76500000Y76750000D01*
X76500000Y77950000D01*
X77000000Y77950000D01*
X77000000Y76750000D01*
G37*
G36*
X77100000Y79150000D02*
G01*
X76500000Y79150000D01*
X76500000Y79250000D01*
X77100000Y79250000D01*
X77100000Y79150000D01*
G37*
G36*
X77200000Y78650000D02*
G01*
X76500000Y78650000D01*
X76500000Y79150000D01*
X77200000Y79150000D01*
X77200000Y78650000D01*
G37*
G36*
X77300000Y78250000D02*
G01*
X76500000Y78250000D01*
X76500000Y78650000D01*
X77300000Y78650000D01*
X77300000Y78250000D01*
G37*
G36*
X77400000Y77950000D02*
G01*
X76500000Y77950000D01*
X76500000Y78250000D01*
X77400000Y78250000D01*
X77400000Y77950000D01*
G37*
G36*
X77400000Y77750000D02*
G01*
X77100000Y77750000D01*
X77100000Y77950000D01*
X77400000Y77950000D01*
X77400000Y77750000D01*
G37*
G36*
X77600000Y76750000D02*
G01*
X77300000Y76750000D01*
X77300000Y76850000D01*
X77600000Y76850000D01*
X77600000Y76750000D01*
G37*
G36*
X77600000Y76650000D02*
G01*
X77400000Y76650000D01*
X77400000Y76750000D01*
X77600000Y76750000D01*
X77600000Y76650000D01*
G37*
G36*
X77700000Y77050000D02*
G01*
X77200000Y77050000D01*
X77200000Y77250000D01*
X77700000Y77250000D01*
X77700000Y77050000D01*
G37*
G36*
X77700000Y76850000D02*
G01*
X77300000Y76850000D01*
X77300000Y77050000D01*
X77700000Y77050000D01*
X77700000Y76850000D01*
G37*
G36*
X77800000Y77450000D02*
G01*
X77100000Y77450000D01*
X77100000Y77750000D01*
X77800000Y77750000D01*
X77800000Y77450000D01*
G37*
G36*
X77800000Y77250000D02*
G01*
X77200000Y77250000D01*
X77200000Y77450000D01*
X77800000Y77450000D01*
X77800000Y77250000D01*
G37*
G36*
X77900000Y77750000D02*
G01*
X77500000Y77750000D01*
X77500000Y77950000D01*
X77900000Y77950000D01*
X77900000Y77750000D01*
G37*
G36*
X78300000Y79250000D02*
G01*
X77900000Y79250000D01*
X77900000Y79350000D01*
X78300000Y79350000D01*
X78300000Y79250000D01*
G37*
G36*
X78300000Y76650000D02*
G01*
X78000000Y76650000D01*
X78000000Y76750000D01*
X78300000Y76750000D01*
X78300000Y76650000D01*
G37*
G36*
X78400000Y78950000D02*
G01*
X77800000Y78950000D01*
X77800000Y79250000D01*
X78400000Y79250000D01*
X78400000Y78950000D01*
G37*
G36*
X78400000Y78450000D02*
G01*
X77700000Y78450000D01*
X77700000Y78950000D01*
X78400000Y78950000D01*
X78400000Y78450000D01*
G37*
G36*
X78400000Y78050000D02*
G01*
X77600000Y78050000D01*
X77600000Y78450000D01*
X78400000Y78450000D01*
X78400000Y78050000D01*
G37*
G36*
X78400000Y77950000D02*
G01*
X77500000Y77950000D01*
X77500000Y78050000D01*
X78400000Y78050000D01*
X78400000Y77950000D01*
G37*
G36*
X78400000Y77450000D02*
G01*
X78000000Y77450000D01*
X78000000Y77950000D01*
X78400000Y77950000D01*
X78400000Y77450000D01*
G37*
G36*
X78400000Y77250000D02*
G01*
X77900000Y77250000D01*
X77900000Y77450000D01*
X78400000Y77450000D01*
X78400000Y77250000D01*
G37*
G36*
X78400000Y76750000D02*
G01*
X78000000Y76750000D01*
X78000000Y77250000D01*
X78400000Y77250000D01*
X78400000Y76750000D01*
G37*
G36*
X81100000Y77950000D02*
G01*
X79700000Y77950000D01*
X79700000Y78450000D01*
X81100000Y78450000D01*
X81100000Y77950000D01*
G37*
G36*
X81200000Y78450000D02*
G01*
X79800000Y78450000D01*
X79800000Y78850000D01*
X81200000Y78850000D01*
X81200000Y78450000D01*
G37*
G36*
X81300000Y79050000D02*
G01*
X80000000Y79050000D01*
X80000000Y79250000D01*
X81300000Y79250000D01*
X81300000Y79050000D01*
G37*
G36*
X81300000Y78850000D02*
G01*
X79900000Y78850000D01*
X79900000Y79050000D01*
X81300000Y79050000D01*
X81300000Y78850000D01*
G37*
G36*
X81300000Y77850000D02*
G01*
X79700000Y77850000D01*
X79700000Y77950000D01*
X81300000Y77950000D01*
X81300000Y77850000D01*
G37*
G36*
X81400000Y79550000D02*
G01*
X80300000Y79550000D01*
X80300000Y79650000D01*
X81400000Y79650000D01*
X81400000Y79550000D01*
G37*
G36*
X81400000Y79450000D02*
G01*
X80200000Y79450000D01*
X80200000Y79550000D01*
X81400000Y79550000D01*
X81400000Y79450000D01*
G37*
G36*
X81400000Y79250000D02*
G01*
X80100000Y79250000D01*
X80100000Y79450000D01*
X81400000Y79450000D01*
X81400000Y79250000D01*
G37*
G36*
X81400000Y75850000D02*
G01*
X81000000Y75850000D01*
X81000000Y75950000D01*
X81400000Y75950000D01*
X81400000Y75850000D01*
G37*
G36*
X81400000Y75750000D02*
G01*
X81200000Y75750000D01*
X81200000Y75850000D01*
X81400000Y75850000D01*
X81400000Y75750000D01*
G37*
G36*
X81500000Y79850000D02*
G01*
X80600000Y79850000D01*
X80600000Y79950000D01*
X81500000Y79950000D01*
X81500000Y79850000D01*
G37*
G36*
X81500000Y79750000D02*
G01*
X80500000Y79750000D01*
X80500000Y79850000D01*
X81500000Y79850000D01*
X81500000Y79750000D01*
G37*
G36*
X81500000Y79650000D02*
G01*
X80400000Y79650000D01*
X80400000Y79750000D01*
X81500000Y79750000D01*
X81500000Y79650000D01*
G37*
G36*
X81500000Y77750000D02*
G01*
X79700000Y77750000D01*
X79700000Y77850000D01*
X81500000Y77850000D01*
X81500000Y77750000D01*
G37*
G36*
X81500000Y76050000D02*
G01*
X80700000Y76050000D01*
X80700000Y76150000D01*
X81500000Y76150000D01*
X81500000Y76050000D01*
G37*
G36*
X81500000Y75950000D02*
G01*
X80800000Y75950000D01*
X80800000Y76050000D01*
X81500000Y76050000D01*
X81500000Y75950000D01*
G37*
G36*
X81600000Y80250000D02*
G01*
X81300000Y80250000D01*
X81300000Y80350000D01*
X81600000Y80350000D01*
X81600000Y80250000D01*
G37*
G36*
X81600000Y80150000D02*
G01*
X81100000Y80150000D01*
X81100000Y80250000D01*
X81600000Y80250000D01*
X81600000Y80150000D01*
G37*
G36*
X81600000Y80050000D02*
G01*
X80900000Y80050000D01*
X80900000Y80150000D01*
X81600000Y80150000D01*
X81600000Y80050000D01*
G37*
G36*
X81600000Y79950000D02*
G01*
X80700000Y79950000D01*
X80700000Y80050000D01*
X81600000Y80050000D01*
X81600000Y79950000D01*
G37*
G36*
X81600000Y76350000D02*
G01*
X80300000Y76350000D01*
X80300000Y76450000D01*
X81600000Y76450000D01*
X81600000Y76350000D01*
G37*
G36*
X81600000Y76250000D02*
G01*
X80400000Y76250000D01*
X80400000Y76350000D01*
X81600000Y76350000D01*
X81600000Y76250000D01*
G37*
G36*
X81600000Y76150000D02*
G01*
X80600000Y76150000D01*
X80600000Y76250000D01*
X81600000Y76250000D01*
X81600000Y76150000D01*
G37*
G36*
X81700000Y76550000D02*
G01*
X80200000Y76550000D01*
X80200000Y76650000D01*
X81700000Y76650000D01*
X81700000Y76550000D01*
G37*
G36*
X81700000Y76450000D02*
G01*
X80300000Y76450000D01*
X80300000Y76550000D01*
X81700000Y76550000D01*
X81700000Y76450000D01*
G37*
G36*
X81800000Y77650000D02*
G01*
X79700000Y77650000D01*
X79700000Y77750000D01*
X81800000Y77750000D01*
X81800000Y77650000D01*
G37*
G36*
X81800000Y76750000D02*
G01*
X80000000Y76750000D01*
X80000000Y76850000D01*
X81800000Y76850000D01*
X81800000Y76750000D01*
G37*
G36*
X81800000Y76650000D02*
G01*
X80100000Y76650000D01*
X80100000Y76750000D01*
X81800000Y76750000D01*
X81800000Y76650000D01*
G37*
G36*
X81900000Y76950000D02*
G01*
X79900000Y76950000D01*
X79900000Y77150000D01*
X81900000Y77150000D01*
X81900000Y76950000D01*
G37*
G36*
X81900000Y76850000D02*
G01*
X80000000Y76850000D01*
X80000000Y76950000D01*
X81900000Y76950000D01*
X81900000Y76850000D01*
G37*
G36*
X82000000Y77250000D02*
G01*
X79800000Y77250000D01*
X79800000Y77350000D01*
X82000000Y77350000D01*
X82000000Y77250000D01*
G37*
G36*
X82000000Y77150000D02*
G01*
X79900000Y77150000D01*
X79900000Y77250000D01*
X82000000Y77250000D01*
X82000000Y77150000D01*
G37*
G36*
X82100000Y77550000D02*
G01*
X79700000Y77550000D01*
X79700000Y77650000D01*
X82100000Y77650000D01*
X82100000Y77550000D01*
G37*
G36*
X82100000Y77350000D02*
G01*
X79800000Y77350000D01*
X79800000Y77550000D01*
X82100000Y77550000D01*
X82100000Y77350000D01*
G37*
G36*
X82700000Y75650000D02*
G01*
X81600000Y75650000D01*
X81600000Y75750000D01*
X82700000Y75750000D01*
X82700000Y75650000D01*
G37*
G36*
X83000000Y75750000D02*
G01*
X81700000Y75750000D01*
X81700000Y75850000D01*
X83000000Y75850000D01*
X83000000Y75750000D01*
G37*
G36*
X83200000Y80150000D02*
G01*
X82900000Y80150000D01*
X82900000Y80250000D01*
X83200000Y80250000D01*
X83200000Y80150000D01*
G37*
G36*
X83300000Y75850000D02*
G01*
X81700000Y75850000D01*
X81700000Y75950000D01*
X83300000Y75950000D01*
X83300000Y75850000D01*
G37*
G36*
X83400000Y80050000D02*
G01*
X82900000Y80050000D01*
X82900000Y80150000D01*
X83400000Y80150000D01*
X83400000Y80050000D01*
G37*
G36*
X83400000Y75950000D02*
G01*
X81800000Y75950000D01*
X81800000Y76050000D01*
X83400000Y76050000D01*
X83400000Y75950000D01*
G37*
G36*
X83500000Y79950000D02*
G01*
X82900000Y79950000D01*
X82900000Y80050000D01*
X83500000Y80050000D01*
X83500000Y79950000D01*
G37*
G36*
X83600000Y79850000D02*
G01*
X82800000Y79850000D01*
X82800000Y79950000D01*
X83600000Y79950000D01*
X83600000Y79850000D01*
G37*
G36*
X83600000Y76050000D02*
G01*
X81900000Y76050000D01*
X81900000Y76150000D01*
X83600000Y76150000D01*
X83600000Y76050000D01*
G37*
G36*
X83700000Y76150000D02*
G01*
X82000000Y76150000D01*
X82000000Y76250000D01*
X83700000Y76250000D01*
X83700000Y76150000D01*
G37*
G36*
X83800000Y79750000D02*
G01*
X82800000Y79750000D01*
X82800000Y79850000D01*
X83800000Y79850000D01*
X83800000Y79750000D01*
G37*
G36*
X83800000Y76250000D02*
G01*
X82000000Y76250000D01*
X82000000Y76350000D01*
X83800000Y76350000D01*
X83800000Y76250000D01*
G37*
G36*
X83900000Y79650000D02*
G01*
X82700000Y79650000D01*
X82700000Y79750000D01*
X83900000Y79750000D01*
X83900000Y79650000D01*
G37*
G36*
X83900000Y76350000D02*
G01*
X82100000Y76350000D01*
X82100000Y76450000D01*
X83900000Y76450000D01*
X83900000Y76350000D01*
G37*
G36*
X84000000Y79450000D02*
G01*
X82700000Y79450000D01*
X82700000Y79650000D01*
X84000000Y79650000D01*
X84000000Y79450000D01*
G37*
G36*
X84000000Y76450000D02*
G01*
X82200000Y76450000D01*
X82200000Y76550000D01*
X84000000Y76550000D01*
X84000000Y76450000D01*
G37*
G36*
X84100000Y79350000D02*
G01*
X82600000Y79350000D01*
X82600000Y79450000D01*
X84100000Y79450000D01*
X84100000Y79350000D01*
G37*
G36*
X84100000Y76550000D02*
G01*
X82300000Y76550000D01*
X82300000Y76750000D01*
X84100000Y76750000D01*
X84100000Y76550000D01*
G37*
G36*
X84200000Y79250000D02*
G01*
X82600000Y79250000D01*
X82600000Y79350000D01*
X84200000Y79350000D01*
X84200000Y79250000D01*
G37*
G36*
X84200000Y79150000D02*
G01*
X82500000Y79150000D01*
X82500000Y79250000D01*
X84200000Y79250000D01*
X84200000Y79150000D01*
G37*
G36*
X84200000Y76750000D02*
G01*
X82400000Y76750000D01*
X82400000Y76850000D01*
X84200000Y76850000D01*
X84200000Y76750000D01*
G37*
G36*
X84300000Y79050000D02*
G01*
X82500000Y79050000D01*
X82500000Y79150000D01*
X84300000Y79150000D01*
X84300000Y79050000D01*
G37*
G36*
X84300000Y78950000D02*
G01*
X82400000Y78950000D01*
X82400000Y79050000D01*
X84300000Y79050000D01*
X84300000Y78950000D01*
G37*
G36*
X84300000Y76950000D02*
G01*
X82600000Y76950000D01*
X82600000Y77050000D01*
X84300000Y77050000D01*
X84300000Y76950000D01*
G37*
G36*
X84300000Y76850000D02*
G01*
X82500000Y76850000D01*
X82500000Y76950000D01*
X84300000Y76950000D01*
X84300000Y76850000D01*
G37*
G36*
X84400000Y78750000D02*
G01*
X82400000Y78750000D01*
X82400000Y78950000D01*
X84400000Y78950000D01*
X84400000Y78750000D01*
G37*
G36*
X84400000Y77250000D02*
G01*
X82800000Y77250000D01*
X82800000Y77350000D01*
X84400000Y77350000D01*
X84400000Y77250000D01*
G37*
G36*
X84400000Y77150000D02*
G01*
X82700000Y77150000D01*
X82700000Y77250000D01*
X84400000Y77250000D01*
X84400000Y77150000D01*
G37*
G36*
X84400000Y77050000D02*
G01*
X82600000Y77050000D01*
X82600000Y77150000D01*
X84400000Y77150000D01*
X84400000Y77050000D01*
G37*
G36*
X84500000Y78450000D02*
G01*
X82300000Y78450000D01*
X82300000Y78750000D01*
X84500000Y78750000D01*
X84500000Y78450000D01*
G37*
G36*
X84500000Y78250000D02*
G01*
X82200000Y78250000D01*
X82200000Y78450000D01*
X84500000Y78450000D01*
X84500000Y78250000D01*
G37*
G36*
X84500000Y78150000D02*
G01*
X82300000Y78150000D01*
X82300000Y78250000D01*
X84500000Y78250000D01*
X84500000Y78150000D01*
G37*
G36*
X84500000Y77850000D02*
G01*
X83000000Y77850000D01*
X83000000Y77950000D01*
X84500000Y77950000D01*
X84500000Y77850000D01*
G37*
G36*
X84500000Y77650000D02*
G01*
X83100000Y77650000D01*
X83100000Y77850000D01*
X84500000Y77850000D01*
X84500000Y77650000D01*
G37*
G36*
X84500000Y77550000D02*
G01*
X83000000Y77550000D01*
X83000000Y77650000D01*
X84500000Y77650000D01*
X84500000Y77550000D01*
G37*
G36*
X84500000Y77450000D02*
G01*
X82900000Y77450000D01*
X82900000Y77550000D01*
X84500000Y77550000D01*
X84500000Y77450000D01*
G37*
G36*
X84500000Y77350000D02*
G01*
X82800000Y77350000D01*
X82800000Y77450000D01*
X84500000Y77450000D01*
X84500000Y77350000D01*
G37*
G36*
X84600000Y78050000D02*
G01*
X82500000Y78050000D01*
X82500000Y78150000D01*
X84600000Y78150000D01*
X84600000Y78050000D01*
G37*
G36*
X84600000Y77950000D02*
G01*
X82800000Y77950000D01*
X82800000Y78050000D01*
X84600000Y78050000D01*
X84600000Y77950000D01*
G37*
%TO.C,QR1*%
G36*
X6060000Y33420000D02*
G01*
X5340000Y33420000D01*
X5340000Y35940000D01*
X6060000Y35940000D01*
X6060000Y33420000D01*
G37*
G36*
X6060000Y32340000D02*
G01*
X5340000Y32340000D01*
X5340000Y33060000D01*
X6060000Y33060000D01*
X6060000Y32340000D01*
G37*
G36*
X6060000Y30900000D02*
G01*
X5340000Y30900000D01*
X5340000Y31980000D01*
X6060000Y31980000D01*
X6060000Y30900000D01*
G37*
G36*
X6060000Y29460000D02*
G01*
X5340000Y29460000D01*
X5340000Y30180000D01*
X6060000Y30180000D01*
X6060000Y29460000D01*
G37*
G36*
X6060000Y28020000D02*
G01*
X5340000Y28020000D01*
X5340000Y29100000D01*
X6060000Y29100000D01*
X6060000Y28020000D01*
G37*
G36*
X6060000Y26580000D02*
G01*
X5340000Y26580000D01*
X5340000Y27660000D01*
X6060000Y27660000D01*
X6060000Y26580000D01*
G37*
G36*
X6420000Y31980000D02*
G01*
X5340000Y31980000D01*
X5340000Y32340000D01*
X6420000Y32340000D01*
X6420000Y31980000D01*
G37*
G36*
X6420000Y30180000D02*
G01*
X5340000Y30180000D01*
X5340000Y30900000D01*
X6420000Y30900000D01*
X6420000Y30180000D01*
G37*
G36*
X6420000Y29100000D02*
G01*
X5340000Y29100000D01*
X5340000Y29460000D01*
X6420000Y29460000D01*
X6420000Y29100000D01*
G37*
G36*
X6420000Y27660000D02*
G01*
X5340000Y27660000D01*
X5340000Y28020000D01*
X6420000Y28020000D01*
X6420000Y27660000D01*
G37*
G36*
X6420000Y26220000D02*
G01*
X5340000Y26220000D01*
X5340000Y26580000D01*
X6420000Y26580000D01*
X6420000Y26220000D01*
G37*
G36*
X6420000Y25140000D02*
G01*
X5340000Y25140000D01*
X5340000Y25500000D01*
X6420000Y25500000D01*
X6420000Y25140000D01*
G37*
G36*
X6420000Y24060000D02*
G01*
X5340000Y24060000D01*
X5340000Y24420000D01*
X6420000Y24420000D01*
X6420000Y24060000D01*
G37*
G36*
X6780000Y34140000D02*
G01*
X6420000Y34140000D01*
X6420000Y35220000D01*
X6780000Y35220000D01*
X6780000Y34140000D01*
G37*
G36*
X6780000Y30900000D02*
G01*
X6420000Y30900000D01*
X6420000Y31260000D01*
X6780000Y31260000D01*
X6780000Y30900000D01*
G37*
G36*
X6780000Y28740000D02*
G01*
X6420000Y28740000D01*
X6420000Y29100000D01*
X6780000Y29100000D01*
X6780000Y28740000D01*
G37*
G36*
X6780000Y28020000D02*
G01*
X6420000Y28020000D01*
X6420000Y28380000D01*
X6780000Y28380000D01*
X6780000Y28020000D01*
G37*
G36*
X6780000Y27300000D02*
G01*
X6420000Y27300000D01*
X6420000Y27660000D01*
X6780000Y27660000D01*
X6780000Y27300000D01*
G37*
G36*
X6780000Y26580000D02*
G01*
X6420000Y26580000D01*
X6420000Y26940000D01*
X6780000Y26940000D01*
X6780000Y26580000D01*
G37*
G36*
X6780000Y25860000D02*
G01*
X5340000Y25860000D01*
X5340000Y26220000D01*
X6780000Y26220000D01*
X6780000Y25860000D01*
G37*
G36*
X6780000Y24420000D02*
G01*
X5340000Y24420000D01*
X5340000Y24780000D01*
X6780000Y24780000D01*
X6780000Y24420000D01*
G37*
G36*
X7140000Y32340000D02*
G01*
X6780000Y32340000D01*
X6780000Y32700000D01*
X7140000Y32700000D01*
X7140000Y32340000D01*
G37*
G36*
X7140000Y29820000D02*
G01*
X6780000Y29820000D01*
X6780000Y30180000D01*
X7140000Y30180000D01*
X7140000Y29820000D01*
G37*
G36*
X7140000Y28380000D02*
G01*
X6780000Y28380000D01*
X6780000Y28740000D01*
X7140000Y28740000D01*
X7140000Y28380000D01*
G37*
G36*
X7140000Y27660000D02*
G01*
X6780000Y27660000D01*
X6780000Y28020000D01*
X7140000Y28020000D01*
X7140000Y27660000D01*
G37*
G36*
X7140000Y25500000D02*
G01*
X5340000Y25500000D01*
X5340000Y25860000D01*
X7140000Y25860000D01*
X7140000Y25500000D01*
G37*
G36*
X7500000Y30540000D02*
G01*
X7140000Y30540000D01*
X7140000Y30900000D01*
X7500000Y30900000D01*
X7500000Y30540000D01*
G37*
G36*
X7500000Y26940000D02*
G01*
X6780000Y26940000D01*
X6780000Y27300000D01*
X7500000Y27300000D01*
X7500000Y26940000D01*
G37*
G36*
X7500000Y25140000D02*
G01*
X7140000Y25140000D01*
X7140000Y25500000D01*
X7500000Y25500000D01*
X7500000Y25140000D01*
G37*
G36*
X7860000Y32700000D02*
G01*
X7140000Y32700000D01*
X7140000Y33060000D01*
X7860000Y33060000D01*
X7860000Y32700000D01*
G37*
G36*
X7860000Y31980000D02*
G01*
X7500000Y31980000D01*
X7500000Y32340000D01*
X7860000Y32340000D01*
X7860000Y31980000D01*
G37*
G36*
X7860000Y31260000D02*
G01*
X6780000Y31260000D01*
X6780000Y31620000D01*
X7860000Y31620000D01*
X7860000Y31260000D01*
G37*
G36*
X7860000Y30900000D02*
G01*
X7500000Y30900000D01*
X7500000Y31260000D01*
X7860000Y31260000D01*
X7860000Y30900000D01*
G37*
G36*
X7860000Y29100000D02*
G01*
X7140000Y29100000D01*
X7140000Y29460000D01*
X7860000Y29460000D01*
X7860000Y29100000D01*
G37*
G36*
X7860000Y24420000D02*
G01*
X7140000Y24420000D01*
X7140000Y24780000D01*
X7860000Y24780000D01*
X7860000Y24420000D01*
G37*
G36*
X8220000Y35220000D02*
G01*
X6420000Y35220000D01*
X6420000Y35580000D01*
X8220000Y35580000D01*
X8220000Y35220000D01*
G37*
G36*
X8220000Y34140000D02*
G01*
X7860000Y34140000D01*
X7860000Y35220000D01*
X8220000Y35220000D01*
X8220000Y34140000D01*
G37*
G36*
X8220000Y33780000D02*
G01*
X6420000Y33780000D01*
X6420000Y34140000D01*
X8220000Y34140000D01*
X8220000Y33780000D01*
G37*
G36*
X8220000Y32340000D02*
G01*
X7500000Y32340000D01*
X7500000Y32700000D01*
X8220000Y32700000D01*
X8220000Y32340000D01*
G37*
G36*
X8220000Y31620000D02*
G01*
X7500000Y31620000D01*
X7500000Y31980000D01*
X8220000Y31980000D01*
X8220000Y31620000D01*
G37*
G36*
X8220000Y29460000D02*
G01*
X6780000Y29460000D01*
X6780000Y29820000D01*
X8220000Y29820000D01*
X8220000Y29460000D01*
G37*
G36*
X8220000Y28740000D02*
G01*
X7500000Y28740000D01*
X7500000Y29100000D01*
X8220000Y29100000D01*
X8220000Y28740000D01*
G37*
G36*
X8220000Y28380000D02*
G01*
X7860000Y28380000D01*
X7860000Y28740000D01*
X8220000Y28740000D01*
X8220000Y28380000D01*
G37*
G36*
X8220000Y26220000D02*
G01*
X7860000Y26220000D01*
X7860000Y26580000D01*
X8220000Y26580000D01*
X8220000Y26220000D01*
G37*
G36*
X8220000Y24780000D02*
G01*
X5340000Y24780000D01*
X5340000Y25140000D01*
X8220000Y25140000D01*
X8220000Y24780000D01*
G37*
G36*
X8220000Y24060000D02*
G01*
X6780000Y24060000D01*
X6780000Y24420000D01*
X8220000Y24420000D01*
X8220000Y24060000D01*
G37*
G36*
X8580000Y30180000D02*
G01*
X7860000Y30180000D01*
X7860000Y30900000D01*
X8580000Y30900000D01*
X8580000Y30180000D01*
G37*
G36*
X8940000Y35580000D02*
G01*
X8580000Y35580000D01*
X8580000Y35940000D01*
X8940000Y35940000D01*
X8940000Y35580000D01*
G37*
G36*
X8940000Y34500000D02*
G01*
X8580000Y34500000D01*
X8580000Y34860000D01*
X8940000Y34860000D01*
X8940000Y34500000D01*
G37*
G36*
X8940000Y33420000D02*
G01*
X8580000Y33420000D01*
X8580000Y34140000D01*
X8940000Y34140000D01*
X8940000Y33420000D01*
G37*
G36*
X8940000Y31260000D02*
G01*
X8220000Y31260000D01*
X8220000Y31620000D01*
X8940000Y31620000D01*
X8940000Y31260000D01*
G37*
G36*
X8940000Y29820000D02*
G01*
X7860000Y29820000D01*
X7860000Y30180000D01*
X8940000Y30180000D01*
X8940000Y29820000D01*
G37*
G36*
X8940000Y29460000D02*
G01*
X8580000Y29460000D01*
X8580000Y29820000D01*
X8940000Y29820000D01*
X8940000Y29460000D01*
G37*
G36*
X8940000Y28740000D02*
G01*
X8580000Y28740000D01*
X8580000Y29100000D01*
X8940000Y29100000D01*
X8940000Y28740000D01*
G37*
G36*
X8940000Y28020000D02*
G01*
X7500000Y28020000D01*
X7500000Y28380000D01*
X8940000Y28380000D01*
X8940000Y28020000D01*
G37*
G36*
X8940000Y27300000D02*
G01*
X7500000Y27300000D01*
X7500000Y27660000D01*
X8940000Y27660000D01*
X8940000Y27300000D01*
G37*
G36*
X8940000Y26580000D02*
G01*
X7860000Y26580000D01*
X7860000Y26940000D01*
X8940000Y26940000D01*
X8940000Y26580000D01*
G37*
G36*
X8940000Y26220000D02*
G01*
X8580000Y26220000D01*
X8580000Y26580000D01*
X8940000Y26580000D01*
X8940000Y26220000D01*
G37*
G36*
X8940000Y25860000D02*
G01*
X7860000Y25860000D01*
X7860000Y26220000D01*
X8940000Y26220000D01*
X8940000Y25860000D01*
G37*
G36*
X8940000Y24060000D02*
G01*
X8580000Y24060000D01*
X8580000Y24420000D01*
X8940000Y24420000D01*
X8940000Y24060000D01*
G37*
G36*
X9300000Y34860000D02*
G01*
X8580000Y34860000D01*
X8580000Y35220000D01*
X9300000Y35220000D01*
X9300000Y34860000D01*
G37*
G36*
X9300000Y33060000D02*
G01*
X5340000Y33060000D01*
X5340000Y33420000D01*
X9300000Y33420000D01*
X9300000Y33060000D01*
G37*
G36*
X9300000Y32340000D02*
G01*
X8940000Y32340000D01*
X8940000Y32700000D01*
X9300000Y32700000D01*
X9300000Y32340000D01*
G37*
G36*
X9300000Y30900000D02*
G01*
X8580000Y30900000D01*
X8580000Y31260000D01*
X9300000Y31260000D01*
X9300000Y30900000D01*
G37*
G36*
X9300000Y28380000D02*
G01*
X8940000Y28380000D01*
X8940000Y28740000D01*
X9300000Y28740000D01*
X9300000Y28380000D01*
G37*
G36*
X9300000Y24780000D02*
G01*
X8940000Y24780000D01*
X8940000Y25140000D01*
X9300000Y25140000D01*
X9300000Y24780000D01*
G37*
G36*
X9660000Y35220000D02*
G01*
X8580000Y35220000D01*
X8580000Y35580000D01*
X9660000Y35580000D01*
X9660000Y35220000D01*
G37*
G36*
X9660000Y33420000D02*
G01*
X9300000Y33420000D01*
X9300000Y33780000D01*
X9660000Y33780000D01*
X9660000Y33420000D01*
G37*
G36*
X9660000Y31620000D02*
G01*
X8580000Y31620000D01*
X8580000Y31980000D01*
X9660000Y31980000D01*
X9660000Y31620000D01*
G37*
G36*
X9660000Y30180000D02*
G01*
X8940000Y30180000D01*
X8940000Y30900000D01*
X9660000Y30900000D01*
X9660000Y30180000D01*
G37*
G36*
X9660000Y29820000D02*
G01*
X9300000Y29820000D01*
X9300000Y30180000D01*
X9660000Y30180000D01*
X9660000Y29820000D01*
G37*
G36*
X9660000Y29100000D02*
G01*
X9300000Y29100000D01*
X9300000Y29460000D01*
X9660000Y29460000D01*
X9660000Y29100000D01*
G37*
G36*
X9660000Y27660000D02*
G01*
X7500000Y27660000D01*
X7500000Y28020000D01*
X9660000Y28020000D01*
X9660000Y27660000D01*
G37*
G36*
X9660000Y27300000D02*
G01*
X9300000Y27300000D01*
X9300000Y27660000D01*
X9660000Y27660000D01*
X9660000Y27300000D01*
G37*
G36*
X9660000Y25500000D02*
G01*
X9300000Y25500000D01*
X9300000Y25860000D01*
X9660000Y25860000D01*
X9660000Y25500000D01*
G37*
G36*
X10020000Y35580000D02*
G01*
X9660000Y35580000D01*
X9660000Y35940000D01*
X10020000Y35940000D01*
X10020000Y35580000D01*
G37*
G36*
X10020000Y34140000D02*
G01*
X8580000Y34140000D01*
X8580000Y34500000D01*
X10020000Y34500000D01*
X10020000Y34140000D01*
G37*
G36*
X10020000Y33060000D02*
G01*
X9660000Y33060000D01*
X9660000Y33420000D01*
X10020000Y33420000D01*
X10020000Y33060000D01*
G37*
G36*
X10020000Y31980000D02*
G01*
X8220000Y31980000D01*
X8220000Y32340000D01*
X10020000Y32340000D01*
X10020000Y31980000D01*
G37*
G36*
X10020000Y24420000D02*
G01*
X8940000Y24420000D01*
X8940000Y24780000D01*
X10020000Y24780000D01*
X10020000Y24420000D01*
G37*
G36*
X10380000Y33420000D02*
G01*
X10020000Y33420000D01*
X10020000Y33780000D01*
X10380000Y33780000D01*
X10380000Y33420000D01*
G37*
G36*
X10380000Y29460000D02*
G01*
X10020000Y29460000D01*
X10020000Y30540000D01*
X10380000Y30540000D01*
X10380000Y29460000D01*
G37*
G36*
X10380000Y26580000D02*
G01*
X9300000Y26580000D01*
X9300000Y27300000D01*
X10380000Y27300000D01*
X10380000Y26580000D01*
G37*
G36*
X10380000Y26220000D02*
G01*
X10020000Y26220000D01*
X10020000Y26580000D01*
X10380000Y26580000D01*
X10380000Y26220000D01*
G37*
G36*
X10380000Y25860000D02*
G01*
X9660000Y25860000D01*
X9660000Y26220000D01*
X10380000Y26220000D01*
X10380000Y25860000D01*
G37*
G36*
X10740000Y34860000D02*
G01*
X10380000Y34860000D01*
X10380000Y35220000D01*
X10740000Y35220000D01*
X10740000Y34860000D01*
G37*
G36*
X10740000Y34500000D02*
G01*
X10020000Y34500000D01*
X10020000Y34860000D01*
X10740000Y34860000D01*
X10740000Y34500000D01*
G37*
G36*
X10740000Y33780000D02*
G01*
X10380000Y33780000D01*
X10380000Y34140000D01*
X10740000Y34140000D01*
X10740000Y33780000D01*
G37*
G36*
X10740000Y31980000D02*
G01*
X10380000Y31980000D01*
X10380000Y32340000D01*
X10740000Y32340000D01*
X10740000Y31980000D01*
G37*
G36*
X10740000Y30540000D02*
G01*
X10020000Y30540000D01*
X10020000Y31260000D01*
X10740000Y31260000D01*
X10740000Y30540000D01*
G37*
G36*
X10740000Y29100000D02*
G01*
X10020000Y29100000D01*
X10020000Y29460000D01*
X10740000Y29460000D01*
X10740000Y29100000D01*
G37*
G36*
X11100000Y35580000D02*
G01*
X10740000Y35580000D01*
X10740000Y35940000D01*
X11100000Y35940000D01*
X11100000Y35580000D01*
G37*
G36*
X11100000Y33420000D02*
G01*
X10740000Y33420000D01*
X10740000Y33780000D01*
X11100000Y33780000D01*
X11100000Y33420000D01*
G37*
G36*
X11100000Y33060000D02*
G01*
X10380000Y33060000D01*
X10380000Y33420000D01*
X11100000Y33420000D01*
X11100000Y33060000D01*
G37*
G36*
X11100000Y32340000D02*
G01*
X10380000Y32340000D01*
X10380000Y32700000D01*
X11100000Y32700000D01*
X11100000Y32340000D01*
G37*
G36*
X11100000Y31260000D02*
G01*
X9300000Y31260000D01*
X9300000Y31620000D01*
X11100000Y31620000D01*
X11100000Y31260000D01*
G37*
G36*
X11100000Y28740000D02*
G01*
X10020000Y28740000D01*
X10020000Y29100000D01*
X11100000Y29100000D01*
X11100000Y28740000D01*
G37*
G36*
X11100000Y26220000D02*
G01*
X10740000Y26220000D01*
X10740000Y26580000D01*
X11100000Y26580000D01*
X11100000Y26220000D01*
G37*
G36*
X11100000Y24780000D02*
G01*
X10020000Y24780000D01*
X10020000Y25140000D01*
X11100000Y25140000D01*
X11100000Y24780000D01*
G37*
G36*
X11100000Y24420000D02*
G01*
X10380000Y24420000D01*
X10380000Y24780000D01*
X11100000Y24780000D01*
X11100000Y24420000D01*
G37*
G36*
X11460000Y34860000D02*
G01*
X11100000Y34860000D01*
X11100000Y35580000D01*
X11460000Y35580000D01*
X11460000Y34860000D01*
G37*
G36*
X11460000Y34140000D02*
G01*
X10740000Y34140000D01*
X10740000Y34500000D01*
X11460000Y34500000D01*
X11460000Y34140000D01*
G37*
G36*
X11460000Y32700000D02*
G01*
X10020000Y32700000D01*
X10020000Y33060000D01*
X11460000Y33060000D01*
X11460000Y32700000D01*
G37*
G36*
X11460000Y27660000D02*
G01*
X10380000Y27660000D01*
X10380000Y28020000D01*
X11460000Y28020000D01*
X11460000Y27660000D01*
G37*
G36*
X11460000Y25500000D02*
G01*
X10380000Y25500000D01*
X10380000Y25860000D01*
X11460000Y25860000D01*
X11460000Y25500000D01*
G37*
G36*
X11460000Y25140000D02*
G01*
X7860000Y25140000D01*
X7860000Y25500000D01*
X11460000Y25500000D01*
X11460000Y25140000D01*
G37*
G36*
X11460000Y24060000D02*
G01*
X9660000Y24060000D01*
X9660000Y24420000D01*
X11460000Y24420000D01*
X11460000Y24060000D01*
G37*
G36*
X11820000Y34500000D02*
G01*
X11460000Y34500000D01*
X11460000Y34860000D01*
X11820000Y34860000D01*
X11820000Y34500000D01*
G37*
G36*
X11820000Y33420000D02*
G01*
X11460000Y33420000D01*
X11460000Y33780000D01*
X11820000Y33780000D01*
X11820000Y33420000D01*
G37*
G36*
X11820000Y28380000D02*
G01*
X9660000Y28380000D01*
X9660000Y28740000D01*
X11820000Y28740000D01*
X11820000Y28380000D01*
G37*
G36*
X11820000Y26940000D02*
G01*
X11100000Y26940000D01*
X11100000Y27300000D01*
X11820000Y27300000D01*
X11820000Y26940000D01*
G37*
G36*
X12180000Y35580000D02*
G01*
X11460000Y35580000D01*
X11460000Y35940000D01*
X12180000Y35940000D01*
X12180000Y35580000D01*
G37*
G36*
X12180000Y34860000D02*
G01*
X11820000Y34860000D01*
X11820000Y35580000D01*
X12180000Y35580000D01*
X12180000Y34860000D01*
G37*
G36*
X12180000Y34140000D02*
G01*
X11820000Y34140000D01*
X11820000Y34500000D01*
X12180000Y34500000D01*
X12180000Y34140000D01*
G37*
G36*
X12180000Y32340000D02*
G01*
X11820000Y32340000D01*
X11820000Y33060000D01*
X12180000Y33060000D01*
X12180000Y32340000D01*
G37*
G36*
X12180000Y31980000D02*
G01*
X11100000Y31980000D01*
X11100000Y32340000D01*
X12180000Y32340000D01*
X12180000Y31980000D01*
G37*
G36*
X12180000Y30180000D02*
G01*
X11460000Y30180000D01*
X11460000Y30900000D01*
X12180000Y30900000D01*
X12180000Y30180000D01*
G37*
G36*
X12180000Y29100000D02*
G01*
X11820000Y29100000D01*
X11820000Y29460000D01*
X12180000Y29460000D01*
X12180000Y29100000D01*
G37*
G36*
X12180000Y26580000D02*
G01*
X11820000Y26580000D01*
X11820000Y26940000D01*
X12180000Y26940000D01*
X12180000Y26580000D01*
G37*
G36*
X12180000Y24780000D02*
G01*
X11820000Y24780000D01*
X11820000Y25140000D01*
X12180000Y25140000D01*
X12180000Y24780000D01*
G37*
G36*
X12540000Y33420000D02*
G01*
X12180000Y33420000D01*
X12180000Y33780000D01*
X12540000Y33780000D01*
X12540000Y33420000D01*
G37*
G36*
X12540000Y33060000D02*
G01*
X11460000Y33060000D01*
X11460000Y33420000D01*
X12540000Y33420000D01*
X12540000Y33060000D01*
G37*
G36*
X12540000Y31260000D02*
G01*
X11820000Y31260000D01*
X11820000Y31620000D01*
X12540000Y31620000D01*
X12540000Y31260000D01*
G37*
G36*
X12540000Y30900000D02*
G01*
X11460000Y30900000D01*
X11460000Y31260000D01*
X12540000Y31260000D01*
X12540000Y30900000D01*
G37*
G36*
X12540000Y29820000D02*
G01*
X11460000Y29820000D01*
X11460000Y30180000D01*
X12540000Y30180000D01*
X12540000Y29820000D01*
G37*
G36*
X12540000Y29460000D02*
G01*
X12180000Y29460000D01*
X12180000Y29820000D01*
X12540000Y29820000D01*
X12540000Y29460000D01*
G37*
G36*
X12540000Y25860000D02*
G01*
X11460000Y25860000D01*
X11460000Y26220000D01*
X12540000Y26220000D01*
X12540000Y25860000D01*
G37*
G36*
X12540000Y25140000D02*
G01*
X12180000Y25140000D01*
X12180000Y25860000D01*
X12540000Y25860000D01*
X12540000Y25140000D01*
G37*
G36*
X12540000Y24420000D02*
G01*
X11460000Y24420000D01*
X11460000Y24780000D01*
X12540000Y24780000D01*
X12540000Y24420000D01*
G37*
G36*
X12900000Y34860000D02*
G01*
X12540000Y34860000D01*
X12540000Y35220000D01*
X12900000Y35220000D01*
X12900000Y34860000D01*
G37*
G36*
X12900000Y34140000D02*
G01*
X12540000Y34140000D01*
X12540000Y34500000D01*
X12900000Y34500000D01*
X12900000Y34140000D01*
G37*
G36*
X12900000Y32340000D02*
G01*
X12540000Y32340000D01*
X12540000Y32700000D01*
X12900000Y32700000D01*
X12900000Y32340000D01*
G37*
G36*
X12900000Y27660000D02*
G01*
X12540000Y27660000D01*
X12540000Y28020000D01*
X12900000Y28020000D01*
X12900000Y27660000D01*
G37*
G36*
X12900000Y27300000D02*
G01*
X11460000Y27300000D01*
X11460000Y27660000D01*
X12900000Y27660000D01*
X12900000Y27300000D01*
G37*
G36*
X12900000Y26220000D02*
G01*
X11460000Y26220000D01*
X11460000Y26580000D01*
X12900000Y26580000D01*
X12900000Y26220000D01*
G37*
G36*
X12900000Y24780000D02*
G01*
X12540000Y24780000D01*
X12540000Y25140000D01*
X12900000Y25140000D01*
X12900000Y24780000D01*
G37*
G36*
X13260000Y35580000D02*
G01*
X12900000Y35580000D01*
X12900000Y35940000D01*
X13260000Y35940000D01*
X13260000Y35580000D01*
G37*
G36*
X13260000Y33060000D02*
G01*
X12900000Y33060000D01*
X12900000Y33780000D01*
X13260000Y33780000D01*
X13260000Y33060000D01*
G37*
G36*
X13260000Y26940000D02*
G01*
X12180000Y26940000D01*
X12180000Y27300000D01*
X13260000Y27300000D01*
X13260000Y26940000D01*
G37*
G36*
X13260000Y26580000D02*
G01*
X12540000Y26580000D01*
X12540000Y26940000D01*
X13260000Y26940000D01*
X13260000Y26580000D01*
G37*
G36*
X13260000Y24420000D02*
G01*
X12900000Y24420000D01*
X12900000Y24780000D01*
X13260000Y24780000D01*
X13260000Y24420000D01*
G37*
G36*
X13260000Y24060000D02*
G01*
X11820000Y24060000D01*
X11820000Y24420000D01*
X13260000Y24420000D01*
X13260000Y24060000D01*
G37*
G36*
X13620000Y35220000D02*
G01*
X12900000Y35220000D01*
X12900000Y35580000D01*
X13620000Y35580000D01*
X13620000Y35220000D01*
G37*
G36*
X13620000Y31980000D02*
G01*
X12540000Y31980000D01*
X12540000Y32340000D01*
X13620000Y32340000D01*
X13620000Y31980000D01*
G37*
G36*
X13620000Y27300000D02*
G01*
X13260000Y27300000D01*
X13260000Y27660000D01*
X13620000Y27660000D01*
X13620000Y27300000D01*
G37*
G36*
X13620000Y25140000D02*
G01*
X12900000Y25140000D01*
X12900000Y25500000D01*
X13620000Y25500000D01*
X13620000Y25140000D01*
G37*
G36*
X13980000Y35580000D02*
G01*
X13620000Y35580000D01*
X13620000Y35940000D01*
X13980000Y35940000D01*
X13980000Y35580000D01*
G37*
G36*
X13980000Y34140000D02*
G01*
X13620000Y34140000D01*
X13620000Y34500000D01*
X13980000Y34500000D01*
X13980000Y34140000D01*
G37*
G36*
X13980000Y33060000D02*
G01*
X13620000Y33060000D01*
X13620000Y33780000D01*
X13980000Y33780000D01*
X13980000Y33060000D01*
G37*
G36*
X13980000Y31260000D02*
G01*
X12900000Y31260000D01*
X12900000Y31620000D01*
X13980000Y31620000D01*
X13980000Y31260000D01*
G37*
G36*
X13980000Y30180000D02*
G01*
X13620000Y30180000D01*
X13620000Y30900000D01*
X13980000Y30900000D01*
X13980000Y30180000D01*
G37*
G36*
X13980000Y29100000D02*
G01*
X13620000Y29100000D01*
X13620000Y29460000D01*
X13980000Y29460000D01*
X13980000Y29100000D01*
G37*
G36*
X13980000Y28380000D02*
G01*
X12540000Y28380000D01*
X12540000Y28740000D01*
X13980000Y28740000D01*
X13980000Y28380000D01*
G37*
G36*
X13980000Y28020000D02*
G01*
X9300000Y28020000D01*
X9300000Y28380000D01*
X13980000Y28380000D01*
X13980000Y28020000D01*
G37*
G36*
X13980000Y26580000D02*
G01*
X13620000Y26580000D01*
X13620000Y27300000D01*
X13980000Y27300000D01*
X13980000Y26580000D01*
G37*
G36*
X13980000Y24780000D02*
G01*
X13620000Y24780000D01*
X13620000Y25140000D01*
X13980000Y25140000D01*
X13980000Y24780000D01*
G37*
G36*
X14340000Y34500000D02*
G01*
X13260000Y34500000D01*
X13260000Y34860000D01*
X14340000Y34860000D01*
X14340000Y34500000D01*
G37*
G36*
X14340000Y33780000D02*
G01*
X13980000Y33780000D01*
X13980000Y34140000D01*
X14340000Y34140000D01*
X14340000Y33780000D01*
G37*
G36*
X14340000Y32340000D02*
G01*
X13980000Y32340000D01*
X13980000Y32700000D01*
X14340000Y32700000D01*
X14340000Y32340000D01*
G37*
G36*
X14340000Y31620000D02*
G01*
X10020000Y31620000D01*
X10020000Y31980000D01*
X14340000Y31980000D01*
X14340000Y31620000D01*
G37*
G36*
X14340000Y30900000D02*
G01*
X13260000Y30900000D01*
X13260000Y31260000D01*
X14340000Y31260000D01*
X14340000Y30900000D01*
G37*
G36*
X14340000Y29820000D02*
G01*
X13620000Y29820000D01*
X13620000Y30180000D01*
X14340000Y30180000D01*
X14340000Y29820000D01*
G37*
G36*
X14340000Y28740000D02*
G01*
X13260000Y28740000D01*
X13260000Y29100000D01*
X14340000Y29100000D01*
X14340000Y28740000D01*
G37*
G36*
X14340000Y26220000D02*
G01*
X13260000Y26220000D01*
X13260000Y26580000D01*
X14340000Y26580000D01*
X14340000Y26220000D01*
G37*
G36*
X14700000Y35220000D02*
G01*
X13980000Y35220000D01*
X13980000Y35580000D01*
X14700000Y35580000D01*
X14700000Y35220000D01*
G37*
G36*
X14700000Y34860000D02*
G01*
X14340000Y34860000D01*
X14340000Y35220000D01*
X14700000Y35220000D01*
X14700000Y34860000D01*
G37*
G36*
X14700000Y33060000D02*
G01*
X14340000Y33060000D01*
X14340000Y33780000D01*
X14700000Y33780000D01*
X14700000Y33060000D01*
G37*
G36*
X14700000Y32700000D02*
G01*
X12540000Y32700000D01*
X12540000Y33060000D01*
X14700000Y33060000D01*
X14700000Y32700000D01*
G37*
G36*
X14700000Y29460000D02*
G01*
X13620000Y29460000D01*
X13620000Y29820000D01*
X14700000Y29820000D01*
X14700000Y29460000D01*
G37*
G36*
X14700000Y27660000D02*
G01*
X14340000Y27660000D01*
X14340000Y28020000D01*
X14700000Y28020000D01*
X14700000Y27660000D01*
G37*
G36*
X14700000Y26580000D02*
G01*
X14340000Y26580000D01*
X14340000Y26940000D01*
X14700000Y26940000D01*
X14700000Y26580000D01*
G37*
G36*
X14700000Y25500000D02*
G01*
X14340000Y25500000D01*
X14340000Y25860000D01*
X14700000Y25860000D01*
X14700000Y25500000D01*
G37*
G36*
X14700000Y24780000D02*
G01*
X14340000Y24780000D01*
X14340000Y25140000D01*
X14700000Y25140000D01*
X14700000Y24780000D01*
G37*
G36*
X15060000Y31620000D02*
G01*
X14700000Y31620000D01*
X14700000Y31980000D01*
X15060000Y31980000D01*
X15060000Y31620000D01*
G37*
G36*
X15060000Y30180000D02*
G01*
X14340000Y30180000D01*
X14340000Y30540000D01*
X15060000Y30540000D01*
X15060000Y30180000D01*
G37*
G36*
X15060000Y28020000D02*
G01*
X14340000Y28020000D01*
X14340000Y28380000D01*
X15060000Y28380000D01*
X15060000Y28020000D01*
G37*
G36*
X15060000Y27300000D02*
G01*
X13980000Y27300000D01*
X13980000Y27660000D01*
X15060000Y27660000D01*
X15060000Y27300000D01*
G37*
G36*
X15420000Y34860000D02*
G01*
X15060000Y34860000D01*
X15060000Y35940000D01*
X15420000Y35940000D01*
X15420000Y34860000D01*
G37*
G36*
X15420000Y34140000D02*
G01*
X14700000Y34140000D01*
X14700000Y34860000D01*
X15420000Y34860000D01*
X15420000Y34140000D01*
G37*
G36*
X15420000Y33420000D02*
G01*
X15060000Y33420000D01*
X15060000Y34140000D01*
X15420000Y34140000D01*
X15420000Y33420000D01*
G37*
G36*
X15420000Y32700000D02*
G01*
X15060000Y32700000D01*
X15060000Y33060000D01*
X15420000Y33060000D01*
X15420000Y32700000D01*
G37*
G36*
X15420000Y31980000D02*
G01*
X14700000Y31980000D01*
X14700000Y32340000D01*
X15420000Y32340000D01*
X15420000Y31980000D01*
G37*
G36*
X15420000Y30540000D02*
G01*
X14340000Y30540000D01*
X14340000Y30900000D01*
X15420000Y30900000D01*
X15420000Y30540000D01*
G37*
G36*
X15420000Y29820000D02*
G01*
X14700000Y29820000D01*
X14700000Y30180000D01*
X15420000Y30180000D01*
X15420000Y29820000D01*
G37*
G36*
X15420000Y29100000D02*
G01*
X14340000Y29100000D01*
X14340000Y29460000D01*
X15420000Y29460000D01*
X15420000Y29100000D01*
G37*
G36*
X15420000Y28380000D02*
G01*
X14700000Y28380000D01*
X14700000Y28740000D01*
X15420000Y28740000D01*
X15420000Y28380000D01*
G37*
G36*
X15420000Y26940000D02*
G01*
X14340000Y26940000D01*
X14340000Y27300000D01*
X15420000Y27300000D01*
X15420000Y26940000D01*
G37*
G36*
X15420000Y26220000D02*
G01*
X14700000Y26220000D01*
X14700000Y26580000D01*
X15420000Y26580000D01*
X15420000Y26220000D01*
G37*
G36*
X15420000Y25860000D02*
G01*
X13260000Y25860000D01*
X13260000Y26220000D01*
X15420000Y26220000D01*
X15420000Y25860000D01*
G37*
G36*
X15420000Y24780000D02*
G01*
X15060000Y24780000D01*
X15060000Y25860000D01*
X15420000Y25860000D01*
X15420000Y24780000D01*
G37*
G36*
X15420000Y24420000D02*
G01*
X13980000Y24420000D01*
X13980000Y24780000D01*
X15420000Y24780000D01*
X15420000Y24420000D01*
G37*
G36*
X15420000Y24060000D02*
G01*
X14700000Y24060000D01*
X14700000Y24420000D01*
X15420000Y24420000D01*
X15420000Y24060000D01*
G37*
G36*
X15780000Y30900000D02*
G01*
X14700000Y30900000D01*
X14700000Y31260000D01*
X15780000Y31260000D01*
X15780000Y30900000D01*
G37*
G36*
X15780000Y30180000D02*
G01*
X15420000Y30180000D01*
X15420000Y30540000D01*
X15780000Y30540000D01*
X15780000Y30180000D01*
G37*
G36*
X15780000Y29460000D02*
G01*
X15060000Y29460000D01*
X15060000Y29820000D01*
X15780000Y29820000D01*
X15780000Y29460000D01*
G37*
G36*
X15780000Y28740000D02*
G01*
X15060000Y28740000D01*
X15060000Y29100000D01*
X15780000Y29100000D01*
X15780000Y28740000D01*
G37*
G36*
X16140000Y34140000D02*
G01*
X15780000Y34140000D01*
X15780000Y35220000D01*
X16140000Y35220000D01*
X16140000Y34140000D01*
G37*
G36*
X16140000Y32700000D02*
G01*
X15780000Y32700000D01*
X15780000Y33060000D01*
X16140000Y33060000D01*
X16140000Y32700000D01*
G37*
G36*
X16140000Y32340000D02*
G01*
X15060000Y32340000D01*
X15060000Y32700000D01*
X16140000Y32700000D01*
X16140000Y32340000D01*
G37*
G36*
X16140000Y31980000D02*
G01*
X15780000Y31980000D01*
X15780000Y32340000D01*
X16140000Y32340000D01*
X16140000Y31980000D01*
G37*
G36*
X16140000Y29820000D02*
G01*
X15780000Y29820000D01*
X15780000Y30180000D01*
X16140000Y30180000D01*
X16140000Y29820000D01*
G37*
G36*
X16140000Y24780000D02*
G01*
X15780000Y24780000D01*
X15780000Y25860000D01*
X16140000Y25860000D01*
X16140000Y24780000D01*
G37*
G36*
X16500000Y30900000D02*
G01*
X16140000Y30900000D01*
X16140000Y31260000D01*
X16500000Y31260000D01*
X16500000Y30900000D01*
G37*
G36*
X16500000Y28020000D02*
G01*
X15420000Y28020000D01*
X15420000Y28380000D01*
X16500000Y28380000D01*
X16500000Y28020000D01*
G37*
G36*
X16860000Y32340000D02*
G01*
X16500000Y32340000D01*
X16500000Y32700000D01*
X16860000Y32700000D01*
X16860000Y32340000D01*
G37*
G36*
X16860000Y29460000D02*
G01*
X16500000Y29460000D01*
X16500000Y29820000D01*
X16860000Y29820000D01*
X16860000Y29460000D01*
G37*
G36*
X16860000Y29100000D02*
G01*
X16140000Y29100000D01*
X16140000Y29460000D01*
X16860000Y29460000D01*
X16860000Y29100000D01*
G37*
G36*
X16860000Y27300000D02*
G01*
X15420000Y27300000D01*
X15420000Y27660000D01*
X16860000Y27660000D01*
X16860000Y27300000D01*
G37*
G36*
X17220000Y31620000D02*
G01*
X15420000Y31620000D01*
X15420000Y31980000D01*
X17220000Y31980000D01*
X17220000Y31620000D01*
G37*
G36*
X17220000Y30900000D02*
G01*
X16860000Y30900000D01*
X16860000Y31260000D01*
X17220000Y31260000D01*
X17220000Y30900000D01*
G37*
G36*
X17220000Y30540000D02*
G01*
X16500000Y30540000D01*
X16500000Y30900000D01*
X17220000Y30900000D01*
X17220000Y30540000D01*
G37*
G36*
X17220000Y29820000D02*
G01*
X16860000Y29820000D01*
X16860000Y30180000D01*
X17220000Y30180000D01*
X17220000Y29820000D01*
G37*
G36*
X17580000Y35220000D02*
G01*
X15780000Y35220000D01*
X15780000Y35580000D01*
X17580000Y35580000D01*
X17580000Y35220000D01*
G37*
G36*
X17580000Y34140000D02*
G01*
X17220000Y34140000D01*
X17220000Y35220000D01*
X17580000Y35220000D01*
X17580000Y34140000D01*
G37*
G36*
X17580000Y33780000D02*
G01*
X15780000Y33780000D01*
X15780000Y34140000D01*
X17580000Y34140000D01*
X17580000Y33780000D01*
G37*
G36*
X17580000Y29100000D02*
G01*
X17220000Y29100000D01*
X17220000Y29820000D01*
X17580000Y29820000D01*
X17580000Y29100000D01*
G37*
G36*
X17580000Y27660000D02*
G01*
X16140000Y27660000D01*
X16140000Y28020000D01*
X17580000Y28020000D01*
X17580000Y27660000D01*
G37*
G36*
X17580000Y27300000D02*
G01*
X17220000Y27300000D01*
X17220000Y27660000D01*
X17580000Y27660000D01*
X17580000Y27300000D01*
G37*
G36*
X17580000Y26940000D02*
G01*
X16140000Y26940000D01*
X16140000Y27300000D01*
X17580000Y27300000D01*
X17580000Y26940000D01*
G37*
G36*
X17580000Y25860000D02*
G01*
X15780000Y25860000D01*
X15780000Y26220000D01*
X17580000Y26220000D01*
X17580000Y25860000D01*
G37*
G36*
X17580000Y24780000D02*
G01*
X17220000Y24780000D01*
X17220000Y25860000D01*
X17580000Y25860000D01*
X17580000Y24780000D01*
G37*
G36*
X17580000Y24420000D02*
G01*
X15780000Y24420000D01*
X15780000Y24780000D01*
X17580000Y24780000D01*
X17580000Y24420000D01*
G37*
G36*
X18660000Y35940000D02*
G01*
X5340000Y35940000D01*
X5340000Y36660000D01*
X18660000Y36660000D01*
X18660000Y35940000D01*
G37*
G36*
X18660000Y33420000D02*
G01*
X17940000Y33420000D01*
X17940000Y35940000D01*
X18660000Y35940000D01*
X18660000Y33420000D01*
G37*
G36*
X18660000Y33060000D02*
G01*
X15060000Y33060000D01*
X15060000Y33420000D01*
X18660000Y33420000D01*
X18660000Y33060000D01*
G37*
G36*
X18660000Y32700000D02*
G01*
X17220000Y32700000D01*
X17220000Y33060000D01*
X18660000Y33060000D01*
X18660000Y32700000D01*
G37*
G36*
X18660000Y31620000D02*
G01*
X17580000Y31620000D01*
X17580000Y32700000D01*
X18660000Y32700000D01*
X18660000Y31620000D01*
G37*
G36*
X18660000Y31260000D02*
G01*
X16140000Y31260000D01*
X16140000Y31620000D01*
X18660000Y31620000D01*
X18660000Y31260000D01*
G37*
G36*
X18660000Y30900000D02*
G01*
X17580000Y30900000D01*
X17580000Y31260000D01*
X18660000Y31260000D01*
X18660000Y30900000D01*
G37*
G36*
X18660000Y30540000D02*
G01*
X17940000Y30540000D01*
X17940000Y30900000D01*
X18660000Y30900000D01*
X18660000Y30540000D01*
G37*
G36*
X18660000Y30180000D02*
G01*
X16140000Y30180000D01*
X16140000Y30540000D01*
X18660000Y30540000D01*
X18660000Y30180000D01*
G37*
G36*
X18660000Y29100000D02*
G01*
X17940000Y29100000D01*
X17940000Y30180000D01*
X18660000Y30180000D01*
X18660000Y29100000D01*
G37*
G36*
X18660000Y28740000D02*
G01*
X17580000Y28740000D01*
X17580000Y29100000D01*
X18660000Y29100000D01*
X18660000Y28740000D01*
G37*
G36*
X18660000Y28380000D02*
G01*
X16860000Y28380000D01*
X16860000Y28740000D01*
X18660000Y28740000D01*
X18660000Y28380000D01*
G37*
G36*
X18660000Y26940000D02*
G01*
X17940000Y26940000D01*
X17940000Y28380000D01*
X18660000Y28380000D01*
X18660000Y26940000D01*
G37*
G36*
X18660000Y26580000D02*
G01*
X15060000Y26580000D01*
X15060000Y26940000D01*
X18660000Y26940000D01*
X18660000Y26580000D01*
G37*
G36*
X18660000Y24060000D02*
G01*
X17940000Y24060000D01*
X17940000Y26580000D01*
X18660000Y26580000D01*
X18660000Y24060000D01*
G37*
G36*
X18660000Y23340000D02*
G01*
X5340000Y23340000D01*
X5340000Y24060000D01*
X18660000Y24060000D01*
X18660000Y23340000D01*
G37*
%TD*%
%LPC*%
G36*
X9950168Y4108555D02*
G01*
X10174025Y4035819D01*
X10383748Y3928960D01*
X10574172Y3790609D01*
X10740609Y3624172D01*
X10878960Y3433748D01*
X10985819Y3224025D01*
X11058555Y3000168D01*
X11095376Y2767689D01*
X11095376Y2532311D01*
X11058555Y2299832D01*
X10985819Y2075975D01*
X10878960Y1866252D01*
X10740609Y1675828D01*
X10574172Y1509391D01*
X10383748Y1371040D01*
X10174025Y1264181D01*
X9950168Y1191445D01*
X9717689Y1154624D01*
X9482311Y1154624D01*
X9249832Y1191445D01*
X9025975Y1264181D01*
X8816252Y1371040D01*
X8625828Y1509391D01*
X8459391Y1675828D01*
X8321040Y1866252D01*
X8214181Y2075975D01*
X8141445Y2299832D01*
X8104624Y2532311D01*
X8104624Y2767689D01*
X8141445Y3000168D01*
X8214181Y3224025D01*
X8321040Y3433748D01*
X8459391Y3624172D01*
X8625828Y3790609D01*
X8816252Y3928960D01*
X9025975Y4035819D01*
X9249832Y4108555D01*
X9482311Y4145376D01*
X9717689Y4145376D01*
X9950168Y4108555D01*
G37*
G36*
X14950168Y4108555D02*
G01*
X15174025Y4035819D01*
X15383748Y3928960D01*
X15574172Y3790609D01*
X15740609Y3624172D01*
X15878960Y3433748D01*
X15985819Y3224025D01*
X16058555Y3000168D01*
X16095376Y2767689D01*
X16095376Y2532311D01*
X16058555Y2299832D01*
X15985819Y2075975D01*
X15878960Y1866252D01*
X15740609Y1675828D01*
X15574172Y1509391D01*
X15383748Y1371040D01*
X15174025Y1264181D01*
X14950168Y1191445D01*
X14717689Y1154624D01*
X14482311Y1154624D01*
X14249832Y1191445D01*
X14025975Y1264181D01*
X13816252Y1371040D01*
X13625828Y1509391D01*
X13459391Y1675828D01*
X13321040Y1866252D01*
X13214181Y2075975D01*
X13141445Y2299832D01*
X13104624Y2532311D01*
X13104624Y2767689D01*
X13141445Y3000168D01*
X13214181Y3224025D01*
X13321040Y3433748D01*
X13459391Y3624172D01*
X13625828Y3790609D01*
X13816252Y3928960D01*
X14025975Y4035819D01*
X14249832Y4108555D01*
X14482311Y4145376D01*
X14717689Y4145376D01*
X14950168Y4108555D01*
G37*
G36*
X20450168Y4108555D02*
G01*
X20674025Y4035819D01*
X20883748Y3928960D01*
X21074172Y3790609D01*
X21240609Y3624172D01*
X21378960Y3433748D01*
X21485819Y3224025D01*
X21558555Y3000168D01*
X21595376Y2767689D01*
X21595376Y2532311D01*
X21558555Y2299832D01*
X21485819Y2075975D01*
X21378960Y1866252D01*
X21240609Y1675828D01*
X21074172Y1509391D01*
X20883748Y1371040D01*
X20674025Y1264181D01*
X20450168Y1191445D01*
X20217689Y1154624D01*
X19982311Y1154624D01*
X19749832Y1191445D01*
X19525975Y1264181D01*
X19316252Y1371040D01*
X19125828Y1509391D01*
X18959391Y1675828D01*
X18821040Y1866252D01*
X18714181Y2075975D01*
X18641445Y2299832D01*
X18604624Y2532311D01*
X18604624Y2767689D01*
X18641445Y3000168D01*
X18714181Y3224025D01*
X18821040Y3433748D01*
X18959391Y3624172D01*
X19125828Y3790609D01*
X19316252Y3928960D01*
X19525975Y4035819D01*
X19749832Y4108555D01*
X19982311Y4145376D01*
X20217689Y4145376D01*
X20450168Y4108555D01*
G37*
G36*
X25450168Y4108555D02*
G01*
X25674025Y4035819D01*
X25883748Y3928960D01*
X26074172Y3790609D01*
X26240609Y3624172D01*
X26378960Y3433748D01*
X26485819Y3224025D01*
X26558555Y3000168D01*
X26595376Y2767689D01*
X26595376Y2532311D01*
X26558555Y2299832D01*
X26485819Y2075975D01*
X26378960Y1866252D01*
X26240609Y1675828D01*
X26074172Y1509391D01*
X25883748Y1371040D01*
X25674025Y1264181D01*
X25450168Y1191445D01*
X25217689Y1154624D01*
X24982311Y1154624D01*
X24749832Y1191445D01*
X24525975Y1264181D01*
X24316252Y1371040D01*
X24125828Y1509391D01*
X23959391Y1675828D01*
X23821040Y1866252D01*
X23714181Y2075975D01*
X23641445Y2299832D01*
X23604624Y2532311D01*
X23604624Y2767689D01*
X23641445Y3000168D01*
X23714181Y3224025D01*
X23821040Y3433748D01*
X23959391Y3624172D01*
X24125828Y3790609D01*
X24316252Y3928960D01*
X24525975Y4035819D01*
X24749832Y4108555D01*
X24982311Y4145376D01*
X25217689Y4145376D01*
X25450168Y4108555D01*
G37*
G36*
X49950168Y4108555D02*
G01*
X50174025Y4035819D01*
X50383748Y3928960D01*
X50574172Y3790609D01*
X50740609Y3624172D01*
X50878960Y3433748D01*
X50985819Y3224025D01*
X51058555Y3000168D01*
X51095376Y2767689D01*
X51095376Y2532311D01*
X51058555Y2299832D01*
X50985819Y2075975D01*
X50878960Y1866252D01*
X50740609Y1675828D01*
X50574172Y1509391D01*
X50383748Y1371040D01*
X50174025Y1264181D01*
X49950168Y1191445D01*
X49717689Y1154624D01*
X49482311Y1154624D01*
X49249832Y1191445D01*
X49025975Y1264181D01*
X48816252Y1371040D01*
X48625828Y1509391D01*
X48459391Y1675828D01*
X48321040Y1866252D01*
X48214181Y2075975D01*
X48141445Y2299832D01*
X48104624Y2532311D01*
X48104624Y2767689D01*
X48141445Y3000168D01*
X48214181Y3224025D01*
X48321040Y3433748D01*
X48459391Y3624172D01*
X48625828Y3790609D01*
X48816252Y3928960D01*
X49025975Y4035819D01*
X49249832Y4108555D01*
X49482311Y4145376D01*
X49717689Y4145376D01*
X49950168Y4108555D01*
G37*
G36*
X54950168Y4108555D02*
G01*
X55174025Y4035819D01*
X55383748Y3928960D01*
X55574172Y3790609D01*
X55740609Y3624172D01*
X55878960Y3433748D01*
X55985819Y3224025D01*
X56058555Y3000168D01*
X56095376Y2767689D01*
X56095376Y2532311D01*
X56058555Y2299832D01*
X55985819Y2075975D01*
X55878960Y1866252D01*
X55740609Y1675828D01*
X55574172Y1509391D01*
X55383748Y1371040D01*
X55174025Y1264181D01*
X54950168Y1191445D01*
X54717689Y1154624D01*
X54482311Y1154624D01*
X54249832Y1191445D01*
X54025975Y1264181D01*
X53816252Y1371040D01*
X53625828Y1509391D01*
X53459391Y1675828D01*
X53321040Y1866252D01*
X53214181Y2075975D01*
X53141445Y2299832D01*
X53104624Y2532311D01*
X53104624Y2767689D01*
X53141445Y3000168D01*
X53214181Y3224025D01*
X53321040Y3433748D01*
X53459391Y3624172D01*
X53625828Y3790609D01*
X53816252Y3928960D01*
X54025975Y4035819D01*
X54249832Y4108555D01*
X54482311Y4145376D01*
X54717689Y4145376D01*
X54950168Y4108555D01*
G37*
G36*
X66200168Y4108555D02*
G01*
X66424025Y4035819D01*
X66633748Y3928960D01*
X66824172Y3790609D01*
X66990609Y3624172D01*
X67128960Y3433748D01*
X67235819Y3224025D01*
X67308555Y3000168D01*
X67345376Y2767689D01*
X67345376Y2532311D01*
X67308555Y2299832D01*
X67235819Y2075975D01*
X67128960Y1866252D01*
X66990609Y1675828D01*
X66824172Y1509391D01*
X66633748Y1371040D01*
X66424025Y1264181D01*
X66200168Y1191445D01*
X65967689Y1154624D01*
X65732311Y1154624D01*
X65499832Y1191445D01*
X65275975Y1264181D01*
X65066252Y1371040D01*
X64875828Y1509391D01*
X64709391Y1675828D01*
X64571040Y1866252D01*
X64464181Y2075975D01*
X64391445Y2299832D01*
X64354624Y2532311D01*
X64354624Y2767689D01*
X64391445Y3000168D01*
X64464181Y3224025D01*
X64571040Y3433748D01*
X64709391Y3624172D01*
X64875828Y3790609D01*
X65066252Y3928960D01*
X65275975Y4035819D01*
X65499832Y4108555D01*
X65732311Y4145376D01*
X65967689Y4145376D01*
X66200168Y4108555D01*
G37*
G36*
X71200168Y4108555D02*
G01*
X71424025Y4035819D01*
X71633748Y3928960D01*
X71824172Y3790609D01*
X71990609Y3624172D01*
X72128960Y3433748D01*
X72235819Y3224025D01*
X72308555Y3000168D01*
X72345376Y2767689D01*
X72345376Y2532311D01*
X72308555Y2299832D01*
X72235819Y2075975D01*
X72128960Y1866252D01*
X71990609Y1675828D01*
X71824172Y1509391D01*
X71633748Y1371040D01*
X71424025Y1264181D01*
X71200168Y1191445D01*
X70967689Y1154624D01*
X70732311Y1154624D01*
X70499832Y1191445D01*
X70275975Y1264181D01*
X70066252Y1371040D01*
X69875828Y1509391D01*
X69709391Y1675828D01*
X69571040Y1866252D01*
X69464181Y2075975D01*
X69391445Y2299832D01*
X69354624Y2532311D01*
X69354624Y2767689D01*
X69391445Y3000168D01*
X69464181Y3224025D01*
X69571040Y3433748D01*
X69709391Y3624172D01*
X69875828Y3790609D01*
X70066252Y3928960D01*
X70275975Y4035819D01*
X70499832Y4108555D01*
X70732311Y4145376D01*
X70967689Y4145376D01*
X71200168Y4108555D01*
G37*
G36*
X82450168Y4108555D02*
G01*
X82674025Y4035819D01*
X82883748Y3928960D01*
X83074172Y3790609D01*
X83240609Y3624172D01*
X83378960Y3433748D01*
X83485819Y3224025D01*
X83558555Y3000168D01*
X83595376Y2767689D01*
X83595376Y2532311D01*
X83558555Y2299832D01*
X83485819Y2075975D01*
X83378960Y1866252D01*
X83240609Y1675828D01*
X83074172Y1509391D01*
X82883748Y1371040D01*
X82674025Y1264181D01*
X82450168Y1191445D01*
X82217689Y1154624D01*
X81982311Y1154624D01*
X81749832Y1191445D01*
X81525975Y1264181D01*
X81316252Y1371040D01*
X81125828Y1509391D01*
X80959391Y1675828D01*
X80821040Y1866252D01*
X80714181Y2075975D01*
X80641445Y2299832D01*
X80604624Y2532311D01*
X80604624Y2767689D01*
X80641445Y3000168D01*
X80714181Y3224025D01*
X80821040Y3433748D01*
X80959391Y3624172D01*
X81125828Y3790609D01*
X81316252Y3928960D01*
X81525975Y4035819D01*
X81749832Y4108555D01*
X81982311Y4145376D01*
X82217689Y4145376D01*
X82450168Y4108555D01*
G37*
G36*
X87450168Y4108555D02*
G01*
X87674025Y4035819D01*
X87883748Y3928960D01*
X88074172Y3790609D01*
X88240609Y3624172D01*
X88378960Y3433748D01*
X88485819Y3224025D01*
X88558555Y3000168D01*
X88595376Y2767689D01*
X88595376Y2532311D01*
X88558555Y2299832D01*
X88485819Y2075975D01*
X88378960Y1866252D01*
X88240609Y1675828D01*
X88074172Y1509391D01*
X87883748Y1371040D01*
X87674025Y1264181D01*
X87450168Y1191445D01*
X87217689Y1154624D01*
X86982311Y1154624D01*
X86749832Y1191445D01*
X86525975Y1264181D01*
X86316252Y1371040D01*
X86125828Y1509391D01*
X85959391Y1675828D01*
X85821040Y1866252D01*
X85714181Y2075975D01*
X85641445Y2299832D01*
X85604624Y2532311D01*
X85604624Y2767689D01*
X85641445Y3000168D01*
X85714181Y3224025D01*
X85821040Y3433748D01*
X85959391Y3624172D01*
X86125828Y3790609D01*
X86316252Y3928960D01*
X86525975Y4035819D01*
X86749832Y4108555D01*
X86982311Y4145376D01*
X87217689Y4145376D01*
X87450168Y4108555D01*
G37*
G36*
X4331654Y5667335D02*
G01*
X4546447Y5609781D01*
X4751891Y5524684D01*
X4944469Y5413498D01*
X5120888Y5278128D01*
X5278128Y5120888D01*
X5413498Y4944469D01*
X5524684Y4751891D01*
X5609781Y4546447D01*
X5667335Y4331654D01*
X5696360Y4111185D01*
X5696360Y3888815D01*
X5667335Y3668346D01*
X5609781Y3453553D01*
X5524684Y3248109D01*
X5413498Y3055531D01*
X5278128Y2879112D01*
X5120888Y2721872D01*
X4944469Y2586502D01*
X4751891Y2475316D01*
X4546447Y2390219D01*
X4331654Y2332665D01*
X4111185Y2303640D01*
X3888815Y2303640D01*
X3668346Y2332665D01*
X3453553Y2390219D01*
X3248109Y2475316D01*
X3055531Y2586502D01*
X2879112Y2721872D01*
X2721872Y2879112D01*
X2586502Y3055531D01*
X2475316Y3248109D01*
X2390219Y3453553D01*
X2332665Y3668346D01*
X2303640Y3888815D01*
X2303640Y4111185D01*
X2332665Y4331654D01*
X2390219Y4546447D01*
X2475316Y4751891D01*
X2586502Y4944469D01*
X2721872Y5120888D01*
X2879112Y5278128D01*
X3055531Y5413498D01*
X3248109Y5524684D01*
X3453553Y5609781D01*
X3668346Y5667335D01*
X3888815Y5696360D01*
X4111185Y5696360D01*
X4331654Y5667335D01*
G37*
G36*
X96331654Y5667335D02*
G01*
X96546447Y5609781D01*
X96751891Y5524684D01*
X96944469Y5413498D01*
X97120888Y5278128D01*
X97278128Y5120888D01*
X97413498Y4944469D01*
X97524684Y4751891D01*
X97609781Y4546447D01*
X97667335Y4331654D01*
X97696360Y4111185D01*
X97696360Y3888815D01*
X97667335Y3668346D01*
X97609781Y3453553D01*
X97524684Y3248109D01*
X97413498Y3055531D01*
X97278128Y2879112D01*
X97120888Y2721872D01*
X96944469Y2586502D01*
X96751891Y2475316D01*
X96546447Y2390219D01*
X96331654Y2332665D01*
X96111185Y2303640D01*
X95888815Y2303640D01*
X95668346Y2332665D01*
X95453553Y2390219D01*
X95248109Y2475316D01*
X95055531Y2586502D01*
X94879112Y2721872D01*
X94721872Y2879112D01*
X94586502Y3055531D01*
X94475316Y3248109D01*
X94390219Y3453553D01*
X94332665Y3668346D01*
X94303640Y3888815D01*
X94303640Y4111185D01*
X94332665Y4331654D01*
X94390219Y4546447D01*
X94475316Y4751891D01*
X94586502Y4944469D01*
X94721872Y5120888D01*
X94879112Y5278128D01*
X95055531Y5413498D01*
X95248109Y5524684D01*
X95453553Y5609781D01*
X95668346Y5667335D01*
X95888815Y5696360D01*
X96111185Y5696360D01*
X96331654Y5667335D01*
G37*
G36*
X9950168Y12008555D02*
G01*
X10174025Y11935819D01*
X10383748Y11828960D01*
X10574172Y11690609D01*
X10740609Y11524172D01*
X10878960Y11333748D01*
X10985819Y11124025D01*
X11058555Y10900168D01*
X11095376Y10667689D01*
X11095376Y10432311D01*
X11058555Y10199832D01*
X10985819Y9975975D01*
X10878960Y9766252D01*
X10740609Y9575828D01*
X10574172Y9409391D01*
X10383748Y9271040D01*
X10174025Y9164181D01*
X9950168Y9091445D01*
X9717689Y9054624D01*
X9482311Y9054624D01*
X9249832Y9091445D01*
X9025975Y9164181D01*
X8816252Y9271040D01*
X8625828Y9409391D01*
X8459391Y9575828D01*
X8321040Y9766252D01*
X8214181Y9975975D01*
X8141445Y10199832D01*
X8104624Y10432311D01*
X8104624Y10667689D01*
X8141445Y10900168D01*
X8214181Y11124025D01*
X8321040Y11333748D01*
X8459391Y11524172D01*
X8625828Y11690609D01*
X8816252Y11828960D01*
X9025975Y11935819D01*
X9249832Y12008555D01*
X9482311Y12045376D01*
X9717689Y12045376D01*
X9950168Y12008555D01*
G37*
G36*
X14950168Y12008555D02*
G01*
X15174025Y11935819D01*
X15383748Y11828960D01*
X15574172Y11690609D01*
X15740609Y11524172D01*
X15878960Y11333748D01*
X15985819Y11124025D01*
X16058555Y10900168D01*
X16095376Y10667689D01*
X16095376Y10432311D01*
X16058555Y10199832D01*
X15985819Y9975975D01*
X15878960Y9766252D01*
X15740609Y9575828D01*
X15574172Y9409391D01*
X15383748Y9271040D01*
X15174025Y9164181D01*
X14950168Y9091445D01*
X14717689Y9054624D01*
X14482311Y9054624D01*
X14249832Y9091445D01*
X14025975Y9164181D01*
X13816252Y9271040D01*
X13625828Y9409391D01*
X13459391Y9575828D01*
X13321040Y9766252D01*
X13214181Y9975975D01*
X13141445Y10199832D01*
X13104624Y10432311D01*
X13104624Y10667689D01*
X13141445Y10900168D01*
X13214181Y11124025D01*
X13321040Y11333748D01*
X13459391Y11524172D01*
X13625828Y11690609D01*
X13816252Y11828960D01*
X14025975Y11935819D01*
X14249832Y12008555D01*
X14482311Y12045376D01*
X14717689Y12045376D01*
X14950168Y12008555D01*
G37*
G36*
X20450168Y12008555D02*
G01*
X20674025Y11935819D01*
X20883748Y11828960D01*
X21074172Y11690609D01*
X21240609Y11524172D01*
X21378960Y11333748D01*
X21485819Y11124025D01*
X21558555Y10900168D01*
X21595376Y10667689D01*
X21595376Y10432311D01*
X21558555Y10199832D01*
X21485819Y9975975D01*
X21378960Y9766252D01*
X21240609Y9575828D01*
X21074172Y9409391D01*
X20883748Y9271040D01*
X20674025Y9164181D01*
X20450168Y9091445D01*
X20217689Y9054624D01*
X19982311Y9054624D01*
X19749832Y9091445D01*
X19525975Y9164181D01*
X19316252Y9271040D01*
X19125828Y9409391D01*
X18959391Y9575828D01*
X18821040Y9766252D01*
X18714181Y9975975D01*
X18641445Y10199832D01*
X18604624Y10432311D01*
X18604624Y10667689D01*
X18641445Y10900168D01*
X18714181Y11124025D01*
X18821040Y11333748D01*
X18959391Y11524172D01*
X19125828Y11690609D01*
X19316252Y11828960D01*
X19525975Y11935819D01*
X19749832Y12008555D01*
X19982311Y12045376D01*
X20217689Y12045376D01*
X20450168Y12008555D01*
G37*
G36*
X25450168Y12008555D02*
G01*
X25674025Y11935819D01*
X25883748Y11828960D01*
X26074172Y11690609D01*
X26240609Y11524172D01*
X26378960Y11333748D01*
X26485819Y11124025D01*
X26558555Y10900168D01*
X26595376Y10667689D01*
X26595376Y10432311D01*
X26558555Y10199832D01*
X26485819Y9975975D01*
X26378960Y9766252D01*
X26240609Y9575828D01*
X26074172Y9409391D01*
X25883748Y9271040D01*
X25674025Y9164181D01*
X25450168Y9091445D01*
X25217689Y9054624D01*
X24982311Y9054624D01*
X24749832Y9091445D01*
X24525975Y9164181D01*
X24316252Y9271040D01*
X24125828Y9409391D01*
X23959391Y9575828D01*
X23821040Y9766252D01*
X23714181Y9975975D01*
X23641445Y10199832D01*
X23604624Y10432311D01*
X23604624Y10667689D01*
X23641445Y10900168D01*
X23714181Y11124025D01*
X23821040Y11333748D01*
X23959391Y11524172D01*
X24125828Y11690609D01*
X24316252Y11828960D01*
X24525975Y11935819D01*
X24749832Y12008555D01*
X24982311Y12045376D01*
X25217689Y12045376D01*
X25450168Y12008555D01*
G37*
G36*
X49950168Y12008555D02*
G01*
X50174025Y11935819D01*
X50383748Y11828960D01*
X50574172Y11690609D01*
X50740609Y11524172D01*
X50878960Y11333748D01*
X50985819Y11124025D01*
X51058555Y10900168D01*
X51095376Y10667689D01*
X51095376Y10432311D01*
X51058555Y10199832D01*
X50985819Y9975975D01*
X50878960Y9766252D01*
X50740609Y9575828D01*
X50574172Y9409391D01*
X50383748Y9271040D01*
X50174025Y9164181D01*
X49950168Y9091445D01*
X49717689Y9054624D01*
X49482311Y9054624D01*
X49249832Y9091445D01*
X49025975Y9164181D01*
X48816252Y9271040D01*
X48625828Y9409391D01*
X48459391Y9575828D01*
X48321040Y9766252D01*
X48214181Y9975975D01*
X48141445Y10199832D01*
X48104624Y10432311D01*
X48104624Y10667689D01*
X48141445Y10900168D01*
X48214181Y11124025D01*
X48321040Y11333748D01*
X48459391Y11524172D01*
X48625828Y11690609D01*
X48816252Y11828960D01*
X49025975Y11935819D01*
X49249832Y12008555D01*
X49482311Y12045376D01*
X49717689Y12045376D01*
X49950168Y12008555D01*
G37*
G36*
X54950168Y12008555D02*
G01*
X55174025Y11935819D01*
X55383748Y11828960D01*
X55574172Y11690609D01*
X55740609Y11524172D01*
X55878960Y11333748D01*
X55985819Y11124025D01*
X56058555Y10900168D01*
X56095376Y10667689D01*
X56095376Y10432311D01*
X56058555Y10199832D01*
X55985819Y9975975D01*
X55878960Y9766252D01*
X55740609Y9575828D01*
X55574172Y9409391D01*
X55383748Y9271040D01*
X55174025Y9164181D01*
X54950168Y9091445D01*
X54717689Y9054624D01*
X54482311Y9054624D01*
X54249832Y9091445D01*
X54025975Y9164181D01*
X53816252Y9271040D01*
X53625828Y9409391D01*
X53459391Y9575828D01*
X53321040Y9766252D01*
X53214181Y9975975D01*
X53141445Y10199832D01*
X53104624Y10432311D01*
X53104624Y10667689D01*
X53141445Y10900168D01*
X53214181Y11124025D01*
X53321040Y11333748D01*
X53459391Y11524172D01*
X53625828Y11690609D01*
X53816252Y11828960D01*
X54025975Y11935819D01*
X54249832Y12008555D01*
X54482311Y12045376D01*
X54717689Y12045376D01*
X54950168Y12008555D01*
G37*
G36*
X66200168Y12008555D02*
G01*
X66424025Y11935819D01*
X66633748Y11828960D01*
X66824172Y11690609D01*
X66990609Y11524172D01*
X67128960Y11333748D01*
X67235819Y11124025D01*
X67308555Y10900168D01*
X67345376Y10667689D01*
X67345376Y10432311D01*
X67308555Y10199832D01*
X67235819Y9975975D01*
X67128960Y9766252D01*
X66990609Y9575828D01*
X66824172Y9409391D01*
X66633748Y9271040D01*
X66424025Y9164181D01*
X66200168Y9091445D01*
X65967689Y9054624D01*
X65732311Y9054624D01*
X65499832Y9091445D01*
X65275975Y9164181D01*
X65066252Y9271040D01*
X64875828Y9409391D01*
X64709391Y9575828D01*
X64571040Y9766252D01*
X64464181Y9975975D01*
X64391445Y10199832D01*
X64354624Y10432311D01*
X64354624Y10667689D01*
X64391445Y10900168D01*
X64464181Y11124025D01*
X64571040Y11333748D01*
X64709391Y11524172D01*
X64875828Y11690609D01*
X65066252Y11828960D01*
X65275975Y11935819D01*
X65499832Y12008555D01*
X65732311Y12045376D01*
X65967689Y12045376D01*
X66200168Y12008555D01*
G37*
G36*
X71200168Y12008555D02*
G01*
X71424025Y11935819D01*
X71633748Y11828960D01*
X71824172Y11690609D01*
X71990609Y11524172D01*
X72128960Y11333748D01*
X72235819Y11124025D01*
X72308555Y10900168D01*
X72345376Y10667689D01*
X72345376Y10432311D01*
X72308555Y10199832D01*
X72235819Y9975975D01*
X72128960Y9766252D01*
X71990609Y9575828D01*
X71824172Y9409391D01*
X71633748Y9271040D01*
X71424025Y9164181D01*
X71200168Y9091445D01*
X70967689Y9054624D01*
X70732311Y9054624D01*
X70499832Y9091445D01*
X70275975Y9164181D01*
X70066252Y9271040D01*
X69875828Y9409391D01*
X69709391Y9575828D01*
X69571040Y9766252D01*
X69464181Y9975975D01*
X69391445Y10199832D01*
X69354624Y10432311D01*
X69354624Y10667689D01*
X69391445Y10900168D01*
X69464181Y11124025D01*
X69571040Y11333748D01*
X69709391Y11524172D01*
X69875828Y11690609D01*
X70066252Y11828960D01*
X70275975Y11935819D01*
X70499832Y12008555D01*
X70732311Y12045376D01*
X70967689Y12045376D01*
X71200168Y12008555D01*
G37*
G36*
X82450168Y12008555D02*
G01*
X82674025Y11935819D01*
X82883748Y11828960D01*
X83074172Y11690609D01*
X83240609Y11524172D01*
X83378960Y11333748D01*
X83485819Y11124025D01*
X83558555Y10900168D01*
X83595376Y10667689D01*
X83595376Y10432311D01*
X83558555Y10199832D01*
X83485819Y9975975D01*
X83378960Y9766252D01*
X83240609Y9575828D01*
X83074172Y9409391D01*
X82883748Y9271040D01*
X82674025Y9164181D01*
X82450168Y9091445D01*
X82217689Y9054624D01*
X81982311Y9054624D01*
X81749832Y9091445D01*
X81525975Y9164181D01*
X81316252Y9271040D01*
X81125828Y9409391D01*
X80959391Y9575828D01*
X80821040Y9766252D01*
X80714181Y9975975D01*
X80641445Y10199832D01*
X80604624Y10432311D01*
X80604624Y10667689D01*
X80641445Y10900168D01*
X80714181Y11124025D01*
X80821040Y11333748D01*
X80959391Y11524172D01*
X81125828Y11690609D01*
X81316252Y11828960D01*
X81525975Y11935819D01*
X81749832Y12008555D01*
X81982311Y12045376D01*
X82217689Y12045376D01*
X82450168Y12008555D01*
G37*
G36*
X87450168Y12008555D02*
G01*
X87674025Y11935819D01*
X87883748Y11828960D01*
X88074172Y11690609D01*
X88240609Y11524172D01*
X88378960Y11333748D01*
X88485819Y11124025D01*
X88558555Y10900168D01*
X88595376Y10667689D01*
X88595376Y10432311D01*
X88558555Y10199832D01*
X88485819Y9975975D01*
X88378960Y9766252D01*
X88240609Y9575828D01*
X88074172Y9409391D01*
X87883748Y9271040D01*
X87674025Y9164181D01*
X87450168Y9091445D01*
X87217689Y9054624D01*
X86982311Y9054624D01*
X86749832Y9091445D01*
X86525975Y9164181D01*
X86316252Y9271040D01*
X86125828Y9409391D01*
X85959391Y9575828D01*
X85821040Y9766252D01*
X85714181Y9975975D01*
X85641445Y10199832D01*
X85604624Y10432311D01*
X85604624Y10667689D01*
X85641445Y10900168D01*
X85714181Y11124025D01*
X85821040Y11333748D01*
X85959391Y11524172D01*
X86125828Y11690609D01*
X86316252Y11828960D01*
X86525975Y11935819D01*
X86749832Y12008555D01*
X86982311Y12045376D01*
X87217689Y12045376D01*
X87450168Y12008555D01*
G37*
G36*
X28543268Y23842388D02*
G01*
X28575711Y23820711D01*
X28597388Y23788268D01*
X28605000Y23750000D01*
X28605000Y18550000D01*
X28597388Y18511732D01*
X28575711Y18479289D01*
X28543268Y18457612D01*
X28505000Y18450000D01*
X22505000Y18450000D01*
X22466732Y18457612D01*
X22434289Y18479289D01*
X22412612Y18511732D01*
X22405000Y18550000D01*
X22405000Y23750000D01*
X22412612Y23788268D01*
X22434289Y23820711D01*
X22466732Y23842388D01*
X22505000Y23850000D01*
X28505000Y23850000D01*
X28543268Y23842388D01*
G37*
G36*
X60043268Y35242388D02*
G01*
X60075711Y35220711D01*
X60097388Y35188268D01*
X60105000Y35150000D01*
X60105000Y29950000D01*
X60097388Y29911732D01*
X60075711Y29879289D01*
X60043268Y29857612D01*
X60005000Y29850000D01*
X54005000Y29850000D01*
X53966732Y29857612D01*
X53934289Y29879289D01*
X53912612Y29911732D01*
X53905000Y29950000D01*
X53905000Y35150000D01*
X53912612Y35188268D01*
X53934289Y35220711D01*
X53966732Y35242388D01*
X54005000Y35250000D01*
X60005000Y35250000D01*
X60043268Y35242388D01*
G37*
G36*
X76293268Y35242388D02*
G01*
X76325711Y35220711D01*
X76347388Y35188268D01*
X76355000Y35150000D01*
X76355000Y29950000D01*
X76347388Y29911732D01*
X76325711Y29879289D01*
X76293268Y29857612D01*
X76255000Y29850000D01*
X70255000Y29850000D01*
X70216732Y29857612D01*
X70184289Y29879289D01*
X70162612Y29911732D01*
X70155000Y29950000D01*
X70155000Y35150000D01*
X70162612Y35188268D01*
X70184289Y35220711D01*
X70216732Y35242388D01*
X70255000Y35250000D01*
X76255000Y35250000D01*
X76293268Y35242388D01*
G37*
G36*
X92543268Y35242388D02*
G01*
X92575711Y35220711D01*
X92597388Y35188268D01*
X92605000Y35150000D01*
X92605000Y29950000D01*
X92597388Y29911732D01*
X92575711Y29879289D01*
X92543268Y29857612D01*
X92505000Y29850000D01*
X86505000Y29850000D01*
X86466732Y29857612D01*
X86434289Y29879289D01*
X86412612Y29911732D01*
X86405000Y29950000D01*
X86405000Y35150000D01*
X86412612Y35188268D01*
X86434289Y35220711D01*
X86466732Y35242388D01*
X86505000Y35250000D01*
X92505000Y35250000D01*
X92543268Y35242388D01*
G37*
G36*
X28494134Y33721194D02*
G01*
X28510355Y33710355D01*
X28521194Y33694134D01*
X28525000Y33675000D01*
X28525000Y31325000D01*
X28521194Y31305866D01*
X28510355Y31289645D01*
X28494134Y31278806D01*
X28475000Y31275000D01*
X25075000Y31275000D01*
X25055866Y31278806D01*
X25039645Y31289645D01*
X25028806Y31305866D01*
X25025000Y31325000D01*
X25025000Y33675000D01*
X25028806Y33694134D01*
X25039645Y33710355D01*
X25055866Y33721194D01*
X25075000Y33725000D01*
X28475000Y33725000D01*
X28494134Y33721194D01*
G37*
G36*
X41256790Y33569607D02*
G01*
X41420952Y33516267D01*
X41574748Y33437904D01*
X41714393Y33336447D01*
X41836447Y33214393D01*
X41937904Y33074748D01*
X42016267Y32920952D01*
X42069607Y32756790D01*
X42096609Y32586305D01*
X42096609Y32413695D01*
X42069607Y32243210D01*
X42016267Y32079048D01*
X41937904Y31925252D01*
X41836447Y31785607D01*
X41714393Y31663553D01*
X41574748Y31562096D01*
X41420952Y31483733D01*
X41256790Y31430393D01*
X41086305Y31403391D01*
X40913695Y31403391D01*
X40743210Y31430393D01*
X40579048Y31483733D01*
X40425252Y31562096D01*
X40285607Y31663553D01*
X40163553Y31785607D01*
X40062096Y31925252D01*
X39983733Y32079048D01*
X39930393Y32243210D01*
X39903391Y32413695D01*
X39903391Y32586305D01*
X39930393Y32756790D01*
X39983733Y32920952D01*
X40062096Y33074748D01*
X40163553Y33214393D01*
X40285607Y33336447D01*
X40425252Y33437904D01*
X40579048Y33516267D01*
X40743210Y33569607D01*
X40913695Y33596609D01*
X41086305Y33596609D01*
X41256790Y33569607D01*
G37*
G36*
X45256790Y33569607D02*
G01*
X45420952Y33516267D01*
X45574748Y33437904D01*
X45714393Y33336447D01*
X45836447Y33214393D01*
X45937904Y33074748D01*
X46016267Y32920952D01*
X46069607Y32756790D01*
X46096609Y32586305D01*
X46096609Y32413695D01*
X46069607Y32243210D01*
X46016267Y32079048D01*
X45937904Y31925252D01*
X45836447Y31785607D01*
X45714393Y31663553D01*
X45574748Y31562096D01*
X45420952Y31483733D01*
X45256790Y31430393D01*
X45086305Y31403391D01*
X44913695Y31403391D01*
X44743210Y31430393D01*
X44579048Y31483733D01*
X44425252Y31562096D01*
X44285607Y31663553D01*
X44163553Y31785607D01*
X44062096Y31925252D01*
X43983733Y32079048D01*
X43930393Y32243210D01*
X43903391Y32413695D01*
X43903391Y32586305D01*
X43930393Y32756790D01*
X43983733Y32920952D01*
X44062096Y33074748D01*
X44163553Y33214393D01*
X44285607Y33336447D01*
X44425252Y33437904D01*
X44579048Y33516267D01*
X44743210Y33569607D01*
X44913695Y33596609D01*
X45086305Y33596609D01*
X45256790Y33569607D01*
G37*
G36*
X60043268Y45642388D02*
G01*
X60075711Y45620711D01*
X60097388Y45588268D01*
X60105000Y45550000D01*
X60105000Y40350000D01*
X60097388Y40311732D01*
X60075711Y40279289D01*
X60043268Y40257612D01*
X60005000Y40250000D01*
X54005000Y40250000D01*
X53966732Y40257612D01*
X53934289Y40279289D01*
X53912612Y40311732D01*
X53905000Y40350000D01*
X53905000Y45550000D01*
X53912612Y45588268D01*
X53934289Y45620711D01*
X53966732Y45642388D01*
X54005000Y45650000D01*
X60005000Y45650000D01*
X60043268Y45642388D01*
G37*
G36*
X76293268Y45642388D02*
G01*
X76325711Y45620711D01*
X76347388Y45588268D01*
X76355000Y45550000D01*
X76355000Y40350000D01*
X76347388Y40311732D01*
X76325711Y40279289D01*
X76293268Y40257612D01*
X76255000Y40250000D01*
X70255000Y40250000D01*
X70216732Y40257612D01*
X70184289Y40279289D01*
X70162612Y40311732D01*
X70155000Y40350000D01*
X70155000Y45550000D01*
X70162612Y45588268D01*
X70184289Y45620711D01*
X70216732Y45642388D01*
X70255000Y45650000D01*
X76255000Y45650000D01*
X76293268Y45642388D01*
G37*
G36*
X92543268Y45642388D02*
G01*
X92575711Y45620711D01*
X92597388Y45588268D01*
X92605000Y45550000D01*
X92605000Y40350000D01*
X92597388Y40311732D01*
X92575711Y40279289D01*
X92543268Y40257612D01*
X92505000Y40250000D01*
X86505000Y40250000D01*
X86466732Y40257612D01*
X86434289Y40279289D01*
X86412612Y40311732D01*
X86405000Y40350000D01*
X86405000Y45550000D01*
X86412612Y45588268D01*
X86434289Y45620711D01*
X86466732Y45642388D01*
X86505000Y45650000D01*
X92505000Y45650000D01*
X92543268Y45642388D01*
G37*
G36*
X41256790Y42569607D02*
G01*
X41420952Y42516267D01*
X41574748Y42437904D01*
X41714393Y42336447D01*
X41836447Y42214393D01*
X41937904Y42074748D01*
X42016267Y41920952D01*
X42069607Y41756790D01*
X42096609Y41586305D01*
X42096609Y41413695D01*
X42069607Y41243210D01*
X42016267Y41079048D01*
X41937904Y40925252D01*
X41836447Y40785607D01*
X41714393Y40663553D01*
X41574748Y40562096D01*
X41420952Y40483733D01*
X41256790Y40430393D01*
X41086305Y40403391D01*
X40913695Y40403391D01*
X40743210Y40430393D01*
X40579048Y40483733D01*
X40425252Y40562096D01*
X40285607Y40663553D01*
X40163553Y40785607D01*
X40062096Y40925252D01*
X39983733Y41079048D01*
X39930393Y41243210D01*
X39903391Y41413695D01*
X39903391Y41586305D01*
X39930393Y41756790D01*
X39983733Y41920952D01*
X40062096Y42074748D01*
X40163553Y42214393D01*
X40285607Y42336447D01*
X40425252Y42437904D01*
X40579048Y42516267D01*
X40743210Y42569607D01*
X40913695Y42596609D01*
X41086305Y42596609D01*
X41256790Y42569607D01*
G37*
G36*
X45256790Y42569607D02*
G01*
X45420952Y42516267D01*
X45574748Y42437904D01*
X45714393Y42336447D01*
X45836447Y42214393D01*
X45937904Y42074748D01*
X46016267Y41920952D01*
X46069607Y41756790D01*
X46096609Y41586305D01*
X46096609Y41413695D01*
X46069607Y41243210D01*
X46016267Y41079048D01*
X45937904Y40925252D01*
X45836447Y40785607D01*
X45714393Y40663553D01*
X45574748Y40562096D01*
X45420952Y40483733D01*
X45256790Y40430393D01*
X45086305Y40403391D01*
X44913695Y40403391D01*
X44743210Y40430393D01*
X44579048Y40483733D01*
X44425252Y40562096D01*
X44285607Y40663553D01*
X44163553Y40785607D01*
X44062096Y40925252D01*
X43983733Y41079048D01*
X43930393Y41243210D01*
X43903391Y41413695D01*
X43903391Y41586305D01*
X43930393Y41756790D01*
X43983733Y41920952D01*
X44062096Y42074748D01*
X44163553Y42214393D01*
X44285607Y42336447D01*
X44425252Y42437904D01*
X44579048Y42516267D01*
X44743210Y42569607D01*
X44913695Y42596609D01*
X45086305Y42596609D01*
X45256790Y42569607D01*
G37*
G36*
X75791634Y65523694D02*
G01*
X75807855Y65512855D01*
X75818694Y65496634D01*
X75822500Y65477500D01*
X75822500Y60477500D01*
X75818694Y60458366D01*
X75807855Y60442145D01*
X75791634Y60431306D01*
X75772500Y60427500D01*
X70772500Y60427500D01*
X70753366Y60431306D01*
X70737145Y60442145D01*
X70726306Y60458366D01*
X70722500Y60477500D01*
X70722500Y65477500D01*
X70726306Y65496634D01*
X70737145Y65512855D01*
X70753366Y65523694D01*
X70772500Y65527500D01*
X75772500Y65527500D01*
X75791634Y65523694D01*
G37*
G36*
X37888268Y83267388D02*
G01*
X37920711Y83245711D01*
X37942388Y83213268D01*
X37950000Y83175000D01*
X37950000Y79475000D01*
X37942388Y79436732D01*
X37920711Y79404289D01*
X37888268Y79382612D01*
X37850000Y79375000D01*
X34150000Y79375000D01*
X34111732Y79382612D01*
X34079289Y79404289D01*
X34057612Y79436732D01*
X34050000Y79475000D01*
X34050000Y83175000D01*
X34057612Y83213268D01*
X34079289Y83245711D01*
X34111732Y83267388D01*
X34150000Y83275000D01*
X37850000Y83275000D01*
X37888268Y83267388D01*
G37*
G36*
X4331654Y87667335D02*
G01*
X4546447Y87609781D01*
X4751891Y87524684D01*
X4944469Y87413498D01*
X5120888Y87278128D01*
X5278128Y87120888D01*
X5413498Y86944469D01*
X5524684Y86751891D01*
X5609781Y86546447D01*
X5667335Y86331654D01*
X5696360Y86111185D01*
X5696360Y85888815D01*
X5667335Y85668346D01*
X5609781Y85453553D01*
X5524684Y85248109D01*
X5413498Y85055531D01*
X5278128Y84879112D01*
X5120888Y84721872D01*
X4944469Y84586502D01*
X4751891Y84475316D01*
X4546447Y84390219D01*
X4331654Y84332665D01*
X4111185Y84303640D01*
X3888815Y84303640D01*
X3668346Y84332665D01*
X3453553Y84390219D01*
X3248109Y84475316D01*
X3055531Y84586502D01*
X2879112Y84721872D01*
X2721872Y84879112D01*
X2586502Y85055531D01*
X2475316Y85248109D01*
X2390219Y85453553D01*
X2332665Y85668346D01*
X2303640Y85888815D01*
X2303640Y86111185D01*
X2332665Y86331654D01*
X2390219Y86546447D01*
X2475316Y86751891D01*
X2586502Y86944469D01*
X2721872Y87120888D01*
X2879112Y87278128D01*
X3055531Y87413498D01*
X3248109Y87524684D01*
X3453553Y87609781D01*
X3668346Y87667335D01*
X3888815Y87696360D01*
X4111185Y87696360D01*
X4331654Y87667335D01*
G37*
G36*
X96331654Y87667335D02*
G01*
X96546447Y87609781D01*
X96751891Y87524684D01*
X96944469Y87413498D01*
X97120888Y87278128D01*
X97278128Y87120888D01*
X97413498Y86944469D01*
X97524684Y86751891D01*
X97609781Y86546447D01*
X97667335Y86331654D01*
X97696360Y86111185D01*
X97696360Y85888815D01*
X97667335Y85668346D01*
X97609781Y85453553D01*
X97524684Y85248109D01*
X97413498Y85055531D01*
X97278128Y84879112D01*
X97120888Y84721872D01*
X96944469Y84586502D01*
X96751891Y84475316D01*
X96546447Y84390219D01*
X96331654Y84332665D01*
X96111185Y84303640D01*
X95888815Y84303640D01*
X95668346Y84332665D01*
X95453553Y84390219D01*
X95248109Y84475316D01*
X95055531Y84586502D01*
X94879112Y84721872D01*
X94721872Y84879112D01*
X94586502Y85055531D01*
X94475316Y85248109D01*
X94390219Y85453553D01*
X94332665Y85668346D01*
X94303640Y85888815D01*
X94303640Y86111185D01*
X94332665Y86331654D01*
X94390219Y86546447D01*
X94475316Y86751891D01*
X94586502Y86944469D01*
X94721872Y87120888D01*
X94879112Y87278128D01*
X95055531Y87413498D01*
X95248109Y87524684D01*
X95453553Y87609781D01*
X95668346Y87667335D01*
X95888815Y87696360D01*
X96111185Y87696360D01*
X96331654Y87667335D01*
G37*
G36*
X57525770Y86404093D02*
G01*
X57697827Y86332825D01*
X57852674Y86229360D01*
X57984360Y86097674D01*
X58087825Y85942827D01*
X58159093Y85770770D01*
X58195425Y85588116D01*
X58195425Y85401884D01*
X58159093Y85219230D01*
X58087825Y85047173D01*
X57984360Y84892326D01*
X57852674Y84760640D01*
X57697827Y84657175D01*
X57525770Y84585907D01*
X57343116Y84549575D01*
X57156884Y84549575D01*
X56974230Y84585907D01*
X56802173Y84657175D01*
X56647326Y84760640D01*
X56515640Y84892326D01*
X56412175Y85047173D01*
X56340907Y85219230D01*
X56304575Y85401884D01*
X56304575Y85588116D01*
X56340907Y85770770D01*
X56412175Y85942827D01*
X56515640Y86097674D01*
X56647326Y86229360D01*
X56802173Y86332825D01*
X56974230Y86404093D01*
X57156884Y86440425D01*
X57343116Y86440425D01*
X57525770Y86404093D01*
G37*
G36*
X71425770Y86404093D02*
G01*
X71597827Y86332825D01*
X71752674Y86229360D01*
X71884360Y86097674D01*
X71987825Y85942827D01*
X72059093Y85770770D01*
X72095425Y85588116D01*
X72095425Y85401884D01*
X72059093Y85219230D01*
X71987825Y85047173D01*
X71884360Y84892326D01*
X71752674Y84760640D01*
X71597827Y84657175D01*
X71425770Y84585907D01*
X71243116Y84549575D01*
X71056884Y84549575D01*
X70874230Y84585907D01*
X70702173Y84657175D01*
X70547326Y84760640D01*
X70415640Y84892326D01*
X70312175Y85047173D01*
X70240907Y85219230D01*
X70204575Y85401884D01*
X70204575Y85588116D01*
X70240907Y85770770D01*
X70312175Y85942827D01*
X70415640Y86097674D01*
X70547326Y86229360D01*
X70702173Y86332825D01*
X70874230Y86404093D01*
X71056884Y86440425D01*
X71243116Y86440425D01*
X71425770Y86404093D01*
G37*
G36*
X76525770Y86404093D02*
G01*
X76697827Y86332825D01*
X76852674Y86229360D01*
X76984360Y86097674D01*
X77087825Y85942827D01*
X77159093Y85770770D01*
X77195425Y85588116D01*
X77195425Y85401884D01*
X77159093Y85219230D01*
X77087825Y85047173D01*
X76984360Y84892326D01*
X76852674Y84760640D01*
X76697827Y84657175D01*
X76525770Y84585907D01*
X76343116Y84549575D01*
X76156884Y84549575D01*
X75974230Y84585907D01*
X75802173Y84657175D01*
X75647326Y84760640D01*
X75515640Y84892326D01*
X75412175Y85047173D01*
X75340907Y85219230D01*
X75304575Y85401884D01*
X75304575Y85588116D01*
X75340907Y85770770D01*
X75412175Y85942827D01*
X75515640Y86097674D01*
X75647326Y86229360D01*
X75802173Y86332825D01*
X75974230Y86404093D01*
X76156884Y86440425D01*
X76343116Y86440425D01*
X76525770Y86404093D01*
G37*
G36*
X90425770Y86404093D02*
G01*
X90597827Y86332825D01*
X90752674Y86229360D01*
X90884360Y86097674D01*
X90987825Y85942827D01*
X91059093Y85770770D01*
X91095425Y85588116D01*
X91095425Y85401884D01*
X91059093Y85219230D01*
X90987825Y85047173D01*
X90884360Y84892326D01*
X90752674Y84760640D01*
X90597827Y84657175D01*
X90425770Y84585907D01*
X90243116Y84549575D01*
X90056884Y84549575D01*
X89874230Y84585907D01*
X89702173Y84657175D01*
X89547326Y84760640D01*
X89415640Y84892326D01*
X89312175Y85047173D01*
X89240907Y85219230D01*
X89204575Y85401884D01*
X89204575Y85588116D01*
X89240907Y85770770D01*
X89312175Y85942827D01*
X89415640Y86097674D01*
X89547326Y86229360D01*
X89702173Y86332825D01*
X89874230Y86404093D01*
X90056884Y86440425D01*
X90243116Y86440425D01*
X90425770Y86404093D01*
G37*
%LPD*%
M02*
