%TF.GenerationSoftware,KiCad,Pcbnew,10.0.5*%
%TF.CreationDate,2026-09-28T21:52:01+03:00*%
%TF.ProjectId,ESC3Phase,45534333-5068-4617-9365-2e6b69636164,B*%
%TF.SameCoordinates,Original*%
%TF.FileFunction,Drillmap*%
%TF.FilePolarity,Positive*%
%FSLAX45Y45*%
G04 Gerber Fmt 4.5, Leading zero omitted, Abs format (unit mm)*
G04 Created by KiCad (PCBNEW 10.0.5) date 2026-09-28 21:52:01*
%MOMM*%
%LPD*%
G01*
G04 APERTURE LIST*
%ADD10C,0.100000*%
%ADD11C,0.200000*%
G04 APERTURE END LIST*
D10*
X0Y8900000D02*
G75*
G02*
X100000Y9000000I100000J0D01*
G01*
X0Y100000D02*
X0Y8900000D01*
X100000Y9000000D02*
X9900000Y9000000D01*
X100000Y0D02*
G75*
G02*
X0Y100000I0J100000D01*
G01*
X9900000Y9000000D02*
G75*
G02*
X10000000Y8900000I0J-100000D01*
G01*
X9900000Y0D02*
X100000Y0D01*
X10000000Y8900000D02*
X10000000Y100000D01*
X10000000Y100000D02*
G75*
G02*
X9900000Y0I-100000J0D01*
G01*
D11*
D10*
X135000Y8115000D02*
X165000Y8085000D01*
X165000Y8115000D02*
X135000Y8085000D01*
X135000Y7615000D02*
X165000Y7585000D01*
X165000Y7615000D02*
X135000Y7585000D01*
X135000Y7365000D02*
X165000Y7335000D01*
X165000Y7365000D02*
X135000Y7335000D01*
X135000Y6615000D02*
X165000Y6585000D01*
X165000Y6615000D02*
X135000Y6585000D01*
X135000Y6365000D02*
X165000Y6335000D01*
X165000Y6365000D02*
X135000Y6335000D01*
X135000Y6115000D02*
X165000Y6085000D01*
X165000Y6115000D02*
X135000Y6085000D01*
X135000Y5615000D02*
X165000Y5585000D01*
X165000Y5615000D02*
X135000Y5585000D01*
X135000Y5115000D02*
X165000Y5085000D01*
X165000Y5115000D02*
X135000Y5085000D01*
X135000Y4615000D02*
X165000Y4585000D01*
X165000Y4615000D02*
X135000Y4585000D01*
X135000Y4115000D02*
X165000Y4085000D01*
X165000Y4115000D02*
X135000Y4085000D01*
X135000Y3615000D02*
X165000Y3585000D01*
X165000Y3615000D02*
X135000Y3585000D01*
X135000Y3115000D02*
X165000Y3085000D01*
X165000Y3115000D02*
X135000Y3085000D01*
X135000Y2615000D02*
X165000Y2585000D01*
X165000Y2615000D02*
X135000Y2585000D01*
X135000Y2115000D02*
X165000Y2085000D01*
X165000Y2115000D02*
X135000Y2085000D01*
X135000Y1615000D02*
X165000Y1585000D01*
X165000Y1615000D02*
X135000Y1585000D01*
X135000Y1115000D02*
X165000Y1085000D01*
X165000Y1115000D02*
X135000Y1085000D01*
X235000Y7765000D02*
X265000Y7735000D01*
X265000Y7765000D02*
X235000Y7735000D01*
X235000Y5765000D02*
X265000Y5735000D01*
X265000Y5765000D02*
X235000Y5735000D01*
X235000Y5265000D02*
X265000Y5235000D01*
X265000Y5265000D02*
X235000Y5235000D01*
X235000Y4765000D02*
X265000Y4735000D01*
X265000Y4765000D02*
X235000Y4735000D01*
X235000Y4265000D02*
X265000Y4235000D01*
X265000Y4265000D02*
X235000Y4235000D01*
X235000Y3765000D02*
X265000Y3735000D01*
X265000Y3765000D02*
X235000Y3735000D01*
X235000Y3265000D02*
X265000Y3235000D01*
X265000Y3265000D02*
X235000Y3235000D01*
X235000Y2765000D02*
X265000Y2735000D01*
X265000Y2765000D02*
X235000Y2735000D01*
X235000Y2265000D02*
X265000Y2235000D01*
X265000Y2265000D02*
X235000Y2235000D01*
X235000Y1765000D02*
X265000Y1735000D01*
X265000Y1765000D02*
X235000Y1735000D01*
X235000Y1265000D02*
X265000Y1235000D01*
X265000Y1265000D02*
X235000Y1235000D01*
X417070Y4224070D02*
X447070Y4194070D01*
X447070Y4224070D02*
X417070Y4194070D01*
X585000Y4971610D02*
X615000Y4941610D01*
X615000Y4971610D02*
X585000Y4941610D01*
X585000Y3815000D02*
X615000Y3785000D01*
X615000Y3815000D02*
X585000Y3785000D01*
X595000Y4515000D02*
X625000Y4485000D01*
X625000Y4515000D02*
X595000Y4485000D01*
X726340Y5739800D02*
X756340Y5709800D01*
X756340Y5739800D02*
X726340Y5709800D01*
X735000Y7765000D02*
X765000Y7735000D01*
X765000Y7765000D02*
X735000Y7735000D01*
X735000Y7265000D02*
X765000Y7235000D01*
X765000Y7265000D02*
X735000Y7235000D01*
X735000Y4265000D02*
X765000Y4235000D01*
X765000Y4265000D02*
X735000Y4235000D01*
X735000Y3265000D02*
X765000Y3235000D01*
X765000Y3265000D02*
X735000Y3235000D01*
X735000Y2765000D02*
X765000Y2735000D01*
X765000Y2765000D02*
X735000Y2735000D01*
X735000Y2265000D02*
X765000Y2235000D01*
X765000Y2265000D02*
X735000Y2235000D01*
X735000Y1765000D02*
X765000Y1735000D01*
X765000Y1765000D02*
X735000Y1735000D01*
X885000Y8865000D02*
X915000Y8835000D01*
X915000Y8865000D02*
X885000Y8835000D01*
X945000Y6302500D02*
X975000Y6272500D01*
X975000Y6302500D02*
X945000Y6272500D01*
X1235000Y8765000D02*
X1265000Y8735000D01*
X1265000Y8765000D02*
X1235000Y8735000D01*
X1235000Y4765000D02*
X1265000Y4735000D01*
X1265000Y4765000D02*
X1235000Y4735000D01*
X1235000Y2765000D02*
X1265000Y2735000D01*
X1265000Y2765000D02*
X1235000Y2735000D01*
X1235000Y2265000D02*
X1265000Y2235000D01*
X1265000Y2265000D02*
X1235000Y2235000D01*
X1235000Y1765000D02*
X1265000Y1735000D01*
X1265000Y1765000D02*
X1235000Y1735000D01*
X1235000Y765000D02*
X1265000Y735000D01*
X1265000Y765000D02*
X1235000Y735000D01*
X1251918Y8367429D02*
X1281918Y8337429D01*
X1281918Y8367429D02*
X1251918Y8337429D01*
X1295170Y6308630D02*
X1325170Y6278630D01*
X1325170Y6308630D02*
X1295170Y6278630D01*
X1385000Y8865000D02*
X1415000Y8835000D01*
X1415000Y8865000D02*
X1385000Y8835000D01*
X1575000Y1915000D02*
X1605000Y1885000D01*
X1605000Y1915000D02*
X1575000Y1885000D01*
X1635000Y8865000D02*
X1665000Y8835000D01*
X1665000Y8865000D02*
X1635000Y8835000D01*
X1735000Y7765000D02*
X1765000Y7735000D01*
X1765000Y7765000D02*
X1735000Y7735000D01*
X1735000Y7265000D02*
X1765000Y7235000D01*
X1765000Y7265000D02*
X1735000Y7235000D01*
X1735000Y6765000D02*
X1765000Y6735000D01*
X1765000Y6765000D02*
X1735000Y6735000D01*
X1735000Y5765000D02*
X1765000Y5735000D01*
X1765000Y5765000D02*
X1735000Y5735000D01*
X1735000Y4765000D02*
X1765000Y4735000D01*
X1765000Y4765000D02*
X1735000Y4735000D01*
X1735000Y2265000D02*
X1765000Y2235000D01*
X1765000Y2265000D02*
X1735000Y2235000D01*
X1735000Y1265000D02*
X1765000Y1235000D01*
X1765000Y1265000D02*
X1735000Y1235000D01*
X1735000Y765000D02*
X1765000Y735000D01*
X1765000Y765000D02*
X1735000Y735000D01*
X1735000Y265000D02*
X1765000Y235000D01*
X1765000Y265000D02*
X1735000Y235000D01*
X1785000Y2995000D02*
X1815000Y2965000D01*
X1815000Y2995000D02*
X1785000Y2965000D01*
X1785000Y2755000D02*
X1815000Y2725000D01*
X1815000Y2755000D02*
X1785000Y2725000D01*
X1808950Y3425100D02*
X1838950Y3395100D01*
X1838950Y3425100D02*
X1808950Y3395100D01*
X1818082Y8367429D02*
X1848082Y8337429D01*
X1848082Y8367429D02*
X1818082Y8337429D01*
X1870000Y6522500D02*
X1900000Y6492500D01*
X1900000Y6522500D02*
X1870000Y6492500D01*
X1877500Y4875000D02*
X1907500Y4845000D01*
X1907500Y4875000D02*
X1877500Y4845000D01*
X1910000Y3087100D02*
X1940000Y3057100D01*
X1940000Y3087100D02*
X1910000Y3057100D01*
X1933500Y4275310D02*
X1963500Y4245310D01*
X1963500Y4275310D02*
X1933500Y4245310D01*
X1943140Y3355000D02*
X1973140Y3325000D01*
X1973140Y3355000D02*
X1943140Y3325000D01*
X2010000Y5898500D02*
X2040000Y5868500D01*
X2040000Y5898500D02*
X2010000Y5868500D01*
X2050000Y8381500D02*
X2080000Y8351500D01*
X2080000Y8381500D02*
X2050000Y8351500D01*
X2050000Y7903500D02*
X2080000Y7873500D01*
X2080000Y7903500D02*
X2050000Y7873500D01*
X2121490Y2388900D02*
X2151490Y2358900D01*
X2151490Y2388900D02*
X2121490Y2358900D01*
X2131500Y4875000D02*
X2161500Y4845000D01*
X2161500Y4875000D02*
X2131500Y4845000D01*
X2131500Y4055000D02*
X2161500Y4025000D01*
X2161500Y4055000D02*
X2131500Y4025000D01*
X2141300Y3257500D02*
X2171300Y3227500D01*
X2171300Y3257500D02*
X2141300Y3227500D01*
X2145000Y8540500D02*
X2175000Y8510500D01*
X2175000Y8540500D02*
X2145000Y8510500D01*
X2244360Y3364900D02*
X2274360Y3334900D01*
X2274360Y3364900D02*
X2244360Y3334900D01*
X2255000Y3928000D02*
X2285000Y3898000D01*
X2285000Y3928000D02*
X2255000Y3898000D01*
X2264640Y3450800D02*
X2294640Y3420800D01*
X2294640Y3450800D02*
X2264640Y3420800D01*
X2280000Y7512500D02*
X2310000Y7482500D01*
X2310000Y7512500D02*
X2280000Y7482500D01*
X2311010Y8119330D02*
X2341010Y8089330D01*
X2341010Y8119330D02*
X2311010Y8089330D01*
X2345000Y5345000D02*
X2375000Y5315000D01*
X2375000Y5345000D02*
X2345000Y5315000D01*
X2370000Y8922500D02*
X2400000Y8892500D01*
X2400000Y8922500D02*
X2370000Y8892500D01*
X2370000Y8792500D02*
X2400000Y8762500D01*
X2400000Y8792500D02*
X2370000Y8762500D01*
X2370000Y8030500D02*
X2400000Y8000500D01*
X2400000Y8030500D02*
X2370000Y8000500D01*
X2465000Y8443500D02*
X2495000Y8413500D01*
X2495000Y8443500D02*
X2465000Y8413500D01*
X2465000Y8189500D02*
X2495000Y8159500D01*
X2495000Y8189500D02*
X2465000Y8159500D01*
X2527500Y2942700D02*
X2557500Y2912700D01*
X2557500Y2942700D02*
X2527500Y2912700D01*
X2627500Y2920000D02*
X2657500Y2890000D01*
X2657500Y2920000D02*
X2627500Y2890000D01*
X2689060Y8529320D02*
X2719060Y8499320D01*
X2719060Y8529320D02*
X2689060Y8499320D01*
X2730000Y8919500D02*
X2760000Y8889500D01*
X2760000Y8919500D02*
X2730000Y8889500D01*
X2735000Y1265000D02*
X2765000Y1235000D01*
X2765000Y1265000D02*
X2735000Y1235000D01*
X2735000Y765000D02*
X2765000Y735000D01*
X2765000Y765000D02*
X2735000Y735000D01*
X2735000Y265000D02*
X2765000Y235000D01*
X2765000Y265000D02*
X2735000Y235000D01*
X2885000Y7295000D02*
X2915000Y7265000D01*
X2915000Y7295000D02*
X2885000Y7265000D01*
X2885000Y165000D02*
X2915000Y135000D01*
X2915000Y165000D02*
X2885000Y135000D01*
X3005080Y8373480D02*
X3035080Y8343480D01*
X3035080Y8373480D02*
X3005080Y8343480D01*
X3040000Y3445000D02*
X3070000Y3415000D01*
X3070000Y3445000D02*
X3040000Y3415000D01*
X3045000Y3170000D02*
X3075000Y3140000D01*
X3075000Y3170000D02*
X3045000Y3140000D01*
X3090980Y8284500D02*
X3120980Y8254500D01*
X3120980Y8284500D02*
X3090980Y8254500D01*
X3163500Y7013500D02*
X3193500Y6983500D01*
X3193500Y7013500D02*
X3163500Y6983500D01*
X3220000Y6635000D02*
X3250000Y6605000D01*
X3250000Y6635000D02*
X3220000Y6605000D01*
X3235000Y8765000D02*
X3265000Y8735000D01*
X3265000Y8765000D02*
X3235000Y8735000D01*
X3235000Y6765000D02*
X3265000Y6735000D01*
X3265000Y6765000D02*
X3235000Y6735000D01*
X3235000Y1265000D02*
X3265000Y1235000D01*
X3265000Y1265000D02*
X3235000Y1235000D01*
X3235000Y765000D02*
X3265000Y735000D01*
X3265000Y765000D02*
X3235000Y735000D01*
X3235000Y265000D02*
X3265000Y235000D01*
X3265000Y265000D02*
X3235000Y235000D01*
X3290500Y2870000D02*
X3320500Y2840000D01*
X3320500Y2870000D02*
X3290500Y2840000D01*
X3295000Y2685000D02*
X3325000Y2655000D01*
X3325000Y2685000D02*
X3295000Y2655000D01*
X3351750Y7808450D02*
X3381750Y7778450D01*
X3381750Y7808450D02*
X3351750Y7778450D01*
X3364170Y7715710D02*
X3394170Y7685710D01*
X3394170Y7715710D02*
X3364170Y7685710D01*
X3385000Y8865000D02*
X3415000Y8835000D01*
X3415000Y8865000D02*
X3385000Y8835000D01*
X3385000Y165000D02*
X3415000Y135000D01*
X3415000Y165000D02*
X3385000Y135000D01*
X3385500Y3205000D02*
X3415500Y3175000D01*
X3415500Y3205000D02*
X3385500Y3175000D01*
X3435000Y2955000D02*
X3465000Y2925000D01*
X3465000Y2955000D02*
X3435000Y2925000D01*
X3447500Y1770000D02*
X3477500Y1740000D01*
X3477500Y1770000D02*
X3447500Y1740000D01*
X3635000Y6725000D02*
X3665000Y6695000D01*
X3665000Y6725000D02*
X3635000Y6695000D01*
X3635000Y165000D02*
X3665000Y135000D01*
X3665000Y165000D02*
X3635000Y135000D01*
X3735000Y8765000D02*
X3765000Y8735000D01*
X3765000Y8765000D02*
X3735000Y8735000D01*
X3735000Y1765000D02*
X3765000Y1735000D01*
X3765000Y1765000D02*
X3735000Y1735000D01*
X3735000Y1265000D02*
X3765000Y1235000D01*
X3765000Y1265000D02*
X3735000Y1235000D01*
X3735000Y765000D02*
X3765000Y735000D01*
X3765000Y765000D02*
X3735000Y735000D01*
X3745500Y3325000D02*
X3775500Y3295000D01*
X3775500Y3325000D02*
X3745500Y3295000D01*
X3745500Y3055000D02*
X3775500Y3025000D01*
X3775500Y3055000D02*
X3745500Y3025000D01*
X3885000Y8865000D02*
X3915000Y8835000D01*
X3915000Y8865000D02*
X3885000Y8835000D01*
X3885000Y6725000D02*
X3915000Y6695000D01*
X3915000Y6725000D02*
X3885000Y6695000D01*
X4225000Y7640000D02*
X4255000Y7610000D01*
X4255000Y7640000D02*
X4225000Y7610000D01*
X4235000Y8765000D02*
X4265000Y8735000D01*
X4265000Y8765000D02*
X4235000Y8735000D01*
X4235000Y6765000D02*
X4265000Y6735000D01*
X4265000Y6765000D02*
X4235000Y6735000D01*
X4235000Y2265000D02*
X4265000Y2235000D01*
X4265000Y2265000D02*
X4235000Y2235000D01*
X4235000Y1765000D02*
X4265000Y1735000D01*
X4265000Y1765000D02*
X4235000Y1735000D01*
X4235000Y1265000D02*
X4265000Y1235000D01*
X4265000Y1265000D02*
X4235000Y1235000D01*
X4235000Y765000D02*
X4265000Y735000D01*
X4265000Y765000D02*
X4235000Y735000D01*
X4335000Y2565000D02*
X4365000Y2535000D01*
X4365000Y2565000D02*
X4335000Y2535000D01*
X4385000Y165000D02*
X4415000Y135000D01*
X4415000Y165000D02*
X4385000Y135000D01*
X4435000Y7395000D02*
X4465000Y7365000D01*
X4465000Y7395000D02*
X4435000Y7365000D01*
X4482370Y7903500D02*
X4512370Y7873500D01*
X4512370Y7903500D02*
X4482370Y7873500D01*
X4483190Y8372670D02*
X4513190Y8342670D01*
X4513190Y8372670D02*
X4483190Y8342670D01*
X4484650Y8792500D02*
X4514650Y8762500D01*
X4514650Y8792500D02*
X4484650Y8762500D01*
X4635000Y165000D02*
X4665000Y135000D01*
X4665000Y165000D02*
X4635000Y135000D01*
X4645080Y6841080D02*
X4675080Y6811080D01*
X4675080Y6841080D02*
X4645080Y6811080D01*
X4735000Y2265000D02*
X4765000Y2235000D01*
X4765000Y2265000D02*
X4735000Y2235000D01*
X4735000Y1765000D02*
X4765000Y1735000D01*
X4765000Y1765000D02*
X4735000Y1735000D01*
X4735000Y765000D02*
X4765000Y735000D01*
X4765000Y765000D02*
X4735000Y735000D01*
X4735660Y8284500D02*
X4765660Y8254500D01*
X4765660Y8284500D02*
X4735660Y8254500D01*
X4740000Y8919500D02*
X4770000Y8889500D01*
X4770000Y8919500D02*
X4740000Y8889500D01*
X4745120Y7184750D02*
X4775120Y7154750D01*
X4775120Y7184750D02*
X4745120Y7154750D01*
X4745170Y7453820D02*
X4775170Y7423820D01*
X4775170Y7453820D02*
X4745170Y7423820D01*
X4750000Y8140000D02*
X4780000Y8110000D01*
X4780000Y8140000D02*
X4750000Y8110000D01*
X4750170Y7366330D02*
X4780170Y7336330D01*
X4780170Y7366330D02*
X4750170Y7336330D01*
X4801918Y6867429D02*
X4831918Y6837429D01*
X4831918Y6867429D02*
X4801918Y6837429D01*
X4826220Y7415540D02*
X4856220Y7385540D01*
X4856220Y7415540D02*
X4826220Y7385540D01*
X4834030Y8511520D02*
X4864030Y8481520D01*
X4864030Y8511520D02*
X4834030Y8481520D01*
X4845360Y7643380D02*
X4875360Y7613380D01*
X4875360Y7643380D02*
X4845360Y7613380D01*
X4938860Y8665500D02*
X4968860Y8635500D01*
X4968860Y8665500D02*
X4938860Y8635500D01*
X5005000Y8860000D02*
X5035000Y8830000D01*
X5035000Y8860000D02*
X5005000Y8830000D01*
X5025000Y8550000D02*
X5055000Y8520000D01*
X5055000Y8550000D02*
X5025000Y8520000D01*
X5060000Y8265000D02*
X5090000Y8235000D01*
X5090000Y8265000D02*
X5060000Y8235000D01*
X5069400Y8406480D02*
X5099400Y8376480D01*
X5099400Y8406480D02*
X5069400Y8376480D01*
X5335000Y7295000D02*
X5365000Y7265000D01*
X5365000Y7295000D02*
X5335000Y7265000D01*
X5368082Y6867429D02*
X5398082Y6837429D01*
X5398082Y6867429D02*
X5368082Y6837429D01*
X5421100Y7373980D02*
X5451100Y7343980D01*
X5451100Y7373980D02*
X5421100Y7343980D01*
X5480000Y8239500D02*
X5510000Y8209500D01*
X5510000Y8239500D02*
X5480000Y8209500D01*
X5515000Y8860000D02*
X5545000Y8830000D01*
X5545000Y8860000D02*
X5515000Y8830000D01*
X5543200Y6919750D02*
X5573200Y6889750D01*
X5573200Y6919750D02*
X5543200Y6889750D01*
X5575000Y7295000D02*
X5605000Y7265000D01*
X5605000Y7295000D02*
X5575000Y7265000D01*
X5685000Y7640000D02*
X5715000Y7610000D01*
X5715000Y7640000D02*
X5685000Y7610000D01*
X5690100Y7025040D02*
X5720100Y6995040D01*
X5720100Y7025040D02*
X5690100Y6995040D01*
X5695000Y7238620D02*
X5725000Y7208620D01*
X5725000Y7238620D02*
X5695000Y7208620D01*
X5735000Y765000D02*
X5765000Y735000D01*
X5765000Y765000D02*
X5735000Y735000D01*
X5735000Y265000D02*
X5765000Y235000D01*
X5765000Y265000D02*
X5735000Y235000D01*
X5788300Y7903500D02*
X5818300Y7873500D01*
X5818300Y7903500D02*
X5788300Y7873500D01*
X5805500Y7638980D02*
X5835500Y7608980D01*
X5835500Y7638980D02*
X5805500Y7608980D01*
X5815000Y7295000D02*
X5845000Y7265000D01*
X5845000Y7295000D02*
X5815000Y7265000D01*
X5850900Y8030500D02*
X5880900Y8000500D01*
X5880900Y8030500D02*
X5850900Y8000500D01*
X5855000Y5025000D02*
X5885000Y4995000D01*
X5885000Y5025000D02*
X5855000Y4995000D01*
X5885000Y8865000D02*
X5915000Y8835000D01*
X5915000Y8865000D02*
X5885000Y8835000D01*
X5885000Y165000D02*
X5915000Y135000D01*
X5915000Y165000D02*
X5885000Y135000D01*
X6055000Y7295000D02*
X6085000Y7265000D01*
X6085000Y7295000D02*
X6055000Y7265000D01*
X6085000Y5480000D02*
X6115000Y5450000D01*
X6115000Y5480000D02*
X6085000Y5450000D01*
X6085000Y4485000D02*
X6115000Y4455000D01*
X6115000Y4485000D02*
X6085000Y4455000D01*
X6135000Y8865000D02*
X6165000Y8835000D01*
X6165000Y8865000D02*
X6135000Y8835000D01*
X6175000Y5480000D02*
X6205000Y5450000D01*
X6205000Y5480000D02*
X6175000Y5450000D01*
X6175000Y4485000D02*
X6205000Y4455000D01*
X6205000Y4485000D02*
X6175000Y4455000D01*
X6235000Y765000D02*
X6265000Y735000D01*
X6265000Y765000D02*
X6235000Y735000D01*
X6235000Y265000D02*
X6265000Y235000D01*
X6265000Y265000D02*
X6235000Y235000D01*
X6295000Y7295000D02*
X6325000Y7265000D01*
X6325000Y7295000D02*
X6295000Y7265000D01*
X6305000Y5480000D02*
X6335000Y5450000D01*
X6335000Y5480000D02*
X6305000Y5450000D01*
X6305000Y4485000D02*
X6335000Y4455000D01*
X6335000Y4485000D02*
X6305000Y4455000D01*
X6385000Y8865000D02*
X6415000Y8835000D01*
X6415000Y8865000D02*
X6385000Y8835000D01*
X6385000Y5480000D02*
X6415000Y5450000D01*
X6415000Y5480000D02*
X6385000Y5450000D01*
X6385000Y4485000D02*
X6415000Y4455000D01*
X6415000Y4485000D02*
X6385000Y4455000D01*
X6398500Y8006680D02*
X6428500Y7976680D01*
X6428500Y8006680D02*
X6398500Y7976680D01*
X6405000Y6565000D02*
X6435000Y6535000D01*
X6435000Y6565000D02*
X6405000Y6535000D01*
X6465000Y6650000D02*
X6495000Y6620000D01*
X6495000Y6650000D02*
X6465000Y6620000D01*
X6465000Y5480000D02*
X6495000Y5450000D01*
X6495000Y5480000D02*
X6465000Y5450000D01*
X6465000Y4485000D02*
X6495000Y4455000D01*
X6495000Y4485000D02*
X6465000Y4455000D01*
X6535000Y7295000D02*
X6565000Y7265000D01*
X6565000Y7295000D02*
X6535000Y7265000D01*
X6650900Y7070000D02*
X6680900Y7040000D01*
X6680900Y7070000D02*
X6650900Y7040000D01*
X6674700Y7177990D02*
X6704700Y7147990D01*
X6704700Y7177990D02*
X6674700Y7147990D01*
X6735000Y8765000D02*
X6765000Y8735000D01*
X6765000Y8765000D02*
X6735000Y8735000D01*
X6775000Y7295000D02*
X6805000Y7265000D01*
X6805000Y7295000D02*
X6775000Y7265000D01*
X6785000Y7614500D02*
X6815000Y7584500D01*
X6815000Y7614500D02*
X6785000Y7584500D01*
X6858300Y6998530D02*
X6888300Y6968530D01*
X6888300Y6998530D02*
X6858300Y6968530D01*
X6875000Y5695000D02*
X6905000Y5665000D01*
X6905000Y5695000D02*
X6875000Y5665000D01*
X6885000Y8865000D02*
X6915000Y8835000D01*
X6915000Y8865000D02*
X6885000Y8835000D01*
X6894500Y6855050D02*
X6924500Y6825050D01*
X6924500Y6855050D02*
X6894500Y6825050D01*
X6955000Y5695000D02*
X6985000Y5665000D01*
X6985000Y5695000D02*
X6955000Y5665000D01*
X6961900Y6781610D02*
X6991900Y6751610D01*
X6991900Y6781610D02*
X6961900Y6751610D01*
X7015000Y6915000D02*
X7045000Y6885000D01*
X7045000Y6915000D02*
X7015000Y6885000D01*
X7035000Y5695000D02*
X7065000Y5665000D01*
X7065000Y5695000D02*
X7035000Y5665000D01*
X7115000Y5695000D02*
X7145000Y5665000D01*
X7145000Y5695000D02*
X7115000Y5665000D01*
X7125000Y6955000D02*
X7155000Y6925000D01*
X7155000Y6955000D02*
X7125000Y6925000D01*
X7195000Y5695000D02*
X7225000Y5665000D01*
X7225000Y5695000D02*
X7195000Y5665000D01*
X7195400Y1372400D02*
X7225400Y1342400D01*
X7225400Y1372400D02*
X7195400Y1342400D01*
X7235000Y7765000D02*
X7265000Y7735000D01*
X7265000Y7765000D02*
X7235000Y7735000D01*
X7235000Y6955000D02*
X7265000Y6925000D01*
X7265000Y6955000D02*
X7235000Y6925000D01*
X7330000Y8839500D02*
X7360000Y8809500D01*
X7360000Y8839500D02*
X7330000Y8809500D01*
X7330000Y8239500D02*
X7360000Y8209500D01*
X7360000Y8239500D02*
X7330000Y8209500D01*
X7345000Y6955000D02*
X7375000Y6925000D01*
X7375000Y6955000D02*
X7345000Y6925000D01*
X7347700Y7070000D02*
X7377700Y7040000D01*
X7377700Y7070000D02*
X7347700Y7040000D01*
X7385000Y165000D02*
X7415000Y135000D01*
X7415000Y165000D02*
X7385000Y135000D01*
X7455000Y6955000D02*
X7485000Y6925000D01*
X7485000Y6955000D02*
X7455000Y6925000D01*
X7480000Y5025000D02*
X7510000Y4995000D01*
X7510000Y5025000D02*
X7480000Y4995000D01*
X7545000Y1575000D02*
X7575000Y1545000D01*
X7575000Y1575000D02*
X7545000Y1545000D01*
X7565000Y6955000D02*
X7595000Y6925000D01*
X7595000Y6955000D02*
X7565000Y6925000D01*
X7627200Y7094990D02*
X7657200Y7064990D01*
X7657200Y7094990D02*
X7627200Y7064990D01*
X7675000Y6955000D02*
X7705000Y6925000D01*
X7705000Y6955000D02*
X7675000Y6925000D01*
X7685000Y5795000D02*
X7715000Y5765000D01*
X7715000Y5795000D02*
X7685000Y5765000D01*
X7690000Y8839500D02*
X7720000Y8809500D01*
X7720000Y8839500D02*
X7690000Y8809500D01*
X7690000Y8239500D02*
X7720000Y8209500D01*
X7720000Y8239500D02*
X7690000Y8209500D01*
X7705000Y1685000D02*
X7735000Y1655000D01*
X7735000Y1685000D02*
X7705000Y1655000D01*
X7735000Y765000D02*
X7765000Y735000D01*
X7765000Y765000D02*
X7735000Y735000D01*
X7735000Y265000D02*
X7765000Y235000D01*
X7765000Y265000D02*
X7735000Y235000D01*
X7737500Y7640000D02*
X7767500Y7610000D01*
X7767500Y7640000D02*
X7737500Y7610000D01*
X7780000Y2435000D02*
X7810000Y2405000D01*
X7810000Y2435000D02*
X7780000Y2405000D01*
X7785000Y6515000D02*
X7815000Y6485000D01*
X7815000Y6515000D02*
X7785000Y6485000D01*
X7785000Y6215000D02*
X7815000Y6185000D01*
X7815000Y6215000D02*
X7785000Y6185000D01*
X7787500Y1200000D02*
X7817500Y1170000D01*
X7817500Y1200000D02*
X7787500Y1170000D01*
X7815000Y6365000D02*
X7845000Y6335000D01*
X7845000Y6365000D02*
X7815000Y6335000D01*
X7844700Y6719830D02*
X7874700Y6689830D01*
X7874700Y6719830D02*
X7844700Y6689830D01*
X7845000Y5890000D02*
X7875000Y5860000D01*
X7875000Y5890000D02*
X7845000Y5860000D01*
X7855000Y2820000D02*
X7885000Y2790000D01*
X7885000Y2820000D02*
X7855000Y2790000D01*
X7885000Y8865000D02*
X7915000Y8835000D01*
X7915000Y8865000D02*
X7885000Y8835000D01*
X7885000Y165000D02*
X7915000Y135000D01*
X7915000Y165000D02*
X7885000Y135000D01*
X7905000Y6440000D02*
X7935000Y6410000D01*
X7935000Y6440000D02*
X7905000Y6410000D01*
X7905000Y6287750D02*
X7935000Y6257750D01*
X7935000Y6287750D02*
X7905000Y6257750D01*
X7905000Y6140000D02*
X7935000Y6110000D01*
X7935000Y6140000D02*
X7905000Y6110000D01*
X7905000Y5990000D02*
X7935000Y5960000D01*
X7935000Y5990000D02*
X7905000Y5960000D01*
X7960000Y3965000D02*
X7990000Y3935000D01*
X7990000Y3965000D02*
X7960000Y3935000D01*
X8030000Y3860000D02*
X8060000Y3830000D01*
X8060000Y3860000D02*
X8030000Y3830000D01*
X8148750Y7455000D02*
X8178750Y7425000D01*
X8178750Y7455000D02*
X8148750Y7425000D01*
X8152250Y6587750D02*
X8182250Y6557750D01*
X8182250Y6587750D02*
X8152250Y6557750D01*
X8225250Y6064750D02*
X8255250Y6034750D01*
X8255250Y6064750D02*
X8225250Y6034750D01*
X8235000Y8765000D02*
X8265000Y8735000D01*
X8265000Y8765000D02*
X8235000Y8735000D01*
X8235000Y8265000D02*
X8265000Y8235000D01*
X8265000Y8265000D02*
X8235000Y8235000D01*
X8273750Y6695000D02*
X8303750Y6665000D01*
X8303750Y6695000D02*
X8273750Y6665000D01*
X8300416Y6510000D02*
X8330416Y6480000D01*
X8330416Y6510000D02*
X8300416Y6480000D01*
X8385000Y8865000D02*
X8415000Y8835000D01*
X8415000Y8865000D02*
X8385000Y8835000D01*
X8431667Y8124500D02*
X8461667Y8094500D01*
X8461667Y8124500D02*
X8431667Y8094500D01*
X8482800Y6897460D02*
X8512800Y6867460D01*
X8512800Y6897460D02*
X8482800Y6867460D01*
X8685000Y8124500D02*
X8715000Y8094500D01*
X8715000Y8124500D02*
X8685000Y8094500D01*
X8717500Y7640000D02*
X8747500Y7610000D01*
X8747500Y7640000D02*
X8717500Y7610000D01*
X8735000Y8765000D02*
X8765000Y8735000D01*
X8765000Y8765000D02*
X8735000Y8735000D01*
X8735000Y8265000D02*
X8765000Y8235000D01*
X8765000Y8265000D02*
X8735000Y8235000D01*
X8735000Y6265000D02*
X8765000Y6235000D01*
X8765000Y6265000D02*
X8735000Y6235000D01*
X8920000Y8839500D02*
X8950000Y8809500D01*
X8950000Y8839500D02*
X8920000Y8809500D01*
X8920000Y8239500D02*
X8950000Y8209500D01*
X8950000Y8239500D02*
X8920000Y8209500D01*
X9105000Y5025000D02*
X9135000Y4995000D01*
X9135000Y5025000D02*
X9105000Y4995000D01*
X9175000Y6765000D02*
X9205000Y6735000D01*
X9205000Y6765000D02*
X9175000Y6735000D01*
X9235000Y7765000D02*
X9265000Y7735000D01*
X9265000Y7765000D02*
X9235000Y7735000D01*
X9235000Y6265000D02*
X9265000Y6235000D01*
X9265000Y6265000D02*
X9235000Y6235000D01*
X9235000Y2265000D02*
X9265000Y2235000D01*
X9265000Y2265000D02*
X9235000Y2235000D01*
X9235000Y1265000D02*
X9265000Y1235000D01*
X9265000Y1265000D02*
X9235000Y1235000D01*
X9335000Y5480000D02*
X9365000Y5450000D01*
X9365000Y5480000D02*
X9335000Y5450000D01*
X9335000Y4485000D02*
X9365000Y4455000D01*
X9365000Y4485000D02*
X9335000Y4455000D01*
X9425000Y5480000D02*
X9455000Y5450000D01*
X9455000Y5480000D02*
X9425000Y5450000D01*
X9425000Y4485000D02*
X9455000Y4455000D01*
X9455000Y4485000D02*
X9425000Y4455000D01*
X9555000Y5480000D02*
X9585000Y5450000D01*
X9585000Y5480000D02*
X9555000Y5450000D01*
X9555000Y4485000D02*
X9585000Y4455000D01*
X9585000Y4485000D02*
X9555000Y4455000D01*
X9635000Y5480000D02*
X9665000Y5450000D01*
X9665000Y5480000D02*
X9635000Y5450000D01*
X9635000Y4485000D02*
X9665000Y4455000D01*
X9665000Y4485000D02*
X9635000Y4455000D01*
X9715000Y5480000D02*
X9745000Y5450000D01*
X9745000Y5480000D02*
X9715000Y5450000D01*
X9715000Y4485000D02*
X9745000Y4455000D01*
X9745000Y4485000D02*
X9715000Y4455000D01*
X9735000Y7765000D02*
X9765000Y7735000D01*
X9765000Y7765000D02*
X9735000Y7735000D01*
X9735000Y7265000D02*
X9765000Y7235000D01*
X9765000Y7265000D02*
X9735000Y7235000D01*
X9735000Y6765000D02*
X9765000Y6735000D01*
X9765000Y6765000D02*
X9735000Y6735000D01*
X9735000Y3765000D02*
X9765000Y3735000D01*
X9765000Y3765000D02*
X9735000Y3735000D01*
X9735000Y3265000D02*
X9765000Y3235000D01*
X9765000Y3265000D02*
X9735000Y3235000D01*
X9735000Y2765000D02*
X9765000Y2735000D01*
X9765000Y2765000D02*
X9735000Y2735000D01*
X9735000Y2265000D02*
X9765000Y2235000D01*
X9765000Y2265000D02*
X9735000Y2235000D01*
X9735000Y1765000D02*
X9765000Y1735000D01*
X9765000Y1765000D02*
X9735000Y1735000D01*
X9735000Y1265000D02*
X9765000Y1235000D01*
X9765000Y1265000D02*
X9735000Y1235000D01*
X9835000Y8115000D02*
X9865000Y8085000D01*
X9865000Y8115000D02*
X9835000Y8085000D01*
X9835000Y7615000D02*
X9865000Y7585000D01*
X9865000Y7615000D02*
X9835000Y7585000D01*
X9835000Y7115000D02*
X9865000Y7085000D01*
X9865000Y7115000D02*
X9835000Y7085000D01*
X9835000Y6615000D02*
X9865000Y6585000D01*
X9865000Y6615000D02*
X9835000Y6585000D01*
X9835000Y6365000D02*
X9865000Y6335000D01*
X9865000Y6365000D02*
X9835000Y6335000D01*
X9835000Y5615000D02*
X9865000Y5585000D01*
X9865000Y5615000D02*
X9835000Y5585000D01*
X9835000Y5115000D02*
X9865000Y5085000D01*
X9865000Y5115000D02*
X9835000Y5085000D01*
X9835000Y4865000D02*
X9865000Y4835000D01*
X9865000Y4865000D02*
X9835000Y4835000D01*
X9835000Y4615000D02*
X9865000Y4585000D01*
X9865000Y4615000D02*
X9835000Y4585000D01*
X9835000Y4115000D02*
X9865000Y4085000D01*
X9865000Y4115000D02*
X9835000Y4085000D01*
X9835000Y3615000D02*
X9865000Y3585000D01*
X9865000Y3615000D02*
X9835000Y3585000D01*
X9835000Y3115000D02*
X9865000Y3085000D01*
X9865000Y3115000D02*
X9835000Y3085000D01*
X9835000Y2615000D02*
X9865000Y2585000D01*
X9865000Y2615000D02*
X9835000Y2585000D01*
X9835000Y2115000D02*
X9865000Y2085000D01*
X9865000Y2115000D02*
X9835000Y2085000D01*
X9835000Y1615000D02*
X9865000Y1585000D01*
X9865000Y1615000D02*
X9835000Y1585000D01*
X9835000Y1115000D02*
X9865000Y1085000D01*
X9865000Y1115000D02*
X9835000Y1085000D01*
X1440000Y6267500D02*
G75*
G02*
X1410000Y6267500I-15000J0D01*
G01*
X1410000Y6267500D02*
G75*
G02*
X1440000Y6267500I15000J0D01*
G01*
X1440000Y6167500D02*
G75*
G02*
X1410000Y6167500I-15000J0D01*
G01*
X1410000Y6167500D02*
G75*
G02*
X1440000Y6167500I15000J0D01*
G01*
X1440000Y6067500D02*
G75*
G02*
X1410000Y6067500I-15000J0D01*
G01*
X1410000Y6067500D02*
G75*
G02*
X1440000Y6067500I15000J0D01*
G01*
X1580000Y6267500D02*
G75*
G02*
X1550000Y6267500I-15000J0D01*
G01*
X1550000Y6267500D02*
G75*
G02*
X1580000Y6267500I15000J0D01*
G01*
X1580000Y6167500D02*
G75*
G02*
X1550000Y6167500I-15000J0D01*
G01*
X1550000Y6167500D02*
G75*
G02*
X1580000Y6167500I15000J0D01*
G01*
X1580000Y6067500D02*
G75*
G02*
X1550000Y6067500I-15000J0D01*
G01*
X1550000Y6067500D02*
G75*
G02*
X1580000Y6067500I15000J0D01*
G01*
X2592500Y3325000D02*
G75*
G02*
X2562500Y3325000I-15000J0D01*
G01*
X2562500Y3325000D02*
G75*
G02*
X2592500Y3325000I15000J0D01*
G01*
X2592500Y3250000D02*
G75*
G02*
X2562500Y3250000I-15000J0D01*
G01*
X2562500Y3250000D02*
G75*
G02*
X2592500Y3250000I15000J0D01*
G01*
X2592500Y3175000D02*
G75*
G02*
X2562500Y3175000I-15000J0D01*
G01*
X2562500Y3175000D02*
G75*
G02*
X2592500Y3175000I15000J0D01*
G01*
X2692500Y3325000D02*
G75*
G02*
X2662500Y3325000I-15000J0D01*
G01*
X2662500Y3325000D02*
G75*
G02*
X2692500Y3325000I15000J0D01*
G01*
X2692500Y3250000D02*
G75*
G02*
X2662500Y3250000I-15000J0D01*
G01*
X2662500Y3250000D02*
G75*
G02*
X2692500Y3250000I15000J0D01*
G01*
X2692500Y3175000D02*
G75*
G02*
X2662500Y3175000I-15000J0D01*
G01*
X2662500Y3175000D02*
G75*
G02*
X2692500Y3175000I15000J0D01*
G01*
X2792500Y3325000D02*
G75*
G02*
X2762500Y3325000I-15000J0D01*
G01*
X2762500Y3325000D02*
G75*
G02*
X2792500Y3325000I15000J0D01*
G01*
X2792500Y3250000D02*
G75*
G02*
X2762500Y3250000I-15000J0D01*
G01*
X2762500Y3250000D02*
G75*
G02*
X2792500Y3250000I15000J0D01*
G01*
X2792500Y3175000D02*
G75*
G02*
X2762500Y3175000I-15000J0D01*
G01*
X2762500Y3175000D02*
G75*
G02*
X2792500Y3175000I15000J0D01*
G01*
X3545000Y8202500D02*
G75*
G02*
X3515000Y8202500I-15000J0D01*
G01*
X3515000Y8202500D02*
G75*
G02*
X3545000Y8202500I15000J0D01*
G01*
X3545000Y8062500D02*
G75*
G02*
X3515000Y8062500I-15000J0D01*
G01*
X3515000Y8062500D02*
G75*
G02*
X3545000Y8062500I15000J0D01*
G01*
X3685000Y8202500D02*
G75*
G02*
X3655000Y8202500I-15000J0D01*
G01*
X3655000Y8202500D02*
G75*
G02*
X3685000Y8202500I15000J0D01*
G01*
X3685000Y8062500D02*
G75*
G02*
X3655000Y8062500I-15000J0D01*
G01*
X3655000Y8062500D02*
G75*
G02*
X3685000Y8062500I15000J0D01*
G01*
X1370000Y1560000D02*
X1370000Y1520000D01*
X1350000Y1540000D02*
X1390000Y1540000D01*
X1680000Y5480000D02*
X1680000Y5440000D01*
X1660000Y5460000D02*
X1700000Y5460000D01*
X2060000Y5480000D02*
X2060000Y5440000D01*
X2040000Y5460000D02*
X2080000Y5460000D01*
X2130240Y4317280D02*
X2130240Y4277280D01*
X2110240Y4297280D02*
X2150240Y4297280D01*
X2152000Y8817100D02*
X2152000Y8777100D01*
X2132000Y8797100D02*
X2172000Y8797100D01*
X2345000Y5773500D02*
X2345000Y5733500D01*
X2325000Y5753500D02*
X2365000Y5753500D01*
X2545430Y8909030D02*
X2545430Y8869030D01*
X2525430Y8889030D02*
X2565430Y8889030D01*
X3076080Y6257480D02*
X3076080Y6217480D01*
X3056080Y6237480D02*
X3096080Y6237480D01*
X3165000Y3787000D02*
X3165000Y3747000D01*
X3145000Y3767000D02*
X3185000Y3767000D01*
X3740000Y2340000D02*
X3740000Y2300000D01*
X3720000Y2320000D02*
X3760000Y2320000D01*
X5560000Y5185000D02*
X5560000Y5145000D01*
X5540000Y5165000D02*
X5580000Y5165000D01*
X5710000Y1545000D02*
X5710000Y1505000D01*
X5690000Y1525000D02*
X5730000Y1525000D01*
X6180000Y6845000D02*
X6180000Y6805000D01*
X6160000Y6825000D02*
X6200000Y6825000D01*
X7185000Y5185000D02*
X7185000Y5145000D01*
X7165000Y5165000D02*
X7205000Y5165000D01*
X7335000Y1545000D02*
X7335000Y1505000D01*
X7315000Y1525000D02*
X7355000Y1525000D01*
X7856100Y1638300D02*
X7856100Y1598300D01*
X7836100Y1618300D02*
X7876100Y1618300D01*
X8047700Y5954500D02*
X8047700Y5914500D01*
X8027700Y5934500D02*
X8067700Y5934500D01*
X8810000Y5185000D02*
X8810000Y5145000D01*
X8790000Y5165000D02*
X8830000Y5165000D01*
X8960000Y1545000D02*
X8960000Y1505000D01*
X8940000Y1525000D02*
X8980000Y1525000D01*
X2418178Y2257322D02*
X2418178Y2292678D01*
X2382822Y2292678D01*
X2382822Y2257322D01*
X2418178Y2257322D01*
X2418178Y2107322D02*
X2418178Y2142678D01*
X2382822Y2142678D01*
X2382822Y2107322D01*
X2418178Y2107322D01*
X2418178Y1957322D02*
X2418178Y1992678D01*
X2382822Y1992678D01*
X2382822Y1957322D01*
X2418178Y1957322D01*
X2568178Y2257322D02*
X2568178Y2292678D01*
X2532822Y2292678D01*
X2532822Y2257322D01*
X2568178Y2257322D01*
X2568178Y2107322D02*
X2568178Y2142678D01*
X2532822Y2142678D01*
X2532822Y2107322D01*
X2568178Y2107322D01*
X2568178Y1957322D02*
X2568178Y1992678D01*
X2532822Y1992678D01*
X2532822Y1957322D01*
X2568178Y1957322D01*
X2718178Y2257322D02*
X2718178Y2292678D01*
X2682822Y2292678D01*
X2682822Y2257322D01*
X2718178Y2257322D01*
X2718178Y2107322D02*
X2718178Y2142678D01*
X2682822Y2142678D01*
X2682822Y2107322D01*
X2718178Y2107322D01*
X2718178Y1957322D02*
X2718178Y1992678D01*
X2682822Y1992678D01*
X2682822Y1957322D01*
X2718178Y1957322D01*
X5568178Y4437322D02*
X5568178Y4472678D01*
X5532822Y4472678D01*
X5532822Y4437322D01*
X5568178Y4437322D01*
X5568178Y4287322D02*
X5568178Y4322678D01*
X5532822Y4322678D01*
X5532822Y4287322D01*
X5568178Y4287322D01*
X5568178Y4137322D02*
X5568178Y4172678D01*
X5532822Y4172678D01*
X5532822Y4137322D01*
X5568178Y4137322D01*
X5568178Y3397322D02*
X5568178Y3432678D01*
X5532822Y3432678D01*
X5532822Y3397322D01*
X5568178Y3397322D01*
X5568178Y3247322D02*
X5568178Y3282678D01*
X5532822Y3282678D01*
X5532822Y3247322D01*
X5568178Y3247322D01*
X5568178Y3097322D02*
X5568178Y3132678D01*
X5532822Y3132678D01*
X5532822Y3097322D01*
X5568178Y3097322D01*
X5718178Y4437322D02*
X5718178Y4472678D01*
X5682822Y4472678D01*
X5682822Y4437322D01*
X5718178Y4437322D01*
X5718178Y4287322D02*
X5718178Y4322678D01*
X5682822Y4322678D01*
X5682822Y4287322D01*
X5718178Y4287322D01*
X5718178Y4137322D02*
X5718178Y4172678D01*
X5682822Y4172678D01*
X5682822Y4137322D01*
X5718178Y4137322D01*
X5718178Y3397322D02*
X5718178Y3432678D01*
X5682822Y3432678D01*
X5682822Y3397322D01*
X5718178Y3397322D01*
X5718178Y3247322D02*
X5718178Y3282678D01*
X5682822Y3282678D01*
X5682822Y3247322D01*
X5718178Y3247322D01*
X5718178Y3097322D02*
X5718178Y3132678D01*
X5682822Y3132678D01*
X5682822Y3097322D01*
X5718178Y3097322D01*
X5868178Y4437322D02*
X5868178Y4472678D01*
X5832822Y4472678D01*
X5832822Y4437322D01*
X5868178Y4437322D01*
X5868178Y4287322D02*
X5868178Y4322678D01*
X5832822Y4322678D01*
X5832822Y4287322D01*
X5868178Y4287322D01*
X5868178Y4137322D02*
X5868178Y4172678D01*
X5832822Y4172678D01*
X5832822Y4137322D01*
X5868178Y4137322D01*
X5868178Y3397322D02*
X5868178Y3432678D01*
X5832822Y3432678D01*
X5832822Y3397322D01*
X5868178Y3397322D01*
X5868178Y3247322D02*
X5868178Y3282678D01*
X5832822Y3282678D01*
X5832822Y3247322D01*
X5868178Y3247322D01*
X5868178Y3097322D02*
X5868178Y3132678D01*
X5832822Y3132678D01*
X5832822Y3097322D01*
X5868178Y3097322D01*
X7193178Y4437322D02*
X7193178Y4472678D01*
X7157822Y4472678D01*
X7157822Y4437322D01*
X7193178Y4437322D01*
X7193178Y4287322D02*
X7193178Y4322678D01*
X7157822Y4322678D01*
X7157822Y4287322D01*
X7193178Y4287322D01*
X7193178Y4137322D02*
X7193178Y4172678D01*
X7157822Y4172678D01*
X7157822Y4137322D01*
X7193178Y4137322D01*
X7193178Y3397322D02*
X7193178Y3432678D01*
X7157822Y3432678D01*
X7157822Y3397322D01*
X7193178Y3397322D01*
X7193178Y3247322D02*
X7193178Y3282678D01*
X7157822Y3282678D01*
X7157822Y3247322D01*
X7193178Y3247322D01*
X7193178Y3097322D02*
X7193178Y3132678D01*
X7157822Y3132678D01*
X7157822Y3097322D01*
X7193178Y3097322D01*
X7194928Y6430072D02*
X7194928Y6465428D01*
X7159572Y6465428D01*
X7159572Y6430072D01*
X7194928Y6430072D01*
X7194928Y6280072D02*
X7194928Y6315428D01*
X7159572Y6315428D01*
X7159572Y6280072D01*
X7194928Y6280072D01*
X7194928Y6130072D02*
X7194928Y6165428D01*
X7159572Y6165428D01*
X7159572Y6130072D01*
X7194928Y6130072D01*
X7343178Y4437322D02*
X7343178Y4472678D01*
X7307822Y4472678D01*
X7307822Y4437322D01*
X7343178Y4437322D01*
X7343178Y4287322D02*
X7343178Y4322678D01*
X7307822Y4322678D01*
X7307822Y4287322D01*
X7343178Y4287322D01*
X7343178Y4137322D02*
X7343178Y4172678D01*
X7307822Y4172678D01*
X7307822Y4137322D01*
X7343178Y4137322D01*
X7343178Y3397322D02*
X7343178Y3432678D01*
X7307822Y3432678D01*
X7307822Y3397322D01*
X7343178Y3397322D01*
X7343178Y3247322D02*
X7343178Y3282678D01*
X7307822Y3282678D01*
X7307822Y3247322D01*
X7343178Y3247322D01*
X7343178Y3097322D02*
X7343178Y3132678D01*
X7307822Y3132678D01*
X7307822Y3097322D01*
X7343178Y3097322D01*
X7344928Y6430072D02*
X7344928Y6465428D01*
X7309572Y6465428D01*
X7309572Y6430072D01*
X7344928Y6430072D01*
X7344928Y6280072D02*
X7344928Y6315428D01*
X7309572Y6315428D01*
X7309572Y6280072D01*
X7344928Y6280072D01*
X7344928Y6130072D02*
X7344928Y6165428D01*
X7309572Y6165428D01*
X7309572Y6130072D01*
X7344928Y6130072D01*
X7493178Y4437322D02*
X7493178Y4472678D01*
X7457822Y4472678D01*
X7457822Y4437322D01*
X7493178Y4437322D01*
X7493178Y4287322D02*
X7493178Y4322678D01*
X7457822Y4322678D01*
X7457822Y4287322D01*
X7493178Y4287322D01*
X7493178Y4137322D02*
X7493178Y4172678D01*
X7457822Y4172678D01*
X7457822Y4137322D01*
X7493178Y4137322D01*
X7493178Y3397322D02*
X7493178Y3432678D01*
X7457822Y3432678D01*
X7457822Y3397322D01*
X7493178Y3397322D01*
X7493178Y3247322D02*
X7493178Y3282678D01*
X7457822Y3282678D01*
X7457822Y3247322D01*
X7493178Y3247322D01*
X7493178Y3097322D02*
X7493178Y3132678D01*
X7457822Y3132678D01*
X7457822Y3097322D01*
X7493178Y3097322D01*
X7494928Y6430072D02*
X7494928Y6465428D01*
X7459572Y6465428D01*
X7459572Y6430072D01*
X7494928Y6430072D01*
X7494928Y6280072D02*
X7494928Y6315428D01*
X7459572Y6315428D01*
X7459572Y6280072D01*
X7494928Y6280072D01*
X7494928Y6130072D02*
X7494928Y6165428D01*
X7459572Y6165428D01*
X7459572Y6130072D01*
X7494928Y6130072D01*
X8818178Y4437322D02*
X8818178Y4472678D01*
X8782822Y4472678D01*
X8782822Y4437322D01*
X8818178Y4437322D01*
X8818178Y4287322D02*
X8818178Y4322678D01*
X8782822Y4322678D01*
X8782822Y4287322D01*
X8818178Y4287322D01*
X8818178Y4137322D02*
X8818178Y4172678D01*
X8782822Y4172678D01*
X8782822Y4137322D01*
X8818178Y4137322D01*
X8818178Y3397322D02*
X8818178Y3432678D01*
X8782822Y3432678D01*
X8782822Y3397322D01*
X8818178Y3397322D01*
X8818178Y3247322D02*
X8818178Y3282678D01*
X8782822Y3282678D01*
X8782822Y3247322D01*
X8818178Y3247322D01*
X8818178Y3097322D02*
X8818178Y3132678D01*
X8782822Y3132678D01*
X8782822Y3097322D01*
X8818178Y3097322D01*
X8968178Y4437322D02*
X8968178Y4472678D01*
X8932822Y4472678D01*
X8932822Y4437322D01*
X8968178Y4437322D01*
X8968178Y4287322D02*
X8968178Y4322678D01*
X8932822Y4322678D01*
X8932822Y4287322D01*
X8968178Y4287322D01*
X8968178Y4137322D02*
X8968178Y4172678D01*
X8932822Y4172678D01*
X8932822Y4137322D01*
X8968178Y4137322D01*
X8968178Y3397322D02*
X8968178Y3432678D01*
X8932822Y3432678D01*
X8932822Y3397322D01*
X8968178Y3397322D01*
X8968178Y3247322D02*
X8968178Y3282678D01*
X8932822Y3282678D01*
X8932822Y3247322D01*
X8968178Y3247322D01*
X8968178Y3097322D02*
X8968178Y3132678D01*
X8932822Y3132678D01*
X8932822Y3097322D01*
X8968178Y3097322D01*
X9118178Y4437322D02*
X9118178Y4472678D01*
X9082822Y4472678D01*
X9082822Y4437322D01*
X9118178Y4437322D01*
X9118178Y4287322D02*
X9118178Y4322678D01*
X9082822Y4322678D01*
X9082822Y4287322D01*
X9118178Y4287322D01*
X9118178Y4137322D02*
X9118178Y4172678D01*
X9082822Y4172678D01*
X9082822Y4137322D01*
X9118178Y4137322D01*
X9118178Y3397322D02*
X9118178Y3432678D01*
X9082822Y3432678D01*
X9082822Y3397322D01*
X9118178Y3397322D01*
X9118178Y3247322D02*
X9118178Y3282678D01*
X9082822Y3282678D01*
X9082822Y3247322D01*
X9118178Y3247322D01*
X9118178Y3097322D02*
X9118178Y3132678D01*
X9082822Y3132678D01*
X9082822Y3097322D01*
X9118178Y3097322D01*
X4100000Y4100000D02*
X4150000Y4150000D01*
X4100000Y4200000D01*
X4050000Y4150000D01*
X4100000Y4100000D01*
X4100000Y3200000D02*
X4150000Y3250000D01*
X4100000Y3300000D01*
X4050000Y3250000D01*
X4100000Y3200000D01*
X4500000Y4100000D02*
X4550000Y4150000D01*
X4500000Y4200000D01*
X4450000Y4150000D01*
X4500000Y4100000D01*
X4500000Y3200000D02*
X4550000Y3250000D01*
X4500000Y3300000D01*
X4450000Y3250000D01*
X4500000Y3200000D01*
D11*
X860000Y1155000D02*
X1060000Y955000D01*
X1060000Y1155000D02*
X860000Y955000D01*
X1060000Y1055000D02*
G75*
G02*
X860000Y1055000I-100000J0D01*
G01*
X860000Y1055000D02*
G75*
G02*
X1060000Y1055000I100000J0D01*
G01*
X860000Y365000D02*
X1060000Y165000D01*
X1060000Y365000D02*
X860000Y165000D01*
X1060000Y265000D02*
G75*
G02*
X860000Y265000I-100000J0D01*
G01*
X860000Y265000D02*
G75*
G02*
X1060000Y265000I100000J0D01*
G01*
X1360000Y1155000D02*
X1560000Y955000D01*
X1560000Y1155000D02*
X1360000Y955000D01*
X1560000Y1055000D02*
G75*
G02*
X1360000Y1055000I-100000J0D01*
G01*
X1360000Y1055000D02*
G75*
G02*
X1560000Y1055000I100000J0D01*
G01*
X1360000Y365000D02*
X1560000Y165000D01*
X1560000Y365000D02*
X1360000Y165000D01*
X1560000Y265000D02*
G75*
G02*
X1360000Y265000I-100000J0D01*
G01*
X1360000Y265000D02*
G75*
G02*
X1560000Y265000I100000J0D01*
G01*
X1910000Y1155000D02*
X2110000Y955000D01*
X2110000Y1155000D02*
X1910000Y955000D01*
X2110000Y1055000D02*
G75*
G02*
X1910000Y1055000I-100000J0D01*
G01*
X1910000Y1055000D02*
G75*
G02*
X2110000Y1055000I100000J0D01*
G01*
X1910000Y365000D02*
X2110000Y165000D01*
X2110000Y365000D02*
X1910000Y165000D01*
X2110000Y265000D02*
G75*
G02*
X1910000Y265000I-100000J0D01*
G01*
X1910000Y265000D02*
G75*
G02*
X2110000Y265000I100000J0D01*
G01*
X2410000Y1155000D02*
X2610000Y955000D01*
X2610000Y1155000D02*
X2410000Y955000D01*
X2610000Y1055000D02*
G75*
G02*
X2410000Y1055000I-100000J0D01*
G01*
X2410000Y1055000D02*
G75*
G02*
X2610000Y1055000I100000J0D01*
G01*
X2410000Y365000D02*
X2610000Y165000D01*
X2610000Y365000D02*
X2410000Y165000D01*
X2610000Y265000D02*
G75*
G02*
X2410000Y265000I-100000J0D01*
G01*
X2410000Y265000D02*
G75*
G02*
X2610000Y265000I100000J0D01*
G01*
X4860000Y1155000D02*
X5060000Y955000D01*
X5060000Y1155000D02*
X4860000Y955000D01*
X5060000Y1055000D02*
G75*
G02*
X4860000Y1055000I-100000J0D01*
G01*
X4860000Y1055000D02*
G75*
G02*
X5060000Y1055000I100000J0D01*
G01*
X4860000Y365000D02*
X5060000Y165000D01*
X5060000Y365000D02*
X4860000Y165000D01*
X5060000Y265000D02*
G75*
G02*
X4860000Y265000I-100000J0D01*
G01*
X4860000Y265000D02*
G75*
G02*
X5060000Y265000I100000J0D01*
G01*
X5360000Y1155000D02*
X5560000Y955000D01*
X5560000Y1155000D02*
X5360000Y955000D01*
X5560000Y1055000D02*
G75*
G02*
X5360000Y1055000I-100000J0D01*
G01*
X5360000Y1055000D02*
G75*
G02*
X5560000Y1055000I100000J0D01*
G01*
X5360000Y365000D02*
X5560000Y165000D01*
X5560000Y365000D02*
X5360000Y165000D01*
X5560000Y265000D02*
G75*
G02*
X5360000Y265000I-100000J0D01*
G01*
X5360000Y265000D02*
G75*
G02*
X5560000Y265000I100000J0D01*
G01*
X6485000Y1155000D02*
X6685000Y955000D01*
X6685000Y1155000D02*
X6485000Y955000D01*
X6685000Y1055000D02*
G75*
G02*
X6485000Y1055000I-100000J0D01*
G01*
X6485000Y1055000D02*
G75*
G02*
X6685000Y1055000I100000J0D01*
G01*
X6485000Y365000D02*
X6685000Y165000D01*
X6685000Y365000D02*
X6485000Y165000D01*
X6685000Y265000D02*
G75*
G02*
X6485000Y265000I-100000J0D01*
G01*
X6485000Y265000D02*
G75*
G02*
X6685000Y265000I100000J0D01*
G01*
X6985000Y1155000D02*
X7185000Y955000D01*
X7185000Y1155000D02*
X6985000Y955000D01*
X7185000Y1055000D02*
G75*
G02*
X6985000Y1055000I-100000J0D01*
G01*
X6985000Y1055000D02*
G75*
G02*
X7185000Y1055000I100000J0D01*
G01*
X6985000Y365000D02*
X7185000Y165000D01*
X7185000Y365000D02*
X6985000Y165000D01*
X7185000Y265000D02*
G75*
G02*
X6985000Y265000I-100000J0D01*
G01*
X6985000Y265000D02*
G75*
G02*
X7185000Y265000I100000J0D01*
G01*
X8110000Y1155000D02*
X8310000Y955000D01*
X8310000Y1155000D02*
X8110000Y955000D01*
X8310000Y1055000D02*
G75*
G02*
X8110000Y1055000I-100000J0D01*
G01*
X8110000Y1055000D02*
G75*
G02*
X8310000Y1055000I100000J0D01*
G01*
X8110000Y365000D02*
X8310000Y165000D01*
X8310000Y365000D02*
X8110000Y165000D01*
X8310000Y265000D02*
G75*
G02*
X8110000Y265000I-100000J0D01*
G01*
X8110000Y265000D02*
G75*
G02*
X8310000Y265000I100000J0D01*
G01*
X8610000Y1155000D02*
X8810000Y955000D01*
X8810000Y1155000D02*
X8610000Y955000D01*
X8810000Y1055000D02*
G75*
G02*
X8610000Y1055000I-100000J0D01*
G01*
X8610000Y1055000D02*
G75*
G02*
X8810000Y1055000I100000J0D01*
G01*
X8610000Y365000D02*
X8810000Y165000D01*
X8810000Y365000D02*
X8610000Y165000D01*
X8810000Y265000D02*
G75*
G02*
X8610000Y265000I-100000J0D01*
G01*
X8610000Y265000D02*
G75*
G02*
X8810000Y265000I100000J0D01*
G01*
X255777Y-316484D02*
X255777Y-116484D01*
X255777Y-116484D02*
X303396Y-116484D01*
X303396Y-116484D02*
X331967Y-126008D01*
X331967Y-126008D02*
X351015Y-145055D01*
X351015Y-145055D02*
X360539Y-164103D01*
X360539Y-164103D02*
X370062Y-202198D01*
X370062Y-202198D02*
X370062Y-230769D01*
X370062Y-230769D02*
X360539Y-268865D01*
X360539Y-268865D02*
X351015Y-287912D01*
X351015Y-287912D02*
X331967Y-306960D01*
X331967Y-306960D02*
X303396Y-316484D01*
X303396Y-316484D02*
X255777Y-316484D01*
X455777Y-316484D02*
X455777Y-183150D01*
X455777Y-221246D02*
X465301Y-202198D01*
X465301Y-202198D02*
X474824Y-192674D01*
X474824Y-192674D02*
X493872Y-183150D01*
X493872Y-183150D02*
X512920Y-183150D01*
X579586Y-316484D02*
X579586Y-183150D01*
X579586Y-116484D02*
X570063Y-126008D01*
X570063Y-126008D02*
X579586Y-135531D01*
X579586Y-135531D02*
X589110Y-126008D01*
X589110Y-126008D02*
X579586Y-116484D01*
X579586Y-116484D02*
X579586Y-135531D01*
X703396Y-316484D02*
X684348Y-306960D01*
X684348Y-306960D02*
X674824Y-287912D01*
X674824Y-287912D02*
X674824Y-116484D01*
X808158Y-316484D02*
X789110Y-306960D01*
X789110Y-306960D02*
X779586Y-287912D01*
X779586Y-287912D02*
X779586Y-116484D01*
X1036729Y-316484D02*
X1036729Y-116484D01*
X1036729Y-116484D02*
X1103396Y-259341D01*
X1103396Y-259341D02*
X1170063Y-116484D01*
X1170063Y-116484D02*
X1170063Y-316484D01*
X1351015Y-316484D02*
X1351015Y-211722D01*
X1351015Y-211722D02*
X1341491Y-192674D01*
X1341491Y-192674D02*
X1322444Y-183150D01*
X1322444Y-183150D02*
X1284348Y-183150D01*
X1284348Y-183150D02*
X1265301Y-192674D01*
X1351015Y-306960D02*
X1331967Y-316484D01*
X1331967Y-316484D02*
X1284348Y-316484D01*
X1284348Y-316484D02*
X1265301Y-306960D01*
X1265301Y-306960D02*
X1255777Y-287912D01*
X1255777Y-287912D02*
X1255777Y-268865D01*
X1255777Y-268865D02*
X1265301Y-249817D01*
X1265301Y-249817D02*
X1284348Y-240293D01*
X1284348Y-240293D02*
X1331967Y-240293D01*
X1331967Y-240293D02*
X1351015Y-230769D01*
X1446253Y-183150D02*
X1446253Y-383150D01*
X1446253Y-192674D02*
X1465301Y-183150D01*
X1465301Y-183150D02*
X1503396Y-183150D01*
X1503396Y-183150D02*
X1522443Y-192674D01*
X1522443Y-192674D02*
X1531967Y-202198D01*
X1531967Y-202198D02*
X1541491Y-221246D01*
X1541491Y-221246D02*
X1541491Y-278389D01*
X1541491Y-278389D02*
X1531967Y-297436D01*
X1531967Y-297436D02*
X1522443Y-306960D01*
X1522443Y-306960D02*
X1503396Y-316484D01*
X1503396Y-316484D02*
X1465301Y-316484D01*
X1465301Y-316484D02*
X1446253Y-306960D01*
X1627205Y-297436D02*
X1636729Y-306960D01*
X1636729Y-306960D02*
X1627205Y-316484D01*
X1627205Y-316484D02*
X1617682Y-306960D01*
X1617682Y-306960D02*
X1627205Y-297436D01*
X1627205Y-297436D02*
X1627205Y-316484D01*
X1627205Y-192674D02*
X1636729Y-202198D01*
X1636729Y-202198D02*
X1627205Y-211722D01*
X1627205Y-211722D02*
X1617682Y-202198D01*
X1617682Y-202198D02*
X1627205Y-192674D01*
X1627205Y-192674D02*
X1627205Y-211722D01*
D10*
X-35000Y-630000D02*
X-5000Y-660000D01*
X-5000Y-630000D02*
X-35000Y-660000D01*
D11*
X293872Y-536484D02*
X312920Y-536484D01*
X312920Y-536484D02*
X331967Y-546008D01*
X331967Y-546008D02*
X341491Y-555531D01*
X341491Y-555531D02*
X351015Y-574579D01*
X351015Y-574579D02*
X360539Y-612674D01*
X360539Y-612674D02*
X360539Y-660293D01*
X360539Y-660293D02*
X351015Y-698389D01*
X351015Y-698389D02*
X341491Y-717436D01*
X341491Y-717436D02*
X331967Y-726960D01*
X331967Y-726960D02*
X312920Y-736484D01*
X312920Y-736484D02*
X293872Y-736484D01*
X293872Y-736484D02*
X274824Y-726960D01*
X274824Y-726960D02*
X265301Y-717436D01*
X265301Y-717436D02*
X255777Y-698389D01*
X255777Y-698389D02*
X246253Y-660293D01*
X246253Y-660293D02*
X246253Y-612674D01*
X246253Y-612674D02*
X255777Y-574579D01*
X255777Y-574579D02*
X265301Y-555531D01*
X265301Y-555531D02*
X274824Y-546008D01*
X274824Y-546008D02*
X293872Y-536484D01*
X446253Y-717436D02*
X455777Y-726960D01*
X455777Y-726960D02*
X446253Y-736484D01*
X446253Y-736484D02*
X436729Y-726960D01*
X436729Y-726960D02*
X446253Y-717436D01*
X446253Y-717436D02*
X446253Y-736484D01*
X522443Y-536484D02*
X646253Y-536484D01*
X646253Y-536484D02*
X579586Y-612674D01*
X579586Y-612674D02*
X608158Y-612674D01*
X608158Y-612674D02*
X627205Y-622198D01*
X627205Y-622198D02*
X636729Y-631722D01*
X636729Y-631722D02*
X646253Y-650770D01*
X646253Y-650770D02*
X646253Y-698389D01*
X646253Y-698389D02*
X636729Y-717436D01*
X636729Y-717436D02*
X627205Y-726960D01*
X627205Y-726960D02*
X608158Y-736484D01*
X608158Y-736484D02*
X551015Y-736484D01*
X551015Y-736484D02*
X531967Y-726960D01*
X531967Y-726960D02*
X522443Y-717436D01*
X770062Y-536484D02*
X789110Y-536484D01*
X789110Y-536484D02*
X808158Y-546008D01*
X808158Y-546008D02*
X817682Y-555531D01*
X817682Y-555531D02*
X827205Y-574579D01*
X827205Y-574579D02*
X836729Y-612674D01*
X836729Y-612674D02*
X836729Y-660293D01*
X836729Y-660293D02*
X827205Y-698389D01*
X827205Y-698389D02*
X817682Y-717436D01*
X817682Y-717436D02*
X808158Y-726960D01*
X808158Y-726960D02*
X789110Y-736484D01*
X789110Y-736484D02*
X770062Y-736484D01*
X770062Y-736484D02*
X751015Y-726960D01*
X751015Y-726960D02*
X741491Y-717436D01*
X741491Y-717436D02*
X731967Y-698389D01*
X731967Y-698389D02*
X722443Y-660293D01*
X722443Y-660293D02*
X722443Y-612674D01*
X722443Y-612674D02*
X731967Y-574579D01*
X731967Y-574579D02*
X741491Y-555531D01*
X741491Y-555531D02*
X751015Y-546008D01*
X751015Y-546008D02*
X770062Y-536484D01*
X960539Y-536484D02*
X979586Y-536484D01*
X979586Y-536484D02*
X998634Y-546008D01*
X998634Y-546008D02*
X1008158Y-555531D01*
X1008158Y-555531D02*
X1017682Y-574579D01*
X1017682Y-574579D02*
X1027205Y-612674D01*
X1027205Y-612674D02*
X1027205Y-660293D01*
X1027205Y-660293D02*
X1017682Y-698389D01*
X1017682Y-698389D02*
X1008158Y-717436D01*
X1008158Y-717436D02*
X998634Y-726960D01*
X998634Y-726960D02*
X979586Y-736484D01*
X979586Y-736484D02*
X960539Y-736484D01*
X960539Y-736484D02*
X941491Y-726960D01*
X941491Y-726960D02*
X931967Y-717436D01*
X931967Y-717436D02*
X922443Y-698389D01*
X922443Y-698389D02*
X912920Y-660293D01*
X912920Y-660293D02*
X912920Y-612674D01*
X912920Y-612674D02*
X922443Y-574579D01*
X922443Y-574579D02*
X931967Y-555531D01*
X931967Y-555531D02*
X941491Y-546008D01*
X941491Y-546008D02*
X960539Y-536484D01*
X1112920Y-736484D02*
X1112920Y-603150D01*
X1112920Y-622198D02*
X1122444Y-612674D01*
X1122444Y-612674D02*
X1141491Y-603150D01*
X1141491Y-603150D02*
X1170063Y-603150D01*
X1170063Y-603150D02*
X1189110Y-612674D01*
X1189110Y-612674D02*
X1198634Y-631722D01*
X1198634Y-631722D02*
X1198634Y-736484D01*
X1198634Y-631722D02*
X1208158Y-612674D01*
X1208158Y-612674D02*
X1227205Y-603150D01*
X1227205Y-603150D02*
X1255777Y-603150D01*
X1255777Y-603150D02*
X1274825Y-612674D01*
X1274825Y-612674D02*
X1284348Y-631722D01*
X1284348Y-631722D02*
X1284348Y-736484D01*
X1379586Y-736484D02*
X1379586Y-603150D01*
X1379586Y-622198D02*
X1389110Y-612674D01*
X1389110Y-612674D02*
X1408158Y-603150D01*
X1408158Y-603150D02*
X1436729Y-603150D01*
X1436729Y-603150D02*
X1455777Y-612674D01*
X1455777Y-612674D02*
X1465301Y-631722D01*
X1465301Y-631722D02*
X1465301Y-736484D01*
X1465301Y-631722D02*
X1474824Y-612674D01*
X1474824Y-612674D02*
X1493872Y-603150D01*
X1493872Y-603150D02*
X1522443Y-603150D01*
X1522443Y-603150D02*
X1541491Y-612674D01*
X1541491Y-612674D02*
X1551015Y-631722D01*
X1551015Y-631722D02*
X1551015Y-736484D01*
X1941491Y-526960D02*
X1770063Y-784103D01*
X2198634Y-536484D02*
X2217682Y-536484D01*
X2217682Y-536484D02*
X2236729Y-546008D01*
X2236729Y-546008D02*
X2246253Y-555531D01*
X2246253Y-555531D02*
X2255777Y-574579D01*
X2255777Y-574579D02*
X2265301Y-612674D01*
X2265301Y-612674D02*
X2265301Y-660293D01*
X2265301Y-660293D02*
X2255777Y-698389D01*
X2255777Y-698389D02*
X2246253Y-717436D01*
X2246253Y-717436D02*
X2236729Y-726960D01*
X2236729Y-726960D02*
X2217682Y-736484D01*
X2217682Y-736484D02*
X2198634Y-736484D01*
X2198634Y-736484D02*
X2179587Y-726960D01*
X2179587Y-726960D02*
X2170063Y-717436D01*
X2170063Y-717436D02*
X2160539Y-698389D01*
X2160539Y-698389D02*
X2151015Y-660293D01*
X2151015Y-660293D02*
X2151015Y-612674D01*
X2151015Y-612674D02*
X2160539Y-574579D01*
X2160539Y-574579D02*
X2170063Y-555531D01*
X2170063Y-555531D02*
X2179587Y-546008D01*
X2179587Y-546008D02*
X2198634Y-536484D01*
X2351015Y-717436D02*
X2360539Y-726960D01*
X2360539Y-726960D02*
X2351015Y-736484D01*
X2351015Y-736484D02*
X2341491Y-726960D01*
X2341491Y-726960D02*
X2351015Y-717436D01*
X2351015Y-717436D02*
X2351015Y-736484D01*
X2484348Y-536484D02*
X2503396Y-536484D01*
X2503396Y-536484D02*
X2522444Y-546008D01*
X2522444Y-546008D02*
X2531968Y-555531D01*
X2531968Y-555531D02*
X2541491Y-574579D01*
X2541491Y-574579D02*
X2551015Y-612674D01*
X2551015Y-612674D02*
X2551015Y-660293D01*
X2551015Y-660293D02*
X2541491Y-698389D01*
X2541491Y-698389D02*
X2531968Y-717436D01*
X2531968Y-717436D02*
X2522444Y-726960D01*
X2522444Y-726960D02*
X2503396Y-736484D01*
X2503396Y-736484D02*
X2484348Y-736484D01*
X2484348Y-736484D02*
X2465301Y-726960D01*
X2465301Y-726960D02*
X2455777Y-717436D01*
X2455777Y-717436D02*
X2446253Y-698389D01*
X2446253Y-698389D02*
X2436729Y-660293D01*
X2436729Y-660293D02*
X2436729Y-612674D01*
X2436729Y-612674D02*
X2446253Y-574579D01*
X2446253Y-574579D02*
X2455777Y-555531D01*
X2455777Y-555531D02*
X2465301Y-546008D01*
X2465301Y-546008D02*
X2484348Y-536484D01*
X2741491Y-736484D02*
X2627206Y-736484D01*
X2684348Y-736484D02*
X2684348Y-536484D01*
X2684348Y-536484D02*
X2665301Y-565055D01*
X2665301Y-565055D02*
X2646253Y-584103D01*
X2646253Y-584103D02*
X2627206Y-593627D01*
X2931967Y-736484D02*
X2817682Y-736484D01*
X2874825Y-736484D02*
X2874825Y-536484D01*
X2874825Y-536484D02*
X2855777Y-565055D01*
X2855777Y-565055D02*
X2836729Y-584103D01*
X2836729Y-584103D02*
X2817682Y-593627D01*
X3046253Y-622198D02*
X3027206Y-612674D01*
X3027206Y-612674D02*
X3017682Y-603150D01*
X3017682Y-603150D02*
X3008158Y-584103D01*
X3008158Y-584103D02*
X3008158Y-574579D01*
X3008158Y-574579D02*
X3017682Y-555531D01*
X3017682Y-555531D02*
X3027206Y-546008D01*
X3027206Y-546008D02*
X3046253Y-536484D01*
X3046253Y-536484D02*
X3084348Y-536484D01*
X3084348Y-536484D02*
X3103396Y-546008D01*
X3103396Y-546008D02*
X3112920Y-555531D01*
X3112920Y-555531D02*
X3122444Y-574579D01*
X3122444Y-574579D02*
X3122444Y-584103D01*
X3122444Y-584103D02*
X3112920Y-603150D01*
X3112920Y-603150D02*
X3103396Y-612674D01*
X3103396Y-612674D02*
X3084348Y-622198D01*
X3084348Y-622198D02*
X3046253Y-622198D01*
X3046253Y-622198D02*
X3027206Y-631722D01*
X3027206Y-631722D02*
X3017682Y-641246D01*
X3017682Y-641246D02*
X3008158Y-660293D01*
X3008158Y-660293D02*
X3008158Y-698389D01*
X3008158Y-698389D02*
X3017682Y-717436D01*
X3017682Y-717436D02*
X3027206Y-726960D01*
X3027206Y-726960D02*
X3046253Y-736484D01*
X3046253Y-736484D02*
X3084348Y-736484D01*
X3084348Y-736484D02*
X3103396Y-726960D01*
X3103396Y-726960D02*
X3112920Y-717436D01*
X3112920Y-717436D02*
X3122444Y-698389D01*
X3122444Y-698389D02*
X3122444Y-660293D01*
X3122444Y-660293D02*
X3112920Y-641246D01*
X3112920Y-641246D02*
X3103396Y-631722D01*
X3103396Y-631722D02*
X3084348Y-622198D01*
X3198634Y-536484D02*
X3198634Y-574579D01*
X3274825Y-536484D02*
X3274825Y-574579D01*
X3570063Y-812674D02*
X3560539Y-803150D01*
X3560539Y-803150D02*
X3541491Y-774579D01*
X3541491Y-774579D02*
X3531968Y-755531D01*
X3531968Y-755531D02*
X3522444Y-726960D01*
X3522444Y-726960D02*
X3512920Y-679341D01*
X3512920Y-679341D02*
X3512920Y-641246D01*
X3512920Y-641246D02*
X3522444Y-593627D01*
X3522444Y-593627D02*
X3531968Y-565055D01*
X3531968Y-565055D02*
X3541491Y-546008D01*
X3541491Y-546008D02*
X3560539Y-517436D01*
X3560539Y-517436D02*
X3570063Y-507912D01*
X3627206Y-536484D02*
X3751015Y-536484D01*
X3751015Y-536484D02*
X3684348Y-612674D01*
X3684348Y-612674D02*
X3712920Y-612674D01*
X3712920Y-612674D02*
X3731968Y-622198D01*
X3731968Y-622198D02*
X3741491Y-631722D01*
X3741491Y-631722D02*
X3751015Y-650770D01*
X3751015Y-650770D02*
X3751015Y-698389D01*
X3751015Y-698389D02*
X3741491Y-717436D01*
X3741491Y-717436D02*
X3731968Y-726960D01*
X3731968Y-726960D02*
X3712920Y-736484D01*
X3712920Y-736484D02*
X3655777Y-736484D01*
X3655777Y-736484D02*
X3636729Y-726960D01*
X3636729Y-726960D02*
X3627206Y-717436D01*
X3941491Y-736484D02*
X3827206Y-736484D01*
X3884348Y-736484D02*
X3884348Y-536484D01*
X3884348Y-536484D02*
X3865301Y-565055D01*
X3865301Y-565055D02*
X3846253Y-584103D01*
X3846253Y-584103D02*
X3827206Y-593627D01*
X4131968Y-736484D02*
X4017682Y-736484D01*
X4074825Y-736484D02*
X4074825Y-536484D01*
X4074825Y-536484D02*
X4055777Y-565055D01*
X4055777Y-565055D02*
X4036729Y-584103D01*
X4036729Y-584103D02*
X4017682Y-593627D01*
X4370063Y-736484D02*
X4370063Y-536484D01*
X4455777Y-736484D02*
X4455777Y-631722D01*
X4455777Y-631722D02*
X4446253Y-612674D01*
X4446253Y-612674D02*
X4427206Y-603150D01*
X4427206Y-603150D02*
X4398634Y-603150D01*
X4398634Y-603150D02*
X4379587Y-612674D01*
X4379587Y-612674D02*
X4370063Y-622198D01*
X4579587Y-736484D02*
X4560539Y-726960D01*
X4560539Y-726960D02*
X4551015Y-717436D01*
X4551015Y-717436D02*
X4541492Y-698389D01*
X4541492Y-698389D02*
X4541492Y-641246D01*
X4541492Y-641246D02*
X4551015Y-622198D01*
X4551015Y-622198D02*
X4560539Y-612674D01*
X4560539Y-612674D02*
X4579587Y-603150D01*
X4579587Y-603150D02*
X4608158Y-603150D01*
X4608158Y-603150D02*
X4627206Y-612674D01*
X4627206Y-612674D02*
X4636730Y-622198D01*
X4636730Y-622198D02*
X4646253Y-641246D01*
X4646253Y-641246D02*
X4646253Y-698389D01*
X4646253Y-698389D02*
X4636730Y-717436D01*
X4636730Y-717436D02*
X4627206Y-726960D01*
X4627206Y-726960D02*
X4608158Y-736484D01*
X4608158Y-736484D02*
X4579587Y-736484D01*
X4760539Y-736484D02*
X4741492Y-726960D01*
X4741492Y-726960D02*
X4731968Y-707912D01*
X4731968Y-707912D02*
X4731968Y-536484D01*
X4912920Y-726960D02*
X4893873Y-736484D01*
X4893873Y-736484D02*
X4855777Y-736484D01*
X4855777Y-736484D02*
X4836730Y-726960D01*
X4836730Y-726960D02*
X4827206Y-707912D01*
X4827206Y-707912D02*
X4827206Y-631722D01*
X4827206Y-631722D02*
X4836730Y-612674D01*
X4836730Y-612674D02*
X4855777Y-603150D01*
X4855777Y-603150D02*
X4893873Y-603150D01*
X4893873Y-603150D02*
X4912920Y-612674D01*
X4912920Y-612674D02*
X4922444Y-631722D01*
X4922444Y-631722D02*
X4922444Y-650770D01*
X4922444Y-650770D02*
X4827206Y-669817D01*
X4998634Y-726960D02*
X5017682Y-736484D01*
X5017682Y-736484D02*
X5055777Y-736484D01*
X5055777Y-736484D02*
X5074825Y-726960D01*
X5074825Y-726960D02*
X5084349Y-707912D01*
X5084349Y-707912D02*
X5084349Y-698389D01*
X5084349Y-698389D02*
X5074825Y-679341D01*
X5074825Y-679341D02*
X5055777Y-669817D01*
X5055777Y-669817D02*
X5027206Y-669817D01*
X5027206Y-669817D02*
X5008158Y-660293D01*
X5008158Y-660293D02*
X4998634Y-641246D01*
X4998634Y-641246D02*
X4998634Y-631722D01*
X4998634Y-631722D02*
X5008158Y-612674D01*
X5008158Y-612674D02*
X5027206Y-603150D01*
X5027206Y-603150D02*
X5055777Y-603150D01*
X5055777Y-603150D02*
X5074825Y-612674D01*
X5151015Y-812674D02*
X5160539Y-803150D01*
X5160539Y-803150D02*
X5179587Y-774579D01*
X5179587Y-774579D02*
X5189111Y-755531D01*
X5189111Y-755531D02*
X5198634Y-726960D01*
X5198634Y-726960D02*
X5208158Y-679341D01*
X5208158Y-679341D02*
X5208158Y-641246D01*
X5208158Y-641246D02*
X5198634Y-593627D01*
X5198634Y-593627D02*
X5189111Y-565055D01*
X5189111Y-565055D02*
X5179587Y-546008D01*
X5179587Y-546008D02*
X5160539Y-517436D01*
X5160539Y-517436D02*
X5151015Y-507912D01*
D10*
X-5000Y-909000D02*
G75*
G02*
X-35000Y-909000I-15000J0D01*
G01*
X-35000Y-909000D02*
G75*
G02*
X-5000Y-909000I15000J0D01*
G01*
D11*
X293872Y-800484D02*
X312920Y-800484D01*
X312920Y-800484D02*
X331967Y-810008D01*
X331967Y-810008D02*
X341491Y-819531D01*
X341491Y-819531D02*
X351015Y-838579D01*
X351015Y-838579D02*
X360539Y-876674D01*
X360539Y-876674D02*
X360539Y-924293D01*
X360539Y-924293D02*
X351015Y-962388D01*
X351015Y-962388D02*
X341491Y-981436D01*
X341491Y-981436D02*
X331967Y-990960D01*
X331967Y-990960D02*
X312920Y-1000484D01*
X312920Y-1000484D02*
X293872Y-1000484D01*
X293872Y-1000484D02*
X274824Y-990960D01*
X274824Y-990960D02*
X265301Y-981436D01*
X265301Y-981436D02*
X255777Y-962388D01*
X255777Y-962388D02*
X246253Y-924293D01*
X246253Y-924293D02*
X246253Y-876674D01*
X246253Y-876674D02*
X255777Y-838579D01*
X255777Y-838579D02*
X265301Y-819531D01*
X265301Y-819531D02*
X274824Y-810008D01*
X274824Y-810008D02*
X293872Y-800484D01*
X446253Y-981436D02*
X455777Y-990960D01*
X455777Y-990960D02*
X446253Y-1000484D01*
X446253Y-1000484D02*
X436729Y-990960D01*
X436729Y-990960D02*
X446253Y-981436D01*
X446253Y-981436D02*
X446253Y-1000484D01*
X522443Y-800484D02*
X646253Y-800484D01*
X646253Y-800484D02*
X579586Y-876674D01*
X579586Y-876674D02*
X608158Y-876674D01*
X608158Y-876674D02*
X627205Y-886198D01*
X627205Y-886198D02*
X636729Y-895722D01*
X636729Y-895722D02*
X646253Y-914769D01*
X646253Y-914769D02*
X646253Y-962388D01*
X646253Y-962388D02*
X636729Y-981436D01*
X636729Y-981436D02*
X627205Y-990960D01*
X627205Y-990960D02*
X608158Y-1000484D01*
X608158Y-1000484D02*
X551015Y-1000484D01*
X551015Y-1000484D02*
X531967Y-990960D01*
X531967Y-990960D02*
X522443Y-981436D01*
X770062Y-800484D02*
X789110Y-800484D01*
X789110Y-800484D02*
X808158Y-810008D01*
X808158Y-810008D02*
X817682Y-819531D01*
X817682Y-819531D02*
X827205Y-838579D01*
X827205Y-838579D02*
X836729Y-876674D01*
X836729Y-876674D02*
X836729Y-924293D01*
X836729Y-924293D02*
X827205Y-962388D01*
X827205Y-962388D02*
X817682Y-981436D01*
X817682Y-981436D02*
X808158Y-990960D01*
X808158Y-990960D02*
X789110Y-1000484D01*
X789110Y-1000484D02*
X770062Y-1000484D01*
X770062Y-1000484D02*
X751015Y-990960D01*
X751015Y-990960D02*
X741491Y-981436D01*
X741491Y-981436D02*
X731967Y-962388D01*
X731967Y-962388D02*
X722443Y-924293D01*
X722443Y-924293D02*
X722443Y-876674D01*
X722443Y-876674D02*
X731967Y-838579D01*
X731967Y-838579D02*
X741491Y-819531D01*
X741491Y-819531D02*
X751015Y-810008D01*
X751015Y-810008D02*
X770062Y-800484D01*
X960539Y-800484D02*
X979586Y-800484D01*
X979586Y-800484D02*
X998634Y-810008D01*
X998634Y-810008D02*
X1008158Y-819531D01*
X1008158Y-819531D02*
X1017682Y-838579D01*
X1017682Y-838579D02*
X1027205Y-876674D01*
X1027205Y-876674D02*
X1027205Y-924293D01*
X1027205Y-924293D02*
X1017682Y-962388D01*
X1017682Y-962388D02*
X1008158Y-981436D01*
X1008158Y-981436D02*
X998634Y-990960D01*
X998634Y-990960D02*
X979586Y-1000484D01*
X979586Y-1000484D02*
X960539Y-1000484D01*
X960539Y-1000484D02*
X941491Y-990960D01*
X941491Y-990960D02*
X931967Y-981436D01*
X931967Y-981436D02*
X922443Y-962388D01*
X922443Y-962388D02*
X912920Y-924293D01*
X912920Y-924293D02*
X912920Y-876674D01*
X912920Y-876674D02*
X922443Y-838579D01*
X922443Y-838579D02*
X931967Y-819531D01*
X931967Y-819531D02*
X941491Y-810008D01*
X941491Y-810008D02*
X960539Y-800484D01*
X1112920Y-1000484D02*
X1112920Y-867150D01*
X1112920Y-886198D02*
X1122444Y-876674D01*
X1122444Y-876674D02*
X1141491Y-867150D01*
X1141491Y-867150D02*
X1170063Y-867150D01*
X1170063Y-867150D02*
X1189110Y-876674D01*
X1189110Y-876674D02*
X1198634Y-895722D01*
X1198634Y-895722D02*
X1198634Y-1000484D01*
X1198634Y-895722D02*
X1208158Y-876674D01*
X1208158Y-876674D02*
X1227205Y-867150D01*
X1227205Y-867150D02*
X1255777Y-867150D01*
X1255777Y-867150D02*
X1274825Y-876674D01*
X1274825Y-876674D02*
X1284348Y-895722D01*
X1284348Y-895722D02*
X1284348Y-1000484D01*
X1379586Y-1000484D02*
X1379586Y-867150D01*
X1379586Y-886198D02*
X1389110Y-876674D01*
X1389110Y-876674D02*
X1408158Y-867150D01*
X1408158Y-867150D02*
X1436729Y-867150D01*
X1436729Y-867150D02*
X1455777Y-876674D01*
X1455777Y-876674D02*
X1465301Y-895722D01*
X1465301Y-895722D02*
X1465301Y-1000484D01*
X1465301Y-895722D02*
X1474824Y-876674D01*
X1474824Y-876674D02*
X1493872Y-867150D01*
X1493872Y-867150D02*
X1522443Y-867150D01*
X1522443Y-867150D02*
X1541491Y-876674D01*
X1541491Y-876674D02*
X1551015Y-895722D01*
X1551015Y-895722D02*
X1551015Y-1000484D01*
X1941491Y-790960D02*
X1770063Y-1048103D01*
X2198634Y-800484D02*
X2217682Y-800484D01*
X2217682Y-800484D02*
X2236729Y-810008D01*
X2236729Y-810008D02*
X2246253Y-819531D01*
X2246253Y-819531D02*
X2255777Y-838579D01*
X2255777Y-838579D02*
X2265301Y-876674D01*
X2265301Y-876674D02*
X2265301Y-924293D01*
X2265301Y-924293D02*
X2255777Y-962388D01*
X2255777Y-962388D02*
X2246253Y-981436D01*
X2246253Y-981436D02*
X2236729Y-990960D01*
X2236729Y-990960D02*
X2217682Y-1000484D01*
X2217682Y-1000484D02*
X2198634Y-1000484D01*
X2198634Y-1000484D02*
X2179587Y-990960D01*
X2179587Y-990960D02*
X2170063Y-981436D01*
X2170063Y-981436D02*
X2160539Y-962388D01*
X2160539Y-962388D02*
X2151015Y-924293D01*
X2151015Y-924293D02*
X2151015Y-876674D01*
X2151015Y-876674D02*
X2160539Y-838579D01*
X2160539Y-838579D02*
X2170063Y-819531D01*
X2170063Y-819531D02*
X2179587Y-810008D01*
X2179587Y-810008D02*
X2198634Y-800484D01*
X2351015Y-981436D02*
X2360539Y-990960D01*
X2360539Y-990960D02*
X2351015Y-1000484D01*
X2351015Y-1000484D02*
X2341491Y-990960D01*
X2341491Y-990960D02*
X2351015Y-981436D01*
X2351015Y-981436D02*
X2351015Y-1000484D01*
X2484348Y-800484D02*
X2503396Y-800484D01*
X2503396Y-800484D02*
X2522444Y-810008D01*
X2522444Y-810008D02*
X2531968Y-819531D01*
X2531968Y-819531D02*
X2541491Y-838579D01*
X2541491Y-838579D02*
X2551015Y-876674D01*
X2551015Y-876674D02*
X2551015Y-924293D01*
X2551015Y-924293D02*
X2541491Y-962388D01*
X2541491Y-962388D02*
X2531968Y-981436D01*
X2531968Y-981436D02*
X2522444Y-990960D01*
X2522444Y-990960D02*
X2503396Y-1000484D01*
X2503396Y-1000484D02*
X2484348Y-1000484D01*
X2484348Y-1000484D02*
X2465301Y-990960D01*
X2465301Y-990960D02*
X2455777Y-981436D01*
X2455777Y-981436D02*
X2446253Y-962388D01*
X2446253Y-962388D02*
X2436729Y-924293D01*
X2436729Y-924293D02*
X2436729Y-876674D01*
X2436729Y-876674D02*
X2446253Y-838579D01*
X2446253Y-838579D02*
X2455777Y-819531D01*
X2455777Y-819531D02*
X2465301Y-810008D01*
X2465301Y-810008D02*
X2484348Y-800484D01*
X2741491Y-1000484D02*
X2627206Y-1000484D01*
X2684348Y-1000484D02*
X2684348Y-800484D01*
X2684348Y-800484D02*
X2665301Y-829055D01*
X2665301Y-829055D02*
X2646253Y-848103D01*
X2646253Y-848103D02*
X2627206Y-857627D01*
X2931967Y-1000484D02*
X2817682Y-1000484D01*
X2874825Y-1000484D02*
X2874825Y-800484D01*
X2874825Y-800484D02*
X2855777Y-829055D01*
X2855777Y-829055D02*
X2836729Y-848103D01*
X2836729Y-848103D02*
X2817682Y-857627D01*
X3046253Y-886198D02*
X3027206Y-876674D01*
X3027206Y-876674D02*
X3017682Y-867150D01*
X3017682Y-867150D02*
X3008158Y-848103D01*
X3008158Y-848103D02*
X3008158Y-838579D01*
X3008158Y-838579D02*
X3017682Y-819531D01*
X3017682Y-819531D02*
X3027206Y-810008D01*
X3027206Y-810008D02*
X3046253Y-800484D01*
X3046253Y-800484D02*
X3084348Y-800484D01*
X3084348Y-800484D02*
X3103396Y-810008D01*
X3103396Y-810008D02*
X3112920Y-819531D01*
X3112920Y-819531D02*
X3122444Y-838579D01*
X3122444Y-838579D02*
X3122444Y-848103D01*
X3122444Y-848103D02*
X3112920Y-867150D01*
X3112920Y-867150D02*
X3103396Y-876674D01*
X3103396Y-876674D02*
X3084348Y-886198D01*
X3084348Y-886198D02*
X3046253Y-886198D01*
X3046253Y-886198D02*
X3027206Y-895722D01*
X3027206Y-895722D02*
X3017682Y-905246D01*
X3017682Y-905246D02*
X3008158Y-924293D01*
X3008158Y-924293D02*
X3008158Y-962388D01*
X3008158Y-962388D02*
X3017682Y-981436D01*
X3017682Y-981436D02*
X3027206Y-990960D01*
X3027206Y-990960D02*
X3046253Y-1000484D01*
X3046253Y-1000484D02*
X3084348Y-1000484D01*
X3084348Y-1000484D02*
X3103396Y-990960D01*
X3103396Y-990960D02*
X3112920Y-981436D01*
X3112920Y-981436D02*
X3122444Y-962388D01*
X3122444Y-962388D02*
X3122444Y-924293D01*
X3122444Y-924293D02*
X3112920Y-905246D01*
X3112920Y-905246D02*
X3103396Y-895722D01*
X3103396Y-895722D02*
X3084348Y-886198D01*
X3198634Y-800484D02*
X3198634Y-838579D01*
X3274825Y-800484D02*
X3274825Y-838579D01*
X3570063Y-1076674D02*
X3560539Y-1067150D01*
X3560539Y-1067150D02*
X3541491Y-1038579D01*
X3541491Y-1038579D02*
X3531968Y-1019531D01*
X3531968Y-1019531D02*
X3522444Y-990960D01*
X3522444Y-990960D02*
X3512920Y-943341D01*
X3512920Y-943341D02*
X3512920Y-905246D01*
X3512920Y-905246D02*
X3522444Y-857627D01*
X3522444Y-857627D02*
X3531968Y-829055D01*
X3531968Y-829055D02*
X3541491Y-810008D01*
X3541491Y-810008D02*
X3560539Y-781436D01*
X3560539Y-781436D02*
X3570063Y-771912D01*
X3751015Y-1000484D02*
X3636729Y-1000484D01*
X3693872Y-1000484D02*
X3693872Y-800484D01*
X3693872Y-800484D02*
X3674825Y-829055D01*
X3674825Y-829055D02*
X3655777Y-848103D01*
X3655777Y-848103D02*
X3636729Y-857627D01*
X3846253Y-1000484D02*
X3884348Y-1000484D01*
X3884348Y-1000484D02*
X3903396Y-990960D01*
X3903396Y-990960D02*
X3912920Y-981436D01*
X3912920Y-981436D02*
X3931968Y-952865D01*
X3931968Y-952865D02*
X3941491Y-914769D01*
X3941491Y-914769D02*
X3941491Y-838579D01*
X3941491Y-838579D02*
X3931968Y-819531D01*
X3931968Y-819531D02*
X3922444Y-810008D01*
X3922444Y-810008D02*
X3903396Y-800484D01*
X3903396Y-800484D02*
X3865301Y-800484D01*
X3865301Y-800484D02*
X3846253Y-810008D01*
X3846253Y-810008D02*
X3836729Y-819531D01*
X3836729Y-819531D02*
X3827206Y-838579D01*
X3827206Y-838579D02*
X3827206Y-886198D01*
X3827206Y-886198D02*
X3836729Y-905246D01*
X3836729Y-905246D02*
X3846253Y-914769D01*
X3846253Y-914769D02*
X3865301Y-924293D01*
X3865301Y-924293D02*
X3903396Y-924293D01*
X3903396Y-924293D02*
X3922444Y-914769D01*
X3922444Y-914769D02*
X3931968Y-905246D01*
X3931968Y-905246D02*
X3941491Y-886198D01*
X4179587Y-1000484D02*
X4179587Y-800484D01*
X4265301Y-1000484D02*
X4265301Y-895722D01*
X4265301Y-895722D02*
X4255777Y-876674D01*
X4255777Y-876674D02*
X4236730Y-867150D01*
X4236730Y-867150D02*
X4208158Y-867150D01*
X4208158Y-867150D02*
X4189110Y-876674D01*
X4189110Y-876674D02*
X4179587Y-886198D01*
X4389111Y-1000484D02*
X4370063Y-990960D01*
X4370063Y-990960D02*
X4360539Y-981436D01*
X4360539Y-981436D02*
X4351015Y-962388D01*
X4351015Y-962388D02*
X4351015Y-905246D01*
X4351015Y-905246D02*
X4360539Y-886198D01*
X4360539Y-886198D02*
X4370063Y-876674D01*
X4370063Y-876674D02*
X4389111Y-867150D01*
X4389111Y-867150D02*
X4417682Y-867150D01*
X4417682Y-867150D02*
X4436730Y-876674D01*
X4436730Y-876674D02*
X4446253Y-886198D01*
X4446253Y-886198D02*
X4455777Y-905246D01*
X4455777Y-905246D02*
X4455777Y-962388D01*
X4455777Y-962388D02*
X4446253Y-981436D01*
X4446253Y-981436D02*
X4436730Y-990960D01*
X4436730Y-990960D02*
X4417682Y-1000484D01*
X4417682Y-1000484D02*
X4389111Y-1000484D01*
X4570063Y-1000484D02*
X4551015Y-990960D01*
X4551015Y-990960D02*
X4541492Y-971912D01*
X4541492Y-971912D02*
X4541492Y-800484D01*
X4722444Y-990960D02*
X4703396Y-1000484D01*
X4703396Y-1000484D02*
X4665301Y-1000484D01*
X4665301Y-1000484D02*
X4646253Y-990960D01*
X4646253Y-990960D02*
X4636730Y-971912D01*
X4636730Y-971912D02*
X4636730Y-895722D01*
X4636730Y-895722D02*
X4646253Y-876674D01*
X4646253Y-876674D02*
X4665301Y-867150D01*
X4665301Y-867150D02*
X4703396Y-867150D01*
X4703396Y-867150D02*
X4722444Y-876674D01*
X4722444Y-876674D02*
X4731968Y-895722D01*
X4731968Y-895722D02*
X4731968Y-914769D01*
X4731968Y-914769D02*
X4636730Y-933817D01*
X4808158Y-990960D02*
X4827206Y-1000484D01*
X4827206Y-1000484D02*
X4865301Y-1000484D01*
X4865301Y-1000484D02*
X4884349Y-990960D01*
X4884349Y-990960D02*
X4893873Y-971912D01*
X4893873Y-971912D02*
X4893873Y-962388D01*
X4893873Y-962388D02*
X4884349Y-943341D01*
X4884349Y-943341D02*
X4865301Y-933817D01*
X4865301Y-933817D02*
X4836730Y-933817D01*
X4836730Y-933817D02*
X4817682Y-924293D01*
X4817682Y-924293D02*
X4808158Y-905246D01*
X4808158Y-905246D02*
X4808158Y-895722D01*
X4808158Y-895722D02*
X4817682Y-876674D01*
X4817682Y-876674D02*
X4836730Y-867150D01*
X4836730Y-867150D02*
X4865301Y-867150D01*
X4865301Y-867150D02*
X4884349Y-876674D01*
X4960539Y-1076674D02*
X4970063Y-1067150D01*
X4970063Y-1067150D02*
X4989111Y-1038579D01*
X4989111Y-1038579D02*
X4998634Y-1019531D01*
X4998634Y-1019531D02*
X5008158Y-990960D01*
X5008158Y-990960D02*
X5017682Y-943341D01*
X5017682Y-943341D02*
X5017682Y-905246D01*
X5017682Y-905246D02*
X5008158Y-857627D01*
X5008158Y-857627D02*
X4998634Y-829055D01*
X4998634Y-829055D02*
X4989111Y-810008D01*
X4989111Y-810008D02*
X4970063Y-781436D01*
X4970063Y-781436D02*
X4960539Y-771912D01*
D10*
X-25000Y-1153000D02*
X-25000Y-1193000D01*
X-45000Y-1173000D02*
X-5000Y-1173000D01*
D11*
X293872Y-1064484D02*
X312920Y-1064484D01*
X312920Y-1064484D02*
X331967Y-1074008D01*
X331967Y-1074008D02*
X341491Y-1083531D01*
X341491Y-1083531D02*
X351015Y-1102579D01*
X351015Y-1102579D02*
X360539Y-1140674D01*
X360539Y-1140674D02*
X360539Y-1188293D01*
X360539Y-1188293D02*
X351015Y-1226389D01*
X351015Y-1226389D02*
X341491Y-1245436D01*
X341491Y-1245436D02*
X331967Y-1254960D01*
X331967Y-1254960D02*
X312920Y-1264484D01*
X312920Y-1264484D02*
X293872Y-1264484D01*
X293872Y-1264484D02*
X274824Y-1254960D01*
X274824Y-1254960D02*
X265301Y-1245436D01*
X265301Y-1245436D02*
X255777Y-1226389D01*
X255777Y-1226389D02*
X246253Y-1188293D01*
X246253Y-1188293D02*
X246253Y-1140674D01*
X246253Y-1140674D02*
X255777Y-1102579D01*
X255777Y-1102579D02*
X265301Y-1083531D01*
X265301Y-1083531D02*
X274824Y-1074008D01*
X274824Y-1074008D02*
X293872Y-1064484D01*
X446253Y-1245436D02*
X455777Y-1254960D01*
X455777Y-1254960D02*
X446253Y-1264484D01*
X446253Y-1264484D02*
X436729Y-1254960D01*
X436729Y-1254960D02*
X446253Y-1245436D01*
X446253Y-1245436D02*
X446253Y-1264484D01*
X627205Y-1131150D02*
X627205Y-1264484D01*
X579586Y-1054960D02*
X531967Y-1197817D01*
X531967Y-1197817D02*
X655777Y-1197817D01*
X770062Y-1064484D02*
X789110Y-1064484D01*
X789110Y-1064484D02*
X808158Y-1074008D01*
X808158Y-1074008D02*
X817682Y-1083531D01*
X817682Y-1083531D02*
X827205Y-1102579D01*
X827205Y-1102579D02*
X836729Y-1140674D01*
X836729Y-1140674D02*
X836729Y-1188293D01*
X836729Y-1188293D02*
X827205Y-1226389D01*
X827205Y-1226389D02*
X817682Y-1245436D01*
X817682Y-1245436D02*
X808158Y-1254960D01*
X808158Y-1254960D02*
X789110Y-1264484D01*
X789110Y-1264484D02*
X770062Y-1264484D01*
X770062Y-1264484D02*
X751015Y-1254960D01*
X751015Y-1254960D02*
X741491Y-1245436D01*
X741491Y-1245436D02*
X731967Y-1226389D01*
X731967Y-1226389D02*
X722443Y-1188293D01*
X722443Y-1188293D02*
X722443Y-1140674D01*
X722443Y-1140674D02*
X731967Y-1102579D01*
X731967Y-1102579D02*
X741491Y-1083531D01*
X741491Y-1083531D02*
X751015Y-1074008D01*
X751015Y-1074008D02*
X770062Y-1064484D01*
X960539Y-1064484D02*
X979586Y-1064484D01*
X979586Y-1064484D02*
X998634Y-1074008D01*
X998634Y-1074008D02*
X1008158Y-1083531D01*
X1008158Y-1083531D02*
X1017682Y-1102579D01*
X1017682Y-1102579D02*
X1027205Y-1140674D01*
X1027205Y-1140674D02*
X1027205Y-1188293D01*
X1027205Y-1188293D02*
X1017682Y-1226389D01*
X1017682Y-1226389D02*
X1008158Y-1245436D01*
X1008158Y-1245436D02*
X998634Y-1254960D01*
X998634Y-1254960D02*
X979586Y-1264484D01*
X979586Y-1264484D02*
X960539Y-1264484D01*
X960539Y-1264484D02*
X941491Y-1254960D01*
X941491Y-1254960D02*
X931967Y-1245436D01*
X931967Y-1245436D02*
X922443Y-1226389D01*
X922443Y-1226389D02*
X912920Y-1188293D01*
X912920Y-1188293D02*
X912920Y-1140674D01*
X912920Y-1140674D02*
X922443Y-1102579D01*
X922443Y-1102579D02*
X931967Y-1083531D01*
X931967Y-1083531D02*
X941491Y-1074008D01*
X941491Y-1074008D02*
X960539Y-1064484D01*
X1112920Y-1264484D02*
X1112920Y-1131150D01*
X1112920Y-1150198D02*
X1122444Y-1140674D01*
X1122444Y-1140674D02*
X1141491Y-1131150D01*
X1141491Y-1131150D02*
X1170063Y-1131150D01*
X1170063Y-1131150D02*
X1189110Y-1140674D01*
X1189110Y-1140674D02*
X1198634Y-1159722D01*
X1198634Y-1159722D02*
X1198634Y-1264484D01*
X1198634Y-1159722D02*
X1208158Y-1140674D01*
X1208158Y-1140674D02*
X1227205Y-1131150D01*
X1227205Y-1131150D02*
X1255777Y-1131150D01*
X1255777Y-1131150D02*
X1274825Y-1140674D01*
X1274825Y-1140674D02*
X1284348Y-1159722D01*
X1284348Y-1159722D02*
X1284348Y-1264484D01*
X1379586Y-1264484D02*
X1379586Y-1131150D01*
X1379586Y-1150198D02*
X1389110Y-1140674D01*
X1389110Y-1140674D02*
X1408158Y-1131150D01*
X1408158Y-1131150D02*
X1436729Y-1131150D01*
X1436729Y-1131150D02*
X1455777Y-1140674D01*
X1455777Y-1140674D02*
X1465301Y-1159722D01*
X1465301Y-1159722D02*
X1465301Y-1264484D01*
X1465301Y-1159722D02*
X1474824Y-1140674D01*
X1474824Y-1140674D02*
X1493872Y-1131150D01*
X1493872Y-1131150D02*
X1522443Y-1131150D01*
X1522443Y-1131150D02*
X1541491Y-1140674D01*
X1541491Y-1140674D02*
X1551015Y-1159722D01*
X1551015Y-1159722D02*
X1551015Y-1264484D01*
X1941491Y-1054960D02*
X1770063Y-1312103D01*
X2198634Y-1064484D02*
X2217682Y-1064484D01*
X2217682Y-1064484D02*
X2236729Y-1074008D01*
X2236729Y-1074008D02*
X2246253Y-1083531D01*
X2246253Y-1083531D02*
X2255777Y-1102579D01*
X2255777Y-1102579D02*
X2265301Y-1140674D01*
X2265301Y-1140674D02*
X2265301Y-1188293D01*
X2265301Y-1188293D02*
X2255777Y-1226389D01*
X2255777Y-1226389D02*
X2246253Y-1245436D01*
X2246253Y-1245436D02*
X2236729Y-1254960D01*
X2236729Y-1254960D02*
X2217682Y-1264484D01*
X2217682Y-1264484D02*
X2198634Y-1264484D01*
X2198634Y-1264484D02*
X2179587Y-1254960D01*
X2179587Y-1254960D02*
X2170063Y-1245436D01*
X2170063Y-1245436D02*
X2160539Y-1226389D01*
X2160539Y-1226389D02*
X2151015Y-1188293D01*
X2151015Y-1188293D02*
X2151015Y-1140674D01*
X2151015Y-1140674D02*
X2160539Y-1102579D01*
X2160539Y-1102579D02*
X2170063Y-1083531D01*
X2170063Y-1083531D02*
X2179587Y-1074008D01*
X2179587Y-1074008D02*
X2198634Y-1064484D01*
X2351015Y-1245436D02*
X2360539Y-1254960D01*
X2360539Y-1254960D02*
X2351015Y-1264484D01*
X2351015Y-1264484D02*
X2341491Y-1254960D01*
X2341491Y-1254960D02*
X2351015Y-1245436D01*
X2351015Y-1245436D02*
X2351015Y-1264484D01*
X2484348Y-1064484D02*
X2503396Y-1064484D01*
X2503396Y-1064484D02*
X2522444Y-1074008D01*
X2522444Y-1074008D02*
X2531968Y-1083531D01*
X2531968Y-1083531D02*
X2541491Y-1102579D01*
X2541491Y-1102579D02*
X2551015Y-1140674D01*
X2551015Y-1140674D02*
X2551015Y-1188293D01*
X2551015Y-1188293D02*
X2541491Y-1226389D01*
X2541491Y-1226389D02*
X2531968Y-1245436D01*
X2531968Y-1245436D02*
X2522444Y-1254960D01*
X2522444Y-1254960D02*
X2503396Y-1264484D01*
X2503396Y-1264484D02*
X2484348Y-1264484D01*
X2484348Y-1264484D02*
X2465301Y-1254960D01*
X2465301Y-1254960D02*
X2455777Y-1245436D01*
X2455777Y-1245436D02*
X2446253Y-1226389D01*
X2446253Y-1226389D02*
X2436729Y-1188293D01*
X2436729Y-1188293D02*
X2436729Y-1140674D01*
X2436729Y-1140674D02*
X2446253Y-1102579D01*
X2446253Y-1102579D02*
X2455777Y-1083531D01*
X2455777Y-1083531D02*
X2465301Y-1074008D01*
X2465301Y-1074008D02*
X2484348Y-1064484D01*
X2741491Y-1264484D02*
X2627206Y-1264484D01*
X2684348Y-1264484D02*
X2684348Y-1064484D01*
X2684348Y-1064484D02*
X2665301Y-1093055D01*
X2665301Y-1093055D02*
X2646253Y-1112103D01*
X2646253Y-1112103D02*
X2627206Y-1121627D01*
X2922444Y-1064484D02*
X2827206Y-1064484D01*
X2827206Y-1064484D02*
X2817682Y-1159722D01*
X2817682Y-1159722D02*
X2827206Y-1150198D01*
X2827206Y-1150198D02*
X2846253Y-1140674D01*
X2846253Y-1140674D02*
X2893872Y-1140674D01*
X2893872Y-1140674D02*
X2912920Y-1150198D01*
X2912920Y-1150198D02*
X2922444Y-1159722D01*
X2922444Y-1159722D02*
X2931967Y-1178770D01*
X2931967Y-1178770D02*
X2931967Y-1226389D01*
X2931967Y-1226389D02*
X2922444Y-1245436D01*
X2922444Y-1245436D02*
X2912920Y-1254960D01*
X2912920Y-1254960D02*
X2893872Y-1264484D01*
X2893872Y-1264484D02*
X2846253Y-1264484D01*
X2846253Y-1264484D02*
X2827206Y-1254960D01*
X2827206Y-1254960D02*
X2817682Y-1245436D01*
X2998634Y-1064484D02*
X3131967Y-1064484D01*
X3131967Y-1064484D02*
X3046253Y-1264484D01*
X3198634Y-1064484D02*
X3198634Y-1102579D01*
X3274825Y-1064484D02*
X3274825Y-1102579D01*
X3570063Y-1340674D02*
X3560539Y-1331150D01*
X3560539Y-1331150D02*
X3541491Y-1302579D01*
X3541491Y-1302579D02*
X3531968Y-1283531D01*
X3531968Y-1283531D02*
X3522444Y-1254960D01*
X3522444Y-1254960D02*
X3512920Y-1207341D01*
X3512920Y-1207341D02*
X3512920Y-1169246D01*
X3512920Y-1169246D02*
X3522444Y-1121627D01*
X3522444Y-1121627D02*
X3531968Y-1093055D01*
X3531968Y-1093055D02*
X3541491Y-1074008D01*
X3541491Y-1074008D02*
X3560539Y-1045436D01*
X3560539Y-1045436D02*
X3570063Y-1035912D01*
X3751015Y-1264484D02*
X3636729Y-1264484D01*
X3693872Y-1264484D02*
X3693872Y-1064484D01*
X3693872Y-1064484D02*
X3674825Y-1093055D01*
X3674825Y-1093055D02*
X3655777Y-1112103D01*
X3655777Y-1112103D02*
X3636729Y-1121627D01*
X3846253Y-1264484D02*
X3884348Y-1264484D01*
X3884348Y-1264484D02*
X3903396Y-1254960D01*
X3903396Y-1254960D02*
X3912920Y-1245436D01*
X3912920Y-1245436D02*
X3931968Y-1216865D01*
X3931968Y-1216865D02*
X3941491Y-1178770D01*
X3941491Y-1178770D02*
X3941491Y-1102579D01*
X3941491Y-1102579D02*
X3931968Y-1083531D01*
X3931968Y-1083531D02*
X3922444Y-1074008D01*
X3922444Y-1074008D02*
X3903396Y-1064484D01*
X3903396Y-1064484D02*
X3865301Y-1064484D01*
X3865301Y-1064484D02*
X3846253Y-1074008D01*
X3846253Y-1074008D02*
X3836729Y-1083531D01*
X3836729Y-1083531D02*
X3827206Y-1102579D01*
X3827206Y-1102579D02*
X3827206Y-1150198D01*
X3827206Y-1150198D02*
X3836729Y-1169246D01*
X3836729Y-1169246D02*
X3846253Y-1178770D01*
X3846253Y-1178770D02*
X3865301Y-1188293D01*
X3865301Y-1188293D02*
X3903396Y-1188293D01*
X3903396Y-1188293D02*
X3922444Y-1178770D01*
X3922444Y-1178770D02*
X3931968Y-1169246D01*
X3931968Y-1169246D02*
X3941491Y-1150198D01*
X4179587Y-1264484D02*
X4179587Y-1064484D01*
X4265301Y-1264484D02*
X4265301Y-1159722D01*
X4265301Y-1159722D02*
X4255777Y-1140674D01*
X4255777Y-1140674D02*
X4236730Y-1131150D01*
X4236730Y-1131150D02*
X4208158Y-1131150D01*
X4208158Y-1131150D02*
X4189110Y-1140674D01*
X4189110Y-1140674D02*
X4179587Y-1150198D01*
X4389111Y-1264484D02*
X4370063Y-1254960D01*
X4370063Y-1254960D02*
X4360539Y-1245436D01*
X4360539Y-1245436D02*
X4351015Y-1226389D01*
X4351015Y-1226389D02*
X4351015Y-1169246D01*
X4351015Y-1169246D02*
X4360539Y-1150198D01*
X4360539Y-1150198D02*
X4370063Y-1140674D01*
X4370063Y-1140674D02*
X4389111Y-1131150D01*
X4389111Y-1131150D02*
X4417682Y-1131150D01*
X4417682Y-1131150D02*
X4436730Y-1140674D01*
X4436730Y-1140674D02*
X4446253Y-1150198D01*
X4446253Y-1150198D02*
X4455777Y-1169246D01*
X4455777Y-1169246D02*
X4455777Y-1226389D01*
X4455777Y-1226389D02*
X4446253Y-1245436D01*
X4446253Y-1245436D02*
X4436730Y-1254960D01*
X4436730Y-1254960D02*
X4417682Y-1264484D01*
X4417682Y-1264484D02*
X4389111Y-1264484D01*
X4570063Y-1264484D02*
X4551015Y-1254960D01*
X4551015Y-1254960D02*
X4541492Y-1235912D01*
X4541492Y-1235912D02*
X4541492Y-1064484D01*
X4722444Y-1254960D02*
X4703396Y-1264484D01*
X4703396Y-1264484D02*
X4665301Y-1264484D01*
X4665301Y-1264484D02*
X4646253Y-1254960D01*
X4646253Y-1254960D02*
X4636730Y-1235912D01*
X4636730Y-1235912D02*
X4636730Y-1159722D01*
X4636730Y-1159722D02*
X4646253Y-1140674D01*
X4646253Y-1140674D02*
X4665301Y-1131150D01*
X4665301Y-1131150D02*
X4703396Y-1131150D01*
X4703396Y-1131150D02*
X4722444Y-1140674D01*
X4722444Y-1140674D02*
X4731968Y-1159722D01*
X4731968Y-1159722D02*
X4731968Y-1178770D01*
X4731968Y-1178770D02*
X4636730Y-1197817D01*
X4808158Y-1254960D02*
X4827206Y-1264484D01*
X4827206Y-1264484D02*
X4865301Y-1264484D01*
X4865301Y-1264484D02*
X4884349Y-1254960D01*
X4884349Y-1254960D02*
X4893873Y-1235912D01*
X4893873Y-1235912D02*
X4893873Y-1226389D01*
X4893873Y-1226389D02*
X4884349Y-1207341D01*
X4884349Y-1207341D02*
X4865301Y-1197817D01*
X4865301Y-1197817D02*
X4836730Y-1197817D01*
X4836730Y-1197817D02*
X4817682Y-1188293D01*
X4817682Y-1188293D02*
X4808158Y-1169246D01*
X4808158Y-1169246D02*
X4808158Y-1159722D01*
X4808158Y-1159722D02*
X4817682Y-1140674D01*
X4817682Y-1140674D02*
X4836730Y-1131150D01*
X4836730Y-1131150D02*
X4865301Y-1131150D01*
X4865301Y-1131150D02*
X4884349Y-1140674D01*
X4960539Y-1340674D02*
X4970063Y-1331150D01*
X4970063Y-1331150D02*
X4989111Y-1302579D01*
X4989111Y-1302579D02*
X4998634Y-1283531D01*
X4998634Y-1283531D02*
X5008158Y-1254960D01*
X5008158Y-1254960D02*
X5017682Y-1207341D01*
X5017682Y-1207341D02*
X5017682Y-1169246D01*
X5017682Y-1169246D02*
X5008158Y-1121627D01*
X5008158Y-1121627D02*
X4998634Y-1093055D01*
X4998634Y-1093055D02*
X4989111Y-1074008D01*
X4989111Y-1074008D02*
X4970063Y-1045436D01*
X4970063Y-1045436D02*
X4960539Y-1035912D01*
D10*
X-12322Y-1454678D02*
X-12322Y-1419322D01*
X-47678Y-1419322D01*
X-47678Y-1454678D01*
X-12322Y-1454678D01*
D11*
X293872Y-1328484D02*
X312920Y-1328484D01*
X312920Y-1328484D02*
X331967Y-1338008D01*
X331967Y-1338008D02*
X341491Y-1347531D01*
X341491Y-1347531D02*
X351015Y-1366579D01*
X351015Y-1366579D02*
X360539Y-1404674D01*
X360539Y-1404674D02*
X360539Y-1452293D01*
X360539Y-1452293D02*
X351015Y-1490388D01*
X351015Y-1490388D02*
X341491Y-1509436D01*
X341491Y-1509436D02*
X331967Y-1518960D01*
X331967Y-1518960D02*
X312920Y-1528484D01*
X312920Y-1528484D02*
X293872Y-1528484D01*
X293872Y-1528484D02*
X274824Y-1518960D01*
X274824Y-1518960D02*
X265301Y-1509436D01*
X265301Y-1509436D02*
X255777Y-1490388D01*
X255777Y-1490388D02*
X246253Y-1452293D01*
X246253Y-1452293D02*
X246253Y-1404674D01*
X246253Y-1404674D02*
X255777Y-1366579D01*
X255777Y-1366579D02*
X265301Y-1347531D01*
X265301Y-1347531D02*
X274824Y-1338008D01*
X274824Y-1338008D02*
X293872Y-1328484D01*
X446253Y-1509436D02*
X455777Y-1518960D01*
X455777Y-1518960D02*
X446253Y-1528484D01*
X446253Y-1528484D02*
X436729Y-1518960D01*
X436729Y-1518960D02*
X446253Y-1509436D01*
X446253Y-1509436D02*
X446253Y-1528484D01*
X636729Y-1328484D02*
X541491Y-1328484D01*
X541491Y-1328484D02*
X531967Y-1423722D01*
X531967Y-1423722D02*
X541491Y-1414198D01*
X541491Y-1414198D02*
X560539Y-1404674D01*
X560539Y-1404674D02*
X608158Y-1404674D01*
X608158Y-1404674D02*
X627205Y-1414198D01*
X627205Y-1414198D02*
X636729Y-1423722D01*
X636729Y-1423722D02*
X646253Y-1442769D01*
X646253Y-1442769D02*
X646253Y-1490388D01*
X646253Y-1490388D02*
X636729Y-1509436D01*
X636729Y-1509436D02*
X627205Y-1518960D01*
X627205Y-1518960D02*
X608158Y-1528484D01*
X608158Y-1528484D02*
X560539Y-1528484D01*
X560539Y-1528484D02*
X541491Y-1518960D01*
X541491Y-1518960D02*
X531967Y-1509436D01*
X770062Y-1328484D02*
X789110Y-1328484D01*
X789110Y-1328484D02*
X808158Y-1338008D01*
X808158Y-1338008D02*
X817682Y-1347531D01*
X817682Y-1347531D02*
X827205Y-1366579D01*
X827205Y-1366579D02*
X836729Y-1404674D01*
X836729Y-1404674D02*
X836729Y-1452293D01*
X836729Y-1452293D02*
X827205Y-1490388D01*
X827205Y-1490388D02*
X817682Y-1509436D01*
X817682Y-1509436D02*
X808158Y-1518960D01*
X808158Y-1518960D02*
X789110Y-1528484D01*
X789110Y-1528484D02*
X770062Y-1528484D01*
X770062Y-1528484D02*
X751015Y-1518960D01*
X751015Y-1518960D02*
X741491Y-1509436D01*
X741491Y-1509436D02*
X731967Y-1490388D01*
X731967Y-1490388D02*
X722443Y-1452293D01*
X722443Y-1452293D02*
X722443Y-1404674D01*
X722443Y-1404674D02*
X731967Y-1366579D01*
X731967Y-1366579D02*
X741491Y-1347531D01*
X741491Y-1347531D02*
X751015Y-1338008D01*
X751015Y-1338008D02*
X770062Y-1328484D01*
X960539Y-1328484D02*
X979586Y-1328484D01*
X979586Y-1328484D02*
X998634Y-1338008D01*
X998634Y-1338008D02*
X1008158Y-1347531D01*
X1008158Y-1347531D02*
X1017682Y-1366579D01*
X1017682Y-1366579D02*
X1027205Y-1404674D01*
X1027205Y-1404674D02*
X1027205Y-1452293D01*
X1027205Y-1452293D02*
X1017682Y-1490388D01*
X1017682Y-1490388D02*
X1008158Y-1509436D01*
X1008158Y-1509436D02*
X998634Y-1518960D01*
X998634Y-1518960D02*
X979586Y-1528484D01*
X979586Y-1528484D02*
X960539Y-1528484D01*
X960539Y-1528484D02*
X941491Y-1518960D01*
X941491Y-1518960D02*
X931967Y-1509436D01*
X931967Y-1509436D02*
X922443Y-1490388D01*
X922443Y-1490388D02*
X912920Y-1452293D01*
X912920Y-1452293D02*
X912920Y-1404674D01*
X912920Y-1404674D02*
X922443Y-1366579D01*
X922443Y-1366579D02*
X931967Y-1347531D01*
X931967Y-1347531D02*
X941491Y-1338008D01*
X941491Y-1338008D02*
X960539Y-1328484D01*
X1112920Y-1528484D02*
X1112920Y-1395150D01*
X1112920Y-1414198D02*
X1122444Y-1404674D01*
X1122444Y-1404674D02*
X1141491Y-1395150D01*
X1141491Y-1395150D02*
X1170063Y-1395150D01*
X1170063Y-1395150D02*
X1189110Y-1404674D01*
X1189110Y-1404674D02*
X1198634Y-1423722D01*
X1198634Y-1423722D02*
X1198634Y-1528484D01*
X1198634Y-1423722D02*
X1208158Y-1404674D01*
X1208158Y-1404674D02*
X1227205Y-1395150D01*
X1227205Y-1395150D02*
X1255777Y-1395150D01*
X1255777Y-1395150D02*
X1274825Y-1404674D01*
X1274825Y-1404674D02*
X1284348Y-1423722D01*
X1284348Y-1423722D02*
X1284348Y-1528484D01*
X1379586Y-1528484D02*
X1379586Y-1395150D01*
X1379586Y-1414198D02*
X1389110Y-1404674D01*
X1389110Y-1404674D02*
X1408158Y-1395150D01*
X1408158Y-1395150D02*
X1436729Y-1395150D01*
X1436729Y-1395150D02*
X1455777Y-1404674D01*
X1455777Y-1404674D02*
X1465301Y-1423722D01*
X1465301Y-1423722D02*
X1465301Y-1528484D01*
X1465301Y-1423722D02*
X1474824Y-1404674D01*
X1474824Y-1404674D02*
X1493872Y-1395150D01*
X1493872Y-1395150D02*
X1522443Y-1395150D01*
X1522443Y-1395150D02*
X1541491Y-1404674D01*
X1541491Y-1404674D02*
X1551015Y-1423722D01*
X1551015Y-1423722D02*
X1551015Y-1528484D01*
X1941491Y-1318960D02*
X1770063Y-1576103D01*
X2198634Y-1328484D02*
X2217682Y-1328484D01*
X2217682Y-1328484D02*
X2236729Y-1338008D01*
X2236729Y-1338008D02*
X2246253Y-1347531D01*
X2246253Y-1347531D02*
X2255777Y-1366579D01*
X2255777Y-1366579D02*
X2265301Y-1404674D01*
X2265301Y-1404674D02*
X2265301Y-1452293D01*
X2265301Y-1452293D02*
X2255777Y-1490388D01*
X2255777Y-1490388D02*
X2246253Y-1509436D01*
X2246253Y-1509436D02*
X2236729Y-1518960D01*
X2236729Y-1518960D02*
X2217682Y-1528484D01*
X2217682Y-1528484D02*
X2198634Y-1528484D01*
X2198634Y-1528484D02*
X2179587Y-1518960D01*
X2179587Y-1518960D02*
X2170063Y-1509436D01*
X2170063Y-1509436D02*
X2160539Y-1490388D01*
X2160539Y-1490388D02*
X2151015Y-1452293D01*
X2151015Y-1452293D02*
X2151015Y-1404674D01*
X2151015Y-1404674D02*
X2160539Y-1366579D01*
X2160539Y-1366579D02*
X2170063Y-1347531D01*
X2170063Y-1347531D02*
X2179587Y-1338008D01*
X2179587Y-1338008D02*
X2198634Y-1328484D01*
X2351015Y-1509436D02*
X2360539Y-1518960D01*
X2360539Y-1518960D02*
X2351015Y-1528484D01*
X2351015Y-1528484D02*
X2341491Y-1518960D01*
X2341491Y-1518960D02*
X2351015Y-1509436D01*
X2351015Y-1509436D02*
X2351015Y-1528484D01*
X2484348Y-1328484D02*
X2503396Y-1328484D01*
X2503396Y-1328484D02*
X2522444Y-1338008D01*
X2522444Y-1338008D02*
X2531968Y-1347531D01*
X2531968Y-1347531D02*
X2541491Y-1366579D01*
X2541491Y-1366579D02*
X2551015Y-1404674D01*
X2551015Y-1404674D02*
X2551015Y-1452293D01*
X2551015Y-1452293D02*
X2541491Y-1490388D01*
X2541491Y-1490388D02*
X2531968Y-1509436D01*
X2531968Y-1509436D02*
X2522444Y-1518960D01*
X2522444Y-1518960D02*
X2503396Y-1528484D01*
X2503396Y-1528484D02*
X2484348Y-1528484D01*
X2484348Y-1528484D02*
X2465301Y-1518960D01*
X2465301Y-1518960D02*
X2455777Y-1509436D01*
X2455777Y-1509436D02*
X2446253Y-1490388D01*
X2446253Y-1490388D02*
X2436729Y-1452293D01*
X2436729Y-1452293D02*
X2436729Y-1404674D01*
X2436729Y-1404674D02*
X2446253Y-1366579D01*
X2446253Y-1366579D02*
X2455777Y-1347531D01*
X2455777Y-1347531D02*
X2465301Y-1338008D01*
X2465301Y-1338008D02*
X2484348Y-1328484D01*
X2741491Y-1528484D02*
X2627206Y-1528484D01*
X2684348Y-1528484D02*
X2684348Y-1328484D01*
X2684348Y-1328484D02*
X2665301Y-1357055D01*
X2665301Y-1357055D02*
X2646253Y-1376103D01*
X2646253Y-1376103D02*
X2627206Y-1385627D01*
X2836729Y-1528484D02*
X2874825Y-1528484D01*
X2874825Y-1528484D02*
X2893872Y-1518960D01*
X2893872Y-1518960D02*
X2903396Y-1509436D01*
X2903396Y-1509436D02*
X2922444Y-1480865D01*
X2922444Y-1480865D02*
X2931967Y-1442769D01*
X2931967Y-1442769D02*
X2931967Y-1366579D01*
X2931967Y-1366579D02*
X2922444Y-1347531D01*
X2922444Y-1347531D02*
X2912920Y-1338008D01*
X2912920Y-1338008D02*
X2893872Y-1328484D01*
X2893872Y-1328484D02*
X2855777Y-1328484D01*
X2855777Y-1328484D02*
X2836729Y-1338008D01*
X2836729Y-1338008D02*
X2827206Y-1347531D01*
X2827206Y-1347531D02*
X2817682Y-1366579D01*
X2817682Y-1366579D02*
X2817682Y-1414198D01*
X2817682Y-1414198D02*
X2827206Y-1433246D01*
X2827206Y-1433246D02*
X2836729Y-1442769D01*
X2836729Y-1442769D02*
X2855777Y-1452293D01*
X2855777Y-1452293D02*
X2893872Y-1452293D01*
X2893872Y-1452293D02*
X2912920Y-1442769D01*
X2912920Y-1442769D02*
X2922444Y-1433246D01*
X2922444Y-1433246D02*
X2931967Y-1414198D01*
X2998634Y-1328484D02*
X3131967Y-1328484D01*
X3131967Y-1328484D02*
X3046253Y-1528484D01*
X3198634Y-1328484D02*
X3198634Y-1366579D01*
X3274825Y-1328484D02*
X3274825Y-1366579D01*
X3570063Y-1604674D02*
X3560539Y-1595150D01*
X3560539Y-1595150D02*
X3541491Y-1566579D01*
X3541491Y-1566579D02*
X3531968Y-1547531D01*
X3531968Y-1547531D02*
X3522444Y-1518960D01*
X3522444Y-1518960D02*
X3512920Y-1471341D01*
X3512920Y-1471341D02*
X3512920Y-1433246D01*
X3512920Y-1433246D02*
X3522444Y-1385627D01*
X3522444Y-1385627D02*
X3531968Y-1357055D01*
X3531968Y-1357055D02*
X3541491Y-1338008D01*
X3541491Y-1338008D02*
X3560539Y-1309436D01*
X3560539Y-1309436D02*
X3570063Y-1299912D01*
X3627206Y-1328484D02*
X3760539Y-1328484D01*
X3760539Y-1328484D02*
X3674825Y-1528484D01*
X3827206Y-1347531D02*
X3836729Y-1338008D01*
X3836729Y-1338008D02*
X3855777Y-1328484D01*
X3855777Y-1328484D02*
X3903396Y-1328484D01*
X3903396Y-1328484D02*
X3922444Y-1338008D01*
X3922444Y-1338008D02*
X3931968Y-1347531D01*
X3931968Y-1347531D02*
X3941491Y-1366579D01*
X3941491Y-1366579D02*
X3941491Y-1385627D01*
X3941491Y-1385627D02*
X3931968Y-1414198D01*
X3931968Y-1414198D02*
X3817682Y-1528484D01*
X3817682Y-1528484D02*
X3941491Y-1528484D01*
X4179587Y-1528484D02*
X4179587Y-1328484D01*
X4265301Y-1528484D02*
X4265301Y-1423722D01*
X4265301Y-1423722D02*
X4255777Y-1404674D01*
X4255777Y-1404674D02*
X4236730Y-1395150D01*
X4236730Y-1395150D02*
X4208158Y-1395150D01*
X4208158Y-1395150D02*
X4189110Y-1404674D01*
X4189110Y-1404674D02*
X4179587Y-1414198D01*
X4389111Y-1528484D02*
X4370063Y-1518960D01*
X4370063Y-1518960D02*
X4360539Y-1509436D01*
X4360539Y-1509436D02*
X4351015Y-1490388D01*
X4351015Y-1490388D02*
X4351015Y-1433246D01*
X4351015Y-1433246D02*
X4360539Y-1414198D01*
X4360539Y-1414198D02*
X4370063Y-1404674D01*
X4370063Y-1404674D02*
X4389111Y-1395150D01*
X4389111Y-1395150D02*
X4417682Y-1395150D01*
X4417682Y-1395150D02*
X4436730Y-1404674D01*
X4436730Y-1404674D02*
X4446253Y-1414198D01*
X4446253Y-1414198D02*
X4455777Y-1433246D01*
X4455777Y-1433246D02*
X4455777Y-1490388D01*
X4455777Y-1490388D02*
X4446253Y-1509436D01*
X4446253Y-1509436D02*
X4436730Y-1518960D01*
X4436730Y-1518960D02*
X4417682Y-1528484D01*
X4417682Y-1528484D02*
X4389111Y-1528484D01*
X4570063Y-1528484D02*
X4551015Y-1518960D01*
X4551015Y-1518960D02*
X4541492Y-1499912D01*
X4541492Y-1499912D02*
X4541492Y-1328484D01*
X4722444Y-1518960D02*
X4703396Y-1528484D01*
X4703396Y-1528484D02*
X4665301Y-1528484D01*
X4665301Y-1528484D02*
X4646253Y-1518960D01*
X4646253Y-1518960D02*
X4636730Y-1499912D01*
X4636730Y-1499912D02*
X4636730Y-1423722D01*
X4636730Y-1423722D02*
X4646253Y-1404674D01*
X4646253Y-1404674D02*
X4665301Y-1395150D01*
X4665301Y-1395150D02*
X4703396Y-1395150D01*
X4703396Y-1395150D02*
X4722444Y-1404674D01*
X4722444Y-1404674D02*
X4731968Y-1423722D01*
X4731968Y-1423722D02*
X4731968Y-1442769D01*
X4731968Y-1442769D02*
X4636730Y-1461817D01*
X4808158Y-1518960D02*
X4827206Y-1528484D01*
X4827206Y-1528484D02*
X4865301Y-1528484D01*
X4865301Y-1528484D02*
X4884349Y-1518960D01*
X4884349Y-1518960D02*
X4893873Y-1499912D01*
X4893873Y-1499912D02*
X4893873Y-1490388D01*
X4893873Y-1490388D02*
X4884349Y-1471341D01*
X4884349Y-1471341D02*
X4865301Y-1461817D01*
X4865301Y-1461817D02*
X4836730Y-1461817D01*
X4836730Y-1461817D02*
X4817682Y-1452293D01*
X4817682Y-1452293D02*
X4808158Y-1433246D01*
X4808158Y-1433246D02*
X4808158Y-1423722D01*
X4808158Y-1423722D02*
X4817682Y-1404674D01*
X4817682Y-1404674D02*
X4836730Y-1395150D01*
X4836730Y-1395150D02*
X4865301Y-1395150D01*
X4865301Y-1395150D02*
X4884349Y-1404674D01*
X4960539Y-1604674D02*
X4970063Y-1595150D01*
X4970063Y-1595150D02*
X4989111Y-1566579D01*
X4989111Y-1566579D02*
X4998634Y-1547531D01*
X4998634Y-1547531D02*
X5008158Y-1518960D01*
X5008158Y-1518960D02*
X5017682Y-1471341D01*
X5017682Y-1471341D02*
X5017682Y-1433246D01*
X5017682Y-1433246D02*
X5008158Y-1385627D01*
X5008158Y-1385627D02*
X4998634Y-1357055D01*
X4998634Y-1357055D02*
X4989111Y-1338008D01*
X4989111Y-1338008D02*
X4970063Y-1309436D01*
X4970063Y-1309436D02*
X4960539Y-1299912D01*
D10*
X-55000Y-1751000D02*
X-5000Y-1701000D01*
X-55000Y-1651000D01*
X-105000Y-1701000D01*
X-55000Y-1751000D01*
D11*
X360539Y-1792484D02*
X246253Y-1792484D01*
X303396Y-1792484D02*
X303396Y-1592484D01*
X303396Y-1592484D02*
X284348Y-1621055D01*
X284348Y-1621055D02*
X265301Y-1640103D01*
X265301Y-1640103D02*
X246253Y-1649627D01*
X446253Y-1773436D02*
X455777Y-1782960D01*
X455777Y-1782960D02*
X446253Y-1792484D01*
X446253Y-1792484D02*
X436729Y-1782960D01*
X436729Y-1782960D02*
X446253Y-1773436D01*
X446253Y-1773436D02*
X446253Y-1792484D01*
X579586Y-1592484D02*
X598634Y-1592484D01*
X598634Y-1592484D02*
X617682Y-1602008D01*
X617682Y-1602008D02*
X627205Y-1611531D01*
X627205Y-1611531D02*
X636729Y-1630579D01*
X636729Y-1630579D02*
X646253Y-1668674D01*
X646253Y-1668674D02*
X646253Y-1716293D01*
X646253Y-1716293D02*
X636729Y-1754388D01*
X636729Y-1754388D02*
X627205Y-1773436D01*
X627205Y-1773436D02*
X617682Y-1782960D01*
X617682Y-1782960D02*
X598634Y-1792484D01*
X598634Y-1792484D02*
X579586Y-1792484D01*
X579586Y-1792484D02*
X560539Y-1782960D01*
X560539Y-1782960D02*
X551015Y-1773436D01*
X551015Y-1773436D02*
X541491Y-1754388D01*
X541491Y-1754388D02*
X531967Y-1716293D01*
X531967Y-1716293D02*
X531967Y-1668674D01*
X531967Y-1668674D02*
X541491Y-1630579D01*
X541491Y-1630579D02*
X551015Y-1611531D01*
X551015Y-1611531D02*
X560539Y-1602008D01*
X560539Y-1602008D02*
X579586Y-1592484D01*
X770062Y-1592484D02*
X789110Y-1592484D01*
X789110Y-1592484D02*
X808158Y-1602008D01*
X808158Y-1602008D02*
X817682Y-1611531D01*
X817682Y-1611531D02*
X827205Y-1630579D01*
X827205Y-1630579D02*
X836729Y-1668674D01*
X836729Y-1668674D02*
X836729Y-1716293D01*
X836729Y-1716293D02*
X827205Y-1754388D01*
X827205Y-1754388D02*
X817682Y-1773436D01*
X817682Y-1773436D02*
X808158Y-1782960D01*
X808158Y-1782960D02*
X789110Y-1792484D01*
X789110Y-1792484D02*
X770062Y-1792484D01*
X770062Y-1792484D02*
X751015Y-1782960D01*
X751015Y-1782960D02*
X741491Y-1773436D01*
X741491Y-1773436D02*
X731967Y-1754388D01*
X731967Y-1754388D02*
X722443Y-1716293D01*
X722443Y-1716293D02*
X722443Y-1668674D01*
X722443Y-1668674D02*
X731967Y-1630579D01*
X731967Y-1630579D02*
X741491Y-1611531D01*
X741491Y-1611531D02*
X751015Y-1602008D01*
X751015Y-1602008D02*
X770062Y-1592484D01*
X960539Y-1592484D02*
X979586Y-1592484D01*
X979586Y-1592484D02*
X998634Y-1602008D01*
X998634Y-1602008D02*
X1008158Y-1611531D01*
X1008158Y-1611531D02*
X1017682Y-1630579D01*
X1017682Y-1630579D02*
X1027205Y-1668674D01*
X1027205Y-1668674D02*
X1027205Y-1716293D01*
X1027205Y-1716293D02*
X1017682Y-1754388D01*
X1017682Y-1754388D02*
X1008158Y-1773436D01*
X1008158Y-1773436D02*
X998634Y-1782960D01*
X998634Y-1782960D02*
X979586Y-1792484D01*
X979586Y-1792484D02*
X960539Y-1792484D01*
X960539Y-1792484D02*
X941491Y-1782960D01*
X941491Y-1782960D02*
X931967Y-1773436D01*
X931967Y-1773436D02*
X922443Y-1754388D01*
X922443Y-1754388D02*
X912920Y-1716293D01*
X912920Y-1716293D02*
X912920Y-1668674D01*
X912920Y-1668674D02*
X922443Y-1630579D01*
X922443Y-1630579D02*
X931967Y-1611531D01*
X931967Y-1611531D02*
X941491Y-1602008D01*
X941491Y-1602008D02*
X960539Y-1592484D01*
X1112920Y-1792484D02*
X1112920Y-1659150D01*
X1112920Y-1678198D02*
X1122444Y-1668674D01*
X1122444Y-1668674D02*
X1141491Y-1659150D01*
X1141491Y-1659150D02*
X1170063Y-1659150D01*
X1170063Y-1659150D02*
X1189110Y-1668674D01*
X1189110Y-1668674D02*
X1198634Y-1687722D01*
X1198634Y-1687722D02*
X1198634Y-1792484D01*
X1198634Y-1687722D02*
X1208158Y-1668674D01*
X1208158Y-1668674D02*
X1227205Y-1659150D01*
X1227205Y-1659150D02*
X1255777Y-1659150D01*
X1255777Y-1659150D02*
X1274825Y-1668674D01*
X1274825Y-1668674D02*
X1284348Y-1687722D01*
X1284348Y-1687722D02*
X1284348Y-1792484D01*
X1379586Y-1792484D02*
X1379586Y-1659150D01*
X1379586Y-1678198D02*
X1389110Y-1668674D01*
X1389110Y-1668674D02*
X1408158Y-1659150D01*
X1408158Y-1659150D02*
X1436729Y-1659150D01*
X1436729Y-1659150D02*
X1455777Y-1668674D01*
X1455777Y-1668674D02*
X1465301Y-1687722D01*
X1465301Y-1687722D02*
X1465301Y-1792484D01*
X1465301Y-1687722D02*
X1474824Y-1668674D01*
X1474824Y-1668674D02*
X1493872Y-1659150D01*
X1493872Y-1659150D02*
X1522443Y-1659150D01*
X1522443Y-1659150D02*
X1541491Y-1668674D01*
X1541491Y-1668674D02*
X1551015Y-1687722D01*
X1551015Y-1687722D02*
X1551015Y-1792484D01*
X1941491Y-1582960D02*
X1770063Y-1840103D01*
X2198634Y-1592484D02*
X2217682Y-1592484D01*
X2217682Y-1592484D02*
X2236729Y-1602008D01*
X2236729Y-1602008D02*
X2246253Y-1611531D01*
X2246253Y-1611531D02*
X2255777Y-1630579D01*
X2255777Y-1630579D02*
X2265301Y-1668674D01*
X2265301Y-1668674D02*
X2265301Y-1716293D01*
X2265301Y-1716293D02*
X2255777Y-1754388D01*
X2255777Y-1754388D02*
X2246253Y-1773436D01*
X2246253Y-1773436D02*
X2236729Y-1782960D01*
X2236729Y-1782960D02*
X2217682Y-1792484D01*
X2217682Y-1792484D02*
X2198634Y-1792484D01*
X2198634Y-1792484D02*
X2179587Y-1782960D01*
X2179587Y-1782960D02*
X2170063Y-1773436D01*
X2170063Y-1773436D02*
X2160539Y-1754388D01*
X2160539Y-1754388D02*
X2151015Y-1716293D01*
X2151015Y-1716293D02*
X2151015Y-1668674D01*
X2151015Y-1668674D02*
X2160539Y-1630579D01*
X2160539Y-1630579D02*
X2170063Y-1611531D01*
X2170063Y-1611531D02*
X2179587Y-1602008D01*
X2179587Y-1602008D02*
X2198634Y-1592484D01*
X2351015Y-1773436D02*
X2360539Y-1782960D01*
X2360539Y-1782960D02*
X2351015Y-1792484D01*
X2351015Y-1792484D02*
X2341491Y-1782960D01*
X2341491Y-1782960D02*
X2351015Y-1773436D01*
X2351015Y-1773436D02*
X2351015Y-1792484D01*
X2484348Y-1592484D02*
X2503396Y-1592484D01*
X2503396Y-1592484D02*
X2522444Y-1602008D01*
X2522444Y-1602008D02*
X2531968Y-1611531D01*
X2531968Y-1611531D02*
X2541491Y-1630579D01*
X2541491Y-1630579D02*
X2551015Y-1668674D01*
X2551015Y-1668674D02*
X2551015Y-1716293D01*
X2551015Y-1716293D02*
X2541491Y-1754388D01*
X2541491Y-1754388D02*
X2531968Y-1773436D01*
X2531968Y-1773436D02*
X2522444Y-1782960D01*
X2522444Y-1782960D02*
X2503396Y-1792484D01*
X2503396Y-1792484D02*
X2484348Y-1792484D01*
X2484348Y-1792484D02*
X2465301Y-1782960D01*
X2465301Y-1782960D02*
X2455777Y-1773436D01*
X2455777Y-1773436D02*
X2446253Y-1754388D01*
X2446253Y-1754388D02*
X2436729Y-1716293D01*
X2436729Y-1716293D02*
X2436729Y-1668674D01*
X2436729Y-1668674D02*
X2446253Y-1630579D01*
X2446253Y-1630579D02*
X2455777Y-1611531D01*
X2455777Y-1611531D02*
X2465301Y-1602008D01*
X2465301Y-1602008D02*
X2484348Y-1592484D01*
X2617682Y-1592484D02*
X2741491Y-1592484D01*
X2741491Y-1592484D02*
X2674825Y-1668674D01*
X2674825Y-1668674D02*
X2703396Y-1668674D01*
X2703396Y-1668674D02*
X2722444Y-1678198D01*
X2722444Y-1678198D02*
X2731968Y-1687722D01*
X2731968Y-1687722D02*
X2741491Y-1706769D01*
X2741491Y-1706769D02*
X2741491Y-1754388D01*
X2741491Y-1754388D02*
X2731968Y-1773436D01*
X2731968Y-1773436D02*
X2722444Y-1782960D01*
X2722444Y-1782960D02*
X2703396Y-1792484D01*
X2703396Y-1792484D02*
X2646253Y-1792484D01*
X2646253Y-1792484D02*
X2627206Y-1782960D01*
X2627206Y-1782960D02*
X2617682Y-1773436D01*
X2836729Y-1792484D02*
X2874825Y-1792484D01*
X2874825Y-1792484D02*
X2893872Y-1782960D01*
X2893872Y-1782960D02*
X2903396Y-1773436D01*
X2903396Y-1773436D02*
X2922444Y-1744865D01*
X2922444Y-1744865D02*
X2931967Y-1706769D01*
X2931967Y-1706769D02*
X2931967Y-1630579D01*
X2931967Y-1630579D02*
X2922444Y-1611531D01*
X2922444Y-1611531D02*
X2912920Y-1602008D01*
X2912920Y-1602008D02*
X2893872Y-1592484D01*
X2893872Y-1592484D02*
X2855777Y-1592484D01*
X2855777Y-1592484D02*
X2836729Y-1602008D01*
X2836729Y-1602008D02*
X2827206Y-1611531D01*
X2827206Y-1611531D02*
X2817682Y-1630579D01*
X2817682Y-1630579D02*
X2817682Y-1678198D01*
X2817682Y-1678198D02*
X2827206Y-1697246D01*
X2827206Y-1697246D02*
X2836729Y-1706769D01*
X2836729Y-1706769D02*
X2855777Y-1716293D01*
X2855777Y-1716293D02*
X2893872Y-1716293D01*
X2893872Y-1716293D02*
X2912920Y-1706769D01*
X2912920Y-1706769D02*
X2922444Y-1697246D01*
X2922444Y-1697246D02*
X2931967Y-1678198D01*
X3103396Y-1659150D02*
X3103396Y-1792484D01*
X3055777Y-1582960D02*
X3008158Y-1725817D01*
X3008158Y-1725817D02*
X3131967Y-1725817D01*
X3198634Y-1592484D02*
X3198634Y-1630579D01*
X3274825Y-1592484D02*
X3274825Y-1630579D01*
X3570063Y-1868674D02*
X3560539Y-1859150D01*
X3560539Y-1859150D02*
X3541491Y-1830579D01*
X3541491Y-1830579D02*
X3531968Y-1811531D01*
X3531968Y-1811531D02*
X3522444Y-1782960D01*
X3522444Y-1782960D02*
X3512920Y-1735341D01*
X3512920Y-1735341D02*
X3512920Y-1697246D01*
X3512920Y-1697246D02*
X3522444Y-1649627D01*
X3522444Y-1649627D02*
X3531968Y-1621055D01*
X3531968Y-1621055D02*
X3541491Y-1602008D01*
X3541491Y-1602008D02*
X3560539Y-1573436D01*
X3560539Y-1573436D02*
X3570063Y-1563912D01*
X3731968Y-1659150D02*
X3731968Y-1792484D01*
X3684348Y-1582960D02*
X3636729Y-1725817D01*
X3636729Y-1725817D02*
X3760539Y-1725817D01*
X3989110Y-1792484D02*
X3989110Y-1592484D01*
X4074825Y-1792484D02*
X4074825Y-1687722D01*
X4074825Y-1687722D02*
X4065301Y-1668674D01*
X4065301Y-1668674D02*
X4046253Y-1659150D01*
X4046253Y-1659150D02*
X4017682Y-1659150D01*
X4017682Y-1659150D02*
X3998634Y-1668674D01*
X3998634Y-1668674D02*
X3989110Y-1678198D01*
X4198634Y-1792484D02*
X4179587Y-1782960D01*
X4179587Y-1782960D02*
X4170063Y-1773436D01*
X4170063Y-1773436D02*
X4160539Y-1754388D01*
X4160539Y-1754388D02*
X4160539Y-1697246D01*
X4160539Y-1697246D02*
X4170063Y-1678198D01*
X4170063Y-1678198D02*
X4179587Y-1668674D01*
X4179587Y-1668674D02*
X4198634Y-1659150D01*
X4198634Y-1659150D02*
X4227206Y-1659150D01*
X4227206Y-1659150D02*
X4246253Y-1668674D01*
X4246253Y-1668674D02*
X4255777Y-1678198D01*
X4255777Y-1678198D02*
X4265301Y-1697246D01*
X4265301Y-1697246D02*
X4265301Y-1754388D01*
X4265301Y-1754388D02*
X4255777Y-1773436D01*
X4255777Y-1773436D02*
X4246253Y-1782960D01*
X4246253Y-1782960D02*
X4227206Y-1792484D01*
X4227206Y-1792484D02*
X4198634Y-1792484D01*
X4379587Y-1792484D02*
X4360539Y-1782960D01*
X4360539Y-1782960D02*
X4351015Y-1763912D01*
X4351015Y-1763912D02*
X4351015Y-1592484D01*
X4531968Y-1782960D02*
X4512920Y-1792484D01*
X4512920Y-1792484D02*
X4474825Y-1792484D01*
X4474825Y-1792484D02*
X4455777Y-1782960D01*
X4455777Y-1782960D02*
X4446253Y-1763912D01*
X4446253Y-1763912D02*
X4446253Y-1687722D01*
X4446253Y-1687722D02*
X4455777Y-1668674D01*
X4455777Y-1668674D02*
X4474825Y-1659150D01*
X4474825Y-1659150D02*
X4512920Y-1659150D01*
X4512920Y-1659150D02*
X4531968Y-1668674D01*
X4531968Y-1668674D02*
X4541492Y-1687722D01*
X4541492Y-1687722D02*
X4541492Y-1706769D01*
X4541492Y-1706769D02*
X4446253Y-1725817D01*
X4617682Y-1782960D02*
X4636730Y-1792484D01*
X4636730Y-1792484D02*
X4674825Y-1792484D01*
X4674825Y-1792484D02*
X4693873Y-1782960D01*
X4693873Y-1782960D02*
X4703396Y-1763912D01*
X4703396Y-1763912D02*
X4703396Y-1754388D01*
X4703396Y-1754388D02*
X4693873Y-1735341D01*
X4693873Y-1735341D02*
X4674825Y-1725817D01*
X4674825Y-1725817D02*
X4646253Y-1725817D01*
X4646253Y-1725817D02*
X4627206Y-1716293D01*
X4627206Y-1716293D02*
X4617682Y-1697246D01*
X4617682Y-1697246D02*
X4617682Y-1687722D01*
X4617682Y-1687722D02*
X4627206Y-1668674D01*
X4627206Y-1668674D02*
X4646253Y-1659150D01*
X4646253Y-1659150D02*
X4674825Y-1659150D01*
X4674825Y-1659150D02*
X4693873Y-1668674D01*
X4770063Y-1868674D02*
X4779587Y-1859150D01*
X4779587Y-1859150D02*
X4798634Y-1830579D01*
X4798634Y-1830579D02*
X4808158Y-1811531D01*
X4808158Y-1811531D02*
X4817682Y-1782960D01*
X4817682Y-1782960D02*
X4827206Y-1735341D01*
X4827206Y-1735341D02*
X4827206Y-1697246D01*
X4827206Y-1697246D02*
X4817682Y-1649627D01*
X4817682Y-1649627D02*
X4808158Y-1621055D01*
X4808158Y-1621055D02*
X4798634Y-1602008D01*
X4798634Y-1602008D02*
X4779587Y-1573436D01*
X4779587Y-1573436D02*
X4770063Y-1563912D01*
X-205000Y-1865000D02*
X-5000Y-2065000D01*
X-5000Y-1865000D02*
X-205000Y-2065000D01*
X-5000Y-1965000D02*
G75*
G02*
X-205000Y-1965000I-100000J0D01*
G01*
X-205000Y-1965000D02*
G75*
G02*
X-5000Y-1965000I100000J0D01*
G01*
X246253Y-1875531D02*
X255777Y-1866008D01*
X255777Y-1866008D02*
X274824Y-1856484D01*
X274824Y-1856484D02*
X322444Y-1856484D01*
X322444Y-1856484D02*
X341491Y-1866008D01*
X341491Y-1866008D02*
X351015Y-1875531D01*
X351015Y-1875531D02*
X360539Y-1894579D01*
X360539Y-1894579D02*
X360539Y-1913627D01*
X360539Y-1913627D02*
X351015Y-1942198D01*
X351015Y-1942198D02*
X236729Y-2056484D01*
X236729Y-2056484D02*
X360539Y-2056484D01*
X446253Y-2037436D02*
X455777Y-2046960D01*
X455777Y-2046960D02*
X446253Y-2056484D01*
X446253Y-2056484D02*
X436729Y-2046960D01*
X436729Y-2046960D02*
X446253Y-2037436D01*
X446253Y-2037436D02*
X446253Y-2056484D01*
X579586Y-1856484D02*
X598634Y-1856484D01*
X598634Y-1856484D02*
X617682Y-1866008D01*
X617682Y-1866008D02*
X627205Y-1875531D01*
X627205Y-1875531D02*
X636729Y-1894579D01*
X636729Y-1894579D02*
X646253Y-1932674D01*
X646253Y-1932674D02*
X646253Y-1980293D01*
X646253Y-1980293D02*
X636729Y-2018388D01*
X636729Y-2018388D02*
X627205Y-2037436D01*
X627205Y-2037436D02*
X617682Y-2046960D01*
X617682Y-2046960D02*
X598634Y-2056484D01*
X598634Y-2056484D02*
X579586Y-2056484D01*
X579586Y-2056484D02*
X560539Y-2046960D01*
X560539Y-2046960D02*
X551015Y-2037436D01*
X551015Y-2037436D02*
X541491Y-2018388D01*
X541491Y-2018388D02*
X531967Y-1980293D01*
X531967Y-1980293D02*
X531967Y-1932674D01*
X531967Y-1932674D02*
X541491Y-1894579D01*
X541491Y-1894579D02*
X551015Y-1875531D01*
X551015Y-1875531D02*
X560539Y-1866008D01*
X560539Y-1866008D02*
X579586Y-1856484D01*
X770062Y-1856484D02*
X789110Y-1856484D01*
X789110Y-1856484D02*
X808158Y-1866008D01*
X808158Y-1866008D02*
X817682Y-1875531D01*
X817682Y-1875531D02*
X827205Y-1894579D01*
X827205Y-1894579D02*
X836729Y-1932674D01*
X836729Y-1932674D02*
X836729Y-1980293D01*
X836729Y-1980293D02*
X827205Y-2018388D01*
X827205Y-2018388D02*
X817682Y-2037436D01*
X817682Y-2037436D02*
X808158Y-2046960D01*
X808158Y-2046960D02*
X789110Y-2056484D01*
X789110Y-2056484D02*
X770062Y-2056484D01*
X770062Y-2056484D02*
X751015Y-2046960D01*
X751015Y-2046960D02*
X741491Y-2037436D01*
X741491Y-2037436D02*
X731967Y-2018388D01*
X731967Y-2018388D02*
X722443Y-1980293D01*
X722443Y-1980293D02*
X722443Y-1932674D01*
X722443Y-1932674D02*
X731967Y-1894579D01*
X731967Y-1894579D02*
X741491Y-1875531D01*
X741491Y-1875531D02*
X751015Y-1866008D01*
X751015Y-1866008D02*
X770062Y-1856484D01*
X960539Y-1856484D02*
X979586Y-1856484D01*
X979586Y-1856484D02*
X998634Y-1866008D01*
X998634Y-1866008D02*
X1008158Y-1875531D01*
X1008158Y-1875531D02*
X1017682Y-1894579D01*
X1017682Y-1894579D02*
X1027205Y-1932674D01*
X1027205Y-1932674D02*
X1027205Y-1980293D01*
X1027205Y-1980293D02*
X1017682Y-2018388D01*
X1017682Y-2018388D02*
X1008158Y-2037436D01*
X1008158Y-2037436D02*
X998634Y-2046960D01*
X998634Y-2046960D02*
X979586Y-2056484D01*
X979586Y-2056484D02*
X960539Y-2056484D01*
X960539Y-2056484D02*
X941491Y-2046960D01*
X941491Y-2046960D02*
X931967Y-2037436D01*
X931967Y-2037436D02*
X922443Y-2018388D01*
X922443Y-2018388D02*
X912920Y-1980293D01*
X912920Y-1980293D02*
X912920Y-1932674D01*
X912920Y-1932674D02*
X922443Y-1894579D01*
X922443Y-1894579D02*
X931967Y-1875531D01*
X931967Y-1875531D02*
X941491Y-1866008D01*
X941491Y-1866008D02*
X960539Y-1856484D01*
X1112920Y-2056484D02*
X1112920Y-1923150D01*
X1112920Y-1942198D02*
X1122444Y-1932674D01*
X1122444Y-1932674D02*
X1141491Y-1923150D01*
X1141491Y-1923150D02*
X1170063Y-1923150D01*
X1170063Y-1923150D02*
X1189110Y-1932674D01*
X1189110Y-1932674D02*
X1198634Y-1951722D01*
X1198634Y-1951722D02*
X1198634Y-2056484D01*
X1198634Y-1951722D02*
X1208158Y-1932674D01*
X1208158Y-1932674D02*
X1227205Y-1923150D01*
X1227205Y-1923150D02*
X1255777Y-1923150D01*
X1255777Y-1923150D02*
X1274825Y-1932674D01*
X1274825Y-1932674D02*
X1284348Y-1951722D01*
X1284348Y-1951722D02*
X1284348Y-2056484D01*
X1379586Y-2056484D02*
X1379586Y-1923150D01*
X1379586Y-1942198D02*
X1389110Y-1932674D01*
X1389110Y-1932674D02*
X1408158Y-1923150D01*
X1408158Y-1923150D02*
X1436729Y-1923150D01*
X1436729Y-1923150D02*
X1455777Y-1932674D01*
X1455777Y-1932674D02*
X1465301Y-1951722D01*
X1465301Y-1951722D02*
X1465301Y-2056484D01*
X1465301Y-1951722D02*
X1474824Y-1932674D01*
X1474824Y-1932674D02*
X1493872Y-1923150D01*
X1493872Y-1923150D02*
X1522443Y-1923150D01*
X1522443Y-1923150D02*
X1541491Y-1932674D01*
X1541491Y-1932674D02*
X1551015Y-1951722D01*
X1551015Y-1951722D02*
X1551015Y-2056484D01*
X1941491Y-1846960D02*
X1770063Y-2104103D01*
X2198634Y-1856484D02*
X2217682Y-1856484D01*
X2217682Y-1856484D02*
X2236729Y-1866008D01*
X2236729Y-1866008D02*
X2246253Y-1875531D01*
X2246253Y-1875531D02*
X2255777Y-1894579D01*
X2255777Y-1894579D02*
X2265301Y-1932674D01*
X2265301Y-1932674D02*
X2265301Y-1980293D01*
X2265301Y-1980293D02*
X2255777Y-2018388D01*
X2255777Y-2018388D02*
X2246253Y-2037436D01*
X2246253Y-2037436D02*
X2236729Y-2046960D01*
X2236729Y-2046960D02*
X2217682Y-2056484D01*
X2217682Y-2056484D02*
X2198634Y-2056484D01*
X2198634Y-2056484D02*
X2179587Y-2046960D01*
X2179587Y-2046960D02*
X2170063Y-2037436D01*
X2170063Y-2037436D02*
X2160539Y-2018388D01*
X2160539Y-2018388D02*
X2151015Y-1980293D01*
X2151015Y-1980293D02*
X2151015Y-1932674D01*
X2151015Y-1932674D02*
X2160539Y-1894579D01*
X2160539Y-1894579D02*
X2170063Y-1875531D01*
X2170063Y-1875531D02*
X2179587Y-1866008D01*
X2179587Y-1866008D02*
X2198634Y-1856484D01*
X2351015Y-2037436D02*
X2360539Y-2046960D01*
X2360539Y-2046960D02*
X2351015Y-2056484D01*
X2351015Y-2056484D02*
X2341491Y-2046960D01*
X2341491Y-2046960D02*
X2351015Y-2037436D01*
X2351015Y-2037436D02*
X2351015Y-2056484D01*
X2484348Y-1856484D02*
X2503396Y-1856484D01*
X2503396Y-1856484D02*
X2522444Y-1866008D01*
X2522444Y-1866008D02*
X2531968Y-1875531D01*
X2531968Y-1875531D02*
X2541491Y-1894579D01*
X2541491Y-1894579D02*
X2551015Y-1932674D01*
X2551015Y-1932674D02*
X2551015Y-1980293D01*
X2551015Y-1980293D02*
X2541491Y-2018388D01*
X2541491Y-2018388D02*
X2531968Y-2037436D01*
X2531968Y-2037436D02*
X2522444Y-2046960D01*
X2522444Y-2046960D02*
X2503396Y-2056484D01*
X2503396Y-2056484D02*
X2484348Y-2056484D01*
X2484348Y-2056484D02*
X2465301Y-2046960D01*
X2465301Y-2046960D02*
X2455777Y-2037436D01*
X2455777Y-2037436D02*
X2446253Y-2018388D01*
X2446253Y-2018388D02*
X2436729Y-1980293D01*
X2436729Y-1980293D02*
X2436729Y-1932674D01*
X2436729Y-1932674D02*
X2446253Y-1894579D01*
X2446253Y-1894579D02*
X2455777Y-1875531D01*
X2455777Y-1875531D02*
X2465301Y-1866008D01*
X2465301Y-1866008D02*
X2484348Y-1856484D01*
X2617682Y-1856484D02*
X2751015Y-1856484D01*
X2751015Y-1856484D02*
X2665301Y-2056484D01*
X2855777Y-1942198D02*
X2836729Y-1932674D01*
X2836729Y-1932674D02*
X2827206Y-1923150D01*
X2827206Y-1923150D02*
X2817682Y-1904103D01*
X2817682Y-1904103D02*
X2817682Y-1894579D01*
X2817682Y-1894579D02*
X2827206Y-1875531D01*
X2827206Y-1875531D02*
X2836729Y-1866008D01*
X2836729Y-1866008D02*
X2855777Y-1856484D01*
X2855777Y-1856484D02*
X2893872Y-1856484D01*
X2893872Y-1856484D02*
X2912920Y-1866008D01*
X2912920Y-1866008D02*
X2922444Y-1875531D01*
X2922444Y-1875531D02*
X2931967Y-1894579D01*
X2931967Y-1894579D02*
X2931967Y-1904103D01*
X2931967Y-1904103D02*
X2922444Y-1923150D01*
X2922444Y-1923150D02*
X2912920Y-1932674D01*
X2912920Y-1932674D02*
X2893872Y-1942198D01*
X2893872Y-1942198D02*
X2855777Y-1942198D01*
X2855777Y-1942198D02*
X2836729Y-1951722D01*
X2836729Y-1951722D02*
X2827206Y-1961246D01*
X2827206Y-1961246D02*
X2817682Y-1980293D01*
X2817682Y-1980293D02*
X2817682Y-2018388D01*
X2817682Y-2018388D02*
X2827206Y-2037436D01*
X2827206Y-2037436D02*
X2836729Y-2046960D01*
X2836729Y-2046960D02*
X2855777Y-2056484D01*
X2855777Y-2056484D02*
X2893872Y-2056484D01*
X2893872Y-2056484D02*
X2912920Y-2046960D01*
X2912920Y-2046960D02*
X2922444Y-2037436D01*
X2922444Y-2037436D02*
X2931967Y-2018388D01*
X2931967Y-2018388D02*
X2931967Y-1980293D01*
X2931967Y-1980293D02*
X2922444Y-1961246D01*
X2922444Y-1961246D02*
X2912920Y-1951722D01*
X2912920Y-1951722D02*
X2893872Y-1942198D01*
X2998634Y-1856484D02*
X3131967Y-1856484D01*
X3131967Y-1856484D02*
X3046253Y-2056484D01*
X3198634Y-1856484D02*
X3198634Y-1894579D01*
X3274825Y-1856484D02*
X3274825Y-1894579D01*
X3570063Y-2132674D02*
X3560539Y-2123150D01*
X3560539Y-2123150D02*
X3541491Y-2094579D01*
X3541491Y-2094579D02*
X3531968Y-2075531D01*
X3531968Y-2075531D02*
X3522444Y-2046960D01*
X3522444Y-2046960D02*
X3512920Y-1999341D01*
X3512920Y-1999341D02*
X3512920Y-1961246D01*
X3512920Y-1961246D02*
X3522444Y-1913627D01*
X3522444Y-1913627D02*
X3531968Y-1885055D01*
X3531968Y-1885055D02*
X3541491Y-1866008D01*
X3541491Y-1866008D02*
X3560539Y-1837436D01*
X3560539Y-1837436D02*
X3570063Y-1827912D01*
X3636729Y-1875531D02*
X3646253Y-1866008D01*
X3646253Y-1866008D02*
X3665301Y-1856484D01*
X3665301Y-1856484D02*
X3712920Y-1856484D01*
X3712920Y-1856484D02*
X3731968Y-1866008D01*
X3731968Y-1866008D02*
X3741491Y-1875531D01*
X3741491Y-1875531D02*
X3751015Y-1894579D01*
X3751015Y-1894579D02*
X3751015Y-1913627D01*
X3751015Y-1913627D02*
X3741491Y-1942198D01*
X3741491Y-1942198D02*
X3627206Y-2056484D01*
X3627206Y-2056484D02*
X3751015Y-2056484D01*
X3874825Y-1856484D02*
X3893872Y-1856484D01*
X3893872Y-1856484D02*
X3912920Y-1866008D01*
X3912920Y-1866008D02*
X3922444Y-1875531D01*
X3922444Y-1875531D02*
X3931968Y-1894579D01*
X3931968Y-1894579D02*
X3941491Y-1932674D01*
X3941491Y-1932674D02*
X3941491Y-1980293D01*
X3941491Y-1980293D02*
X3931968Y-2018388D01*
X3931968Y-2018388D02*
X3922444Y-2037436D01*
X3922444Y-2037436D02*
X3912920Y-2046960D01*
X3912920Y-2046960D02*
X3893872Y-2056484D01*
X3893872Y-2056484D02*
X3874825Y-2056484D01*
X3874825Y-2056484D02*
X3855777Y-2046960D01*
X3855777Y-2046960D02*
X3846253Y-2037436D01*
X3846253Y-2037436D02*
X3836729Y-2018388D01*
X3836729Y-2018388D02*
X3827206Y-1980293D01*
X3827206Y-1980293D02*
X3827206Y-1932674D01*
X3827206Y-1932674D02*
X3836729Y-1894579D01*
X3836729Y-1894579D02*
X3846253Y-1875531D01*
X3846253Y-1875531D02*
X3855777Y-1866008D01*
X3855777Y-1866008D02*
X3874825Y-1856484D01*
X4179587Y-2056484D02*
X4179587Y-1856484D01*
X4265301Y-2056484D02*
X4265301Y-1951722D01*
X4265301Y-1951722D02*
X4255777Y-1932674D01*
X4255777Y-1932674D02*
X4236730Y-1923150D01*
X4236730Y-1923150D02*
X4208158Y-1923150D01*
X4208158Y-1923150D02*
X4189110Y-1932674D01*
X4189110Y-1932674D02*
X4179587Y-1942198D01*
X4389111Y-2056484D02*
X4370063Y-2046960D01*
X4370063Y-2046960D02*
X4360539Y-2037436D01*
X4360539Y-2037436D02*
X4351015Y-2018388D01*
X4351015Y-2018388D02*
X4351015Y-1961246D01*
X4351015Y-1961246D02*
X4360539Y-1942198D01*
X4360539Y-1942198D02*
X4370063Y-1932674D01*
X4370063Y-1932674D02*
X4389111Y-1923150D01*
X4389111Y-1923150D02*
X4417682Y-1923150D01*
X4417682Y-1923150D02*
X4436730Y-1932674D01*
X4436730Y-1932674D02*
X4446253Y-1942198D01*
X4446253Y-1942198D02*
X4455777Y-1961246D01*
X4455777Y-1961246D02*
X4455777Y-2018388D01*
X4455777Y-2018388D02*
X4446253Y-2037436D01*
X4446253Y-2037436D02*
X4436730Y-2046960D01*
X4436730Y-2046960D02*
X4417682Y-2056484D01*
X4417682Y-2056484D02*
X4389111Y-2056484D01*
X4570063Y-2056484D02*
X4551015Y-2046960D01*
X4551015Y-2046960D02*
X4541492Y-2027912D01*
X4541492Y-2027912D02*
X4541492Y-1856484D01*
X4722444Y-2046960D02*
X4703396Y-2056484D01*
X4703396Y-2056484D02*
X4665301Y-2056484D01*
X4665301Y-2056484D02*
X4646253Y-2046960D01*
X4646253Y-2046960D02*
X4636730Y-2027912D01*
X4636730Y-2027912D02*
X4636730Y-1951722D01*
X4636730Y-1951722D02*
X4646253Y-1932674D01*
X4646253Y-1932674D02*
X4665301Y-1923150D01*
X4665301Y-1923150D02*
X4703396Y-1923150D01*
X4703396Y-1923150D02*
X4722444Y-1932674D01*
X4722444Y-1932674D02*
X4731968Y-1951722D01*
X4731968Y-1951722D02*
X4731968Y-1970769D01*
X4731968Y-1970769D02*
X4636730Y-1989817D01*
X4808158Y-2046960D02*
X4827206Y-2056484D01*
X4827206Y-2056484D02*
X4865301Y-2056484D01*
X4865301Y-2056484D02*
X4884349Y-2046960D01*
X4884349Y-2046960D02*
X4893873Y-2027912D01*
X4893873Y-2027912D02*
X4893873Y-2018388D01*
X4893873Y-2018388D02*
X4884349Y-1999341D01*
X4884349Y-1999341D02*
X4865301Y-1989817D01*
X4865301Y-1989817D02*
X4836730Y-1989817D01*
X4836730Y-1989817D02*
X4817682Y-1980293D01*
X4817682Y-1980293D02*
X4808158Y-1961246D01*
X4808158Y-1961246D02*
X4808158Y-1951722D01*
X4808158Y-1951722D02*
X4817682Y-1932674D01*
X4817682Y-1932674D02*
X4836730Y-1923150D01*
X4836730Y-1923150D02*
X4865301Y-1923150D01*
X4865301Y-1923150D02*
X4884349Y-1932674D01*
X4960539Y-2132674D02*
X4970063Y-2123150D01*
X4970063Y-2123150D02*
X4989111Y-2094579D01*
X4989111Y-2094579D02*
X4998634Y-2075531D01*
X4998634Y-2075531D02*
X5008158Y-2046960D01*
X5008158Y-2046960D02*
X5017682Y-1999341D01*
X5017682Y-1999341D02*
X5017682Y-1961246D01*
X5017682Y-1961246D02*
X5008158Y-1913627D01*
X5008158Y-1913627D02*
X4998634Y-1885055D01*
X4998634Y-1885055D02*
X4989111Y-1866008D01*
X4989111Y-1866008D02*
X4970063Y-1837436D01*
X4970063Y-1837436D02*
X4960539Y-1827912D01*
M02*
