%TF.GenerationSoftware,KiCad,Pcbnew,10.0.5*%
%TF.CreationDate,2026-09-28T21:52:01+03:00*%
%TF.ProjectId,ESC3Phase,45534333-5068-4617-9365-2e6b69636164,B*%
%TF.SameCoordinates,Original*%
%TF.FileFunction,Copper,L4,Bot*%
%TF.FilePolarity,Positive*%
%FSLAX46Y46*%
G04 Gerber Fmt 4.6, Leading zero omitted, Abs format (unit mm)*
G04 Created by KiCad (PCBNEW 10.0.5) date 2026-09-28 21:52:01*
%MOMM*%
%LPD*%
G01*
G04 APERTURE LIST*
%TA.AperFunction,ComponentPad*%
%ADD10C,2.000000*%
%TD*%
%TA.AperFunction,ComponentPad*%
%ADD11C,1.000000*%
%TD*%
%TA.AperFunction,SMDPad,CuDef*%
%ADD12R,6.000000X5.200000*%
%TD*%
%TA.AperFunction,ComponentPad*%
%ADD13C,0.600000*%
%TD*%
%TA.AperFunction,SMDPad,CuDef*%
%ADD14R,3.400000X2.350000*%
%TD*%
%TA.AperFunction,ComponentPad*%
%ADD15C,2.800000*%
%TD*%
%TA.AperFunction,SMDPad,CuDef*%
%ADD16R,3.700000X3.700000*%
%TD*%
%TA.AperFunction,ComponentPad*%
%ADD17C,0.800000*%
%TD*%
%TA.AperFunction,SMDPad,CuDef*%
%ADD18R,5.000000X5.000000*%
%TD*%
%TA.AperFunction,ViaPad*%
%ADD19C,0.600000*%
%TD*%
%TA.AperFunction,ViaPad*%
%ADD20C,0.800000*%
%TD*%
%TA.AperFunction,Conductor*%
%ADD21C,0.500000*%
%TD*%
%TA.AperFunction,Conductor*%
%ADD22C,0.300000*%
%TD*%
%TA.AperFunction,Conductor*%
%ADD23C,0.200000*%
%TD*%
%TA.AperFunction,Conductor*%
%ADD24C,0.250000*%
%TD*%
G04 APERTURE END LIST*
D10*
%TO.P,C57,1*%
%TO.N,+VBUS_PROT*%
X41000000Y32500000D03*
%TO.P,C57,2*%
%TO.N,GND*%
X45000000Y32500000D03*
%TD*%
D11*
%TO.P,Q1,3*%
%TO.N,+VBUS*%
X24005000Y22750000D03*
X24005000Y21250000D03*
X24005000Y19750000D03*
X25505000Y22750000D03*
X25505000Y21250000D03*
D12*
X25505000Y21150000D03*
D11*
X25505000Y19750000D03*
X27005000Y22750000D03*
X27005000Y21250000D03*
X27005000Y19750000D03*
%TD*%
D13*
%TO.P,U3,24*%
%TO.N,+VBUS*%
X27775000Y31750000D03*
X27775000Y32500000D03*
X27775000Y33250000D03*
X26775000Y31750000D03*
X26775000Y32500000D03*
D14*
X26775000Y32500000D03*
D13*
X26775000Y33250000D03*
X25775000Y31750000D03*
X25775000Y32500000D03*
X25775000Y33250000D03*
%TD*%
D11*
%TO.P,Q4,3*%
%TO.N,+VBUS_PROT*%
X71755000Y44550000D03*
X71755000Y43050000D03*
X71755000Y41550000D03*
X73255000Y44550000D03*
X73255000Y43050000D03*
D12*
X73255000Y42950000D03*
D11*
X73255000Y41550000D03*
X74755000Y44550000D03*
X74755000Y43050000D03*
X74755000Y41550000D03*
%TD*%
%TO.P,Q3,3*%
%TO.N,PHASE_A*%
X55505000Y34150000D03*
X55505000Y32650000D03*
X55505000Y31150000D03*
X57005000Y34150000D03*
X57005000Y32650000D03*
D12*
X57005000Y32550000D03*
D11*
X57005000Y31150000D03*
X58505000Y34150000D03*
X58505000Y32650000D03*
X58505000Y31150000D03*
%TD*%
%TO.P,Q7,3*%
%TO.N,PHASE_C*%
X88005000Y34150000D03*
X88005000Y32650000D03*
X88005000Y31150000D03*
X89505000Y34150000D03*
X89505000Y32650000D03*
D12*
X89505000Y32550000D03*
D11*
X89505000Y31150000D03*
X91005000Y34150000D03*
X91005000Y32650000D03*
X91005000Y31150000D03*
%TD*%
D15*
%TO.P,J5,1*%
%TO.N,PHASE_A*%
X49600000Y10550000D03*
X49600000Y2650000D03*
X54600000Y10550000D03*
X54600000Y2650000D03*
%TD*%
%TO.P,J6,1*%
%TO.N,PHASE_B*%
X65850000Y10550000D03*
X65850000Y2650000D03*
X70850000Y10550000D03*
X70850000Y2650000D03*
%TD*%
D11*
%TO.P,Q5,3*%
%TO.N,PHASE_B*%
X71755000Y34150000D03*
X71755000Y32650000D03*
X71755000Y31150000D03*
X73255000Y34150000D03*
X73255000Y32650000D03*
D12*
X73255000Y32550000D03*
D11*
X73255000Y31150000D03*
X74755000Y34150000D03*
X74755000Y32650000D03*
X74755000Y31150000D03*
%TD*%
D15*
%TO.P,J4,1*%
%TO.N,GND*%
X9600000Y10550000D03*
X9600000Y2650000D03*
X14600000Y10550000D03*
X14600000Y2650000D03*
%TD*%
%TO.P,J7,1*%
%TO.N,PHASE_C*%
X82100000Y10550000D03*
X82100000Y2650000D03*
X87100000Y10550000D03*
X87100000Y2650000D03*
%TD*%
%TO.P,J3,1*%
%TO.N,VIN_RAW*%
X20100000Y10550000D03*
X20100000Y2650000D03*
X25100000Y10550000D03*
X25100000Y2650000D03*
%TD*%
D11*
%TO.P,Q6,3*%
%TO.N,+VBUS_PROT*%
X88005000Y44550000D03*
X88005000Y43050000D03*
X88005000Y41550000D03*
X89505000Y44550000D03*
X89505000Y43050000D03*
D12*
X89505000Y42950000D03*
D11*
X89505000Y41550000D03*
X91005000Y44550000D03*
X91005000Y43050000D03*
X91005000Y41550000D03*
%TD*%
D10*
%TO.P,C56,1*%
%TO.N,+VBUS_PROT*%
X41000000Y41500000D03*
%TO.P,C56,2*%
%TO.N,GND*%
X45000000Y41500000D03*
%TD*%
D13*
%TO.P,U1,39*%
%TO.N,GND*%
X35300000Y82025000D03*
X35300000Y80625000D03*
D16*
X36000000Y81325000D03*
D13*
X36700000Y82025000D03*
X36700000Y80625000D03*
%TD*%
%TO.P,U4,Shield*%
%TO.N,GND*%
X15650000Y60675000D03*
X15650000Y61675000D03*
X15650000Y62675000D03*
X14250000Y60675000D03*
X14250000Y61675000D03*
X14250000Y62675000D03*
%TD*%
D17*
%TO.P,U6,Shield*%
%TO.N,GND*%
X71772500Y64477500D03*
X71772500Y62977500D03*
X71772500Y61477500D03*
X73272500Y64477500D03*
X73272500Y62977500D03*
D18*
X73272500Y62977500D03*
D17*
X73272500Y61477500D03*
X74772500Y64477500D03*
X74772500Y62977500D03*
X74772500Y61477500D03*
%TD*%
D11*
%TO.P,Q2,3*%
%TO.N,+VBUS_PROT*%
X55505000Y44550000D03*
X55505000Y43050000D03*
X55505000Y41550000D03*
X57005000Y44550000D03*
X57005000Y43050000D03*
D12*
X57005000Y42950000D03*
D11*
X57005000Y41550000D03*
X58505000Y44550000D03*
X58505000Y43050000D03*
X58505000Y41550000D03*
%TD*%
D19*
%TO.N,GND*%
X15899999Y19000000D03*
X50199999Y88450000D03*
X87500000Y87500000D03*
X97500000Y27500000D03*
X21465000Y48600001D03*
X21600000Y85255001D03*
X36500000Y67100001D03*
X17500000Y77500000D03*
X87325000Y76250000D03*
X98500000Y31000000D03*
X57500000Y2500000D03*
X22700000Y39130000D03*
X53500000Y72800000D03*
X2500000Y22500000D03*
X12500000Y47500000D03*
X39000000Y67100001D03*
X83154165Y64950000D03*
X9599999Y62875000D03*
X42500000Y17500000D03*
X6000000Y38000000D03*
D20*
X55600000Y51650000D03*
D19*
X1500000Y73500000D03*
X67500000Y87500000D03*
X30550000Y34300000D03*
X7500000Y77500000D03*
X47500000Y7500000D03*
X12500000Y87500000D03*
X1500000Y63500000D03*
X61500000Y88500000D03*
X18925000Y48600001D03*
D20*
X71850000Y51650000D03*
D19*
X59000000Y88500000D03*
X98500000Y51000000D03*
X7500000Y22500000D03*
X12500000Y22500000D03*
X89349999Y82245000D03*
X1500000Y11000000D03*
X73450000Y88245000D03*
X42500000Y12500000D03*
X86999999Y81095000D03*
X77525000Y76250000D03*
X82500000Y87500000D03*
X87500000Y82500000D03*
X97500000Y22500000D03*
X97500000Y32500000D03*
X33100000Y26700000D03*
X43500000Y25500000D03*
X17500000Y57500000D03*
X1500000Y21000000D03*
X7500000Y17500000D03*
X20649999Y78885000D03*
D20*
X37400000Y23200000D03*
D19*
X77500000Y7500000D03*
X20649999Y83665001D03*
X2500000Y17500000D03*
X32500000Y2500000D03*
X53830818Y68524288D03*
X47550000Y89045000D03*
X44000000Y1500000D03*
X98500000Y56000000D03*
X74000000Y1500000D03*
X59000000Y1500000D03*
X20250000Y58835000D03*
X31785000Y69985000D03*
X34625000Y17550000D03*
X2500000Y27500000D03*
X92500000Y62500000D03*
X98500000Y11000000D03*
X65500000Y72800000D03*
X22950000Y74975000D03*
X1500000Y36000000D03*
X1500000Y76000000D03*
X2500000Y52500000D03*
X2500000Y12500000D03*
X16500000Y88500000D03*
X97500000Y17500000D03*
X1500000Y51000000D03*
X36500000Y1500000D03*
X2500000Y57500000D03*
X64200000Y65500000D03*
X2500000Y37500000D03*
X77049999Y88245000D03*
X27450000Y89045000D03*
X1500000Y66000000D03*
X26425000Y29050000D03*
X23850000Y87775000D03*
X12500000Y17500000D03*
X2500000Y32500000D03*
X39000000Y88500000D03*
X2500000Y77500000D03*
X42500000Y67500000D03*
X12500000Y27500000D03*
X64000000Y88500000D03*
X37605000Y33100000D03*
X17500000Y12500000D03*
X7500000Y32500000D03*
X55900000Y72800000D03*
X1500000Y16000000D03*
X24800000Y84285000D03*
X81672499Y65727500D03*
X32500000Y12500000D03*
X78025000Y11850001D03*
X72500000Y77500000D03*
X18000000Y29800000D03*
X91899999Y67500000D03*
X54950000Y82245000D03*
X62500000Y2500000D03*
X17500000Y22500000D03*
X98500000Y21000000D03*
X37605000Y30400000D03*
X18849999Y65075000D03*
X58700000Y50100001D03*
X75600000Y15600001D03*
X23850000Y80155000D03*
D20*
X13699999Y15400000D03*
D19*
X17500000Y47500000D03*
X77500000Y2500000D03*
X17500000Y7500000D03*
X1500000Y61000000D03*
X82402499Y60497500D03*
X46500000Y1500000D03*
X1500000Y46000000D03*
X9000000Y88500000D03*
X98500000Y16000000D03*
X21465000Y40400000D03*
X69000000Y88500000D03*
X98500000Y46000000D03*
X7500000Y42500000D03*
X37500000Y17500000D03*
D20*
X61800000Y68250000D03*
D19*
X17500000Y2500000D03*
X34000000Y1500000D03*
X98500000Y76000000D03*
X79000000Y1500000D03*
X89349999Y88245000D03*
X84000000Y88500000D03*
X98500000Y36000000D03*
X82500000Y82500000D03*
D20*
X31650000Y37670001D03*
D19*
X97500000Y72500000D03*
D20*
X20600000Y54600000D03*
D19*
X67900000Y72800000D03*
X34000000Y88500000D03*
D20*
X73350000Y15250000D03*
D19*
X92500000Y77500000D03*
X62500000Y7500000D03*
X6100000Y45000000D03*
X98500000Y71000000D03*
X68000000Y75995001D03*
X77049999Y82245000D03*
X58300000Y72800000D03*
X60700000Y72800000D03*
X42500000Y22500000D03*
X2500000Y47500000D03*
X81637499Y74400000D03*
X91200000Y50100001D03*
X47500000Y17500000D03*
D20*
X16800000Y54600000D03*
D19*
X55300000Y88450000D03*
X2500000Y42500000D03*
X27500000Y7500000D03*
X98500000Y48500000D03*
X42500000Y7500000D03*
X47500000Y22500000D03*
X32500000Y67500000D03*
X1500000Y26000000D03*
X74950000Y50100001D03*
X18330818Y83524288D03*
X98500000Y26000000D03*
X97500000Y67500000D03*
X97500000Y12500000D03*
D20*
X88100000Y51650000D03*
D19*
X92500000Y22500000D03*
D20*
X57100000Y15250000D03*
D19*
X63100000Y72800000D03*
X34005000Y31900000D03*
X32500000Y7500000D03*
X79000000Y88500000D03*
X23600000Y53300000D03*
X98500000Y41000000D03*
X12500000Y7500000D03*
X14000000Y88500000D03*
X27500000Y2500000D03*
X18000000Y27400000D03*
X97500000Y37500000D03*
X7500000Y72500000D03*
X37500000Y87500000D03*
X37500000Y7500000D03*
X33055000Y28550001D03*
X29000000Y1500000D03*
D20*
X89600000Y15250000D03*
D19*
X98500000Y66000000D03*
X98500000Y81000000D03*
X27500000Y12500000D03*
X24800000Y81745001D03*
X87500000Y62500000D03*
X1500000Y81000000D03*
X23850000Y89075000D03*
X17500000Y67500000D03*
X32500000Y87500000D03*
X1500000Y56000000D03*
X50400000Y85350000D03*
X92500000Y12500000D03*
X17500000Y72500000D03*
X42500000Y87500000D03*
X12669181Y83524288D03*
X1500000Y31000000D03*
D20*
X23449999Y57535000D03*
D19*
X1500000Y41000000D03*
X37500000Y12500000D03*
X84466666Y81095000D03*
X73450000Y82245000D03*
X98500000Y63500000D03*
X48169181Y68524288D03*
X97500000Y77500000D03*
X57500000Y7500000D03*
X82887499Y66800000D03*
X7500000Y27500000D03*
D20*
%TO.N,+3V3_A*%
X30760800Y62374800D03*
X80477000Y59345000D03*
X21302400Y42972800D03*
X78561000Y16183000D03*
D19*
%TO.N,TEMP_SENSE*%
X72104000Y13574000D03*
X30200800Y83584800D03*
%TO.N,ISENSE_B*%
X44973700Y78885000D03*
X78600000Y58750000D03*
%TO.N,+3V3_MCU*%
X42400000Y76250000D03*
D20*
X21520000Y87971000D03*
D19*
X57000000Y76250000D03*
X32350000Y66200000D03*
D20*
X25454300Y88890300D03*
D19*
X47650000Y81250000D03*
X50750000Y82500000D03*
%TO.N,/Power Supply 3.3 V/BUCK_PG*%
X7413400Y57248000D03*
X13101700Y62936300D03*
%TO.N,SPI_NSCS*%
X48603600Y76283800D03*
X79199999Y64250000D03*
X76422000Y70799900D03*
%TO.N,SPI_SDO*%
X78000000Y62000000D03*
X58659000Y80155000D03*
X73627000Y70550000D03*
%TO.N,PWM_BH*%
X74700000Y69400000D03*
X47651700Y73513300D03*
X69095000Y68400500D03*
%TO.N,/Power Input & Protection/EFUSE_ILIM*%
X30600000Y31550000D03*
X34500000Y29400000D03*
%TO.N,/Power Input & Protection/EFUSE_SDA*%
X18239500Y34101000D03*
X22796400Y34358000D03*
%TO.N,/Power Input & Protection/EFUSE_SCL*%
X19581400Y33400000D03*
X22593600Y33499000D03*
%TO.N,EFUSE_NFLT*%
X19250000Y30721000D03*
X21563000Y32425000D03*
X23260100Y81043300D03*
%TO.N,/Power Input & Protection/EFUSE_PGOOD*%
X25425000Y29277000D03*
X21364900Y23739000D03*
%TO.N,/MCU Core/BOOT*%
X46600800Y68260800D03*
X47601200Y71697500D03*
%TO.N,SPI_SCLK*%
X78300000Y63500000D03*
X58033000Y78885000D03*
%TO.N,PHASE_B*%
X79750000Y39500000D03*
X71300000Y56800000D03*
%TO.N,GHB*%
X72100000Y56800000D03*
X80449999Y38450000D03*
%TO.N,GLA*%
X63200000Y54650000D03*
X63200000Y44700000D03*
%TO.N,PHASE_A*%
X61900000Y54650000D03*
X61900000Y44700000D03*
%TO.N,ISENSE_C*%
X31059800Y82695000D03*
X77000000Y57800000D03*
%TO.N,PWM_BL*%
X29000000Y72800000D03*
X68733000Y69835300D03*
X73600000Y69400000D03*
%TO.N,ISENSE_B_P*%
X69700000Y56800000D03*
X77950000Y24200000D03*
%TO.N,GLC*%
X95700000Y44700000D03*
X95700000Y54650000D03*
%TO.N,PHASE_C*%
X94400000Y54650000D03*
X94400000Y44700000D03*
%TO.N,NFAULT*%
X70300000Y69000000D03*
X79199999Y61250000D03*
X57051000Y70100400D03*
%TO.N,ISENSE_B_N*%
X68900000Y56800000D03*
X77200000Y16700000D03*
%TO.N,GLB*%
X78699999Y28050000D03*
X70500000Y56800000D03*
%TO.N,Net-(D20-Pad1)*%
X4320700Y42090700D03*
X6000000Y49566100D03*
%TO.N,PWM_CL*%
X48412200Y74005400D03*
X71400000Y69400000D03*
X66659000Y70550000D03*
%TO.N,ISENSE_C_P*%
X96500000Y44700000D03*
X96500000Y54650000D03*
%TO.N,/MCU Core/UART_TXD*%
X48490300Y84965200D03*
X50844000Y83914800D03*
%TO.N,IBUS_SENSE*%
X27040600Y85143200D03*
X19485000Y42603100D03*
%TO.N,DRV_ENABLE*%
X64800000Y66350000D03*
X69769000Y67666100D03*
X44500000Y73800000D03*
X78000000Y65000000D03*
%TO.N,GHC*%
X93500000Y44700000D03*
X93500000Y54650000D03*
%TO.N,/MCU Core/EXP1*%
X64135000Y79916800D03*
X33667500Y77934500D03*
%TO.N,/MCU Core/EXP2*%
X33791700Y77007100D03*
X58205000Y76239800D03*
%TO.N,CAN_TX*%
X47506600Y82695000D03*
X55582000Y69047500D03*
X78597000Y67048300D03*
%TO.N,CAN_RX*%
X49538600Y86505000D03*
X84978000Y68824600D03*
%TO.N,ISENSE_A*%
X44981900Y83576700D03*
X79199999Y59750000D03*
%TO.N,ISENSE_A_N*%
X64800000Y44700000D03*
X64800000Y54650000D03*
%TO.N,PWM_AH*%
X76900000Y69400000D03*
X54361000Y73589800D03*
%TO.N,ISENSE_A_P*%
X64000000Y54650000D03*
X64000000Y44700000D03*
%TO.N,ISENSE_C_N*%
X97300000Y54650000D03*
X97300000Y44700000D03*
%TO.N,PWM_AL*%
X75800000Y69400000D03*
X57100000Y72236200D03*
%TO.N,PWM_CH*%
X72500000Y69400000D03*
X66897000Y71629900D03*
X47601700Y74388200D03*
%TO.N,SPI_SDI*%
X44996500Y87775000D03*
X79199999Y62727500D03*
%TO.N,GHA*%
X61000000Y54650000D03*
X61000000Y44700000D03*
%TD*%
%TO.N,GND*%
D21*
X35300000Y82025000D02*
X36000000Y81325000D01*
%TO.N,+3V3_A*%
X30760800Y62374800D02*
X33627500Y59508100D01*
X33627500Y59508100D02*
X76567000Y59508100D01*
X78979000Y57847600D02*
X80477000Y59345000D01*
X76567000Y59508100D02*
X78227000Y57847600D01*
X78227000Y57847600D02*
X78979000Y57847600D01*
%TO.N,+3V3_MCU*%
D22*
X32350000Y66200000D02*
X42400000Y76250000D01*
%TO.N,SPI_NSCS*%
D23*
X72873000Y74349000D02*
X50538000Y74349000D01*
X50538000Y74349000D02*
X48603600Y76283800D01*
X76422000Y70799900D02*
X72873000Y74349000D01*
%TO.N,PWM_BH*%
X57053000Y69247600D02*
X65526000Y69247600D01*
X66373000Y68400500D02*
X69095000Y68400500D01*
X56650000Y69650800D02*
X57053000Y69247600D01*
X65526000Y69247600D02*
X66373000Y68400500D01*
X47651700Y73513300D02*
X47651700Y73280100D01*
X47651700Y73280100D02*
X51281000Y69650800D01*
X51281000Y69650800D02*
X56650000Y69650800D01*
%TO.N,/Power Input & Protection/EFUSE_SDA*%
X18496400Y34358000D02*
X18239500Y34101000D01*
X22796400Y34358000D02*
X18496400Y34358000D01*
%TO.N,/Power Input & Protection/EFUSE_SCL*%
X22593600Y33499000D02*
X22494800Y33400000D01*
X22494800Y33400000D02*
X19581400Y33400000D01*
%TO.N,PHASE_B*%
D24*
X79750000Y55500000D02*
X79150000Y56100000D01*
X79750000Y55500000D02*
X79750000Y39500000D01*
X71615000Y56100000D02*
X71300000Y56415000D01*
X71615000Y56100000D02*
X79150000Y56100000D01*
X71300000Y56800000D02*
X71300000Y56415000D01*
%TO.N,GHB*%
X79849999Y56800000D02*
X80449999Y56200000D01*
X72100000Y56800000D02*
X79849999Y56800000D01*
X80449999Y56200000D02*
X80449999Y38450000D01*
%TO.N,GLA*%
X63200000Y54650000D02*
X63200000Y44700000D01*
%TO.N,PHASE_A*%
X61900000Y54650000D02*
X61900000Y44700000D01*
%TO.N,PWM_BL*%
D23*
X77550000Y70650000D02*
X77550000Y69100000D01*
X74350000Y68700000D02*
X73600000Y69400000D01*
X45550000Y80500000D02*
X57950000Y80500000D01*
X29000000Y72800000D02*
X29000000Y74300000D01*
X57950000Y80500000D02*
X58350000Y80900000D01*
X29000000Y74300000D02*
X33700000Y79000000D01*
X44050000Y79000000D02*
X45550000Y80500000D01*
X67300000Y80900000D02*
X77550000Y70650000D01*
X58350000Y80900000D02*
X67300000Y80900000D01*
X77550000Y69100000D02*
X77150000Y68700000D01*
X33700000Y79000000D02*
X44050000Y79000000D01*
X77150000Y68700000D02*
X74350000Y68700000D01*
%TO.N,ISENSE_B_P*%
D24*
X69700000Y56800000D02*
X69700000Y55250000D01*
X77950000Y54050000D02*
X77350000Y54650000D01*
X69700000Y55250000D02*
X70300000Y54650000D01*
X77950000Y54050000D02*
X77950000Y24200000D01*
X70300000Y54650000D02*
X77350000Y54650000D01*
%TO.N,GLC*%
X95700000Y54650000D02*
X95700000Y44700000D01*
%TO.N,PHASE_C*%
X94400000Y54650000D02*
X94400000Y44700000D01*
%TO.N,NFAULT*%
D23*
X70300000Y68450000D02*
X70300000Y69000000D01*
X70300000Y69000000D02*
X70183000Y69117100D01*
X65241000Y70100400D02*
X57051000Y70100400D01*
X70300000Y68450000D02*
X70750000Y68000000D01*
X70183000Y69117100D02*
X68378000Y69117100D01*
X68378000Y69117100D02*
X68246000Y69249100D01*
X80100000Y67850000D02*
X79950000Y68000000D01*
X79199999Y61250000D02*
X79897499Y61250000D01*
X80100000Y61452501D02*
X80100000Y67850000D01*
X79950000Y68000000D02*
X70750000Y68000000D01*
X68246000Y69249100D02*
X66092000Y69249100D01*
X66092000Y69249100D02*
X65241000Y70100400D01*
X79897499Y61250000D02*
X80100000Y61452501D01*
%TO.N,ISENSE_B_N*%
D24*
X69500000Y54150000D02*
X68900000Y54750000D01*
X77200000Y54000000D02*
X77200000Y16700000D01*
X69500000Y54150000D02*
X77050000Y54150000D01*
X68900000Y56800000D02*
X68900000Y54750000D01*
X77200000Y54000000D02*
X77050000Y54150000D01*
%TO.N,GLB*%
X78699999Y54550000D02*
X78699999Y28050000D01*
X78699999Y54550000D02*
X78099999Y55150000D01*
X70500000Y56800000D02*
X70500000Y55750000D01*
X71100000Y55150000D02*
X78099999Y55150000D01*
X70500000Y55750000D02*
X71100000Y55150000D01*
%TO.N,PWM_CL*%
D23*
X66659000Y70550000D02*
X66105000Y71103800D01*
X66105000Y71103800D02*
X51612000Y71103800D01*
X51612000Y71103800D02*
X48710700Y74005400D01*
X48710700Y74005400D02*
X48412200Y74005400D01*
%TO.N,ISENSE_C_P*%
D24*
X96500000Y54650000D02*
X96500000Y44700000D01*
%TO.N,/MCU Core/UART_TXD*%
D23*
X50844000Y83914800D02*
X49540700Y83914800D01*
X49540700Y83914800D02*
X48490300Y84965200D01*
%TO.N,DRV_ENABLE*%
X51950000Y66350000D02*
X64800000Y66350000D01*
X44500000Y73800000D02*
X51950000Y66350000D01*
%TO.N,GHC*%
D24*
X93500000Y54650000D02*
X93500000Y44700000D01*
%TO.N,/MCU Core/EXP1*%
D23*
X33667500Y77934500D02*
X62152000Y77934500D01*
X62152000Y77934500D02*
X64135000Y79916800D01*
%TO.N,/MCU Core/EXP2*%
X58205000Y76239800D02*
X57438000Y77007100D01*
X57438000Y77007100D02*
X33791700Y77007100D01*
%TO.N,CAN_TX*%
X57582000Y67048300D02*
X55582000Y69047500D01*
X78597000Y67048300D02*
X57582000Y67048300D01*
%TO.N,ISENSE_A_N*%
D24*
X64800000Y54650000D02*
X64800000Y44700000D01*
%TO.N,PWM_AH*%
D23*
X76900000Y69400000D02*
X72710000Y73589800D01*
X72710000Y73589800D02*
X54361000Y73589800D01*
%TO.N,ISENSE_A_P*%
D24*
X64000000Y54650000D02*
X64000000Y44700000D01*
%TO.N,ISENSE_C_N*%
X97300000Y54650000D02*
X97300000Y44700000D01*
%TO.N,PWM_AL*%
D23*
X73102000Y72098300D02*
X75800000Y69400000D01*
X67609000Y72098300D02*
X73102000Y72098300D01*
X66121000Y72252300D02*
X67455000Y72252300D01*
X67455000Y72252300D02*
X67609000Y72098300D01*
X57255000Y72081600D02*
X65951000Y72081600D01*
X57100000Y72236200D02*
X57255000Y72081600D01*
X65951000Y72081600D02*
X66121000Y72252300D01*
%TO.N,PWM_CH*%
X70270000Y71629900D02*
X66897000Y71629900D01*
X47601700Y74388200D02*
X47849200Y74635700D01*
X47849200Y74635700D02*
X49343800Y74635700D01*
X49343800Y74635700D02*
X52350000Y71629900D01*
X72500000Y69400000D02*
X70270000Y71629900D01*
X52350000Y71629900D02*
X66897000Y71629900D01*
%TO.N,GHA*%
D24*
X61000000Y54650000D02*
X61000000Y44700000D01*
%TD*%
%TA.AperFunction,Conductor*%
%TO.N,GND*%
G36*
X48550279Y71526838D02*
G01*
X48574688Y71507877D01*
X50796139Y69286426D01*
X50796149Y69286415D01*
X50800479Y69282085D01*
X50800480Y69282084D01*
X50912284Y69170280D01*
X50988223Y69126437D01*
X51049215Y69091223D01*
X51201942Y69050300D01*
X51201943Y69050300D01*
X54663496Y69050300D01*
X54730535Y69030615D01*
X54776290Y68977811D01*
X54785113Y68950491D01*
X54812261Y68814011D01*
X54812264Y68813999D01*
X54872602Y68668328D01*
X54872609Y68668315D01*
X54960210Y68537212D01*
X54960213Y68537208D01*
X55071707Y68425714D01*
X55071711Y68425711D01*
X55202814Y68338110D01*
X55202827Y68338103D01*
X55348498Y68277765D01*
X55348503Y68277763D01*
X55456815Y68256219D01*
X55504052Y68246822D01*
X55565963Y68214437D01*
X55567505Y68212924D01*
X56262027Y67518680D01*
X56918770Y66862199D01*
X56952267Y66800882D01*
X56947296Y66731190D01*
X56905436Y66675248D01*
X56839977Y66650818D01*
X56831106Y66650500D01*
X52541495Y66650500D01*
X52474456Y66670185D01*
X52434109Y66712499D01*
X52430523Y66718710D01*
X52430520Y66718713D01*
X52430519Y66718716D01*
X48180187Y70969048D01*
X48146702Y71030371D01*
X48151686Y71100063D01*
X48180187Y71144410D01*
X48222989Y71187211D01*
X48310594Y71318321D01*
X48370937Y71464003D01*
X48370938Y71464012D01*
X48372445Y71467648D01*
X48416286Y71522051D01*
X48482580Y71544117D01*
X48550279Y71526838D01*
G37*
%TD.AperFunction*%
%TA.AperFunction,Conductor*%
G36*
X65417191Y68927415D02*
G01*
X65437836Y68910778D01*
X66079896Y68268642D01*
X66126688Y68221845D01*
X66126714Y68221815D01*
X66151803Y68196726D01*
X66188484Y68160041D01*
X66188518Y68160015D01*
X66189298Y68159573D01*
X66217173Y68143479D01*
X66217175Y68143477D01*
X66236201Y68132492D01*
X66256996Y68120485D01*
X66257000Y68120483D01*
X66257057Y68120459D01*
X66257909Y68120238D01*
X66290369Y68111540D01*
X66290374Y68111539D01*
X66321850Y68103103D01*
X66333421Y68100002D01*
X66333422Y68100002D01*
X66333429Y68100000D01*
X66333438Y68100000D01*
X66372981Y68100000D01*
X66372982Y68100000D01*
X66412544Y68099998D01*
X66412548Y68100000D01*
X66421166Y68099999D01*
X66421195Y68100000D01*
X68636324Y68100000D01*
X68703363Y68080315D01*
X68724005Y68063681D01*
X68787686Y68000000D01*
X68901814Y67934108D01*
X69029108Y67900000D01*
X69029110Y67900000D01*
X69151918Y67900000D01*
X69218957Y67880315D01*
X69264712Y67827511D01*
X69274656Y67758353D01*
X69271694Y67743914D01*
X69268500Y67731992D01*
X69268500Y67600208D01*
X69294039Y67504891D01*
X69292377Y67435044D01*
X69253215Y67377181D01*
X69188986Y67349677D01*
X69174265Y67348800D01*
X58173478Y67348800D01*
X58106439Y67368485D01*
X58066102Y67410780D01*
X58062444Y67417113D01*
X57043768Y68435382D01*
X57010271Y68496699D01*
X57015242Y68566391D01*
X57057102Y68622333D01*
X57122561Y68646763D01*
X57131450Y68647081D01*
X57131909Y68647080D01*
X57284646Y68687965D01*
X57421597Y68766989D01*
X57533428Y68878765D01*
X57537106Y68885133D01*
X57587686Y68933332D01*
X57644475Y68947100D01*
X65350152Y68947100D01*
X65417191Y68927415D01*
G37*
%TD.AperFunction*%
%TA.AperFunction,Conductor*%
G36*
X53503539Y73728815D02*
G01*
X53549294Y73676011D01*
X53560500Y73624500D01*
X53560500Y73510954D01*
X53591261Y73356311D01*
X53591264Y73356299D01*
X53651602Y73210628D01*
X53651609Y73210615D01*
X53739210Y73079512D01*
X53739213Y73079508D01*
X53850707Y72968014D01*
X53850711Y72968011D01*
X53981814Y72880410D01*
X53981827Y72880403D01*
X54127498Y72820065D01*
X54127503Y72820063D01*
X54282153Y72789301D01*
X54282156Y72789300D01*
X54282158Y72789300D01*
X54439844Y72789300D01*
X54439845Y72789301D01*
X54594497Y72820063D01*
X54736403Y72878842D01*
X54740172Y72880403D01*
X54740172Y72880404D01*
X54740179Y72880406D01*
X54782425Y72908634D01*
X54871875Y72968402D01*
X54938553Y72989280D01*
X54940766Y72989300D01*
X56421659Y72989300D01*
X56488698Y72969615D01*
X56534453Y72916811D01*
X56544397Y72847653D01*
X56515372Y72784097D01*
X56509340Y72777619D01*
X56478213Y72746493D01*
X56478210Y72746489D01*
X56390609Y72615386D01*
X56390602Y72615373D01*
X56330264Y72469702D01*
X56330261Y72469692D01*
X56302516Y72330208D01*
X56270131Y72268297D01*
X56209415Y72233723D01*
X56180899Y72230400D01*
X52650069Y72230400D01*
X52583030Y72250085D01*
X52562394Y72266713D01*
X52422197Y72406891D01*
X51292124Y73536814D01*
X51258636Y73598134D01*
X51263615Y73667826D01*
X51305483Y73723762D01*
X51370946Y73748183D01*
X51379800Y73748500D01*
X53436500Y73748500D01*
X53503539Y73728815D01*
G37*
%TD.AperFunction*%
%TA.AperFunction,Conductor*%
G36*
X65800785Y72969615D02*
G01*
X65846540Y72916811D01*
X65856484Y72847653D01*
X65827459Y72784097D01*
X65795746Y72757914D01*
X65775966Y72746493D01*
X65752266Y72732810D01*
X65752020Y72732620D01*
X65751746Y72732409D01*
X65751315Y72732079D01*
X65737892Y72718600D01*
X65676638Y72684988D01*
X65650030Y72682100D01*
X57831092Y72682100D01*
X57764053Y72701785D01*
X57727990Y72737209D01*
X57721789Y72746490D01*
X57690660Y72777619D01*
X57657175Y72838942D01*
X57662159Y72908634D01*
X57704031Y72964567D01*
X57769495Y72988984D01*
X57778341Y72989300D01*
X65733746Y72989300D01*
X65800785Y72969615D01*
G37*
%TD.AperFunction*%
%TA.AperFunction,Conductor*%
G36*
X72865849Y72989502D02*
G01*
X72915776Y72959072D01*
X72964368Y72910483D01*
X72997855Y72849161D01*
X72992872Y72779469D01*
X72951001Y72723534D01*
X72885538Y72699116D01*
X72876689Y72698800D01*
X67909098Y72698800D01*
X67842059Y72718485D01*
X67830255Y72727997D01*
X67830161Y72727874D01*
X67823712Y72732823D01*
X67780254Y72757913D01*
X67732039Y72808480D01*
X67718815Y72877087D01*
X67744783Y72941951D01*
X67801697Y72982480D01*
X67842254Y72989300D01*
X72789055Y72989300D01*
X72789057Y72989300D01*
X72796001Y72991161D01*
X72865849Y72989502D01*
G37*
%TD.AperFunction*%
%TA.AperFunction,Conductor*%
G36*
X67066942Y80279815D02*
G01*
X67087584Y80263181D01*
X72189584Y75161181D01*
X72223069Y75099858D01*
X72218085Y75030166D01*
X72176213Y74974233D01*
X72110749Y74949816D01*
X72101903Y74949500D01*
X50838142Y74949500D01*
X50771103Y74969185D01*
X50750452Y74985828D01*
X49541602Y76194928D01*
X49508123Y76256254D01*
X49513115Y76325946D01*
X49554992Y76381875D01*
X49620459Y76406285D01*
X49629292Y76406600D01*
X56075500Y76406600D01*
X56142539Y76386915D01*
X56188294Y76334111D01*
X56199500Y76282600D01*
X56199500Y76171154D01*
X56230261Y76016511D01*
X56230264Y76016499D01*
X56290602Y75870828D01*
X56290609Y75870815D01*
X56378210Y75739712D01*
X56378213Y75739708D01*
X56489707Y75628214D01*
X56489711Y75628211D01*
X56620814Y75540610D01*
X56620827Y75540603D01*
X56684904Y75514062D01*
X56766503Y75480263D01*
X56870468Y75459583D01*
X56921153Y75449501D01*
X56921156Y75449500D01*
X56921158Y75449500D01*
X57078844Y75449500D01*
X57078845Y75449501D01*
X57233497Y75480263D01*
X57354554Y75530406D01*
X57379172Y75540603D01*
X57379172Y75540604D01*
X57379179Y75540606D01*
X57510289Y75628211D01*
X57510293Y75628216D01*
X57514999Y75632076D01*
X57515880Y75631002D01*
X57571026Y75661123D01*
X57640718Y75656148D01*
X57685084Y75627638D01*
X57694708Y75618013D01*
X57694711Y75618011D01*
X57825814Y75530410D01*
X57825827Y75530403D01*
X57946880Y75480262D01*
X57971503Y75470063D01*
X58083019Y75447881D01*
X58126153Y75439301D01*
X58126156Y75439300D01*
X58126158Y75439300D01*
X58283844Y75439300D01*
X58283845Y75439301D01*
X58438497Y75470063D01*
X58584179Y75530406D01*
X58715289Y75618011D01*
X58826789Y75729511D01*
X58914394Y75860621D01*
X58918617Y75870815D01*
X58974735Y76006299D01*
X58974737Y76006303D01*
X59005500Y76160958D01*
X59005500Y76318642D01*
X59005500Y76318645D01*
X59005499Y76318647D01*
X58992922Y76381875D01*
X58974737Y76473297D01*
X58974735Y76473302D01*
X58914397Y76618973D01*
X58914390Y76618986D01*
X58826789Y76750089D01*
X58826786Y76750093D01*
X58715292Y76861587D01*
X58715288Y76861590D01*
X58584185Y76949191D01*
X58584172Y76949198D01*
X58438501Y77009536D01*
X58438491Y77009539D01*
X58283349Y77040399D01*
X58221438Y77072784D01*
X58219916Y77074279D01*
X58171875Y77122339D01*
X58138405Y77183666D01*
X58143403Y77253357D01*
X58185285Y77309282D01*
X58250754Y77333686D01*
X58259576Y77334000D01*
X62148966Y77334000D01*
X62230951Y77333986D01*
X62230966Y77333991D01*
X62231041Y77334000D01*
X62231057Y77334000D01*
X62306431Y77354197D01*
X62306431Y77354194D01*
X62306448Y77354202D01*
X62383686Y77374882D01*
X62383687Y77374883D01*
X62383718Y77374891D01*
X62383754Y77374906D01*
X62383783Y77374923D01*
X62383784Y77374923D01*
X62408711Y77389316D01*
X62453627Y77415247D01*
X62453633Y77415252D01*
X62520631Y77453916D01*
X62520635Y77453921D01*
X62520669Y77453940D01*
X62520687Y77453954D01*
X62520709Y77453977D01*
X62520716Y77453980D01*
X62580078Y77513343D01*
X64149498Y79082209D01*
X64210825Y79115681D01*
X64212971Y79116127D01*
X64213841Y79116300D01*
X64213842Y79116300D01*
X64368497Y79147063D01*
X64514179Y79207406D01*
X64645289Y79295011D01*
X64756789Y79406511D01*
X64844394Y79537621D01*
X64844559Y79538018D01*
X64870439Y79600500D01*
X64904737Y79683303D01*
X64935500Y79837958D01*
X64935500Y79995642D01*
X64935500Y79995645D01*
X64904536Y80151308D01*
X64910763Y80220900D01*
X64953626Y80276077D01*
X65019516Y80299322D01*
X65026153Y80299500D01*
X66999903Y80299500D01*
X67066942Y80279815D01*
G37*
%TD.AperFunction*%
%TA.AperFunction,Conductor*%
G36*
X24614074Y89479815D02*
G01*
X24659829Y89427011D01*
X24669773Y89357853D01*
X24658227Y89322638D01*
X24658618Y89322476D01*
X24656491Y89317342D01*
X24656396Y89317051D01*
X24656284Y89316843D01*
X24588406Y89152968D01*
X24588403Y89152959D01*
X24553800Y88978996D01*
X24553800Y88801605D01*
X24588403Y88627642D01*
X24588406Y88627633D01*
X24656283Y88463760D01*
X24656290Y88463747D01*
X24754835Y88316266D01*
X24754838Y88316262D01*
X24880261Y88190839D01*
X24880265Y88190836D01*
X25027746Y88092291D01*
X25027759Y88092284D01*
X25150663Y88041377D01*
X25191634Y88024406D01*
X25191636Y88024406D01*
X25191641Y88024404D01*
X25365604Y87989801D01*
X25365607Y87989800D01*
X25365609Y87989800D01*
X25542993Y87989800D01*
X25542994Y87989801D01*
X25600982Y88001336D01*
X25716958Y88024404D01*
X25716961Y88024406D01*
X25716966Y88024406D01*
X25880847Y88092287D01*
X26028335Y88190836D01*
X26153764Y88316265D01*
X26252313Y88463753D01*
X26320194Y88627634D01*
X26328714Y88670464D01*
X26354799Y88801605D01*
X26354800Y88801607D01*
X26354800Y88978994D01*
X26354799Y88978996D01*
X26320196Y89152959D01*
X26320193Y89152968D01*
X26252315Y89316843D01*
X26252204Y89317051D01*
X26252178Y89317173D01*
X26249982Y89322476D01*
X26250987Y89322893D01*
X26237965Y89385455D01*
X26262968Y89450697D01*
X26319275Y89492066D01*
X26361565Y89499500D01*
X98934108Y89499500D01*
X98993040Y89499500D01*
X99006922Y89498720D01*
X99023878Y89496810D01*
X99097266Y89488542D01*
X99108636Y89484563D01*
X99117102Y89484649D01*
X99124324Y89482367D01*
X99203539Y89454649D01*
X99228549Y89442605D01*
X99299606Y89397957D01*
X99321313Y89380645D01*
X99380644Y89321314D01*
X99397957Y89299605D01*
X99442602Y89228553D01*
X99454649Y89203536D01*
X99482362Y89124338D01*
X99488541Y89097266D01*
X99498720Y89006924D01*
X99499500Y88993041D01*
X99499500Y1006960D01*
X99498720Y993077D01*
X99488541Y902735D01*
X99484561Y891363D01*
X99484648Y882898D01*
X99482362Y875663D01*
X99454649Y796465D01*
X99442602Y771448D01*
X99397957Y700396D01*
X99380644Y678687D01*
X99321313Y619356D01*
X99299604Y602043D01*
X99228552Y557398D01*
X99203535Y545351D01*
X99124337Y517638D01*
X99097265Y511459D01*
X99006923Y501280D01*
X98993040Y500500D01*
X87749166Y500500D01*
X87682127Y520185D01*
X87636372Y572989D01*
X87626428Y642147D01*
X87655453Y705703D01*
X87714231Y743477D01*
X87717027Y744263D01*
X87744419Y751602D01*
X87986697Y851957D01*
X88213803Y983076D01*
X88421851Y1142718D01*
X88421855Y1142723D01*
X88421860Y1142726D01*
X88607274Y1328140D01*
X88607277Y1328145D01*
X88607282Y1328149D01*
X88766924Y1536197D01*
X88898043Y1763303D01*
X88998398Y2005581D01*
X89066270Y2258884D01*
X89100500Y2518880D01*
X89100500Y2781120D01*
X89066270Y3041116D01*
X88998398Y3294419D01*
X88953051Y3403896D01*
X88898046Y3536691D01*
X88898041Y3536701D01*
X88766924Y3763804D01*
X88607281Y3971852D01*
X88607274Y3971860D01*
X88457845Y4121289D01*
X94149500Y4121289D01*
X94149500Y3878712D01*
X94181161Y3638215D01*
X94243947Y3403896D01*
X94289290Y3294429D01*
X94336776Y3179788D01*
X94458064Y2969711D01*
X94458066Y2969708D01*
X94458067Y2969707D01*
X94605733Y2777264D01*
X94605739Y2777257D01*
X94777256Y2605740D01*
X94777262Y2605735D01*
X94969711Y2458064D01*
X95179788Y2336776D01*
X95403900Y2243946D01*
X95638211Y2181162D01*
X95818586Y2157416D01*
X95878711Y2149500D01*
X95878712Y2149500D01*
X96121289Y2149500D01*
X96169388Y2155833D01*
X96361789Y2181162D01*
X96596100Y2243946D01*
X96820212Y2336776D01*
X97030289Y2458064D01*
X97222738Y2605735D01*
X97394265Y2777262D01*
X97541936Y2969711D01*
X97663224Y3179788D01*
X97756054Y3403900D01*
X97818838Y3638211D01*
X97850500Y3878712D01*
X97850500Y4121288D01*
X97818838Y4361789D01*
X97756054Y4596100D01*
X97663224Y4820212D01*
X97541936Y5030289D01*
X97394265Y5222738D01*
X97394260Y5222744D01*
X97222743Y5394261D01*
X97222736Y5394267D01*
X97030293Y5541933D01*
X97030292Y5541934D01*
X97030289Y5541936D01*
X96820212Y5663224D01*
X96820205Y5663227D01*
X96596104Y5756053D01*
X96361785Y5818839D01*
X96121289Y5850500D01*
X96121288Y5850500D01*
X95878712Y5850500D01*
X95878711Y5850500D01*
X95638214Y5818839D01*
X95403895Y5756053D01*
X95179794Y5663227D01*
X95179785Y5663223D01*
X94969706Y5541933D01*
X94777263Y5394267D01*
X94777256Y5394261D01*
X94605739Y5222744D01*
X94605733Y5222737D01*
X94458067Y5030294D01*
X94336777Y4820215D01*
X94336773Y4820206D01*
X94243947Y4596105D01*
X94181161Y4361786D01*
X94149500Y4121289D01*
X88457845Y4121289D01*
X88421860Y4157274D01*
X88421851Y4157282D01*
X88213803Y4316925D01*
X87986700Y4448042D01*
X87986690Y4448047D01*
X87744428Y4548395D01*
X87744421Y4548397D01*
X87744419Y4548398D01*
X87491116Y4616270D01*
X87433339Y4623877D01*
X87231127Y4650500D01*
X87231120Y4650500D01*
X86968880Y4650500D01*
X86968872Y4650500D01*
X86737772Y4620074D01*
X86708884Y4616270D01*
X86455581Y4548398D01*
X86455571Y4548395D01*
X86213309Y4448047D01*
X86213299Y4448042D01*
X85986196Y4316925D01*
X85778148Y4157282D01*
X85592718Y3971852D01*
X85433075Y3763804D01*
X85301958Y3536701D01*
X85301953Y3536691D01*
X85201605Y3294429D01*
X85201602Y3294419D01*
X85133730Y3041115D01*
X85099500Y2781128D01*
X85099500Y2518873D01*
X85123475Y2336778D01*
X85133730Y2258884D01*
X85201602Y2005582D01*
X85201605Y2005572D01*
X85301953Y1763310D01*
X85301958Y1763300D01*
X85433075Y1536197D01*
X85592718Y1328149D01*
X85592726Y1328140D01*
X85778140Y1142726D01*
X85778148Y1142719D01*
X85986196Y983076D01*
X86213299Y851959D01*
X86213309Y851954D01*
X86455571Y751606D01*
X86455581Y751602D01*
X86482929Y744274D01*
X86542588Y707910D01*
X86573117Y645063D01*
X86564822Y575687D01*
X86520337Y521809D01*
X86453785Y500535D01*
X86450834Y500500D01*
X82749166Y500500D01*
X82682127Y520185D01*
X82636372Y572989D01*
X82626428Y642147D01*
X82655453Y705703D01*
X82714231Y743477D01*
X82717027Y744263D01*
X82744419Y751602D01*
X82986697Y851957D01*
X83213803Y983076D01*
X83421851Y1142718D01*
X83421855Y1142723D01*
X83421860Y1142726D01*
X83607274Y1328140D01*
X83607277Y1328145D01*
X83607282Y1328149D01*
X83766924Y1536197D01*
X83898043Y1763303D01*
X83998398Y2005581D01*
X84066270Y2258884D01*
X84100500Y2518880D01*
X84100500Y2781120D01*
X84066270Y3041116D01*
X83998398Y3294419D01*
X83953051Y3403896D01*
X83898046Y3536691D01*
X83898041Y3536701D01*
X83766924Y3763804D01*
X83607281Y3971852D01*
X83607274Y3971860D01*
X83421860Y4157274D01*
X83421851Y4157282D01*
X83213803Y4316925D01*
X82986700Y4448042D01*
X82986690Y4448047D01*
X82744428Y4548395D01*
X82744421Y4548397D01*
X82744419Y4548398D01*
X82491116Y4616270D01*
X82433339Y4623877D01*
X82231127Y4650500D01*
X82231120Y4650500D01*
X81968880Y4650500D01*
X81968872Y4650500D01*
X81737772Y4620074D01*
X81708884Y4616270D01*
X81455581Y4548398D01*
X81455571Y4548395D01*
X81213309Y4448047D01*
X81213299Y4448042D01*
X80986196Y4316925D01*
X80778148Y4157282D01*
X80592718Y3971852D01*
X80433075Y3763804D01*
X80301958Y3536701D01*
X80301953Y3536691D01*
X80201605Y3294429D01*
X80201602Y3294419D01*
X80133730Y3041115D01*
X80099500Y2781128D01*
X80099500Y2518873D01*
X80123475Y2336778D01*
X80133730Y2258884D01*
X80201602Y2005582D01*
X80201605Y2005572D01*
X80301953Y1763310D01*
X80301958Y1763300D01*
X80433075Y1536197D01*
X80592718Y1328149D01*
X80592726Y1328140D01*
X80778140Y1142726D01*
X80778148Y1142719D01*
X80986196Y983076D01*
X81213299Y851959D01*
X81213309Y851954D01*
X81455571Y751606D01*
X81455581Y751602D01*
X81482929Y744274D01*
X81542588Y707910D01*
X81573117Y645063D01*
X81564822Y575687D01*
X81520337Y521809D01*
X81453785Y500535D01*
X81450834Y500500D01*
X71499166Y500500D01*
X71432127Y520185D01*
X71386372Y572989D01*
X71376428Y642147D01*
X71405453Y705703D01*
X71464231Y743477D01*
X71467027Y744263D01*
X71494419Y751602D01*
X71736697Y851957D01*
X71963803Y983076D01*
X72171851Y1142718D01*
X72171855Y1142723D01*
X72171860Y1142726D01*
X72357274Y1328140D01*
X72357277Y1328145D01*
X72357282Y1328149D01*
X72516924Y1536197D01*
X72648043Y1763303D01*
X72748398Y2005581D01*
X72816270Y2258884D01*
X72850500Y2518880D01*
X72850500Y2781120D01*
X72816270Y3041116D01*
X72748398Y3294419D01*
X72703051Y3403896D01*
X72648046Y3536691D01*
X72648041Y3536701D01*
X72516924Y3763804D01*
X72357281Y3971852D01*
X72357274Y3971860D01*
X72171860Y4157274D01*
X72171851Y4157282D01*
X71963803Y4316925D01*
X71736700Y4448042D01*
X71736690Y4448047D01*
X71494428Y4548395D01*
X71494421Y4548397D01*
X71494419Y4548398D01*
X71241116Y4616270D01*
X71183339Y4623877D01*
X70981127Y4650500D01*
X70981120Y4650500D01*
X70718880Y4650500D01*
X70718872Y4650500D01*
X70487772Y4620074D01*
X70458884Y4616270D01*
X70205581Y4548398D01*
X70205571Y4548395D01*
X69963309Y4448047D01*
X69963299Y4448042D01*
X69736196Y4316925D01*
X69528148Y4157282D01*
X69342718Y3971852D01*
X69183075Y3763804D01*
X69051958Y3536701D01*
X69051953Y3536691D01*
X68951605Y3294429D01*
X68951602Y3294419D01*
X68883730Y3041115D01*
X68849500Y2781128D01*
X68849500Y2518873D01*
X68873475Y2336778D01*
X68883730Y2258884D01*
X68951602Y2005582D01*
X68951605Y2005572D01*
X69051953Y1763310D01*
X69051958Y1763300D01*
X69183075Y1536197D01*
X69342718Y1328149D01*
X69342726Y1328140D01*
X69528140Y1142726D01*
X69528148Y1142719D01*
X69736196Y983076D01*
X69963299Y851959D01*
X69963309Y851954D01*
X70205571Y751606D01*
X70205581Y751602D01*
X70232929Y744274D01*
X70292588Y707910D01*
X70323117Y645063D01*
X70314822Y575687D01*
X70270337Y521809D01*
X70203785Y500535D01*
X70200834Y500500D01*
X66499166Y500500D01*
X66432127Y520185D01*
X66386372Y572989D01*
X66376428Y642147D01*
X66405453Y705703D01*
X66464231Y743477D01*
X66467027Y744263D01*
X66494419Y751602D01*
X66736697Y851957D01*
X66963803Y983076D01*
X67171851Y1142718D01*
X67171855Y1142723D01*
X67171860Y1142726D01*
X67357274Y1328140D01*
X67357277Y1328145D01*
X67357282Y1328149D01*
X67516924Y1536197D01*
X67648043Y1763303D01*
X67748398Y2005581D01*
X67816270Y2258884D01*
X67850500Y2518880D01*
X67850500Y2781120D01*
X67816270Y3041116D01*
X67748398Y3294419D01*
X67703051Y3403896D01*
X67648046Y3536691D01*
X67648041Y3536701D01*
X67516924Y3763804D01*
X67357281Y3971852D01*
X67357274Y3971860D01*
X67171860Y4157274D01*
X67171851Y4157282D01*
X66963803Y4316925D01*
X66736700Y4448042D01*
X66736690Y4448047D01*
X66494428Y4548395D01*
X66494421Y4548397D01*
X66494419Y4548398D01*
X66241116Y4616270D01*
X66183339Y4623877D01*
X65981127Y4650500D01*
X65981120Y4650500D01*
X65718880Y4650500D01*
X65718872Y4650500D01*
X65487772Y4620074D01*
X65458884Y4616270D01*
X65205581Y4548398D01*
X65205571Y4548395D01*
X64963309Y4448047D01*
X64963299Y4448042D01*
X64736196Y4316925D01*
X64528148Y4157282D01*
X64342718Y3971852D01*
X64183075Y3763804D01*
X64051958Y3536701D01*
X64051953Y3536691D01*
X63951605Y3294429D01*
X63951602Y3294419D01*
X63883730Y3041115D01*
X63849500Y2781128D01*
X63849500Y2518873D01*
X63873475Y2336778D01*
X63883730Y2258884D01*
X63951602Y2005582D01*
X63951605Y2005572D01*
X64051953Y1763310D01*
X64051958Y1763300D01*
X64183075Y1536197D01*
X64342718Y1328149D01*
X64342726Y1328140D01*
X64528140Y1142726D01*
X64528148Y1142719D01*
X64736196Y983076D01*
X64963299Y851959D01*
X64963309Y851954D01*
X65205571Y751606D01*
X65205581Y751602D01*
X65232929Y744274D01*
X65292588Y707910D01*
X65323117Y645063D01*
X65314822Y575687D01*
X65270337Y521809D01*
X65203785Y500535D01*
X65200834Y500500D01*
X55249166Y500500D01*
X55182127Y520185D01*
X55136372Y572989D01*
X55126428Y642147D01*
X55155453Y705703D01*
X55214231Y743477D01*
X55217027Y744263D01*
X55244419Y751602D01*
X55486697Y851957D01*
X55713803Y983076D01*
X55921851Y1142718D01*
X55921855Y1142723D01*
X55921860Y1142726D01*
X56107274Y1328140D01*
X56107277Y1328145D01*
X56107282Y1328149D01*
X56266924Y1536197D01*
X56398043Y1763303D01*
X56498398Y2005581D01*
X56566270Y2258884D01*
X56600500Y2518880D01*
X56600500Y2781120D01*
X56566270Y3041116D01*
X56498398Y3294419D01*
X56453051Y3403896D01*
X56398046Y3536691D01*
X56398041Y3536701D01*
X56266924Y3763804D01*
X56107281Y3971852D01*
X56107274Y3971860D01*
X55921860Y4157274D01*
X55921851Y4157282D01*
X55713803Y4316925D01*
X55486700Y4448042D01*
X55486690Y4448047D01*
X55244428Y4548395D01*
X55244421Y4548397D01*
X55244419Y4548398D01*
X54991116Y4616270D01*
X54933339Y4623877D01*
X54731127Y4650500D01*
X54731120Y4650500D01*
X54468880Y4650500D01*
X54468872Y4650500D01*
X54237772Y4620074D01*
X54208884Y4616270D01*
X53955581Y4548398D01*
X53955571Y4548395D01*
X53713309Y4448047D01*
X53713299Y4448042D01*
X53486196Y4316925D01*
X53278148Y4157282D01*
X53092718Y3971852D01*
X52933075Y3763804D01*
X52801958Y3536701D01*
X52801953Y3536691D01*
X52701605Y3294429D01*
X52701602Y3294419D01*
X52633730Y3041115D01*
X52599500Y2781128D01*
X52599500Y2518873D01*
X52623475Y2336778D01*
X52633730Y2258884D01*
X52701602Y2005582D01*
X52701605Y2005572D01*
X52801953Y1763310D01*
X52801958Y1763300D01*
X52933075Y1536197D01*
X53092718Y1328149D01*
X53092726Y1328140D01*
X53278140Y1142726D01*
X53278148Y1142719D01*
X53486196Y983076D01*
X53713299Y851959D01*
X53713309Y851954D01*
X53955571Y751606D01*
X53955581Y751602D01*
X53982929Y744274D01*
X54042588Y707910D01*
X54073117Y645063D01*
X54064822Y575687D01*
X54020337Y521809D01*
X53953785Y500535D01*
X53950834Y500500D01*
X50249166Y500500D01*
X50182127Y520185D01*
X50136372Y572989D01*
X50126428Y642147D01*
X50155453Y705703D01*
X50214231Y743477D01*
X50217027Y744263D01*
X50244419Y751602D01*
X50486697Y851957D01*
X50713803Y983076D01*
X50921851Y1142718D01*
X50921855Y1142723D01*
X50921860Y1142726D01*
X51107274Y1328140D01*
X51107277Y1328145D01*
X51107282Y1328149D01*
X51266924Y1536197D01*
X51398043Y1763303D01*
X51498398Y2005581D01*
X51566270Y2258884D01*
X51600500Y2518880D01*
X51600500Y2781120D01*
X51566270Y3041116D01*
X51498398Y3294419D01*
X51453051Y3403896D01*
X51398046Y3536691D01*
X51398041Y3536701D01*
X51266924Y3763804D01*
X51107281Y3971852D01*
X51107274Y3971860D01*
X50921860Y4157274D01*
X50921851Y4157282D01*
X50713803Y4316925D01*
X50486700Y4448042D01*
X50486690Y4448047D01*
X50244428Y4548395D01*
X50244421Y4548397D01*
X50244419Y4548398D01*
X49991116Y4616270D01*
X49933339Y4623877D01*
X49731127Y4650500D01*
X49731120Y4650500D01*
X49468880Y4650500D01*
X49468872Y4650500D01*
X49237772Y4620074D01*
X49208884Y4616270D01*
X48955581Y4548398D01*
X48955571Y4548395D01*
X48713309Y4448047D01*
X48713299Y4448042D01*
X48486196Y4316925D01*
X48278148Y4157282D01*
X48092718Y3971852D01*
X47933075Y3763804D01*
X47801958Y3536701D01*
X47801953Y3536691D01*
X47701605Y3294429D01*
X47701602Y3294419D01*
X47633730Y3041115D01*
X47599500Y2781128D01*
X47599500Y2518873D01*
X47623475Y2336778D01*
X47633730Y2258884D01*
X47701602Y2005582D01*
X47701605Y2005572D01*
X47801953Y1763310D01*
X47801958Y1763300D01*
X47933075Y1536197D01*
X48092718Y1328149D01*
X48092726Y1328140D01*
X48278140Y1142726D01*
X48278148Y1142719D01*
X48486196Y983076D01*
X48713299Y851959D01*
X48713309Y851954D01*
X48955571Y751606D01*
X48955581Y751602D01*
X48982929Y744274D01*
X49042588Y707910D01*
X49073117Y645063D01*
X49064822Y575687D01*
X49020337Y521809D01*
X48953785Y500535D01*
X48950834Y500500D01*
X25749166Y500500D01*
X25682127Y520185D01*
X25636372Y572989D01*
X25626428Y642147D01*
X25655453Y705703D01*
X25714231Y743477D01*
X25717027Y744263D01*
X25744419Y751602D01*
X25986697Y851957D01*
X26213803Y983076D01*
X26421851Y1142718D01*
X26421855Y1142723D01*
X26421860Y1142726D01*
X26607274Y1328140D01*
X26607277Y1328145D01*
X26607282Y1328149D01*
X26766924Y1536197D01*
X26898043Y1763303D01*
X26998398Y2005581D01*
X27066270Y2258884D01*
X27100500Y2518880D01*
X27100500Y2781120D01*
X27066270Y3041116D01*
X26998398Y3294419D01*
X26953051Y3403896D01*
X26898046Y3536691D01*
X26898041Y3536701D01*
X26766924Y3763804D01*
X26607281Y3971852D01*
X26607274Y3971860D01*
X26421860Y4157274D01*
X26421851Y4157282D01*
X26213803Y4316925D01*
X25986700Y4448042D01*
X25986690Y4448047D01*
X25744428Y4548395D01*
X25744421Y4548397D01*
X25744419Y4548398D01*
X25491116Y4616270D01*
X25433339Y4623877D01*
X25231127Y4650500D01*
X25231120Y4650500D01*
X24968880Y4650500D01*
X24968872Y4650500D01*
X24737772Y4620074D01*
X24708884Y4616270D01*
X24455581Y4548398D01*
X24455571Y4548395D01*
X24213309Y4448047D01*
X24213299Y4448042D01*
X23986196Y4316925D01*
X23778148Y4157282D01*
X23592718Y3971852D01*
X23433075Y3763804D01*
X23301958Y3536701D01*
X23301953Y3536691D01*
X23201605Y3294429D01*
X23201602Y3294419D01*
X23133730Y3041115D01*
X23099500Y2781128D01*
X23099500Y2518873D01*
X23123475Y2336778D01*
X23133730Y2258884D01*
X23201602Y2005582D01*
X23201605Y2005572D01*
X23301953Y1763310D01*
X23301958Y1763300D01*
X23433075Y1536197D01*
X23592718Y1328149D01*
X23592726Y1328140D01*
X23778140Y1142726D01*
X23778148Y1142719D01*
X23986196Y983076D01*
X24213299Y851959D01*
X24213309Y851954D01*
X24455571Y751606D01*
X24455581Y751602D01*
X24482929Y744274D01*
X24542588Y707910D01*
X24573117Y645063D01*
X24564822Y575687D01*
X24520337Y521809D01*
X24453785Y500535D01*
X24450834Y500500D01*
X20749166Y500500D01*
X20682127Y520185D01*
X20636372Y572989D01*
X20626428Y642147D01*
X20655453Y705703D01*
X20714231Y743477D01*
X20717027Y744263D01*
X20744419Y751602D01*
X20986697Y851957D01*
X21213803Y983076D01*
X21421851Y1142718D01*
X21421855Y1142723D01*
X21421860Y1142726D01*
X21607274Y1328140D01*
X21607277Y1328145D01*
X21607282Y1328149D01*
X21766924Y1536197D01*
X21898043Y1763303D01*
X21998398Y2005581D01*
X22066270Y2258884D01*
X22100500Y2518880D01*
X22100500Y2781120D01*
X22066270Y3041116D01*
X21998398Y3294419D01*
X21953051Y3403896D01*
X21898046Y3536691D01*
X21898041Y3536701D01*
X21766924Y3763804D01*
X21607281Y3971852D01*
X21607274Y3971860D01*
X21421860Y4157274D01*
X21421851Y4157282D01*
X21213803Y4316925D01*
X20986700Y4448042D01*
X20986690Y4448047D01*
X20744428Y4548395D01*
X20744421Y4548397D01*
X20744419Y4548398D01*
X20491116Y4616270D01*
X20433339Y4623877D01*
X20231127Y4650500D01*
X20231120Y4650500D01*
X19968880Y4650500D01*
X19968872Y4650500D01*
X19737772Y4620074D01*
X19708884Y4616270D01*
X19455581Y4548398D01*
X19455571Y4548395D01*
X19213309Y4448047D01*
X19213299Y4448042D01*
X18986196Y4316925D01*
X18778148Y4157282D01*
X18592718Y3971852D01*
X18433075Y3763804D01*
X18301958Y3536701D01*
X18301953Y3536691D01*
X18201605Y3294429D01*
X18201602Y3294419D01*
X18133730Y3041115D01*
X18099500Y2781128D01*
X18099500Y2518873D01*
X18123475Y2336778D01*
X18133730Y2258884D01*
X18201602Y2005582D01*
X18201605Y2005572D01*
X18301953Y1763310D01*
X18301958Y1763300D01*
X18433075Y1536197D01*
X18592718Y1328149D01*
X18592726Y1328140D01*
X18778140Y1142726D01*
X18778148Y1142719D01*
X18986196Y983076D01*
X19213299Y851959D01*
X19213309Y851954D01*
X19455571Y751606D01*
X19455581Y751602D01*
X19482929Y744274D01*
X19542588Y707910D01*
X19573117Y645063D01*
X19564822Y575687D01*
X19520337Y521809D01*
X19453785Y500535D01*
X19450834Y500500D01*
X1006960Y500500D01*
X993077Y501280D01*
X902734Y511459D01*
X891361Y515439D01*
X882897Y515352D01*
X875662Y517638D01*
X796464Y545351D01*
X771447Y557398D01*
X700395Y602043D01*
X678686Y619356D01*
X619355Y678687D01*
X602042Y700396D01*
X557395Y771451D01*
X545351Y796461D01*
X517636Y875667D01*
X511458Y902732D01*
X501280Y993078D01*
X500500Y1006960D01*
X500500Y4121289D01*
X2149500Y4121289D01*
X2149500Y3878712D01*
X2181161Y3638215D01*
X2243947Y3403896D01*
X2289290Y3294429D01*
X2336776Y3179788D01*
X2458064Y2969711D01*
X2458066Y2969708D01*
X2458067Y2969707D01*
X2605733Y2777264D01*
X2605739Y2777257D01*
X2777256Y2605740D01*
X2777262Y2605735D01*
X2969711Y2458064D01*
X3179788Y2336776D01*
X3403900Y2243946D01*
X3638211Y2181162D01*
X3818586Y2157416D01*
X3878711Y2149500D01*
X3878712Y2149500D01*
X4121289Y2149500D01*
X4169388Y2155833D01*
X4361789Y2181162D01*
X4596100Y2243946D01*
X4820212Y2336776D01*
X5030289Y2458064D01*
X5222738Y2605735D01*
X5394265Y2777262D01*
X5541936Y2969711D01*
X5663224Y3179788D01*
X5756054Y3403900D01*
X5818838Y3638211D01*
X5850500Y3878712D01*
X5850500Y4121288D01*
X5818838Y4361789D01*
X5756054Y4596100D01*
X5663224Y4820212D01*
X5541936Y5030289D01*
X5394265Y5222738D01*
X5394260Y5222744D01*
X5222743Y5394261D01*
X5222736Y5394267D01*
X5030293Y5541933D01*
X5030292Y5541934D01*
X5030289Y5541936D01*
X4820212Y5663224D01*
X4820205Y5663227D01*
X4596104Y5756053D01*
X4361785Y5818839D01*
X4121289Y5850500D01*
X4121288Y5850500D01*
X3878712Y5850500D01*
X3878711Y5850500D01*
X3638214Y5818839D01*
X3403895Y5756053D01*
X3179794Y5663227D01*
X3179785Y5663223D01*
X2969706Y5541933D01*
X2777263Y5394267D01*
X2777256Y5394261D01*
X2605739Y5222744D01*
X2605733Y5222737D01*
X2458067Y5030294D01*
X2336777Y4820215D01*
X2336773Y4820206D01*
X2243947Y4596105D01*
X2181161Y4361786D01*
X2149500Y4121289D01*
X500500Y4121289D01*
X500500Y10681128D01*
X18099500Y10681128D01*
X18099500Y10418873D01*
X18126123Y10216661D01*
X18133730Y10158884D01*
X18201602Y9905582D01*
X18201605Y9905572D01*
X18301953Y9663310D01*
X18301958Y9663300D01*
X18433075Y9436197D01*
X18592718Y9228149D01*
X18592726Y9228140D01*
X18778140Y9042726D01*
X18778148Y9042719D01*
X18986196Y8883076D01*
X19213299Y8751959D01*
X19213309Y8751954D01*
X19455571Y8651606D01*
X19455581Y8651602D01*
X19708884Y8583730D01*
X19968880Y8549500D01*
X19968887Y8549500D01*
X20231113Y8549500D01*
X20231120Y8549500D01*
X20491116Y8583730D01*
X20744419Y8651602D01*
X20986697Y8751957D01*
X21213803Y8883076D01*
X21421851Y9042718D01*
X21421855Y9042723D01*
X21421860Y9042726D01*
X21607274Y9228140D01*
X21607277Y9228145D01*
X21607282Y9228149D01*
X21766924Y9436197D01*
X21898043Y9663303D01*
X21998398Y9905581D01*
X22066270Y10158884D01*
X22100500Y10418880D01*
X22100500Y10681120D01*
X22100499Y10681128D01*
X23099500Y10681128D01*
X23099500Y10418873D01*
X23126123Y10216661D01*
X23133730Y10158884D01*
X23201602Y9905582D01*
X23201605Y9905572D01*
X23301953Y9663310D01*
X23301958Y9663300D01*
X23433075Y9436197D01*
X23592718Y9228149D01*
X23592726Y9228140D01*
X23778140Y9042726D01*
X23778148Y9042719D01*
X23986196Y8883076D01*
X24213299Y8751959D01*
X24213309Y8751954D01*
X24455571Y8651606D01*
X24455581Y8651602D01*
X24708884Y8583730D01*
X24968880Y8549500D01*
X24968887Y8549500D01*
X25231113Y8549500D01*
X25231120Y8549500D01*
X25491116Y8583730D01*
X25744419Y8651602D01*
X25986697Y8751957D01*
X26213803Y8883076D01*
X26421851Y9042718D01*
X26421855Y9042723D01*
X26421860Y9042726D01*
X26607274Y9228140D01*
X26607277Y9228145D01*
X26607282Y9228149D01*
X26766924Y9436197D01*
X26898043Y9663303D01*
X26998398Y9905581D01*
X27066270Y10158884D01*
X27100500Y10418880D01*
X27100500Y10681120D01*
X27100499Y10681128D01*
X47599500Y10681128D01*
X47599500Y10418873D01*
X47626123Y10216661D01*
X47633730Y10158884D01*
X47701602Y9905582D01*
X47701605Y9905572D01*
X47801953Y9663310D01*
X47801958Y9663300D01*
X47933075Y9436197D01*
X48092718Y9228149D01*
X48092726Y9228140D01*
X48278140Y9042726D01*
X48278148Y9042719D01*
X48486196Y8883076D01*
X48713299Y8751959D01*
X48713309Y8751954D01*
X48955571Y8651606D01*
X48955581Y8651602D01*
X49208884Y8583730D01*
X49468880Y8549500D01*
X49468887Y8549500D01*
X49731113Y8549500D01*
X49731120Y8549500D01*
X49991116Y8583730D01*
X50244419Y8651602D01*
X50486697Y8751957D01*
X50713803Y8883076D01*
X50921851Y9042718D01*
X50921855Y9042723D01*
X50921860Y9042726D01*
X51107274Y9228140D01*
X51107277Y9228145D01*
X51107282Y9228149D01*
X51266924Y9436197D01*
X51398043Y9663303D01*
X51498398Y9905581D01*
X51566270Y10158884D01*
X51600500Y10418880D01*
X51600500Y10681120D01*
X51600499Y10681128D01*
X52599500Y10681128D01*
X52599500Y10418873D01*
X52626123Y10216661D01*
X52633730Y10158884D01*
X52701602Y9905582D01*
X52701605Y9905572D01*
X52801953Y9663310D01*
X52801958Y9663300D01*
X52933075Y9436197D01*
X53092718Y9228149D01*
X53092726Y9228140D01*
X53278140Y9042726D01*
X53278148Y9042719D01*
X53486196Y8883076D01*
X53713299Y8751959D01*
X53713309Y8751954D01*
X53955571Y8651606D01*
X53955581Y8651602D01*
X54208884Y8583730D01*
X54468880Y8549500D01*
X54468887Y8549500D01*
X54731113Y8549500D01*
X54731120Y8549500D01*
X54991116Y8583730D01*
X55244419Y8651602D01*
X55486697Y8751957D01*
X55713803Y8883076D01*
X55921851Y9042718D01*
X55921855Y9042723D01*
X55921860Y9042726D01*
X56107274Y9228140D01*
X56107277Y9228145D01*
X56107282Y9228149D01*
X56266924Y9436197D01*
X56398043Y9663303D01*
X56498398Y9905581D01*
X56566270Y10158884D01*
X56600500Y10418880D01*
X56600500Y10681120D01*
X56600499Y10681128D01*
X63849500Y10681128D01*
X63849500Y10418873D01*
X63876123Y10216661D01*
X63883730Y10158884D01*
X63951602Y9905582D01*
X63951605Y9905572D01*
X64051953Y9663310D01*
X64051958Y9663300D01*
X64183075Y9436197D01*
X64342718Y9228149D01*
X64342726Y9228140D01*
X64528140Y9042726D01*
X64528148Y9042719D01*
X64736196Y8883076D01*
X64963299Y8751959D01*
X64963309Y8751954D01*
X65205571Y8651606D01*
X65205581Y8651602D01*
X65458884Y8583730D01*
X65718880Y8549500D01*
X65718887Y8549500D01*
X65981113Y8549500D01*
X65981120Y8549500D01*
X66241116Y8583730D01*
X66494419Y8651602D01*
X66736697Y8751957D01*
X66963803Y8883076D01*
X67171851Y9042718D01*
X67171855Y9042723D01*
X67171860Y9042726D01*
X67357274Y9228140D01*
X67357277Y9228145D01*
X67357282Y9228149D01*
X67516924Y9436197D01*
X67648043Y9663303D01*
X67748398Y9905581D01*
X67816270Y10158884D01*
X67850500Y10418880D01*
X67850500Y10681120D01*
X67850499Y10681128D01*
X68849500Y10681128D01*
X68849500Y10418873D01*
X68876123Y10216661D01*
X68883730Y10158884D01*
X68951602Y9905582D01*
X68951605Y9905572D01*
X69051953Y9663310D01*
X69051958Y9663300D01*
X69183075Y9436197D01*
X69342718Y9228149D01*
X69342726Y9228140D01*
X69528140Y9042726D01*
X69528148Y9042719D01*
X69736196Y8883076D01*
X69963299Y8751959D01*
X69963309Y8751954D01*
X70205571Y8651606D01*
X70205581Y8651602D01*
X70458884Y8583730D01*
X70718880Y8549500D01*
X70718887Y8549500D01*
X70981113Y8549500D01*
X70981120Y8549500D01*
X71241116Y8583730D01*
X71494419Y8651602D01*
X71736697Y8751957D01*
X71963803Y8883076D01*
X72171851Y9042718D01*
X72171855Y9042723D01*
X72171860Y9042726D01*
X72357274Y9228140D01*
X72357277Y9228145D01*
X72357282Y9228149D01*
X72516924Y9436197D01*
X72648043Y9663303D01*
X72748398Y9905581D01*
X72816270Y10158884D01*
X72850500Y10418880D01*
X72850500Y10681120D01*
X72850499Y10681128D01*
X80099500Y10681128D01*
X80099500Y10418873D01*
X80126123Y10216661D01*
X80133730Y10158884D01*
X80201602Y9905582D01*
X80201605Y9905572D01*
X80301953Y9663310D01*
X80301958Y9663300D01*
X80433075Y9436197D01*
X80592718Y9228149D01*
X80592726Y9228140D01*
X80778140Y9042726D01*
X80778148Y9042719D01*
X80986196Y8883076D01*
X81213299Y8751959D01*
X81213309Y8751954D01*
X81455571Y8651606D01*
X81455581Y8651602D01*
X81708884Y8583730D01*
X81968880Y8549500D01*
X81968887Y8549500D01*
X82231113Y8549500D01*
X82231120Y8549500D01*
X82491116Y8583730D01*
X82744419Y8651602D01*
X82986697Y8751957D01*
X83213803Y8883076D01*
X83421851Y9042718D01*
X83421855Y9042723D01*
X83421860Y9042726D01*
X83607274Y9228140D01*
X83607277Y9228145D01*
X83607282Y9228149D01*
X83766924Y9436197D01*
X83898043Y9663303D01*
X83998398Y9905581D01*
X84066270Y10158884D01*
X84100500Y10418880D01*
X84100500Y10681120D01*
X84100499Y10681128D01*
X85099500Y10681128D01*
X85099500Y10418873D01*
X85126123Y10216661D01*
X85133730Y10158884D01*
X85201602Y9905582D01*
X85201605Y9905572D01*
X85301953Y9663310D01*
X85301958Y9663300D01*
X85433075Y9436197D01*
X85592718Y9228149D01*
X85592726Y9228140D01*
X85778140Y9042726D01*
X85778148Y9042719D01*
X85986196Y8883076D01*
X86213299Y8751959D01*
X86213309Y8751954D01*
X86455571Y8651606D01*
X86455581Y8651602D01*
X86708884Y8583730D01*
X86968880Y8549500D01*
X86968887Y8549500D01*
X87231113Y8549500D01*
X87231120Y8549500D01*
X87491116Y8583730D01*
X87744419Y8651602D01*
X87986697Y8751957D01*
X88213803Y8883076D01*
X88421851Y9042718D01*
X88421855Y9042723D01*
X88421860Y9042726D01*
X88607274Y9228140D01*
X88607277Y9228145D01*
X88607282Y9228149D01*
X88766924Y9436197D01*
X88898043Y9663303D01*
X88998398Y9905581D01*
X89066270Y10158884D01*
X89100500Y10418880D01*
X89100500Y10681120D01*
X89066270Y10941116D01*
X88998398Y11194419D01*
X88998394Y11194429D01*
X88898046Y11436691D01*
X88898041Y11436701D01*
X88766924Y11663804D01*
X88607281Y11871852D01*
X88607274Y11871860D01*
X88421860Y12057274D01*
X88421851Y12057282D01*
X88213803Y12216925D01*
X87986700Y12348042D01*
X87986690Y12348047D01*
X87744428Y12448395D01*
X87744421Y12448397D01*
X87744419Y12448398D01*
X87491116Y12516270D01*
X87433339Y12523877D01*
X87231127Y12550500D01*
X87231120Y12550500D01*
X86968880Y12550500D01*
X86968872Y12550500D01*
X86737772Y12520074D01*
X86708884Y12516270D01*
X86455581Y12448398D01*
X86455571Y12448395D01*
X86213309Y12348047D01*
X86213299Y12348042D01*
X85986196Y12216925D01*
X85778148Y12057282D01*
X85592718Y11871852D01*
X85433075Y11663804D01*
X85301958Y11436701D01*
X85301953Y11436691D01*
X85201605Y11194429D01*
X85201602Y11194419D01*
X85133730Y10941115D01*
X85099500Y10681128D01*
X84100499Y10681128D01*
X84066270Y10941116D01*
X83998398Y11194419D01*
X83998394Y11194429D01*
X83898046Y11436691D01*
X83898041Y11436701D01*
X83766924Y11663804D01*
X83607281Y11871852D01*
X83607274Y11871860D01*
X83421860Y12057274D01*
X83421851Y12057282D01*
X83213803Y12216925D01*
X82986700Y12348042D01*
X82986690Y12348047D01*
X82744428Y12448395D01*
X82744421Y12448397D01*
X82744419Y12448398D01*
X82491116Y12516270D01*
X82433339Y12523877D01*
X82231127Y12550500D01*
X82231120Y12550500D01*
X81968880Y12550500D01*
X81968872Y12550500D01*
X81737772Y12520074D01*
X81708884Y12516270D01*
X81455581Y12448398D01*
X81455571Y12448395D01*
X81213309Y12348047D01*
X81213299Y12348042D01*
X80986196Y12216925D01*
X80778148Y12057282D01*
X80592718Y11871852D01*
X80433075Y11663804D01*
X80301958Y11436701D01*
X80301953Y11436691D01*
X80201605Y11194429D01*
X80201602Y11194419D01*
X80133730Y10941115D01*
X80099500Y10681128D01*
X72850499Y10681128D01*
X72816270Y10941116D01*
X72748398Y11194419D01*
X72748394Y11194429D01*
X72648046Y11436691D01*
X72648041Y11436701D01*
X72516924Y11663804D01*
X72357281Y11871852D01*
X72357274Y11871860D01*
X72171860Y12057274D01*
X72171851Y12057282D01*
X71963803Y12216925D01*
X71736700Y12348042D01*
X71736690Y12348047D01*
X71494428Y12448395D01*
X71494421Y12448397D01*
X71494419Y12448398D01*
X71241116Y12516270D01*
X71183339Y12523877D01*
X70981127Y12550500D01*
X70981120Y12550500D01*
X70718880Y12550500D01*
X70718872Y12550500D01*
X70487772Y12520074D01*
X70458884Y12516270D01*
X70205581Y12448398D01*
X70205571Y12448395D01*
X69963309Y12348047D01*
X69963299Y12348042D01*
X69736196Y12216925D01*
X69528148Y12057282D01*
X69342718Y11871852D01*
X69183075Y11663804D01*
X69051958Y11436701D01*
X69051953Y11436691D01*
X68951605Y11194429D01*
X68951602Y11194419D01*
X68883730Y10941115D01*
X68849500Y10681128D01*
X67850499Y10681128D01*
X67816270Y10941116D01*
X67748398Y11194419D01*
X67748394Y11194429D01*
X67648046Y11436691D01*
X67648041Y11436701D01*
X67516924Y11663804D01*
X67357281Y11871852D01*
X67357274Y11871860D01*
X67171860Y12057274D01*
X67171851Y12057282D01*
X66963803Y12216925D01*
X66736700Y12348042D01*
X66736690Y12348047D01*
X66494428Y12448395D01*
X66494421Y12448397D01*
X66494419Y12448398D01*
X66241116Y12516270D01*
X66183339Y12523877D01*
X65981127Y12550500D01*
X65981120Y12550500D01*
X65718880Y12550500D01*
X65718872Y12550500D01*
X65487772Y12520074D01*
X65458884Y12516270D01*
X65205581Y12448398D01*
X65205571Y12448395D01*
X64963309Y12348047D01*
X64963299Y12348042D01*
X64736196Y12216925D01*
X64528148Y12057282D01*
X64342718Y11871852D01*
X64183075Y11663804D01*
X64051958Y11436701D01*
X64051953Y11436691D01*
X63951605Y11194429D01*
X63951602Y11194419D01*
X63883730Y10941115D01*
X63849500Y10681128D01*
X56600499Y10681128D01*
X56566270Y10941116D01*
X56498398Y11194419D01*
X56498394Y11194429D01*
X56398046Y11436691D01*
X56398041Y11436701D01*
X56266924Y11663804D01*
X56107281Y11871852D01*
X56107274Y11871860D01*
X55921860Y12057274D01*
X55921851Y12057282D01*
X55713803Y12216925D01*
X55486700Y12348042D01*
X55486690Y12348047D01*
X55244428Y12448395D01*
X55244421Y12448397D01*
X55244419Y12448398D01*
X54991116Y12516270D01*
X54933339Y12523877D01*
X54731127Y12550500D01*
X54731120Y12550500D01*
X54468880Y12550500D01*
X54468872Y12550500D01*
X54237772Y12520074D01*
X54208884Y12516270D01*
X53955581Y12448398D01*
X53955571Y12448395D01*
X53713309Y12348047D01*
X53713299Y12348042D01*
X53486196Y12216925D01*
X53278148Y12057282D01*
X53092718Y11871852D01*
X52933075Y11663804D01*
X52801958Y11436701D01*
X52801953Y11436691D01*
X52701605Y11194429D01*
X52701602Y11194419D01*
X52633730Y10941115D01*
X52599500Y10681128D01*
X51600499Y10681128D01*
X51566270Y10941116D01*
X51498398Y11194419D01*
X51498394Y11194429D01*
X51398046Y11436691D01*
X51398041Y11436701D01*
X51266924Y11663804D01*
X51107281Y11871852D01*
X51107274Y11871860D01*
X50921860Y12057274D01*
X50921851Y12057282D01*
X50713803Y12216925D01*
X50486700Y12348042D01*
X50486690Y12348047D01*
X50244428Y12448395D01*
X50244421Y12448397D01*
X50244419Y12448398D01*
X49991116Y12516270D01*
X49933339Y12523877D01*
X49731127Y12550500D01*
X49731120Y12550500D01*
X49468880Y12550500D01*
X49468872Y12550500D01*
X49237772Y12520074D01*
X49208884Y12516270D01*
X48955581Y12448398D01*
X48955571Y12448395D01*
X48713309Y12348047D01*
X48713299Y12348042D01*
X48486196Y12216925D01*
X48278148Y12057282D01*
X48092718Y11871852D01*
X47933075Y11663804D01*
X47801958Y11436701D01*
X47801953Y11436691D01*
X47701605Y11194429D01*
X47701602Y11194419D01*
X47633730Y10941115D01*
X47599500Y10681128D01*
X27100499Y10681128D01*
X27066270Y10941116D01*
X26998398Y11194419D01*
X26998394Y11194429D01*
X26898046Y11436691D01*
X26898041Y11436701D01*
X26766924Y11663804D01*
X26607281Y11871852D01*
X26607274Y11871860D01*
X26421860Y12057274D01*
X26421851Y12057282D01*
X26213803Y12216925D01*
X25986700Y12348042D01*
X25986690Y12348047D01*
X25744428Y12448395D01*
X25744421Y12448397D01*
X25744419Y12448398D01*
X25491116Y12516270D01*
X25433339Y12523877D01*
X25231127Y12550500D01*
X25231120Y12550500D01*
X24968880Y12550500D01*
X24968872Y12550500D01*
X24737772Y12520074D01*
X24708884Y12516270D01*
X24455581Y12448398D01*
X24455571Y12448395D01*
X24213309Y12348047D01*
X24213299Y12348042D01*
X23986196Y12216925D01*
X23778148Y12057282D01*
X23592718Y11871852D01*
X23433075Y11663804D01*
X23301958Y11436701D01*
X23301953Y11436691D01*
X23201605Y11194429D01*
X23201602Y11194419D01*
X23133730Y10941115D01*
X23099500Y10681128D01*
X22100499Y10681128D01*
X22066270Y10941116D01*
X21998398Y11194419D01*
X21998394Y11194429D01*
X21898046Y11436691D01*
X21898041Y11436701D01*
X21766924Y11663804D01*
X21607281Y11871852D01*
X21607274Y11871860D01*
X21421860Y12057274D01*
X21421851Y12057282D01*
X21213803Y12216925D01*
X20986700Y12348042D01*
X20986690Y12348047D01*
X20744428Y12448395D01*
X20744421Y12448397D01*
X20744419Y12448398D01*
X20491116Y12516270D01*
X20433339Y12523877D01*
X20231127Y12550500D01*
X20231120Y12550500D01*
X19968880Y12550500D01*
X19968872Y12550500D01*
X19737772Y12520074D01*
X19708884Y12516270D01*
X19455581Y12448398D01*
X19455571Y12448395D01*
X19213309Y12348047D01*
X19213299Y12348042D01*
X18986196Y12216925D01*
X18778148Y12057282D01*
X18592718Y11871852D01*
X18433075Y11663804D01*
X18301958Y11436701D01*
X18301953Y11436691D01*
X18201605Y11194429D01*
X18201602Y11194419D01*
X18133730Y10941115D01*
X18099500Y10681128D01*
X500500Y10681128D01*
X500500Y13652847D01*
X71303500Y13652847D01*
X71303500Y13495154D01*
X71334261Y13340511D01*
X71334264Y13340499D01*
X71394602Y13194828D01*
X71394609Y13194815D01*
X71482210Y13063712D01*
X71482213Y13063708D01*
X71593707Y12952214D01*
X71593711Y12952211D01*
X71724814Y12864610D01*
X71724827Y12864603D01*
X71870498Y12804265D01*
X71870503Y12804263D01*
X72025153Y12773501D01*
X72025156Y12773500D01*
X72025158Y12773500D01*
X72182844Y12773500D01*
X72182845Y12773501D01*
X72337497Y12804263D01*
X72483179Y12864606D01*
X72614289Y12952211D01*
X72725789Y13063711D01*
X72813394Y13194821D01*
X72873737Y13340503D01*
X72904500Y13495158D01*
X72904500Y13652842D01*
X72904500Y13652845D01*
X72904499Y13652847D01*
X72873738Y13807490D01*
X72873737Y13807497D01*
X72873735Y13807502D01*
X72813397Y13953173D01*
X72813390Y13953186D01*
X72725789Y14084289D01*
X72725786Y14084293D01*
X72614292Y14195787D01*
X72614288Y14195790D01*
X72483185Y14283391D01*
X72483172Y14283398D01*
X72337501Y14343736D01*
X72337489Y14343739D01*
X72182845Y14374500D01*
X72182842Y14374500D01*
X72025158Y14374500D01*
X72025155Y14374500D01*
X71870510Y14343739D01*
X71870498Y14343736D01*
X71724827Y14283398D01*
X71724814Y14283391D01*
X71593711Y14195790D01*
X71593707Y14195787D01*
X71482213Y14084293D01*
X71482210Y14084289D01*
X71394609Y13953186D01*
X71394602Y13953173D01*
X71334264Y13807502D01*
X71334261Y13807490D01*
X71303500Y13652847D01*
X500500Y13652847D01*
X500500Y23817847D01*
X20564400Y23817847D01*
X20564400Y23660154D01*
X20595161Y23505511D01*
X20595164Y23505499D01*
X20655502Y23359828D01*
X20655509Y23359815D01*
X20743110Y23228712D01*
X20743113Y23228708D01*
X20854607Y23117214D01*
X20854611Y23117211D01*
X20985714Y23029610D01*
X20985727Y23029603D01*
X21131398Y22969265D01*
X21131403Y22969263D01*
X21286053Y22938501D01*
X21286056Y22938500D01*
X21286058Y22938500D01*
X21443744Y22938500D01*
X21443745Y22938501D01*
X21598397Y22969263D01*
X21744079Y23029606D01*
X21875189Y23117211D01*
X21986689Y23228711D01*
X22074294Y23359821D01*
X22077398Y23364466D01*
X22131010Y23409271D01*
X22200335Y23417978D01*
X22263363Y23387824D01*
X22300082Y23328381D01*
X22304500Y23295575D01*
X22304500Y18530248D01*
X22316131Y18471771D01*
X22316132Y18471770D01*
X22360447Y18405448D01*
X22426769Y18361133D01*
X22426770Y18361132D01*
X22485247Y18349501D01*
X22485250Y18349500D01*
X22485252Y18349500D01*
X28524750Y18349500D01*
X28524751Y18349501D01*
X28539568Y18352448D01*
X28583229Y18361132D01*
X28583229Y18361133D01*
X28583231Y18361133D01*
X28649552Y18405448D01*
X28693867Y18471769D01*
X28693867Y18471771D01*
X28693868Y18471771D01*
X28705499Y18530248D01*
X28705500Y18530250D01*
X28705500Y23769751D01*
X28705499Y23769753D01*
X28693868Y23828230D01*
X28693867Y23828231D01*
X28649552Y23894553D01*
X28583230Y23938868D01*
X28583229Y23938869D01*
X28524752Y23950500D01*
X28524748Y23950500D01*
X22485252Y23950500D01*
X22485247Y23950500D01*
X22426770Y23938869D01*
X22426769Y23938868D01*
X22360446Y23894552D01*
X22351812Y23885917D01*
X22349509Y23888220D01*
X22311064Y23856105D01*
X22241737Y23847413D01*
X22178716Y23877583D01*
X22142011Y23937034D01*
X22139987Y23945601D01*
X22134637Y23972497D01*
X22134635Y23972502D01*
X22074297Y24118173D01*
X22074290Y24118186D01*
X21986689Y24249289D01*
X21986686Y24249293D01*
X21875192Y24360787D01*
X21875188Y24360790D01*
X21744085Y24448391D01*
X21744072Y24448398D01*
X21598401Y24508736D01*
X21598389Y24508739D01*
X21443745Y24539500D01*
X21443742Y24539500D01*
X21286058Y24539500D01*
X21286055Y24539500D01*
X21131410Y24508739D01*
X21131398Y24508736D01*
X20985727Y24448398D01*
X20985714Y24448391D01*
X20854611Y24360790D01*
X20854607Y24360787D01*
X20743113Y24249293D01*
X20743110Y24249289D01*
X20655509Y24118186D01*
X20655502Y24118173D01*
X20595164Y23972502D01*
X20595161Y23972490D01*
X20564400Y23817847D01*
X500500Y23817847D01*
X500500Y29342892D01*
X24924500Y29342892D01*
X24924500Y29211109D01*
X24958608Y29083813D01*
X24991554Y29026750D01*
X25024500Y28969686D01*
X25117686Y28876500D01*
X25216521Y28819437D01*
X25229314Y28812051D01*
X25231814Y28810608D01*
X25359108Y28776500D01*
X25359110Y28776500D01*
X25490890Y28776500D01*
X25490892Y28776500D01*
X25618186Y28810608D01*
X25732314Y28876500D01*
X25825500Y28969686D01*
X25891392Y29083814D01*
X25925500Y29211108D01*
X25925500Y29342892D01*
X25891392Y29470186D01*
X25886392Y29478847D01*
X33699500Y29478847D01*
X33699500Y29321154D01*
X33730261Y29166511D01*
X33730264Y29166499D01*
X33790602Y29020828D01*
X33790609Y29020815D01*
X33878210Y28889712D01*
X33878213Y28889708D01*
X33989707Y28778214D01*
X33989711Y28778211D01*
X34120814Y28690610D01*
X34120827Y28690603D01*
X34166254Y28671787D01*
X34266503Y28630263D01*
X34421153Y28599501D01*
X34421156Y28599500D01*
X34421158Y28599500D01*
X34578844Y28599500D01*
X34578845Y28599501D01*
X34733497Y28630263D01*
X34879179Y28690606D01*
X35010289Y28778211D01*
X35121789Y28889711D01*
X35209394Y29020821D01*
X35269737Y29166503D01*
X35300500Y29321158D01*
X35300500Y29478842D01*
X35300500Y29478845D01*
X35300499Y29478847D01*
X35279520Y29584314D01*
X35269737Y29633497D01*
X35264077Y29647161D01*
X35209397Y29779173D01*
X35209390Y29779186D01*
X35121789Y29910289D01*
X35121786Y29910293D01*
X35010292Y30021787D01*
X35010288Y30021790D01*
X34879185Y30109391D01*
X34879172Y30109398D01*
X34733501Y30169736D01*
X34733489Y30169739D01*
X34578845Y30200500D01*
X34578842Y30200500D01*
X34421158Y30200500D01*
X34421155Y30200500D01*
X34266510Y30169739D01*
X34266498Y30169736D01*
X34120827Y30109398D01*
X34120814Y30109391D01*
X33989711Y30021790D01*
X33989707Y30021787D01*
X33878213Y29910293D01*
X33878210Y29910289D01*
X33790609Y29779186D01*
X33790602Y29779173D01*
X33730264Y29633502D01*
X33730261Y29633490D01*
X33699500Y29478847D01*
X25886392Y29478847D01*
X25825500Y29584314D01*
X25732314Y29677500D01*
X25675250Y29710446D01*
X25618187Y29743392D01*
X25554539Y29760446D01*
X25490892Y29777500D01*
X25359108Y29777500D01*
X25231812Y29743392D01*
X25117686Y29677500D01*
X25117683Y29677498D01*
X25024502Y29584317D01*
X25024500Y29584314D01*
X24958608Y29470188D01*
X24924500Y29342892D01*
X500500Y29342892D01*
X500500Y30799847D01*
X18449500Y30799847D01*
X18449500Y30642154D01*
X18480261Y30487511D01*
X18480264Y30487499D01*
X18540602Y30341828D01*
X18540609Y30341815D01*
X18628210Y30210712D01*
X18628213Y30210708D01*
X18739707Y30099214D01*
X18739711Y30099211D01*
X18870814Y30011610D01*
X18870827Y30011603D01*
X19016498Y29951265D01*
X19016503Y29951263D01*
X19171153Y29920501D01*
X19171156Y29920500D01*
X19171158Y29920500D01*
X19328844Y29920500D01*
X19328845Y29920501D01*
X19483497Y29951263D01*
X19629179Y30011606D01*
X19760289Y30099211D01*
X19871789Y30210711D01*
X19959394Y30341821D01*
X20019737Y30487503D01*
X20050500Y30642158D01*
X20050500Y30799842D01*
X20050500Y30799845D01*
X20050499Y30799847D01*
X20019737Y30954497D01*
X20019735Y30954502D01*
X19959397Y31100173D01*
X19959390Y31100186D01*
X19871789Y31231289D01*
X19871786Y31231293D01*
X19760292Y31342787D01*
X19760288Y31342790D01*
X19629185Y31430391D01*
X19629172Y31430398D01*
X19483501Y31490736D01*
X19483489Y31490739D01*
X19328845Y31521500D01*
X19328842Y31521500D01*
X19171158Y31521500D01*
X19171155Y31521500D01*
X19016510Y31490739D01*
X19016498Y31490736D01*
X18870827Y31430398D01*
X18870814Y31430391D01*
X18739711Y31342790D01*
X18739707Y31342787D01*
X18628213Y31231293D01*
X18628210Y31231289D01*
X18540609Y31100186D01*
X18540602Y31100173D01*
X18480264Y30954502D01*
X18480261Y30954490D01*
X18449500Y30799847D01*
X500500Y30799847D01*
X500500Y34179847D01*
X17439000Y34179847D01*
X17439000Y34022154D01*
X17469761Y33867511D01*
X17469764Y33867499D01*
X17530102Y33721828D01*
X17530109Y33721815D01*
X17617710Y33590712D01*
X17617713Y33590708D01*
X17729207Y33479214D01*
X17729211Y33479211D01*
X17860314Y33391610D01*
X17860327Y33391603D01*
X17987698Y33338845D01*
X18006003Y33331263D01*
X18133943Y33305814D01*
X18160653Y33300501D01*
X18160656Y33300500D01*
X18160658Y33300500D01*
X18318344Y33300500D01*
X18318345Y33300501D01*
X18472997Y33331263D01*
X18616014Y33390503D01*
X18685480Y33397971D01*
X18747960Y33366696D01*
X18783612Y33306607D01*
X18785081Y33300133D01*
X18811661Y33166509D01*
X18811664Y33166499D01*
X18872002Y33020828D01*
X18872009Y33020815D01*
X18959610Y32889712D01*
X18959613Y32889708D01*
X19071107Y32778214D01*
X19071111Y32778211D01*
X19202214Y32690610D01*
X19202227Y32690603D01*
X19279756Y32658490D01*
X19347903Y32630263D01*
X19502553Y32599501D01*
X19502556Y32599500D01*
X19502558Y32599500D01*
X19660244Y32599500D01*
X19660245Y32599501D01*
X19814897Y32630263D01*
X19960579Y32690606D01*
X20091689Y32778211D01*
X20203189Y32889711D01*
X20290794Y33020821D01*
X20291675Y33022951D01*
X20292435Y33023894D01*
X20293664Y33026191D01*
X20294099Y33025959D01*
X20335515Y33077354D01*
X20401808Y33099421D01*
X20406238Y33099500D01*
X20818945Y33099500D01*
X20885984Y33079815D01*
X20931739Y33027011D01*
X20941683Y32957853D01*
X20922047Y32906609D01*
X20853609Y32804186D01*
X20853602Y32804173D01*
X20793264Y32658502D01*
X20793261Y32658490D01*
X20762500Y32503847D01*
X20762500Y32346154D01*
X20793261Y32191511D01*
X20793264Y32191499D01*
X20853602Y32045828D01*
X20853609Y32045815D01*
X20941210Y31914712D01*
X20941213Y31914708D01*
X21052707Y31803214D01*
X21052711Y31803211D01*
X21183814Y31715610D01*
X21183827Y31715603D01*
X21329498Y31655265D01*
X21329503Y31655263D01*
X21484153Y31624501D01*
X21484156Y31624500D01*
X21484158Y31624500D01*
X21641844Y31624500D01*
X21641845Y31624501D01*
X21796497Y31655263D01*
X21942179Y31715606D01*
X22073289Y31803211D01*
X22184789Y31914711D01*
X22272394Y32045821D01*
X22332737Y32191503D01*
X22363500Y32346158D01*
X22363500Y32503842D01*
X22363500Y32503845D01*
X22363499Y32503847D01*
X22344472Y32599501D01*
X22332737Y32658497D01*
X22332735Y32658502D01*
X22272397Y32804173D01*
X22272393Y32804180D01*
X22272389Y32804186D01*
X22238952Y32854228D01*
X22218075Y32920904D01*
X22236559Y32988284D01*
X22288538Y33034975D01*
X22357507Y33046151D01*
X22392367Y33034435D01*
X22392900Y33035720D01*
X22400409Y33032611D01*
X22400414Y33032608D01*
X22527708Y32998500D01*
X22527710Y32998500D01*
X22659490Y32998500D01*
X22659492Y32998500D01*
X22786786Y33032608D01*
X22900914Y33098500D01*
X22994100Y33191686D01*
X23059992Y33305814D01*
X23094100Y33433108D01*
X23094100Y33564892D01*
X23059992Y33692186D01*
X23058510Y33694753D01*
X24874500Y33694753D01*
X24874500Y31305248D01*
X24886131Y31246771D01*
X24886132Y31246770D01*
X24930447Y31180448D01*
X24996769Y31136133D01*
X24996770Y31136132D01*
X25055247Y31124501D01*
X25055250Y31124500D01*
X25055252Y31124500D01*
X28494750Y31124500D01*
X28494751Y31124501D01*
X28509568Y31127448D01*
X28553229Y31136132D01*
X28553229Y31136133D01*
X28553231Y31136133D01*
X28619552Y31180448D01*
X28663867Y31246769D01*
X28663867Y31246771D01*
X28663868Y31246771D01*
X28675499Y31305248D01*
X28675500Y31305250D01*
X28675500Y31615892D01*
X30099500Y31615892D01*
X30099500Y31484108D01*
X30113893Y31430391D01*
X30133608Y31356813D01*
X30163377Y31305252D01*
X30199500Y31242686D01*
X30292686Y31149500D01*
X30406814Y31083608D01*
X30534108Y31049500D01*
X30534110Y31049500D01*
X30665890Y31049500D01*
X30665892Y31049500D01*
X30793186Y31083608D01*
X30907314Y31149500D01*
X31000500Y31242686D01*
X31066392Y31356814D01*
X31100500Y31484108D01*
X31100500Y31615892D01*
X31066392Y31743186D01*
X31000500Y31857314D01*
X30907314Y31950500D01*
X30850250Y31983446D01*
X30793187Y32016392D01*
X30729539Y32033446D01*
X30665892Y32050500D01*
X30534108Y32050500D01*
X30406812Y32016392D01*
X30292686Y31950500D01*
X30292683Y31950498D01*
X30199502Y31857317D01*
X30199500Y31857314D01*
X30133608Y31743188D01*
X30126219Y31715610D01*
X30099500Y31615892D01*
X28675500Y31615892D01*
X28675500Y32625962D01*
X39399500Y32625962D01*
X39399500Y32374038D01*
X39428410Y32191511D01*
X39438910Y32125215D01*
X39516760Y31885617D01*
X39631132Y31661152D01*
X39779201Y31457351D01*
X39779205Y31457346D01*
X39957345Y31279206D01*
X39957350Y31279202D01*
X40093274Y31180448D01*
X40161155Y31131130D01*
X40304184Y31058253D01*
X40385616Y31016761D01*
X40385618Y31016761D01*
X40385621Y31016759D01*
X40625215Y30938910D01*
X40874038Y30899500D01*
X40874039Y30899500D01*
X41125961Y30899500D01*
X41125962Y30899500D01*
X41374785Y30938910D01*
X41614379Y31016759D01*
X41838845Y31131130D01*
X42042656Y31279207D01*
X42220793Y31457344D01*
X42368870Y31661155D01*
X42483241Y31885621D01*
X42561090Y32125215D01*
X42600500Y32374038D01*
X42600500Y32625962D01*
X42561090Y32874785D01*
X42483241Y33114379D01*
X42483239Y33114382D01*
X42483239Y33114384D01*
X42441747Y33195816D01*
X42368870Y33338845D01*
X42300384Y33433108D01*
X42220798Y33542650D01*
X42220794Y33542655D01*
X42042654Y33720795D01*
X42042649Y33720799D01*
X41838848Y33868868D01*
X41838847Y33868869D01*
X41838845Y33868870D01*
X41716345Y33931287D01*
X41614383Y33983240D01*
X41374785Y34061090D01*
X41125962Y34100500D01*
X40874038Y34100500D01*
X40749626Y34080795D01*
X40625214Y34061090D01*
X40385616Y33983240D01*
X40161151Y33868868D01*
X39957350Y33720799D01*
X39957345Y33720795D01*
X39779205Y33542655D01*
X39779201Y33542650D01*
X39631132Y33338849D01*
X39516760Y33114384D01*
X39438910Y32874786D01*
X39423614Y32778211D01*
X39399500Y32625962D01*
X28675500Y32625962D01*
X28675500Y33694751D01*
X28675499Y33694753D01*
X28663868Y33753230D01*
X28663867Y33753231D01*
X28619552Y33819553D01*
X28553230Y33863868D01*
X28553229Y33863869D01*
X28494752Y33875500D01*
X28494748Y33875500D01*
X25055252Y33875500D01*
X25055247Y33875500D01*
X24996770Y33863869D01*
X24996769Y33863868D01*
X24930447Y33819553D01*
X24886132Y33753231D01*
X24886131Y33753230D01*
X24874500Y33694753D01*
X23058510Y33694753D01*
X23015707Y33768890D01*
X23013683Y33773097D01*
X23008746Y33803150D01*
X23001565Y33832753D01*
X23003138Y33837299D01*
X23002359Y33842042D01*
X23014452Y33869990D01*
X23024417Y33898780D01*
X23028528Y33902518D01*
X23030107Y33906166D01*
X23039416Y33912416D01*
X23063421Y33934238D01*
X23103714Y33957500D01*
X23196900Y34050686D01*
X23262792Y34164814D01*
X23296900Y34292108D01*
X23296900Y34423892D01*
X23262792Y34551186D01*
X23196900Y34665314D01*
X23103714Y34758500D01*
X23046650Y34791446D01*
X22989587Y34824392D01*
X22925939Y34841446D01*
X22862292Y34858500D01*
X22730508Y34858500D01*
X22603212Y34824392D01*
X22489086Y34758500D01*
X22489083Y34758498D01*
X22425405Y34694819D01*
X22364082Y34661334D01*
X22337724Y34658500D01*
X19087878Y34658500D01*
X19020839Y34678185D01*
X18980502Y34720481D01*
X18976847Y34726809D01*
X18865022Y34838591D01*
X18865019Y34838593D01*
X18865017Y34838595D01*
X18728076Y34917622D01*
X18575338Y34958517D01*
X18417224Y34958485D01*
X18417220Y34958485D01*
X18264509Y34917532D01*
X18264507Y34917532D01*
X18264506Y34917531D01*
X18264504Y34917531D01*
X18256996Y34914418D01*
X18256466Y34915695D01*
X18203514Y34901500D01*
X18160655Y34901500D01*
X18006010Y34870739D01*
X18005998Y34870736D01*
X17860327Y34810398D01*
X17860314Y34810391D01*
X17729211Y34722790D01*
X17729207Y34722787D01*
X17617713Y34611293D01*
X17617710Y34611289D01*
X17530109Y34480186D01*
X17530102Y34480173D01*
X17469764Y34334502D01*
X17469761Y34334490D01*
X17439000Y34179847D01*
X500500Y34179847D01*
X500500Y35189355D01*
X53404500Y35189355D01*
X53404500Y29910637D01*
X53419953Y29793247D01*
X53419956Y29793238D01*
X53480464Y29647159D01*
X53576718Y29521718D01*
X53702159Y29425464D01*
X53848238Y29364956D01*
X53965639Y29349500D01*
X60044360Y29349501D01*
X60044363Y29349501D01*
X60161753Y29364954D01*
X60161757Y29364956D01*
X60161762Y29364956D01*
X60307841Y29425464D01*
X60433282Y29521718D01*
X60529536Y29647159D01*
X60590044Y29793238D01*
X60605500Y29910639D01*
X60605499Y35189360D01*
X60605499Y35189361D01*
X60605499Y35189364D01*
X60590046Y35306754D01*
X60590044Y35306761D01*
X60590044Y35306762D01*
X60529536Y35452841D01*
X60433282Y35578282D01*
X60307841Y35674536D01*
X60161762Y35735044D01*
X60161760Y35735045D01*
X60044370Y35750499D01*
X60044367Y35750500D01*
X60044361Y35750500D01*
X60044354Y35750500D01*
X53965636Y35750500D01*
X53848246Y35735047D01*
X53848237Y35735044D01*
X53702160Y35674537D01*
X53576718Y35578282D01*
X53480463Y35452840D01*
X53419956Y35306763D01*
X53419955Y35306761D01*
X53404501Y35189371D01*
X53404501Y35189364D01*
X53404500Y35189355D01*
X500500Y35189355D01*
X500500Y42169547D01*
X3520200Y42169547D01*
X3520200Y42011854D01*
X3550961Y41857211D01*
X3550964Y41857199D01*
X3611302Y41711528D01*
X3611309Y41711515D01*
X3698910Y41580412D01*
X3698913Y41580408D01*
X3810407Y41468914D01*
X3810411Y41468911D01*
X3941514Y41381310D01*
X3941527Y41381303D01*
X4087198Y41320965D01*
X4087203Y41320963D01*
X4241853Y41290201D01*
X4241856Y41290200D01*
X4241858Y41290200D01*
X4399544Y41290200D01*
X4399545Y41290201D01*
X4554197Y41320963D01*
X4699879Y41381306D01*
X4830989Y41468911D01*
X4942489Y41580411D01*
X4972924Y41625962D01*
X39399500Y41625962D01*
X39399500Y41374038D01*
X39412779Y41290201D01*
X39438910Y41125215D01*
X39516760Y40885617D01*
X39631132Y40661152D01*
X39779201Y40457351D01*
X39779205Y40457346D01*
X39957345Y40279206D01*
X39957350Y40279202D01*
X40075670Y40193238D01*
X40161155Y40131130D01*
X40304184Y40058253D01*
X40385616Y40016761D01*
X40385618Y40016761D01*
X40385621Y40016759D01*
X40625215Y39938910D01*
X40874038Y39899500D01*
X40874039Y39899500D01*
X41125961Y39899500D01*
X41125962Y39899500D01*
X41374785Y39938910D01*
X41614379Y40016759D01*
X41838845Y40131130D01*
X42042656Y40279207D01*
X42220793Y40457344D01*
X42368870Y40661155D01*
X42483241Y40885621D01*
X42561090Y41125215D01*
X42600500Y41374038D01*
X42600500Y41625962D01*
X42561090Y41874785D01*
X42483241Y42114379D01*
X42483239Y42114382D01*
X42483239Y42114384D01*
X42441747Y42195816D01*
X42368870Y42338845D01*
X42273673Y42469873D01*
X42220798Y42542650D01*
X42220794Y42542655D01*
X42042654Y42720795D01*
X42042649Y42720799D01*
X41838848Y42868868D01*
X41838847Y42868869D01*
X41838845Y42868870D01*
X41768747Y42904587D01*
X41614383Y42983240D01*
X41374785Y43061090D01*
X41372222Y43061496D01*
X41125962Y43100500D01*
X40874038Y43100500D01*
X40749626Y43080795D01*
X40625214Y43061090D01*
X40385616Y42983240D01*
X40161151Y42868868D01*
X39957350Y42720799D01*
X39957345Y42720795D01*
X39779205Y42542655D01*
X39779201Y42542650D01*
X39631132Y42338849D01*
X39516760Y42114384D01*
X39438910Y41874786D01*
X39432350Y41833365D01*
X39399500Y41625962D01*
X4972924Y41625962D01*
X4977713Y41633129D01*
X5022213Y41699725D01*
X5030091Y41711517D01*
X5030094Y41711521D01*
X5090437Y41857203D01*
X5121200Y42011858D01*
X5121200Y42169542D01*
X5121200Y42169545D01*
X5121199Y42169547D01*
X5090438Y42324190D01*
X5090437Y42324197D01*
X5071631Y42369599D01*
X5030097Y42469873D01*
X5030090Y42469886D01*
X4942489Y42600989D01*
X4942486Y42600993D01*
X4861532Y42681947D01*
X18684500Y42681947D01*
X18684500Y42524254D01*
X18715261Y42369611D01*
X18715264Y42369599D01*
X18775602Y42223928D01*
X18775609Y42223915D01*
X18863210Y42092812D01*
X18863213Y42092808D01*
X18974707Y41981314D01*
X18974711Y41981311D01*
X19105814Y41893710D01*
X19105827Y41893703D01*
X19193957Y41857199D01*
X19251503Y41833363D01*
X19406153Y41802601D01*
X19406156Y41802600D01*
X19406158Y41802600D01*
X19563844Y41802600D01*
X19563845Y41802601D01*
X19718497Y41833363D01*
X19864179Y41893706D01*
X19995289Y41981311D01*
X20106789Y42092811D01*
X20194394Y42223921D01*
X20254737Y42369603D01*
X20280682Y42500035D01*
X20313067Y42561946D01*
X20373782Y42596520D01*
X20443552Y42592781D01*
X20500224Y42551914D01*
X20505401Y42544735D01*
X20602935Y42398766D01*
X20602938Y42398762D01*
X20728361Y42273339D01*
X20728365Y42273336D01*
X20875846Y42174791D01*
X20875859Y42174784D01*
X20998763Y42123877D01*
X21039734Y42106906D01*
X21039736Y42106906D01*
X21039741Y42106904D01*
X21213704Y42072301D01*
X21213707Y42072300D01*
X21213709Y42072300D01*
X21391093Y42072300D01*
X21391094Y42072301D01*
X21449082Y42083836D01*
X21565058Y42106904D01*
X21565061Y42106906D01*
X21565066Y42106906D01*
X21728947Y42174787D01*
X21876435Y42273336D01*
X22001864Y42398765D01*
X22100413Y42546253D01*
X22168294Y42710134D01*
X22168763Y42712489D01*
X22202899Y42884105D01*
X22202900Y42884107D01*
X22202900Y43061494D01*
X22202899Y43061496D01*
X22168296Y43235459D01*
X22168293Y43235468D01*
X22100416Y43399341D01*
X22100409Y43399354D01*
X22001864Y43546835D01*
X22001861Y43546839D01*
X21876438Y43672262D01*
X21876434Y43672265D01*
X21728953Y43770810D01*
X21728940Y43770817D01*
X21565067Y43838694D01*
X21565058Y43838697D01*
X21391094Y43873300D01*
X21391091Y43873300D01*
X21213709Y43873300D01*
X21213706Y43873300D01*
X21039741Y43838697D01*
X21039732Y43838694D01*
X20875859Y43770817D01*
X20875846Y43770810D01*
X20728365Y43672265D01*
X20728361Y43672262D01*
X20602938Y43546839D01*
X20602935Y43546835D01*
X20504390Y43399354D01*
X20504383Y43399341D01*
X20436506Y43235468D01*
X20436503Y43235459D01*
X20400711Y43055517D01*
X20398123Y43056032D01*
X20376205Y43001842D01*
X20319147Y42961516D01*
X20249346Y42958440D01*
X20188961Y42993590D01*
X20175906Y43009949D01*
X20106789Y43113389D01*
X20106786Y43113393D01*
X19995292Y43224887D01*
X19995288Y43224890D01*
X19864185Y43312491D01*
X19864172Y43312498D01*
X19718501Y43372836D01*
X19718489Y43372839D01*
X19563845Y43403600D01*
X19563842Y43403600D01*
X19406158Y43403600D01*
X19406155Y43403600D01*
X19251510Y43372839D01*
X19251498Y43372836D01*
X19105827Y43312498D01*
X19105814Y43312491D01*
X18974711Y43224890D01*
X18974707Y43224887D01*
X18863213Y43113393D01*
X18863210Y43113389D01*
X18775609Y42982286D01*
X18775602Y42982273D01*
X18715264Y42836602D01*
X18715261Y42836590D01*
X18684500Y42681947D01*
X4861532Y42681947D01*
X4830992Y42712487D01*
X4830988Y42712490D01*
X4699885Y42800091D01*
X4699872Y42800098D01*
X4554201Y42860436D01*
X4554189Y42860439D01*
X4399545Y42891200D01*
X4399542Y42891200D01*
X4241858Y42891200D01*
X4241855Y42891200D01*
X4087210Y42860439D01*
X4087198Y42860436D01*
X3941527Y42800098D01*
X3941514Y42800091D01*
X3810411Y42712490D01*
X3810407Y42712487D01*
X3698913Y42600993D01*
X3698910Y42600989D01*
X3611309Y42469886D01*
X3611302Y42469873D01*
X3550964Y42324202D01*
X3550961Y42324190D01*
X3520200Y42169547D01*
X500500Y42169547D01*
X500500Y45589355D01*
X53404500Y45589355D01*
X53404500Y40310637D01*
X53419953Y40193247D01*
X53419956Y40193238D01*
X53469331Y40074035D01*
X53480464Y40047159D01*
X53576718Y39921718D01*
X53702159Y39825464D01*
X53848238Y39764956D01*
X53965639Y39749500D01*
X60044360Y39749501D01*
X60044363Y39749501D01*
X60161753Y39764954D01*
X60161757Y39764956D01*
X60161762Y39764956D01*
X60307841Y39825464D01*
X60433282Y39921718D01*
X60529536Y40047159D01*
X60590044Y40193238D01*
X60605500Y40310639D01*
X60605499Y43709237D01*
X60625184Y43776275D01*
X60677988Y43822030D01*
X60747146Y43831974D01*
X60753668Y43830857D01*
X60834657Y43814747D01*
X60911306Y43799500D01*
X60911309Y43799500D01*
X61088693Y43799500D01*
X61088694Y43799501D01*
X61146682Y43811036D01*
X61262658Y43834104D01*
X61262661Y43834106D01*
X61262666Y43834106D01*
X61357290Y43873300D01*
X61402548Y43892046D01*
X61472017Y43899515D01*
X61497452Y43892046D01*
X61542710Y43873300D01*
X61637334Y43834106D01*
X61637336Y43834106D01*
X61637341Y43834104D01*
X61811304Y43799501D01*
X61811307Y43799500D01*
X61811309Y43799500D01*
X61988693Y43799500D01*
X61988694Y43799501D01*
X62046682Y43811036D01*
X62162658Y43834104D01*
X62162661Y43834106D01*
X62162666Y43834106D01*
X62326547Y43901987D01*
X62474035Y44000536D01*
X62535028Y44061530D01*
X62596349Y44095013D01*
X62666041Y44090029D01*
X62691599Y44076949D01*
X62820814Y43990610D01*
X62820827Y43990603D01*
X62966498Y43930265D01*
X62966503Y43930263D01*
X63108635Y43901991D01*
X63121153Y43899501D01*
X63121156Y43899500D01*
X63121158Y43899500D01*
X63278844Y43899500D01*
X63278845Y43899501D01*
X63433497Y43930263D01*
X63552548Y43979575D01*
X63622017Y43987044D01*
X63647453Y43979575D01*
X63766503Y43930263D01*
X63908635Y43901991D01*
X63921153Y43899501D01*
X63921156Y43899500D01*
X63921158Y43899500D01*
X64078844Y43899500D01*
X64078845Y43899501D01*
X64233497Y43930263D01*
X64352548Y43979575D01*
X64422017Y43987044D01*
X64447453Y43979575D01*
X64566503Y43930263D01*
X64708635Y43901991D01*
X64721153Y43899501D01*
X64721156Y43899500D01*
X64721158Y43899500D01*
X64878844Y43899500D01*
X64878845Y43899501D01*
X65033497Y43930263D01*
X65179179Y43990606D01*
X65310289Y44078211D01*
X65421789Y44189711D01*
X65509394Y44320821D01*
X65569737Y44466503D01*
X65600500Y44621158D01*
X65600500Y44778842D01*
X65600500Y44778845D01*
X65600499Y44778847D01*
X65569738Y44933490D01*
X65569737Y44933497D01*
X65509397Y45079172D01*
X65509397Y45079173D01*
X65509390Y45079186D01*
X65421789Y45210289D01*
X65421786Y45210293D01*
X65310292Y45321787D01*
X65310288Y45321790D01*
X65180609Y45408439D01*
X65135804Y45462051D01*
X65125500Y45511541D01*
X65125500Y54216324D01*
X65145185Y54283363D01*
X65161819Y54304005D01*
X65162319Y54304505D01*
X65200500Y54342686D01*
X65266392Y54456814D01*
X65300500Y54584108D01*
X65300500Y54715892D01*
X65266392Y54843186D01*
X65200500Y54957314D01*
X65107314Y55050500D01*
X65050250Y55083446D01*
X64993187Y55116392D01*
X64929539Y55133446D01*
X64865892Y55150500D01*
X64734108Y55150500D01*
X64606812Y55116392D01*
X64492686Y55050500D01*
X64492683Y55050498D01*
X64487681Y55045495D01*
X64426358Y55012010D01*
X64356666Y55016994D01*
X64312319Y55045495D01*
X64307316Y55050498D01*
X64307314Y55050500D01*
X64250250Y55083446D01*
X64193187Y55116392D01*
X64129539Y55133446D01*
X64065892Y55150500D01*
X63934108Y55150500D01*
X63806812Y55116392D01*
X63692686Y55050500D01*
X63692683Y55050498D01*
X63687681Y55045495D01*
X63626358Y55012010D01*
X63556666Y55016994D01*
X63512319Y55045495D01*
X63507316Y55050498D01*
X63507314Y55050500D01*
X63450250Y55083446D01*
X63393187Y55116392D01*
X63329539Y55133446D01*
X63265892Y55150500D01*
X63134108Y55150500D01*
X63006812Y55116392D01*
X62892686Y55050500D01*
X62892683Y55050498D01*
X62799502Y54957317D01*
X62799500Y54957314D01*
X62733608Y54843188D01*
X62728601Y54824500D01*
X62699500Y54715892D01*
X62699500Y54584108D01*
X62702971Y54571154D01*
X62733608Y54456813D01*
X62766554Y54399750D01*
X62799500Y54342686D01*
X62799502Y54342684D01*
X62838181Y54304005D01*
X62871666Y54242682D01*
X62874500Y54216324D01*
X62874500Y45511541D01*
X62854815Y45444502D01*
X62819390Y45408438D01*
X62691598Y45323051D01*
X62624921Y45302174D01*
X62557541Y45320659D01*
X62535027Y45338473D01*
X62474038Y45399462D01*
X62474034Y45399465D01*
X62406631Y45444502D01*
X62326547Y45498013D01*
X62326544Y45498015D01*
X62326543Y45498015D01*
X62302045Y45508163D01*
X62247643Y45552005D01*
X62225579Y45618299D01*
X62225500Y45622723D01*
X62225500Y54216324D01*
X62245185Y54283363D01*
X62261819Y54304005D01*
X62262319Y54304505D01*
X62300500Y54342686D01*
X62366392Y54456814D01*
X62400500Y54584108D01*
X62400500Y54715892D01*
X62366392Y54843186D01*
X62300500Y54957314D01*
X62207314Y55050500D01*
X62150250Y55083446D01*
X62093187Y55116392D01*
X62029539Y55133446D01*
X61965892Y55150500D01*
X61834108Y55150500D01*
X61706812Y55116392D01*
X61592686Y55050500D01*
X61592683Y55050498D01*
X61537681Y54995495D01*
X61476358Y54962010D01*
X61406666Y54966994D01*
X61362319Y54995495D01*
X61307316Y55050498D01*
X61307314Y55050500D01*
X61250250Y55083446D01*
X61193187Y55116392D01*
X61129539Y55133446D01*
X61065892Y55150500D01*
X60934108Y55150500D01*
X60806812Y55116392D01*
X60692686Y55050500D01*
X60692683Y55050498D01*
X60599502Y54957317D01*
X60599500Y54957314D01*
X60533608Y54843188D01*
X60528601Y54824500D01*
X60499500Y54715892D01*
X60499500Y54584108D01*
X60502971Y54571154D01*
X60533608Y54456813D01*
X60566554Y54399750D01*
X60599500Y54342686D01*
X60599502Y54342684D01*
X60638181Y54304005D01*
X60671666Y54242682D01*
X60674500Y54216324D01*
X60674500Y46029213D01*
X60654815Y45962174D01*
X60602011Y45916419D01*
X60532853Y45906475D01*
X60469297Y45935500D01*
X60452125Y45953725D01*
X60445642Y45962174D01*
X60433282Y45978282D01*
X60307841Y46074536D01*
X60274498Y46088347D01*
X60161762Y46135044D01*
X60161760Y46135045D01*
X60044370Y46150499D01*
X60044367Y46150500D01*
X60044361Y46150500D01*
X60044354Y46150500D01*
X53965636Y46150500D01*
X53848246Y46135047D01*
X53848237Y46135044D01*
X53702160Y46074537D01*
X53576718Y45978282D01*
X53480463Y45852840D01*
X53419956Y45706763D01*
X53419955Y45706761D01*
X53404501Y45589371D01*
X53404500Y45589355D01*
X500500Y45589355D01*
X500500Y49644947D01*
X5199500Y49644947D01*
X5199500Y49487254D01*
X5230261Y49332611D01*
X5230264Y49332599D01*
X5290602Y49186928D01*
X5290609Y49186915D01*
X5378210Y49055812D01*
X5378213Y49055808D01*
X5489707Y48944314D01*
X5489711Y48944311D01*
X5620814Y48856710D01*
X5620827Y48856703D01*
X5766498Y48796365D01*
X5766503Y48796363D01*
X5921153Y48765601D01*
X5921156Y48765600D01*
X5921158Y48765600D01*
X6078844Y48765600D01*
X6078845Y48765601D01*
X6233497Y48796363D01*
X6379179Y48856706D01*
X6510289Y48944311D01*
X6621789Y49055811D01*
X6709394Y49186921D01*
X6769737Y49332603D01*
X6800500Y49487258D01*
X6800500Y49644942D01*
X6800500Y49644945D01*
X6800499Y49644947D01*
X6769738Y49799590D01*
X6769737Y49799597D01*
X6769735Y49799602D01*
X6709397Y49945273D01*
X6709390Y49945286D01*
X6621789Y50076389D01*
X6621786Y50076393D01*
X6510292Y50187887D01*
X6510288Y50187890D01*
X6379185Y50275491D01*
X6379172Y50275498D01*
X6233501Y50335836D01*
X6233489Y50335839D01*
X6078845Y50366600D01*
X6078842Y50366600D01*
X5921158Y50366600D01*
X5921155Y50366600D01*
X5766510Y50335839D01*
X5766498Y50335836D01*
X5620827Y50275498D01*
X5620814Y50275491D01*
X5489711Y50187890D01*
X5489707Y50187887D01*
X5378213Y50076393D01*
X5378210Y50076389D01*
X5290609Y49945286D01*
X5290602Y49945273D01*
X5230264Y49799602D01*
X5230261Y49799590D01*
X5199500Y49644947D01*
X500500Y49644947D01*
X500500Y57326847D01*
X6612900Y57326847D01*
X6612900Y57169154D01*
X6643661Y57014511D01*
X6643664Y57014499D01*
X6704002Y56868828D01*
X6704009Y56868815D01*
X6791610Y56737712D01*
X6791613Y56737708D01*
X6903107Y56626214D01*
X6903111Y56626211D01*
X7034214Y56538610D01*
X7034227Y56538603D01*
X7166639Y56483757D01*
X7179903Y56478263D01*
X7323161Y56449767D01*
X7334553Y56447501D01*
X7334556Y56447500D01*
X7334558Y56447500D01*
X7492244Y56447500D01*
X7492245Y56447501D01*
X7646897Y56478263D01*
X7792579Y56538606D01*
X7923689Y56626211D01*
X8035189Y56737711D01*
X8122794Y56868821D01*
X8183137Y57014503D01*
X8213900Y57169158D01*
X8213900Y57326842D01*
X8213900Y57326845D01*
X8213899Y57326847D01*
X8193825Y57427766D01*
X8183137Y57481497D01*
X8180803Y57487133D01*
X8122797Y57627173D01*
X8122790Y57627186D01*
X8035189Y57758289D01*
X8035186Y57758293D01*
X7923692Y57869787D01*
X7923688Y57869790D01*
X7792585Y57957391D01*
X7792572Y57957398D01*
X7646901Y58017736D01*
X7646889Y58017739D01*
X7492245Y58048500D01*
X7492242Y58048500D01*
X7334558Y58048500D01*
X7334555Y58048500D01*
X7179910Y58017739D01*
X7179898Y58017736D01*
X7034227Y57957398D01*
X7034214Y57957391D01*
X6903111Y57869790D01*
X6903107Y57869787D01*
X6791613Y57758293D01*
X6791610Y57758289D01*
X6704009Y57627186D01*
X6704002Y57627173D01*
X6643664Y57481502D01*
X6643661Y57481490D01*
X6612900Y57326847D01*
X500500Y57326847D01*
X500500Y60425000D01*
X13487639Y60425000D01*
X13541047Y60296062D01*
X13541052Y60296052D01*
X13628598Y60165031D01*
X13628601Y60165027D01*
X13740026Y60053602D01*
X13740034Y60053596D01*
X13871047Y59966056D01*
X13871065Y59966046D01*
X13999999Y59912640D01*
X14000000Y59912640D01*
X14500000Y59912640D01*
X14628934Y59966046D01*
X14628952Y59966056D01*
X14759965Y60053596D01*
X14759973Y60053602D01*
X14862319Y60155947D01*
X14923642Y60189432D01*
X14993334Y60184448D01*
X15037681Y60155947D01*
X15140026Y60053602D01*
X15140034Y60053596D01*
X15271047Y59966056D01*
X15271065Y59966046D01*
X15399999Y59912640D01*
X15400000Y59912640D01*
X15900000Y59912640D01*
X16028934Y59966046D01*
X16028952Y59966056D01*
X16159965Y60053596D01*
X16159973Y60053602D01*
X16271398Y60165027D01*
X16271401Y60165031D01*
X16358947Y60296052D01*
X16358952Y60296062D01*
X16412361Y60425000D01*
X15900000Y60425000D01*
X15900000Y59912640D01*
X15400000Y59912640D01*
X15400000Y60425000D01*
X14500000Y60425000D01*
X14500000Y59912640D01*
X14000000Y59912640D01*
X14000000Y60425000D01*
X13487639Y60425000D01*
X500500Y60425000D01*
X500500Y60704837D01*
X14100000Y60704837D01*
X14100000Y60645163D01*
X14122836Y60590032D01*
X14165032Y60547836D01*
X14220163Y60525000D01*
X14279837Y60525000D01*
X14334968Y60547836D01*
X14377164Y60590032D01*
X14400000Y60645163D01*
X14400000Y60704837D01*
X15500000Y60704837D01*
X15500000Y60645163D01*
X15522836Y60590032D01*
X15565032Y60547836D01*
X15620163Y60525000D01*
X15679837Y60525000D01*
X15734968Y60547836D01*
X15777164Y60590032D01*
X15800000Y60645163D01*
X15800000Y60704837D01*
X15777164Y60759968D01*
X15734968Y60802164D01*
X15679837Y60825000D01*
X15620163Y60825000D01*
X15565032Y60802164D01*
X15522836Y60759968D01*
X15500000Y60704837D01*
X14400000Y60704837D01*
X14377164Y60759968D01*
X14334968Y60802164D01*
X14279837Y60825000D01*
X14220163Y60825000D01*
X14165032Y60802164D01*
X14122836Y60759968D01*
X14100000Y60704837D01*
X500500Y60704837D01*
X500500Y60925001D01*
X13487639Y60925001D01*
X13487639Y60925000D01*
X14000000Y60925000D01*
X14500000Y60925000D01*
X15400000Y60925000D01*
X15900000Y60925000D01*
X16412361Y60925000D01*
X16412360Y60925001D01*
X16358953Y61053938D01*
X16324093Y61106108D01*
X16303215Y61172786D01*
X16321699Y61240166D01*
X16324093Y61243892D01*
X16358953Y61296063D01*
X16412361Y61425000D01*
X15900000Y61425000D01*
X15900000Y60925000D01*
X15400000Y60925000D01*
X15400000Y61425000D01*
X14500000Y61425000D01*
X14500000Y60925000D01*
X14000000Y60925000D01*
X14000000Y61425000D01*
X13487639Y61425000D01*
X13541047Y61296062D01*
X13541055Y61296047D01*
X13575905Y61243890D01*
X13596783Y61177213D01*
X13578298Y61109833D01*
X13575905Y61106110D01*
X13541055Y61053954D01*
X13541047Y61053939D01*
X13487639Y60925001D01*
X500500Y60925001D01*
X500500Y61704837D01*
X14100000Y61704837D01*
X14100000Y61645163D01*
X14122836Y61590032D01*
X14165032Y61547836D01*
X14220163Y61525000D01*
X14279837Y61525000D01*
X14334968Y61547836D01*
X14377164Y61590032D01*
X14400000Y61645163D01*
X14400000Y61704837D01*
X15500000Y61704837D01*
X15500000Y61645163D01*
X15522836Y61590032D01*
X15565032Y61547836D01*
X15620163Y61525000D01*
X15679837Y61525000D01*
X15734968Y61547836D01*
X15777164Y61590032D01*
X15800000Y61645163D01*
X15800000Y61704837D01*
X15777164Y61759968D01*
X15734968Y61802164D01*
X15679837Y61825000D01*
X15620163Y61825000D01*
X15565032Y61802164D01*
X15522836Y61759968D01*
X15500000Y61704837D01*
X14400000Y61704837D01*
X14377164Y61759968D01*
X14334968Y61802164D01*
X14279837Y61825000D01*
X14220163Y61825000D01*
X14165032Y61802164D01*
X14122836Y61759968D01*
X14100000Y61704837D01*
X500500Y61704837D01*
X500500Y63002192D01*
X12601200Y63002192D01*
X12601200Y62870409D01*
X12635308Y62743113D01*
X12657407Y62704837D01*
X12701200Y62628986D01*
X12794386Y62535800D01*
X12908514Y62469908D01*
X13035808Y62435800D01*
X13035810Y62435800D01*
X13167590Y62435800D01*
X13167592Y62435800D01*
X13294886Y62469908D01*
X13312975Y62480352D01*
X13380871Y62496826D01*
X13446899Y62473976D01*
X13489537Y62420419D01*
X13541049Y62296057D01*
X13575905Y62243891D01*
X13596783Y62177214D01*
X13578298Y62109834D01*
X13575906Y62106111D01*
X13541051Y62053947D01*
X13541047Y62053939D01*
X13487639Y61925001D01*
X13487639Y61925000D01*
X14000000Y61925000D01*
X14500000Y61925000D01*
X15400000Y61925000D01*
X15900000Y61925000D01*
X16412361Y61925000D01*
X16412360Y61925001D01*
X16358953Y62053938D01*
X16324093Y62106108D01*
X16303215Y62172786D01*
X16321699Y62240166D01*
X16324093Y62243892D01*
X16358953Y62296063D01*
X16412361Y62425000D01*
X15900000Y62425000D01*
X15900000Y61925000D01*
X15400000Y61925000D01*
X15400000Y62425000D01*
X14500000Y62425000D01*
X14500000Y61925000D01*
X14000000Y61925000D01*
X14000000Y62463496D01*
X29860300Y62463496D01*
X29860300Y62286105D01*
X29894903Y62112142D01*
X29894906Y62112133D01*
X29962783Y61948260D01*
X29962790Y61948247D01*
X30061335Y61800766D01*
X30061338Y61800762D01*
X30186761Y61675339D01*
X30186765Y61675336D01*
X30334246Y61576791D01*
X30334259Y61576784D01*
X30381258Y61557317D01*
X30498134Y61508906D01*
X30545118Y61499561D01*
X30607027Y61467178D01*
X30608607Y61465625D01*
X33149078Y58925153D01*
X33149081Y58925151D01*
X33149084Y58925148D01*
X33272006Y58843016D01*
X33408588Y58786442D01*
X33408592Y58786442D01*
X33408593Y58786441D01*
X33553580Y58757600D01*
X33553583Y58757600D01*
X33701419Y58757600D01*
X33798961Y58777004D01*
X33846412Y58786442D01*
X33982994Y58843016D01*
X34105916Y58925148D01*
X34202050Y59021283D01*
X34263371Y59054766D01*
X34289730Y59057600D01*
X76328984Y59057600D01*
X76396023Y59037915D01*
X76416678Y59021268D01*
X76942495Y58495292D01*
X76975971Y58433964D01*
X76970976Y58364273D01*
X76929096Y58308346D01*
X76886896Y58287850D01*
X76806814Y58266392D01*
X76806812Y58266392D01*
X76806812Y58266391D01*
X76692686Y58200500D01*
X76692683Y58200498D01*
X76599502Y58107317D01*
X76599500Y58107314D01*
X76533608Y57993188D01*
X76499500Y57865892D01*
X76499500Y57734109D01*
X76533608Y57606813D01*
X76551155Y57576421D01*
X76599500Y57492686D01*
X76692686Y57399500D01*
X76766494Y57356887D01*
X76814709Y57306320D01*
X76827931Y57237712D01*
X76801963Y57172848D01*
X76745049Y57132320D01*
X76704493Y57125500D01*
X72533676Y57125500D01*
X72466637Y57145185D01*
X72445995Y57161819D01*
X72407316Y57200498D01*
X72407314Y57200500D01*
X72342861Y57237712D01*
X72293187Y57266392D01*
X72229539Y57283446D01*
X72165892Y57300500D01*
X72034108Y57300500D01*
X71906812Y57266392D01*
X71792686Y57200500D01*
X71792683Y57200498D01*
X71787681Y57195495D01*
X71726358Y57162010D01*
X71656666Y57166994D01*
X71612319Y57195495D01*
X71607316Y57200498D01*
X71607314Y57200500D01*
X71542861Y57237712D01*
X71493187Y57266392D01*
X71429539Y57283446D01*
X71365892Y57300500D01*
X71234108Y57300500D01*
X71106812Y57266392D01*
X70992686Y57200500D01*
X70992683Y57200498D01*
X70987681Y57195495D01*
X70926358Y57162010D01*
X70856666Y57166994D01*
X70812319Y57195495D01*
X70807316Y57200498D01*
X70807314Y57200500D01*
X70742861Y57237712D01*
X70693187Y57266392D01*
X70629539Y57283446D01*
X70565892Y57300500D01*
X70434108Y57300500D01*
X70306812Y57266392D01*
X70192686Y57200500D01*
X70192683Y57200498D01*
X70187681Y57195495D01*
X70126358Y57162010D01*
X70056666Y57166994D01*
X70012319Y57195495D01*
X70007316Y57200498D01*
X70007314Y57200500D01*
X69942861Y57237712D01*
X69893187Y57266392D01*
X69829539Y57283446D01*
X69765892Y57300500D01*
X69634108Y57300500D01*
X69506812Y57266392D01*
X69392686Y57200500D01*
X69392683Y57200498D01*
X69387681Y57195495D01*
X69326358Y57162010D01*
X69256666Y57166994D01*
X69212319Y57195495D01*
X69207316Y57200498D01*
X69207314Y57200500D01*
X69142861Y57237712D01*
X69093187Y57266392D01*
X69029539Y57283446D01*
X68965892Y57300500D01*
X68834108Y57300500D01*
X68706812Y57266392D01*
X68592686Y57200500D01*
X68592683Y57200498D01*
X68499502Y57107317D01*
X68499500Y57107314D01*
X68433608Y56993188D01*
X68399500Y56865892D01*
X68399500Y56734109D01*
X68433608Y56606813D01*
X68466554Y56549750D01*
X68499500Y56492686D01*
X68499502Y56492684D01*
X68538181Y56454005D01*
X68571666Y56392682D01*
X68574500Y56366324D01*
X68574500Y54707148D01*
X68596682Y54624360D01*
X68614873Y54592853D01*
X68639535Y54550138D01*
X69300138Y53889535D01*
X69374361Y53846682D01*
X69457147Y53824500D01*
X76750500Y53824500D01*
X76817539Y53804815D01*
X76863294Y53752011D01*
X76874500Y53700500D01*
X76874500Y46083003D01*
X76854815Y46015964D01*
X76802011Y45970209D01*
X76732853Y45960265D01*
X76675014Y45984627D01*
X76557842Y46074536D01*
X76411762Y46135044D01*
X76411760Y46135045D01*
X76294370Y46150499D01*
X76294367Y46150500D01*
X76294361Y46150500D01*
X76294354Y46150500D01*
X70215636Y46150500D01*
X70098246Y46135047D01*
X70098237Y46135044D01*
X69952160Y46074537D01*
X69826718Y45978282D01*
X69730463Y45852840D01*
X69669956Y45706763D01*
X69669955Y45706761D01*
X69654501Y45589371D01*
X69654500Y45589355D01*
X69654500Y40310637D01*
X69669953Y40193247D01*
X69669956Y40193238D01*
X69719331Y40074035D01*
X69730464Y40047159D01*
X69826718Y39921718D01*
X69952159Y39825464D01*
X70098238Y39764956D01*
X70215639Y39749500D01*
X76294360Y39749501D01*
X76294363Y39749501D01*
X76411753Y39764954D01*
X76411757Y39764956D01*
X76411762Y39764956D01*
X76557841Y39825464D01*
X76675015Y39915376D01*
X76740183Y39940568D01*
X76808627Y39926530D01*
X76858617Y39877716D01*
X76874500Y39816998D01*
X76874500Y35683003D01*
X76854815Y35615964D01*
X76802011Y35570209D01*
X76732853Y35560265D01*
X76675014Y35584627D01*
X76557842Y35674536D01*
X76411762Y35735044D01*
X76411760Y35735045D01*
X76294370Y35750499D01*
X76294367Y35750500D01*
X76294361Y35750500D01*
X76294354Y35750500D01*
X70215636Y35750500D01*
X70098246Y35735047D01*
X70098237Y35735044D01*
X69952160Y35674537D01*
X69826718Y35578282D01*
X69730463Y35452840D01*
X69669956Y35306763D01*
X69669955Y35306761D01*
X69654501Y35189371D01*
X69654501Y35189364D01*
X69654500Y35189355D01*
X69654500Y29910637D01*
X69669953Y29793247D01*
X69669956Y29793238D01*
X69730464Y29647159D01*
X69826718Y29521718D01*
X69952159Y29425464D01*
X70098238Y29364956D01*
X70215639Y29349500D01*
X76294360Y29349501D01*
X76294363Y29349501D01*
X76411753Y29364954D01*
X76411757Y29364956D01*
X76411762Y29364956D01*
X76557841Y29425464D01*
X76675015Y29515376D01*
X76740183Y29540568D01*
X76808627Y29526530D01*
X76858617Y29477716D01*
X76874500Y29416998D01*
X76874500Y17511541D01*
X76854815Y17444502D01*
X76819391Y17408439D01*
X76689711Y17321790D01*
X76689707Y17321787D01*
X76578213Y17210293D01*
X76578210Y17210289D01*
X76490609Y17079186D01*
X76490602Y17079173D01*
X76430264Y16933502D01*
X76430261Y16933490D01*
X76399500Y16778847D01*
X76399500Y16621154D01*
X76430261Y16466511D01*
X76430264Y16466499D01*
X76490602Y16320828D01*
X76490609Y16320815D01*
X76578210Y16189712D01*
X76578213Y16189708D01*
X76689707Y16078214D01*
X76689711Y16078211D01*
X76820814Y15990610D01*
X76820827Y15990603D01*
X76915932Y15951210D01*
X76966503Y15930263D01*
X77121153Y15899501D01*
X77121156Y15899500D01*
X77121158Y15899500D01*
X77278844Y15899500D01*
X77278845Y15899501D01*
X77433497Y15930263D01*
X77579179Y15990606D01*
X77710289Y16078211D01*
X77761193Y16129115D01*
X77822516Y16162601D01*
X77892208Y16157617D01*
X77948141Y16115746D01*
X77968648Y16073532D01*
X78001423Y15951216D01*
X78001424Y15951215D01*
X78001426Y15951210D01*
X78080475Y15814291D01*
X78080479Y15814286D01*
X78080480Y15814284D01*
X78192284Y15702480D01*
X78192286Y15702479D01*
X78192290Y15702476D01*
X78329209Y15623427D01*
X78329216Y15623423D01*
X78481943Y15582500D01*
X78481945Y15582500D01*
X78640055Y15582500D01*
X78640057Y15582500D01*
X78792784Y15623423D01*
X78929716Y15702480D01*
X79041520Y15814284D01*
X79120577Y15951216D01*
X79161500Y16103943D01*
X79161500Y16262057D01*
X79120577Y16414784D01*
X79090720Y16466499D01*
X79041524Y16551710D01*
X79041518Y16551718D01*
X78929717Y16663519D01*
X78929709Y16663525D01*
X78792790Y16742574D01*
X78792786Y16742576D01*
X78792784Y16742577D01*
X78640057Y16783500D01*
X78481943Y16783500D01*
X78329216Y16742577D01*
X78329209Y16742574D01*
X78186499Y16660181D01*
X78118599Y16643708D01*
X78052572Y16666561D01*
X78009382Y16721482D01*
X78000500Y16767568D01*
X78000500Y16778845D01*
X78000499Y16778847D01*
X77969738Y16933490D01*
X77969737Y16933497D01*
X77969735Y16933502D01*
X77909397Y17079173D01*
X77909390Y17079186D01*
X77821789Y17210289D01*
X77821786Y17210293D01*
X77710292Y17321787D01*
X77710288Y17321790D01*
X77580609Y17408439D01*
X77535804Y17462051D01*
X77525500Y17511541D01*
X77525500Y23323800D01*
X77545185Y23390839D01*
X77597989Y23436594D01*
X77667147Y23446538D01*
X77696952Y23438361D01*
X77701218Y23436594D01*
X77716503Y23430263D01*
X77871153Y23399501D01*
X77871156Y23399500D01*
X77871158Y23399500D01*
X78028844Y23399500D01*
X78028845Y23399501D01*
X78183497Y23430263D01*
X78329179Y23490606D01*
X78460289Y23578211D01*
X78571789Y23689711D01*
X78659394Y23820821D01*
X78719737Y23966503D01*
X78750500Y24121158D01*
X78750500Y24278842D01*
X78750500Y24278845D01*
X78750499Y24278847D01*
X78734200Y24360787D01*
X78719737Y24433497D01*
X78713565Y24448398D01*
X78659397Y24579173D01*
X78659390Y24579186D01*
X78571789Y24710289D01*
X78571786Y24710293D01*
X78460292Y24821787D01*
X78460288Y24821790D01*
X78330609Y24908439D01*
X78285804Y24962051D01*
X78275500Y25011541D01*
X78275500Y27173800D01*
X78295185Y27240839D01*
X78347989Y27286594D01*
X78417147Y27296538D01*
X78446946Y27288363D01*
X78466502Y27280263D01*
X78621152Y27249501D01*
X78621155Y27249500D01*
X78621157Y27249500D01*
X78778843Y27249500D01*
X78778844Y27249501D01*
X78933496Y27280263D01*
X79079178Y27340606D01*
X79210288Y27428211D01*
X79321788Y27539711D01*
X79409393Y27670821D01*
X79469736Y27816503D01*
X79500499Y27971158D01*
X79500499Y28128842D01*
X79500499Y28128845D01*
X79500498Y28128847D01*
X79469737Y28283490D01*
X79469736Y28283497D01*
X79469734Y28283502D01*
X79409396Y28429173D01*
X79409389Y28429186D01*
X79321788Y28560289D01*
X79321785Y28560293D01*
X79210291Y28671787D01*
X79210287Y28671790D01*
X79080608Y28758439D01*
X79035803Y28812051D01*
X79025499Y28861541D01*
X79025499Y35189355D01*
X85904500Y35189355D01*
X85904500Y29910637D01*
X85919953Y29793247D01*
X85919956Y29793238D01*
X85980464Y29647159D01*
X86076718Y29521718D01*
X86202159Y29425464D01*
X86348238Y29364956D01*
X86465639Y29349500D01*
X92544360Y29349501D01*
X92544363Y29349501D01*
X92661753Y29364954D01*
X92661757Y29364956D01*
X92661762Y29364956D01*
X92807841Y29425464D01*
X92933282Y29521718D01*
X93029536Y29647159D01*
X93090044Y29793238D01*
X93105500Y29910639D01*
X93105499Y35189360D01*
X93105499Y35189361D01*
X93105499Y35189364D01*
X93090046Y35306754D01*
X93090044Y35306761D01*
X93090044Y35306762D01*
X93029536Y35452841D01*
X92933282Y35578282D01*
X92807841Y35674536D01*
X92661762Y35735044D01*
X92661760Y35735045D01*
X92544370Y35750499D01*
X92544367Y35750500D01*
X92544361Y35750500D01*
X92544354Y35750500D01*
X86465636Y35750500D01*
X86348246Y35735047D01*
X86348237Y35735044D01*
X86202160Y35674537D01*
X86076718Y35578282D01*
X85980463Y35452840D01*
X85919956Y35306763D01*
X85919955Y35306761D01*
X85904501Y35189371D01*
X85904501Y35189364D01*
X85904500Y35189355D01*
X79025499Y35189355D01*
X79025499Y38669086D01*
X79045184Y38736125D01*
X79097988Y38781880D01*
X79167146Y38791824D01*
X79218391Y38772188D01*
X79323453Y38701987D01*
X79472954Y38640063D01*
X79527355Y38596224D01*
X79549420Y38529930D01*
X79549499Y38525503D01*
X79549499Y38361305D01*
X79584102Y38187342D01*
X79584105Y38187333D01*
X79651982Y38023460D01*
X79651989Y38023447D01*
X79750534Y37875966D01*
X79750537Y37875962D01*
X79875960Y37750539D01*
X79875964Y37750536D01*
X80023445Y37651991D01*
X80023458Y37651984D01*
X80146362Y37601077D01*
X80187333Y37584106D01*
X80187335Y37584106D01*
X80187340Y37584104D01*
X80361303Y37549501D01*
X80361306Y37549500D01*
X80361308Y37549500D01*
X80538692Y37549500D01*
X80538693Y37549501D01*
X80596681Y37561036D01*
X80712657Y37584104D01*
X80712660Y37584106D01*
X80712665Y37584106D01*
X80876546Y37651987D01*
X81024034Y37750536D01*
X81149463Y37875965D01*
X81248012Y38023453D01*
X81315893Y38187334D01*
X81350499Y38361309D01*
X81350499Y38538691D01*
X81350499Y38538694D01*
X81350498Y38538696D01*
X81315895Y38712659D01*
X81315892Y38712668D01*
X81248015Y38876541D01*
X81248008Y38876554D01*
X81149463Y39024035D01*
X81149460Y39024039D01*
X81024037Y39149462D01*
X81024033Y39149465D01*
X80975314Y39182018D01*
X80876546Y39248013D01*
X80876543Y39248015D01*
X80876542Y39248015D01*
X80852044Y39258163D01*
X80797642Y39302005D01*
X80775578Y39368299D01*
X80775499Y39372723D01*
X80775499Y45589355D01*
X85904500Y45589355D01*
X85904500Y40310637D01*
X85919953Y40193247D01*
X85919956Y40193238D01*
X85969331Y40074035D01*
X85980464Y40047159D01*
X86076718Y39921718D01*
X86202159Y39825464D01*
X86348238Y39764956D01*
X86465639Y39749500D01*
X92544360Y39749501D01*
X92544363Y39749501D01*
X92661753Y39764954D01*
X92661757Y39764956D01*
X92661762Y39764956D01*
X92807841Y39825464D01*
X92933282Y39921718D01*
X93029536Y40047159D01*
X93090044Y40193238D01*
X93105500Y40310639D01*
X93105499Y43709237D01*
X93125184Y43776275D01*
X93177988Y43822030D01*
X93247146Y43831974D01*
X93253668Y43830857D01*
X93334657Y43814747D01*
X93411306Y43799500D01*
X93411309Y43799500D01*
X93588693Y43799500D01*
X93588694Y43799501D01*
X93646682Y43811036D01*
X93762658Y43834104D01*
X93762661Y43834106D01*
X93762666Y43834106D01*
X93857290Y43873300D01*
X93902548Y43892046D01*
X93972017Y43899515D01*
X93997452Y43892046D01*
X94042710Y43873300D01*
X94137334Y43834106D01*
X94137336Y43834106D01*
X94137341Y43834104D01*
X94311304Y43799501D01*
X94311307Y43799500D01*
X94311309Y43799500D01*
X94488693Y43799500D01*
X94488694Y43799501D01*
X94546682Y43811036D01*
X94662658Y43834104D01*
X94662661Y43834106D01*
X94662666Y43834106D01*
X94826547Y43901987D01*
X94974035Y44000536D01*
X95035028Y44061530D01*
X95096349Y44095013D01*
X95166041Y44090029D01*
X95191599Y44076949D01*
X95320814Y43990610D01*
X95320827Y43990603D01*
X95466498Y43930265D01*
X95466503Y43930263D01*
X95608635Y43901991D01*
X95621153Y43899501D01*
X95621156Y43899500D01*
X95621158Y43899500D01*
X95778844Y43899500D01*
X95778845Y43899501D01*
X95933497Y43930263D01*
X96052548Y43979575D01*
X96122017Y43987044D01*
X96147453Y43979575D01*
X96266503Y43930263D01*
X96408635Y43901991D01*
X96421153Y43899501D01*
X96421156Y43899500D01*
X96421158Y43899500D01*
X96578844Y43899500D01*
X96578845Y43899501D01*
X96733497Y43930263D01*
X96852548Y43979575D01*
X96922017Y43987044D01*
X96947453Y43979575D01*
X97066503Y43930263D01*
X97208635Y43901991D01*
X97221153Y43899501D01*
X97221156Y43899500D01*
X97221158Y43899500D01*
X97378844Y43899500D01*
X97378845Y43899501D01*
X97533497Y43930263D01*
X97679179Y43990606D01*
X97810289Y44078211D01*
X97921789Y44189711D01*
X98009394Y44320821D01*
X98069737Y44466503D01*
X98100500Y44621158D01*
X98100500Y44778842D01*
X98100500Y44778845D01*
X98100499Y44778847D01*
X98069738Y44933490D01*
X98069737Y44933497D01*
X98009394Y45079179D01*
X97946397Y45173461D01*
X97925520Y45240137D01*
X97925500Y45242350D01*
X97925500Y54107650D01*
X97945185Y54174689D01*
X97946398Y54176541D01*
X97972980Y54216324D01*
X98009394Y54270821D01*
X98069737Y54416503D01*
X98100500Y54571158D01*
X98100500Y54728842D01*
X98100500Y54728845D01*
X98100499Y54728847D01*
X98077755Y54843188D01*
X98069737Y54883497D01*
X98057654Y54912668D01*
X98009397Y55029173D01*
X98009390Y55029186D01*
X97921789Y55160289D01*
X97921786Y55160293D01*
X97810292Y55271787D01*
X97810288Y55271790D01*
X97679185Y55359391D01*
X97679172Y55359398D01*
X97533501Y55419736D01*
X97533489Y55419739D01*
X97378845Y55450500D01*
X97378842Y55450500D01*
X97221158Y55450500D01*
X97221155Y55450500D01*
X97066510Y55419739D01*
X97066498Y55419736D01*
X96947452Y55370426D01*
X96877982Y55362957D01*
X96852548Y55370426D01*
X96733501Y55419736D01*
X96733489Y55419739D01*
X96578845Y55450500D01*
X96578842Y55450500D01*
X96421158Y55450500D01*
X96421155Y55450500D01*
X96266510Y55419739D01*
X96266498Y55419736D01*
X96147452Y55370426D01*
X96077982Y55362957D01*
X96052548Y55370426D01*
X95933501Y55419736D01*
X95933489Y55419739D01*
X95778845Y55450500D01*
X95778842Y55450500D01*
X95621158Y55450500D01*
X95621155Y55450500D01*
X95466510Y55419739D01*
X95466498Y55419736D01*
X95320827Y55359398D01*
X95320809Y55359388D01*
X95191598Y55273052D01*
X95124921Y55252174D01*
X95057541Y55270659D01*
X95035027Y55288473D01*
X94974038Y55349462D01*
X94974034Y55349465D01*
X94826553Y55448010D01*
X94826540Y55448017D01*
X94662667Y55515894D01*
X94662658Y55515897D01*
X94488694Y55550500D01*
X94488691Y55550500D01*
X94311309Y55550500D01*
X94311306Y55550500D01*
X94137341Y55515897D01*
X94137332Y55515894D01*
X93997452Y55457954D01*
X93927983Y55450485D01*
X93902548Y55457954D01*
X93762667Y55515894D01*
X93762658Y55515897D01*
X93588694Y55550500D01*
X93588691Y55550500D01*
X93411309Y55550500D01*
X93411306Y55550500D01*
X93237341Y55515897D01*
X93237332Y55515894D01*
X93073459Y55448017D01*
X93073446Y55448010D01*
X92925965Y55349465D01*
X92925961Y55349462D01*
X92800538Y55224039D01*
X92800535Y55224035D01*
X92701990Y55076554D01*
X92701983Y55076541D01*
X92634106Y54912668D01*
X92634103Y54912659D01*
X92599500Y54738696D01*
X92599500Y54561305D01*
X92634103Y54387342D01*
X92634106Y54387333D01*
X92701984Y54223458D01*
X92701985Y54223457D01*
X92701987Y54223453D01*
X92753602Y54146207D01*
X92774480Y54079530D01*
X92774500Y54077316D01*
X92774500Y46261597D01*
X92754815Y46194558D01*
X92702011Y46148803D01*
X92634315Y46138658D01*
X92544371Y46150499D01*
X92544366Y46150500D01*
X92544361Y46150500D01*
X92544354Y46150500D01*
X86465636Y46150500D01*
X86348246Y46135047D01*
X86348237Y46135044D01*
X86202160Y46074537D01*
X86076718Y45978282D01*
X85980463Y45852840D01*
X85919956Y45706763D01*
X85919955Y45706761D01*
X85904501Y45589371D01*
X85904500Y45589355D01*
X80775499Y45589355D01*
X80775499Y56242851D01*
X80775499Y56242853D01*
X80753317Y56325638D01*
X80753317Y56325639D01*
X80710464Y56399862D01*
X80049861Y57060465D01*
X80012749Y57081892D01*
X79975639Y57103318D01*
X79934245Y57114409D01*
X79892852Y57125500D01*
X79892851Y57125500D01*
X77295507Y57125500D01*
X77228468Y57145185D01*
X77182713Y57197989D01*
X77172769Y57267147D01*
X77201794Y57330703D01*
X77233506Y57356887D01*
X77307314Y57399500D01*
X77400500Y57492686D01*
X77466392Y57606814D01*
X77487802Y57686719D01*
X77524164Y57746376D01*
X77587010Y57776906D01*
X77656386Y57768612D01*
X77695269Y57742291D01*
X77860983Y57576528D01*
X77861077Y57576421D01*
X77866511Y57570987D01*
X77903828Y57533670D01*
X77950332Y57487152D01*
X77950334Y57487151D01*
X77950335Y57487150D01*
X77950383Y57487113D01*
X77973940Y57473513D01*
X77999788Y57458589D01*
X77999799Y57458577D01*
X77999802Y57458580D01*
X78053067Y57427818D01*
X78053087Y57427807D01*
X78053098Y57427802D01*
X78053519Y57427693D01*
X78115485Y57411090D01*
X78115503Y57411079D01*
X78115505Y57411084D01*
X78167623Y57397110D01*
X78167624Y57397110D01*
X78167631Y57397108D01*
X78167690Y57397101D01*
X78167691Y57397100D01*
X78233521Y57397100D01*
X78233528Y57397100D01*
X78286241Y57397092D01*
X78286244Y57397094D01*
X78294247Y57397092D01*
X78294386Y57397100D01*
X78983852Y57397100D01*
X79038219Y57397089D01*
X79038219Y57397090D01*
X79038222Y57397089D01*
X79038306Y57397100D01*
X79038309Y57397100D01*
X79096272Y57412632D01*
X79096297Y57412632D01*
X79096296Y57412638D01*
X79114220Y57417438D01*
X79152803Y57427766D01*
X79152809Y57427770D01*
X79152879Y57427799D01*
X79152879Y57427800D01*
X79152886Y57427801D01*
X79200333Y57455195D01*
X79255542Y57487055D01*
X79255542Y57487056D01*
X79255573Y57487073D01*
X79255576Y57487076D01*
X79255610Y57487110D01*
X79255613Y57487111D01*
X79293010Y57524510D01*
X79293031Y57524522D01*
X79293027Y57524526D01*
X79514966Y57746376D01*
X80477276Y58708301D01*
X80538603Y58741771D01*
X80548756Y58743540D01*
X80556045Y58744500D01*
X80556057Y58744500D01*
X80708784Y58785423D01*
X80845716Y58864480D01*
X80957520Y58976284D01*
X81036577Y59113216D01*
X81077500Y59265943D01*
X81077500Y59424057D01*
X81036577Y59576784D01*
X81036573Y59576791D01*
X80957524Y59713710D01*
X80957518Y59713718D01*
X80845717Y59825519D01*
X80845709Y59825525D01*
X80708790Y59904574D01*
X80708786Y59904576D01*
X80708784Y59904577D01*
X80556057Y59945500D01*
X80397943Y59945500D01*
X80245216Y59904577D01*
X80245209Y59904574D01*
X80108290Y59825525D01*
X80108282Y59825519D01*
X79996481Y59713718D01*
X79996477Y59713713D01*
X79929814Y59598247D01*
X79879247Y59550032D01*
X79810640Y59536808D01*
X79745776Y59562776D01*
X79705247Y59619690D01*
X79699488Y59676437D01*
X79700497Y59684102D01*
X79700499Y59684108D01*
X79700499Y59815892D01*
X79666391Y59943186D01*
X79600499Y60057314D01*
X79507313Y60150500D01*
X79450249Y60183446D01*
X79393186Y60216392D01*
X79329538Y60233446D01*
X79265891Y60250500D01*
X79134107Y60250500D01*
X79006811Y60216392D01*
X78892685Y60150500D01*
X78892682Y60150498D01*
X78799501Y60057317D01*
X78799499Y60057314D01*
X78733607Y59943188D01*
X78701147Y59822044D01*
X78699499Y59815892D01*
X78699499Y59684108D01*
X78716553Y59620461D01*
X78733607Y59556813D01*
X78745157Y59536808D01*
X78799499Y59442686D01*
X78799500Y59442685D01*
X78803563Y59435648D01*
X78801590Y59434509D01*
X78822535Y59380324D01*
X78808494Y59311880D01*
X78759678Y59261892D01*
X78691586Y59246232D01*
X78666877Y59250236D01*
X78665892Y59250500D01*
X78534108Y59250500D01*
X78406812Y59216392D01*
X78292686Y59150500D01*
X78292683Y59150498D01*
X78199502Y59057317D01*
X78199500Y59057314D01*
X78133608Y58943186D01*
X78128776Y58925151D01*
X78112084Y58862856D01*
X78075719Y58803196D01*
X78012872Y58772667D01*
X77943496Y58780962D01*
X77904615Y58807282D01*
X77288025Y59424057D01*
X76933269Y59778921D01*
X76933182Y59779020D01*
X76890171Y59822031D01*
X76843668Y59868548D01*
X76843667Y59868549D01*
X76843665Y59868551D01*
X76843620Y59868585D01*
X76796661Y59895697D01*
X76796649Y59895710D01*
X76796647Y59895706D01*
X76740937Y59927881D01*
X76740909Y59927892D01*
X76740888Y59927898D01*
X76740886Y59927899D01*
X76681547Y59943799D01*
X76681546Y59943800D01*
X76681546Y59943802D01*
X76681530Y59943804D01*
X76626340Y59958600D01*
X76626309Y59958600D01*
X76560479Y59958600D01*
X76560436Y59958601D01*
X76507759Y59958608D01*
X76507758Y59958608D01*
X76499752Y59958609D01*
X76499614Y59958600D01*
X34289730Y59958600D01*
X34222691Y59978285D01*
X34202049Y59994919D01*
X33509944Y60687024D01*
X71335575Y60687024D01*
X71335575Y60687023D01*
X71346184Y60679933D01*
X71346189Y60679931D01*
X71509979Y60612087D01*
X71509987Y60612085D01*
X71683853Y60577501D01*
X71683857Y60577500D01*
X71861143Y60577500D01*
X71861146Y60577501D01*
X72035012Y60612085D01*
X72035024Y60612088D01*
X72198806Y60679928D01*
X72209423Y60687024D01*
X72835575Y60687024D01*
X72835575Y60687023D01*
X72846184Y60679933D01*
X72846189Y60679931D01*
X73009979Y60612087D01*
X73009987Y60612085D01*
X73183853Y60577501D01*
X73183857Y60577500D01*
X73361143Y60577500D01*
X73361146Y60577501D01*
X73535012Y60612085D01*
X73535024Y60612088D01*
X73698806Y60679928D01*
X73709423Y60687024D01*
X74335575Y60687024D01*
X74335575Y60687023D01*
X74346184Y60679933D01*
X74346189Y60679931D01*
X74509979Y60612087D01*
X74509987Y60612085D01*
X74683853Y60577501D01*
X74683857Y60577500D01*
X74861143Y60577500D01*
X74861146Y60577501D01*
X75035012Y60612085D01*
X75035024Y60612088D01*
X75198806Y60679928D01*
X75209422Y60687024D01*
X75209423Y60687024D01*
X74772501Y61123946D01*
X74772500Y61123946D01*
X74335575Y60687024D01*
X73709423Y60687024D01*
X73272501Y61123946D01*
X73272500Y61123946D01*
X72835575Y60687024D01*
X72209423Y60687024D01*
X71772501Y61123946D01*
X71772500Y61123946D01*
X71335575Y60687024D01*
X33509944Y60687024D01*
X32630821Y61566147D01*
X70872500Y61566147D01*
X70872500Y61388854D01*
X70907084Y61214988D01*
X70907086Y61214980D01*
X70974930Y61051189D01*
X70982022Y61040577D01*
X71418946Y61477500D01*
X71369218Y61527228D01*
X71522500Y61527228D01*
X71522500Y61427772D01*
X71560560Y61335886D01*
X71630886Y61265560D01*
X71722772Y61227500D01*
X71822228Y61227500D01*
X71914114Y61265560D01*
X71984440Y61335886D01*
X72022500Y61427772D01*
X72022500Y61477500D01*
X72126054Y61477500D01*
X72522500Y61081054D01*
X72918946Y61477500D01*
X72869218Y61527228D01*
X73022500Y61527228D01*
X73022500Y61427772D01*
X73060560Y61335886D01*
X73130886Y61265560D01*
X73222772Y61227500D01*
X73322228Y61227500D01*
X73414114Y61265560D01*
X73484440Y61335886D01*
X73522500Y61427772D01*
X73522500Y61477500D01*
X73626054Y61477500D01*
X74022500Y61081054D01*
X74418946Y61477500D01*
X74369218Y61527228D01*
X74522500Y61527228D01*
X74522500Y61427772D01*
X74560560Y61335886D01*
X74630886Y61265560D01*
X74722772Y61227500D01*
X74822228Y61227500D01*
X74914114Y61265560D01*
X74984440Y61335886D01*
X75022500Y61427772D01*
X75022500Y61477501D01*
X75126054Y61477501D01*
X75126054Y61477499D01*
X75562976Y61040577D01*
X75562976Y61040578D01*
X75570072Y61051194D01*
X75637912Y61214976D01*
X75637915Y61214988D01*
X75672499Y61388854D01*
X75672500Y61388857D01*
X75672500Y61566143D01*
X75672499Y61566147D01*
X75637915Y61740013D01*
X75637913Y61740021D01*
X75570069Y61903811D01*
X75570067Y61903816D01*
X75562977Y61914425D01*
X75126054Y61477501D01*
X75022500Y61477501D01*
X75022500Y61527228D01*
X74984440Y61619114D01*
X74914114Y61689440D01*
X74822228Y61727500D01*
X74722772Y61727500D01*
X74630886Y61689440D01*
X74560560Y61619114D01*
X74522500Y61527228D01*
X74369218Y61527228D01*
X74022500Y61873946D01*
X73626054Y61477500D01*
X73522500Y61477500D01*
X73522500Y61527228D01*
X73484440Y61619114D01*
X73414114Y61689440D01*
X73322228Y61727500D01*
X73222772Y61727500D01*
X73130886Y61689440D01*
X73060560Y61619114D01*
X73022500Y61527228D01*
X72869218Y61527228D01*
X72522500Y61873946D01*
X72126054Y61477500D01*
X72022500Y61477500D01*
X72022500Y61527228D01*
X71984440Y61619114D01*
X71914114Y61689440D01*
X71822228Y61727500D01*
X71722772Y61727500D01*
X71630886Y61689440D01*
X71560560Y61619114D01*
X71522500Y61527228D01*
X71369218Y61527228D01*
X70982022Y61914424D01*
X70982021Y61914424D01*
X70974929Y61903809D01*
X70907086Y61740021D01*
X70907084Y61740013D01*
X70872500Y61566147D01*
X32630821Y61566147D01*
X31969468Y62227500D01*
X71376054Y62227500D01*
X71772500Y61831054D01*
X72168946Y62227500D01*
X72876054Y62227500D01*
X73272500Y61831054D01*
X73668946Y62227500D01*
X74376054Y62227500D01*
X74772500Y61831054D01*
X75007338Y62065892D01*
X77499500Y62065892D01*
X77499500Y61934108D01*
X77504774Y61914425D01*
X77533608Y61806813D01*
X77537100Y61800765D01*
X77599500Y61692686D01*
X77692686Y61599500D01*
X77806814Y61533608D01*
X77934108Y61499500D01*
X77934110Y61499500D01*
X78065890Y61499500D01*
X78065892Y61499500D01*
X78193186Y61533608D01*
X78307314Y61599500D01*
X78400500Y61692686D01*
X78466392Y61806814D01*
X78500500Y61934108D01*
X78500500Y62065892D01*
X78466392Y62193186D01*
X78400500Y62307314D01*
X78307314Y62400500D01*
X78237182Y62440991D01*
X78193187Y62466392D01*
X78129539Y62483446D01*
X78065892Y62500500D01*
X77934108Y62500500D01*
X77806812Y62466392D01*
X77692686Y62400500D01*
X77692683Y62400498D01*
X77599502Y62307317D01*
X77599500Y62307314D01*
X77533608Y62193188D01*
X77510276Y62106108D01*
X77499500Y62065892D01*
X75007338Y62065892D01*
X75168946Y62227500D01*
X74772500Y62623946D01*
X74376054Y62227500D01*
X73668946Y62227500D01*
X73272500Y62623946D01*
X72876054Y62227500D01*
X72168946Y62227500D01*
X71772500Y62623946D01*
X71376054Y62227500D01*
X31969468Y62227500D01*
X31669975Y62526993D01*
X31636490Y62588316D01*
X31636062Y62590368D01*
X31626694Y62637466D01*
X31575953Y62759968D01*
X31558816Y62801341D01*
X31558809Y62801354D01*
X31460264Y62948835D01*
X31460261Y62948839D01*
X31342953Y63066147D01*
X70872500Y63066147D01*
X70872500Y62888854D01*
X70907084Y62714988D01*
X70907086Y62714980D01*
X70974930Y62551189D01*
X70982022Y62540577D01*
X71418946Y62977500D01*
X71369218Y63027228D01*
X71522500Y63027228D01*
X71522500Y62927772D01*
X71560560Y62835886D01*
X71630886Y62765560D01*
X71722772Y62727500D01*
X71822228Y62727500D01*
X71914114Y62765560D01*
X71984440Y62835886D01*
X72022500Y62927772D01*
X72022500Y62977500D01*
X72126054Y62977500D01*
X72522500Y62581054D01*
X72918946Y62977500D01*
X72869218Y63027228D01*
X73022500Y63027228D01*
X73022500Y62927772D01*
X73060560Y62835886D01*
X73130886Y62765560D01*
X73222772Y62727500D01*
X73322228Y62727500D01*
X73414114Y62765560D01*
X73484440Y62835886D01*
X73522500Y62927772D01*
X73522500Y62977500D01*
X73626054Y62977500D01*
X74022500Y62581054D01*
X74418946Y62977500D01*
X74369218Y63027228D01*
X74522500Y63027228D01*
X74522500Y62927772D01*
X74560560Y62835886D01*
X74630886Y62765560D01*
X74722772Y62727500D01*
X74822228Y62727500D01*
X74914114Y62765560D01*
X74984440Y62835886D01*
X75022500Y62927772D01*
X75022500Y62977501D01*
X75126054Y62977501D01*
X75126054Y62977499D01*
X75562976Y62540577D01*
X75562976Y62540578D01*
X75570072Y62551194D01*
X75637912Y62714976D01*
X75637915Y62714988D01*
X75672499Y62888854D01*
X75672500Y62888857D01*
X75672500Y63066143D01*
X75672499Y63066147D01*
X75637915Y63240013D01*
X75637913Y63240021D01*
X75570069Y63403811D01*
X75570067Y63403816D01*
X75562977Y63414425D01*
X75126054Y62977501D01*
X75022500Y62977501D01*
X75022500Y63027228D01*
X74984440Y63119114D01*
X74914114Y63189440D01*
X74822228Y63227500D01*
X74722772Y63227500D01*
X74630886Y63189440D01*
X74560560Y63119114D01*
X74522500Y63027228D01*
X74369218Y63027228D01*
X74022500Y63373946D01*
X73626054Y62977500D01*
X73522500Y62977500D01*
X73522500Y63027228D01*
X73484440Y63119114D01*
X73414114Y63189440D01*
X73322228Y63227500D01*
X73222772Y63227500D01*
X73130886Y63189440D01*
X73060560Y63119114D01*
X73022500Y63027228D01*
X72869218Y63027228D01*
X72522500Y63373946D01*
X72126054Y62977500D01*
X72022500Y62977500D01*
X72022500Y63027228D01*
X71984440Y63119114D01*
X71914114Y63189440D01*
X71822228Y63227500D01*
X71722772Y63227500D01*
X71630886Y63189440D01*
X71560560Y63119114D01*
X71522500Y63027228D01*
X71369218Y63027228D01*
X70982022Y63414424D01*
X70982021Y63414424D01*
X70974929Y63403809D01*
X70907086Y63240021D01*
X70907084Y63240013D01*
X70872500Y63066147D01*
X31342953Y63066147D01*
X31334838Y63074262D01*
X31334834Y63074265D01*
X31187353Y63172810D01*
X31187340Y63172817D01*
X31023467Y63240694D01*
X31023458Y63240697D01*
X30849494Y63275300D01*
X30849491Y63275300D01*
X30672109Y63275300D01*
X30672106Y63275300D01*
X30498141Y63240697D01*
X30498132Y63240694D01*
X30334259Y63172817D01*
X30334246Y63172810D01*
X30186765Y63074265D01*
X30186761Y63074262D01*
X30061338Y62948839D01*
X30061335Y62948835D01*
X29962790Y62801354D01*
X29962783Y62801341D01*
X29894906Y62637468D01*
X29894903Y62637459D01*
X29860300Y62463496D01*
X14000000Y62463496D01*
X14000000Y62704837D01*
X14100000Y62704837D01*
X14100000Y62645163D01*
X14122836Y62590032D01*
X14165032Y62547836D01*
X14220163Y62525000D01*
X14279837Y62525000D01*
X14334968Y62547836D01*
X14377164Y62590032D01*
X14400000Y62645163D01*
X14400000Y62704837D01*
X15500000Y62704837D01*
X15500000Y62645163D01*
X15522836Y62590032D01*
X15565032Y62547836D01*
X15620163Y62525000D01*
X15679837Y62525000D01*
X15734968Y62547836D01*
X15777164Y62590032D01*
X15800000Y62645163D01*
X15800000Y62704837D01*
X15777164Y62759968D01*
X15734968Y62802164D01*
X15679837Y62825000D01*
X15620163Y62825000D01*
X15565032Y62802164D01*
X15522836Y62759968D01*
X15500000Y62704837D01*
X14400000Y62704837D01*
X14377164Y62759968D01*
X14334968Y62802164D01*
X14279837Y62825000D01*
X14220163Y62825000D01*
X14165032Y62802164D01*
X14122836Y62759968D01*
X14100000Y62704837D01*
X14000000Y62704837D01*
X14000000Y63437361D01*
X14500000Y63437361D01*
X14500000Y62925000D01*
X15400000Y62925000D01*
X15900000Y62925000D01*
X16412361Y62925000D01*
X16412360Y62925001D01*
X16358952Y63053939D01*
X16358947Y63053949D01*
X16271401Y63184970D01*
X16271398Y63184974D01*
X16159973Y63296399D01*
X16159969Y63296402D01*
X16028948Y63383948D01*
X16028938Y63383953D01*
X15900000Y63437361D01*
X15900000Y62925000D01*
X15400000Y62925000D01*
X15400000Y63437361D01*
X15399999Y63437361D01*
X15271061Y63383953D01*
X15271051Y63383948D01*
X15140030Y63296402D01*
X15140026Y63296399D01*
X15037681Y63194053D01*
X14976358Y63160568D01*
X14906666Y63165552D01*
X14862319Y63194053D01*
X14759973Y63296399D01*
X14759969Y63296402D01*
X14628948Y63383948D01*
X14628938Y63383953D01*
X14500000Y63437361D01*
X14000000Y63437361D01*
X13999999Y63437361D01*
X13871061Y63383953D01*
X13871051Y63383948D01*
X13740030Y63296402D01*
X13740026Y63296399D01*
X13682402Y63238774D01*
X13621079Y63205289D01*
X13551387Y63210273D01*
X13507040Y63238774D01*
X13409016Y63336798D01*
X13409014Y63336800D01*
X13351950Y63369746D01*
X13294887Y63402692D01*
X13231239Y63419746D01*
X13167592Y63436800D01*
X13035808Y63436800D01*
X12908512Y63402692D01*
X12794386Y63336800D01*
X12794383Y63336798D01*
X12701202Y63243617D01*
X12701200Y63243614D01*
X12635308Y63129488D01*
X12601200Y63002192D01*
X500500Y63002192D01*
X500500Y63727500D01*
X71376054Y63727500D01*
X71772500Y63331054D01*
X72168946Y63727500D01*
X72876054Y63727500D01*
X73272500Y63331054D01*
X73668946Y63727500D01*
X74376054Y63727500D01*
X74772500Y63331054D01*
X75168946Y63727500D01*
X74772500Y64123946D01*
X74376054Y63727500D01*
X73668946Y63727500D01*
X73272500Y64123946D01*
X72876054Y63727500D01*
X72168946Y63727500D01*
X71772500Y64123946D01*
X71376054Y63727500D01*
X500500Y63727500D01*
X500500Y64566147D01*
X70872500Y64566147D01*
X70872500Y64388854D01*
X70907084Y64214988D01*
X70907086Y64214980D01*
X70974930Y64051189D01*
X70982022Y64040577D01*
X71418946Y64477500D01*
X71369218Y64527228D01*
X71522500Y64527228D01*
X71522500Y64427772D01*
X71560560Y64335886D01*
X71630886Y64265560D01*
X71722772Y64227500D01*
X71822228Y64227500D01*
X71914114Y64265560D01*
X71984440Y64335886D01*
X72022500Y64427772D01*
X72022500Y64477500D01*
X72126054Y64477500D01*
X72522500Y64081054D01*
X72918946Y64477500D01*
X72869218Y64527228D01*
X73022500Y64527228D01*
X73022500Y64427772D01*
X73060560Y64335886D01*
X73130886Y64265560D01*
X73222772Y64227500D01*
X73322228Y64227500D01*
X73414114Y64265560D01*
X73484440Y64335886D01*
X73522500Y64427772D01*
X73522500Y64477500D01*
X73626054Y64477500D01*
X74022500Y64081054D01*
X74418946Y64477500D01*
X74369218Y64527228D01*
X74522500Y64527228D01*
X74522500Y64427772D01*
X74560560Y64335886D01*
X74630886Y64265560D01*
X74722772Y64227500D01*
X74822228Y64227500D01*
X74914114Y64265560D01*
X74984440Y64335886D01*
X75022500Y64427772D01*
X75022500Y64477501D01*
X75126054Y64477501D01*
X75126054Y64477499D01*
X75562976Y64040577D01*
X75562976Y64040578D01*
X75570072Y64051194D01*
X75637912Y64214976D01*
X75637915Y64214988D01*
X75672499Y64388854D01*
X75672500Y64388857D01*
X75672500Y64566143D01*
X75672499Y64566147D01*
X75637915Y64740013D01*
X75637913Y64740021D01*
X75570069Y64903811D01*
X75570067Y64903816D01*
X75562977Y64914425D01*
X75562976Y64914425D01*
X75126054Y64477501D01*
X75022500Y64477501D01*
X75022500Y64527228D01*
X74984440Y64619114D01*
X74914114Y64689440D01*
X74822228Y64727500D01*
X74722772Y64727500D01*
X74630886Y64689440D01*
X74560560Y64619114D01*
X74522500Y64527228D01*
X74369218Y64527228D01*
X74022500Y64873946D01*
X73626054Y64477500D01*
X73522500Y64477500D01*
X73522500Y64527228D01*
X73484440Y64619114D01*
X73414114Y64689440D01*
X73322228Y64727500D01*
X73222772Y64727500D01*
X73130886Y64689440D01*
X73060560Y64619114D01*
X73022500Y64527228D01*
X72869218Y64527228D01*
X72522500Y64873946D01*
X72126054Y64477500D01*
X72022500Y64477500D01*
X72022500Y64527228D01*
X71984440Y64619114D01*
X71914114Y64689440D01*
X71822228Y64727500D01*
X71722772Y64727500D01*
X71630886Y64689440D01*
X71560560Y64619114D01*
X71522500Y64527228D01*
X71369218Y64527228D01*
X70982022Y64914424D01*
X70982021Y64914424D01*
X70974929Y64903809D01*
X70907086Y64740021D01*
X70907084Y64740013D01*
X70872500Y64566147D01*
X500500Y64566147D01*
X500500Y65267979D01*
X71335576Y65267979D01*
X71335576Y65267978D01*
X71772500Y64831054D01*
X71772501Y64831054D01*
X72209423Y65267978D01*
X72209422Y65267979D01*
X72835576Y65267979D01*
X72835576Y65267978D01*
X73272500Y64831054D01*
X73272501Y64831054D01*
X73709423Y65267978D01*
X73709422Y65267979D01*
X74335576Y65267979D01*
X74335576Y65267978D01*
X74772500Y64831054D01*
X74772501Y64831054D01*
X75007338Y65065892D01*
X77499500Y65065892D01*
X77499500Y64934109D01*
X77533608Y64806813D01*
X77566121Y64750500D01*
X77599500Y64692686D01*
X77692686Y64599500D01*
X77806814Y64533608D01*
X77934108Y64499500D01*
X77934110Y64499500D01*
X78065890Y64499500D01*
X78065892Y64499500D01*
X78193186Y64533608D01*
X78307314Y64599500D01*
X78400500Y64692686D01*
X78466392Y64806814D01*
X78500500Y64934108D01*
X78500500Y65065892D01*
X78466392Y65193186D01*
X78400500Y65307314D01*
X78307314Y65400500D01*
X78250250Y65433446D01*
X78193187Y65466392D01*
X78102802Y65490610D01*
X78065892Y65500500D01*
X77934108Y65500500D01*
X77806812Y65466392D01*
X77692686Y65400500D01*
X77692683Y65400498D01*
X77599502Y65307317D01*
X77599500Y65307314D01*
X77533608Y65193188D01*
X77499500Y65065892D01*
X75007338Y65065892D01*
X75103131Y65161686D01*
X75103145Y65161700D01*
X75209422Y65267979D01*
X75198811Y65275070D01*
X75035020Y65342914D01*
X75035012Y65342916D01*
X74861146Y65377500D01*
X74683853Y65377500D01*
X74509987Y65342916D01*
X74509979Y65342914D01*
X74346191Y65275071D01*
X74335576Y65267979D01*
X73709422Y65267979D01*
X73698811Y65275070D01*
X73535020Y65342914D01*
X73535012Y65342916D01*
X73361146Y65377500D01*
X73183853Y65377500D01*
X73009987Y65342916D01*
X73009979Y65342914D01*
X72846191Y65275071D01*
X72835576Y65267979D01*
X72209422Y65267979D01*
X72198811Y65275070D01*
X72035020Y65342914D01*
X72035012Y65342916D01*
X71861146Y65377500D01*
X71683853Y65377500D01*
X71509987Y65342916D01*
X71509979Y65342914D01*
X71346191Y65275071D01*
X71335576Y65267979D01*
X500500Y65267979D01*
X500500Y72878847D01*
X28199500Y72878847D01*
X28199500Y72721154D01*
X28230261Y72566511D01*
X28230264Y72566499D01*
X28290602Y72420828D01*
X28290609Y72420815D01*
X28378210Y72289712D01*
X28378213Y72289708D01*
X28489707Y72178214D01*
X28489711Y72178211D01*
X28620814Y72090610D01*
X28620827Y72090603D01*
X28766498Y72030265D01*
X28766503Y72030263D01*
X28921153Y71999501D01*
X28921156Y71999500D01*
X28921158Y71999500D01*
X29078844Y71999500D01*
X29078845Y71999501D01*
X29233497Y72030263D01*
X29379179Y72090606D01*
X29510289Y72178211D01*
X29621789Y72289711D01*
X29709394Y72420821D01*
X29769737Y72566503D01*
X29800500Y72721158D01*
X29800500Y72878842D01*
X29800500Y72878845D01*
X29800499Y72878847D01*
X29776499Y72999500D01*
X29769737Y73033497D01*
X29728060Y73134115D01*
X29709397Y73179173D01*
X29709390Y73179186D01*
X29621398Y73310875D01*
X29600520Y73377553D01*
X29600500Y73379766D01*
X29600500Y73999904D01*
X29620185Y74066943D01*
X29636814Y74087580D01*
X32790557Y77241324D01*
X32851878Y77274807D01*
X32921570Y77269823D01*
X32977503Y77227951D01*
X33001920Y77162487D01*
X32999854Y77129451D01*
X32991200Y77085942D01*
X32991200Y76928254D01*
X33021961Y76773611D01*
X33021964Y76773599D01*
X33082302Y76627928D01*
X33082309Y76627915D01*
X33169910Y76496812D01*
X33169913Y76496808D01*
X33281407Y76385314D01*
X33281411Y76385311D01*
X33412514Y76297710D01*
X33412527Y76297703D01*
X33558198Y76237365D01*
X33558203Y76237363D01*
X33712853Y76206601D01*
X33712856Y76206600D01*
X33712858Y76206600D01*
X33870544Y76206600D01*
X33870545Y76206601D01*
X34025197Y76237363D01*
X34170879Y76297706D01*
X34202212Y76318642D01*
X34302575Y76385702D01*
X34369253Y76406580D01*
X34371466Y76406600D01*
X41337291Y76406600D01*
X41404330Y76386915D01*
X41450085Y76334111D01*
X41460029Y76264953D01*
X41431004Y76201397D01*
X41424972Y76194919D01*
X32247068Y67017016D01*
X32185745Y66983531D01*
X32183579Y66983080D01*
X32116508Y66969739D01*
X32116498Y66969736D01*
X31970827Y66909398D01*
X31970814Y66909391D01*
X31839711Y66821790D01*
X31839707Y66821787D01*
X31728213Y66710293D01*
X31728210Y66710289D01*
X31640609Y66579186D01*
X31640602Y66579173D01*
X31580264Y66433502D01*
X31580261Y66433490D01*
X31549500Y66278847D01*
X31549500Y66121154D01*
X31580261Y65966511D01*
X31580264Y65966499D01*
X31640602Y65820828D01*
X31640609Y65820815D01*
X31728210Y65689712D01*
X31728213Y65689708D01*
X31839707Y65578214D01*
X31839711Y65578211D01*
X31970814Y65490610D01*
X31970827Y65490603D01*
X32116498Y65430265D01*
X32116503Y65430263D01*
X32266131Y65400500D01*
X32271153Y65399501D01*
X32271156Y65399500D01*
X32271158Y65399500D01*
X32428844Y65399500D01*
X32428845Y65399501D01*
X32583497Y65430263D01*
X32729179Y65490606D01*
X32860289Y65578211D01*
X32971789Y65689711D01*
X33059394Y65820821D01*
X33119737Y65966503D01*
X33133079Y66033584D01*
X33165463Y66095491D01*
X33166959Y66097015D01*
X35409591Y68339647D01*
X45800300Y68339647D01*
X45800300Y68181954D01*
X45831061Y68027311D01*
X45831064Y68027299D01*
X45891402Y67881628D01*
X45891409Y67881615D01*
X45979010Y67750512D01*
X45979013Y67750508D01*
X46090507Y67639014D01*
X46090511Y67639011D01*
X46221614Y67551410D01*
X46221627Y67551403D01*
X46359495Y67494297D01*
X46367303Y67491063D01*
X46521953Y67460301D01*
X46521956Y67460300D01*
X46521958Y67460300D01*
X46679644Y67460300D01*
X46679645Y67460301D01*
X46834297Y67491063D01*
X46979979Y67551406D01*
X47111089Y67639011D01*
X47222589Y67750511D01*
X47310194Y67881621D01*
X47370537Y68027303D01*
X47401300Y68181958D01*
X47401300Y68339642D01*
X47401300Y68339645D01*
X47401299Y68339647D01*
X47386082Y68416148D01*
X47370537Y68494297D01*
X47329369Y68593686D01*
X47310197Y68639973D01*
X47310190Y68639986D01*
X47222589Y68771089D01*
X47222586Y68771093D01*
X47111092Y68882587D01*
X47111088Y68882590D01*
X46979985Y68970191D01*
X46979972Y68970198D01*
X46834301Y69030536D01*
X46834289Y69030539D01*
X46679645Y69061300D01*
X46679642Y69061300D01*
X46521958Y69061300D01*
X46521955Y69061300D01*
X46367310Y69030539D01*
X46367298Y69030536D01*
X46221627Y68970198D01*
X46221614Y68970191D01*
X46090511Y68882590D01*
X46090507Y68882587D01*
X45979013Y68771093D01*
X45979010Y68771089D01*
X45891409Y68639986D01*
X45891402Y68639973D01*
X45831064Y68494302D01*
X45831061Y68494290D01*
X45800300Y68339647D01*
X35409591Y68339647D01*
X42502931Y75432987D01*
X42564252Y75466470D01*
X42566317Y75466901D01*
X42633497Y75480263D01*
X42779179Y75540606D01*
X42910289Y75628211D01*
X43021789Y75739711D01*
X43109394Y75870821D01*
X43169737Y76016503D01*
X43200500Y76171158D01*
X43200500Y76282600D01*
X43220185Y76349639D01*
X43272989Y76395394D01*
X43324500Y76406600D01*
X47679100Y76406600D01*
X47746139Y76386915D01*
X47791894Y76334111D01*
X47803100Y76282600D01*
X47803100Y76204954D01*
X47833861Y76050311D01*
X47833864Y76050299D01*
X47894202Y75904628D01*
X47894209Y75904615D01*
X47981810Y75773512D01*
X47981813Y75773508D01*
X48093307Y75662014D01*
X48093311Y75662011D01*
X48224414Y75574410D01*
X48224427Y75574403D01*
X48330647Y75530406D01*
X48370103Y75514063D01*
X48443591Y75499446D01*
X48525344Y75483183D01*
X48587255Y75450798D01*
X48588834Y75449247D01*
X48590200Y75447881D01*
X48623685Y75386558D01*
X48618701Y75316866D01*
X48576829Y75260933D01*
X48511365Y75236516D01*
X48502519Y75236200D01*
X47935869Y75236200D01*
X47935853Y75236201D01*
X47928257Y75236201D01*
X47770143Y75236201D01*
X47617415Y75195277D01*
X47617413Y75195276D01*
X47609565Y75193173D01*
X47609049Y75195098D01*
X47576872Y75188700D01*
X47522855Y75188700D01*
X47368210Y75157939D01*
X47368198Y75157936D01*
X47222527Y75097598D01*
X47222514Y75097591D01*
X47091411Y75009990D01*
X47091407Y75009987D01*
X46979913Y74898493D01*
X46979910Y74898489D01*
X46892309Y74767386D01*
X46892302Y74767373D01*
X46831964Y74621702D01*
X46831961Y74621690D01*
X46801200Y74467047D01*
X46801200Y74309354D01*
X46831961Y74154711D01*
X46831964Y74154699D01*
X46892302Y74009029D01*
X46892308Y74009018D01*
X46916149Y73973337D01*
X46937026Y73906659D01*
X46927607Y73856995D01*
X46881963Y73746797D01*
X46881962Y73746794D01*
X46881962Y73746793D01*
X46881961Y73746790D01*
X46851200Y73592147D01*
X46851200Y73434454D01*
X46881961Y73279811D01*
X46881964Y73279799D01*
X46942302Y73134128D01*
X46942309Y73134115D01*
X47029910Y73003012D01*
X47029913Y73003008D01*
X47141410Y72891511D01*
X47277587Y72800521D01*
X47277139Y72799852D01*
X47298714Y72783851D01*
X47411576Y72670989D01*
X47445061Y72609666D01*
X47440077Y72539974D01*
X47398205Y72484041D01*
X47371347Y72468747D01*
X47222027Y72406898D01*
X47222014Y72406891D01*
X47090911Y72319290D01*
X47090907Y72319287D01*
X47048109Y72276488D01*
X46986786Y72243003D01*
X46917094Y72247987D01*
X46872747Y72276488D01*
X45334574Y73814661D01*
X45301089Y73875984D01*
X45300638Y73878151D01*
X45274606Y74009018D01*
X45269737Y74033497D01*
X45219534Y74154699D01*
X45209397Y74179173D01*
X45209390Y74179186D01*
X45121789Y74310289D01*
X45121786Y74310293D01*
X45010292Y74421787D01*
X45010288Y74421790D01*
X44879185Y74509391D01*
X44879172Y74509398D01*
X44733501Y74569736D01*
X44733489Y74569739D01*
X44578845Y74600500D01*
X44578842Y74600500D01*
X44421158Y74600500D01*
X44421155Y74600500D01*
X44266510Y74569739D01*
X44266498Y74569736D01*
X44120827Y74509398D01*
X44120814Y74509391D01*
X43989711Y74421790D01*
X43989707Y74421787D01*
X43878213Y74310293D01*
X43878210Y74310289D01*
X43790609Y74179186D01*
X43790602Y74179173D01*
X43730264Y74033502D01*
X43730261Y74033490D01*
X43699500Y73878847D01*
X43699500Y73721154D01*
X43730261Y73566511D01*
X43730264Y73566499D01*
X43790602Y73420828D01*
X43790609Y73420815D01*
X43878210Y73289712D01*
X43878213Y73289708D01*
X43989707Y73178214D01*
X43989711Y73178211D01*
X44120814Y73090610D01*
X44120827Y73090603D01*
X44258683Y73033502D01*
X44266503Y73030263D01*
X44331147Y73017405D01*
X44421849Y72999362D01*
X44483760Y72966977D01*
X44485339Y72965426D01*
X51581284Y65869481D01*
X51718215Y65790423D01*
X51870943Y65749499D01*
X51870946Y65749499D01*
X52029054Y65749499D01*
X52029057Y65749499D01*
X52181785Y65790423D01*
X52318716Y65869481D01*
X52430519Y65981284D01*
X52430766Y65981713D01*
X52434109Y65987501D01*
X52484676Y66035716D01*
X52541495Y66049500D01*
X64341324Y66049500D01*
X64408363Y66029815D01*
X64429005Y66013181D01*
X64492686Y65949500D01*
X64606814Y65883608D01*
X64734108Y65849500D01*
X64734110Y65849500D01*
X64865890Y65849500D01*
X64865892Y65849500D01*
X64993186Y65883608D01*
X65107314Y65949500D01*
X65200500Y66042686D01*
X65266392Y66156814D01*
X65300500Y66284108D01*
X65300500Y66415892D01*
X65266392Y66543186D01*
X65266389Y66543190D01*
X65266389Y66543194D01*
X65255646Y66561801D01*
X65239173Y66629701D01*
X65262026Y66695728D01*
X65316947Y66738918D01*
X65363033Y66747800D01*
X78138324Y66747800D01*
X78205363Y66728115D01*
X78226005Y66711481D01*
X78289686Y66647800D01*
X78403814Y66581908D01*
X78531108Y66547800D01*
X78531110Y66547800D01*
X78662890Y66547800D01*
X78662892Y66547800D01*
X78790186Y66581908D01*
X78904314Y66647800D01*
X78997500Y66740986D01*
X79063392Y66855114D01*
X79097500Y66982408D01*
X79097500Y67114192D01*
X79063392Y67241486D01*
X78997500Y67355614D01*
X78904314Y67448800D01*
X78870863Y67468113D01*
X78822647Y67518680D01*
X78809425Y67587287D01*
X78835393Y67652152D01*
X78892307Y67692680D01*
X78932863Y67699500D01*
X79675500Y67699500D01*
X79742539Y67679815D01*
X79788294Y67627011D01*
X79799500Y67575500D01*
X79799500Y64657675D01*
X79779815Y64590636D01*
X79727011Y64544881D01*
X79657853Y64534937D01*
X79594297Y64563962D01*
X79587819Y64569994D01*
X79507315Y64650498D01*
X79507313Y64650500D01*
X79439867Y64689440D01*
X79393186Y64716392D01*
X79305029Y64740013D01*
X79265891Y64750500D01*
X79134107Y64750500D01*
X79006811Y64716392D01*
X78892685Y64650500D01*
X78892682Y64650498D01*
X78799501Y64557317D01*
X78799499Y64557314D01*
X78733607Y64443188D01*
X78699499Y64315892D01*
X78699499Y64184109D01*
X78728789Y64074795D01*
X78727126Y64004945D01*
X78687963Y63947083D01*
X78623734Y63919579D01*
X78554832Y63931166D01*
X78547014Y63935315D01*
X78493189Y63966391D01*
X78493186Y63966392D01*
X78365892Y64000500D01*
X78234108Y64000500D01*
X78106812Y63966392D01*
X77992686Y63900500D01*
X77992683Y63900498D01*
X77899502Y63807317D01*
X77899500Y63807314D01*
X77833608Y63693188D01*
X77799500Y63565892D01*
X77799500Y63434109D01*
X77833608Y63306813D01*
X77866554Y63249750D01*
X77899500Y63192686D01*
X77992686Y63099500D01*
X78071600Y63053939D01*
X78106810Y63033610D01*
X78106814Y63033608D01*
X78234108Y62999500D01*
X78234110Y62999500D01*
X78365890Y62999500D01*
X78365892Y62999500D01*
X78493186Y63033608D01*
X78554296Y63068891D01*
X78622196Y63085364D01*
X78688223Y63062512D01*
X78731414Y63007592D01*
X78738056Y62938038D01*
X78735247Y62928662D01*
X78735711Y62928537D01*
X78733607Y62920688D01*
X78733607Y62920686D01*
X78699499Y62793392D01*
X78699499Y62661608D01*
X78716553Y62597961D01*
X78733607Y62534313D01*
X78755251Y62496826D01*
X78799499Y62420186D01*
X78892685Y62327000D01*
X79006813Y62261108D01*
X79134107Y62227000D01*
X79134109Y62227000D01*
X79265889Y62227000D01*
X79265891Y62227000D01*
X79393185Y62261108D01*
X79507313Y62327000D01*
X79587819Y62407506D01*
X79649142Y62440991D01*
X79718834Y62436007D01*
X79774767Y62394135D01*
X79799184Y62328671D01*
X79799500Y62319825D01*
X79799500Y61674500D01*
X79779815Y61607461D01*
X79727011Y61561706D01*
X79675500Y61550500D01*
X79658675Y61550500D01*
X79591636Y61570185D01*
X79570994Y61586819D01*
X79507315Y61650498D01*
X79507313Y61650500D01*
X79439867Y61689440D01*
X79393186Y61716392D01*
X79305029Y61740013D01*
X79265891Y61750500D01*
X79134107Y61750500D01*
X79006811Y61716392D01*
X78892685Y61650500D01*
X78892682Y61650498D01*
X78799501Y61557317D01*
X78799499Y61557314D01*
X78733607Y61443188D01*
X78719049Y61388854D01*
X78699499Y61315892D01*
X78699499Y61184108D01*
X78702533Y61172786D01*
X78733607Y61056813D01*
X78760901Y61009540D01*
X78799499Y60942686D01*
X78892685Y60849500D01*
X79006813Y60783608D01*
X79134107Y60749500D01*
X79134109Y60749500D01*
X79265889Y60749500D01*
X79265891Y60749500D01*
X79393185Y60783608D01*
X79507313Y60849500D01*
X79570994Y60913181D01*
X79632317Y60946666D01*
X79658675Y60949500D01*
X79937059Y60949500D01*
X79937061Y60949500D01*
X80013488Y60969979D01*
X80082010Y61009540D01*
X80137959Y61065489D01*
X80340460Y61267990D01*
X80380022Y61336513D01*
X80400500Y61412939D01*
X80400500Y61492063D01*
X80400500Y67889562D01*
X80380021Y67965989D01*
X80360385Y68000000D01*
X80340464Y68034505D01*
X80340458Y68034513D01*
X80134512Y68240459D01*
X80134507Y68240463D01*
X80107616Y68255988D01*
X80091159Y68265489D01*
X80091157Y68265491D01*
X80091157Y68265490D01*
X80091155Y68265491D01*
X80069902Y68277762D01*
X80065990Y68280021D01*
X80065991Y68280021D01*
X80027775Y68290261D01*
X79989562Y68300500D01*
X79989560Y68300500D01*
X77474833Y68300500D01*
X77407794Y68320185D01*
X77362039Y68372989D01*
X77352095Y68442147D01*
X77381120Y68505703D01*
X77387152Y68512181D01*
X77582785Y68707814D01*
X77778418Y68903447D01*
X84177500Y68903447D01*
X84177500Y68745754D01*
X84208261Y68591111D01*
X84208264Y68591099D01*
X84268602Y68445428D01*
X84268609Y68445415D01*
X84356210Y68314312D01*
X84356213Y68314308D01*
X84467707Y68202814D01*
X84467711Y68202811D01*
X84598814Y68115210D01*
X84598827Y68115203D01*
X84716167Y68066600D01*
X84744503Y68054863D01*
X84883056Y68027303D01*
X84899153Y68024101D01*
X84899156Y68024100D01*
X84899158Y68024100D01*
X85056844Y68024100D01*
X85056845Y68024101D01*
X85211497Y68054863D01*
X85348326Y68111539D01*
X85357172Y68115203D01*
X85357172Y68115204D01*
X85357179Y68115206D01*
X85488289Y68202811D01*
X85599789Y68314311D01*
X85687394Y68445421D01*
X85747737Y68591103D01*
X85778500Y68745758D01*
X85778500Y68903442D01*
X85778500Y68903445D01*
X85778499Y68903447D01*
X85772554Y68933332D01*
X85747737Y69058097D01*
X85744508Y69065892D01*
X85687397Y69203773D01*
X85687390Y69203786D01*
X85599789Y69334889D01*
X85599786Y69334893D01*
X85488292Y69446387D01*
X85488288Y69446390D01*
X85357185Y69533991D01*
X85357172Y69533998D01*
X85211501Y69594336D01*
X85211489Y69594339D01*
X85056845Y69625100D01*
X85056842Y69625100D01*
X84899158Y69625100D01*
X84899155Y69625100D01*
X84744510Y69594339D01*
X84744498Y69594336D01*
X84598827Y69533998D01*
X84598814Y69533991D01*
X84467711Y69446390D01*
X84467707Y69446387D01*
X84356213Y69334893D01*
X84356210Y69334889D01*
X84268609Y69203786D01*
X84268602Y69203773D01*
X84208264Y69058102D01*
X84208261Y69058090D01*
X84177500Y68903447D01*
X77778418Y68903447D01*
X77790460Y68915489D01*
X77830021Y68984011D01*
X77850500Y69060438D01*
X77850500Y70058505D01*
X77870185Y70125544D01*
X77912501Y70165893D01*
X77918716Y70169481D01*
X78030519Y70281284D01*
X78109577Y70418215D01*
X78150501Y70570943D01*
X78150501Y70729057D01*
X78109577Y70881785D01*
X78030519Y71018716D01*
X67787590Y81261645D01*
X67787588Y81261648D01*
X67668717Y81380519D01*
X67668716Y81380520D01*
X67566136Y81439744D01*
X67566135Y81439745D01*
X67531783Y81459578D01*
X67475881Y81474557D01*
X67379057Y81500501D01*
X67220943Y81500501D01*
X67213347Y81500501D01*
X67213331Y81500500D01*
X58270940Y81500500D01*
X58230019Y81489536D01*
X58230019Y81489535D01*
X58192751Y81479549D01*
X58118214Y81459577D01*
X58118209Y81459574D01*
X57981290Y81380525D01*
X57981282Y81380519D01*
X57737583Y81136819D01*
X57676260Y81103334D01*
X57649902Y81100500D01*
X48574500Y81100500D01*
X48507461Y81120185D01*
X48461706Y81172989D01*
X48450500Y81224500D01*
X48450500Y81328845D01*
X48450499Y81328847D01*
X48440221Y81380519D01*
X48419737Y81483497D01*
X48390703Y81553593D01*
X48359397Y81629173D01*
X48359390Y81629186D01*
X48271789Y81760289D01*
X48271786Y81760293D01*
X48160292Y81871787D01*
X48079213Y81925963D01*
X48034409Y81979576D01*
X48025702Y82048901D01*
X48055857Y82111928D01*
X48060405Y82116728D01*
X48128389Y82184711D01*
X48215994Y82315821D01*
X48276337Y82461503D01*
X48307100Y82616158D01*
X48307100Y82773842D01*
X48307100Y82773845D01*
X48307099Y82773847D01*
X48298901Y82815062D01*
X48276337Y82928497D01*
X48242458Y83010289D01*
X48215997Y83074173D01*
X48215990Y83074186D01*
X48128389Y83205289D01*
X48128386Y83205293D01*
X48016892Y83316787D01*
X48016888Y83316790D01*
X47885781Y83404393D01*
X47885772Y83404398D01*
X47740101Y83464736D01*
X47740089Y83464739D01*
X47585445Y83495500D01*
X47585442Y83495500D01*
X47427758Y83495500D01*
X47427755Y83495500D01*
X47273110Y83464739D01*
X47273098Y83464736D01*
X47127427Y83404398D01*
X47127419Y83404393D01*
X46996311Y83316790D01*
X46996307Y83316787D01*
X46884813Y83205293D01*
X46884810Y83205289D01*
X46797209Y83074186D01*
X46797202Y83074173D01*
X46736864Y82928502D01*
X46736861Y82928490D01*
X46706100Y82773847D01*
X46706100Y82616154D01*
X46736861Y82461511D01*
X46736864Y82461499D01*
X46797202Y82315828D01*
X46797209Y82315815D01*
X46884810Y82184712D01*
X46884813Y82184708D01*
X46996307Y82073214D01*
X46996311Y82073211D01*
X47077385Y82019038D01*
X47122190Y81965425D01*
X47130897Y81896100D01*
X47100742Y81833073D01*
X47096176Y81828255D01*
X47028210Y81760289D01*
X46940609Y81629186D01*
X46940602Y81629173D01*
X46880264Y81483502D01*
X46880261Y81483490D01*
X46849500Y81328847D01*
X46849500Y81224500D01*
X46829815Y81157461D01*
X46777011Y81111706D01*
X46725500Y81100500D01*
X45470940Y81100500D01*
X45430019Y81089536D01*
X45430019Y81089535D01*
X45392751Y81079549D01*
X45318214Y81059577D01*
X45318209Y81059574D01*
X45181290Y80980525D01*
X45181282Y80980519D01*
X45069480Y80868716D01*
X45069478Y80868714D01*
X44443304Y80242539D01*
X43837584Y79636819D01*
X43776261Y79603334D01*
X43749903Y79600500D01*
X36909151Y79600500D01*
X36842112Y79620185D01*
X36796357Y79672989D01*
X36786413Y79742147D01*
X36815438Y79805703D01*
X36874216Y79843477D01*
X36884960Y79846117D01*
X36933343Y79855742D01*
X36933347Y79855743D01*
X37062293Y79909155D01*
X36700001Y80271447D01*
X36700000Y80271447D01*
X36337706Y79909155D01*
X36466652Y79855743D01*
X36466656Y79855742D01*
X36515040Y79846117D01*
X36576951Y79813732D01*
X36611525Y79753017D01*
X36607786Y79683247D01*
X36566920Y79626575D01*
X36501901Y79600994D01*
X36490849Y79600500D01*
X35509151Y79600500D01*
X35442112Y79620185D01*
X35396357Y79672989D01*
X35386413Y79742147D01*
X35415438Y79805703D01*
X35474216Y79843477D01*
X35484960Y79846117D01*
X35533343Y79855742D01*
X35533347Y79855743D01*
X35662293Y79909155D01*
X35300001Y80271447D01*
X35300000Y80271447D01*
X34937706Y79909155D01*
X35066652Y79855743D01*
X35066656Y79855742D01*
X35115040Y79846117D01*
X35176951Y79813732D01*
X35211525Y79753017D01*
X35207786Y79683247D01*
X35166920Y79626575D01*
X35101901Y79600994D01*
X35090849Y79600500D01*
X33786670Y79600500D01*
X33786654Y79600501D01*
X33779058Y79600501D01*
X33620943Y79600501D01*
X33544579Y79580039D01*
X33468214Y79559577D01*
X33468209Y79559574D01*
X33331290Y79480525D01*
X33331282Y79480519D01*
X28519481Y74668718D01*
X28519480Y74668716D01*
X28483211Y74605896D01*
X28440423Y74531785D01*
X28399499Y74379057D01*
X28399499Y74379055D01*
X28399499Y74210954D01*
X28399500Y74210941D01*
X28399500Y73379766D01*
X28379815Y73312727D01*
X28378602Y73310875D01*
X28290609Y73179186D01*
X28290602Y73179173D01*
X28230264Y73033502D01*
X28230261Y73033490D01*
X28199500Y72878847D01*
X500500Y72878847D01*
X500500Y81122147D01*
X22459600Y81122147D01*
X22459600Y80964454D01*
X22490361Y80809811D01*
X22490364Y80809799D01*
X22550702Y80664128D01*
X22550709Y80664115D01*
X22638310Y80533012D01*
X22638313Y80533008D01*
X22749807Y80421514D01*
X22749811Y80421511D01*
X22880914Y80333910D01*
X22880927Y80333903D01*
X23026598Y80273565D01*
X23026603Y80273563D01*
X23181253Y80242801D01*
X23181256Y80242800D01*
X23181258Y80242800D01*
X23338944Y80242800D01*
X23338945Y80242801D01*
X23493597Y80273563D01*
X23639279Y80333906D01*
X23770389Y80421511D01*
X23881889Y80533011D01*
X23969494Y80664121D01*
X23969495Y80664124D01*
X23969497Y80664127D01*
X23985929Y80703798D01*
X34500000Y80703798D01*
X34500000Y80546203D01*
X34530741Y80391657D01*
X34530743Y80391649D01*
X34584153Y80262707D01*
X34946446Y80624999D01*
X34946446Y80625001D01*
X34916610Y80654837D01*
X35150000Y80654837D01*
X35150000Y80595163D01*
X35172836Y80540032D01*
X35215032Y80497836D01*
X35270163Y80475000D01*
X35329837Y80475000D01*
X35384968Y80497836D01*
X35427164Y80540032D01*
X35450000Y80595163D01*
X35450000Y80625000D01*
X35653553Y80625000D01*
X36000000Y80278554D01*
X36000001Y80278554D01*
X36346446Y80624999D01*
X36346446Y80625001D01*
X36316610Y80654837D01*
X36550000Y80654837D01*
X36550000Y80595163D01*
X36572836Y80540032D01*
X36615032Y80497836D01*
X36670163Y80475000D01*
X36729837Y80475000D01*
X36784968Y80497836D01*
X36827164Y80540032D01*
X36850000Y80595163D01*
X36850000Y80625001D01*
X37053553Y80625001D01*
X37053553Y80624999D01*
X37415845Y80262707D01*
X37469257Y80391653D01*
X37469258Y80391657D01*
X37499999Y80546203D01*
X37500000Y80546206D01*
X37500000Y80703794D01*
X37499999Y80703798D01*
X37469258Y80858344D01*
X37469257Y80858348D01*
X37415845Y80987294D01*
X37053553Y80625001D01*
X36850000Y80625001D01*
X36850000Y80654837D01*
X36827164Y80709968D01*
X36784968Y80752164D01*
X36729837Y80775000D01*
X36670163Y80775000D01*
X36615032Y80752164D01*
X36572836Y80709968D01*
X36550000Y80654837D01*
X36316610Y80654837D01*
X36000001Y80971447D01*
X36000000Y80971447D01*
X35653553Y80625000D01*
X35450000Y80625000D01*
X35450000Y80654837D01*
X35427164Y80709968D01*
X35384968Y80752164D01*
X35329837Y80775000D01*
X35270163Y80775000D01*
X35215032Y80752164D01*
X35172836Y80709968D01*
X35150000Y80654837D01*
X34916610Y80654837D01*
X34584153Y80987295D01*
X34530743Y80858352D01*
X34530741Y80858344D01*
X34500000Y80703798D01*
X23985929Y80703798D01*
X24008105Y80757337D01*
X24008105Y80757338D01*
X24015421Y80775000D01*
X24029837Y80809803D01*
X24060600Y80964458D01*
X24060600Y81122142D01*
X24060600Y81122145D01*
X24060599Y81122147D01*
X24057681Y81136819D01*
X24029837Y81276797D01*
X24009871Y81325000D01*
X34953553Y81325000D01*
X35300000Y80978554D01*
X35300001Y80978554D01*
X35646446Y81324999D01*
X35646446Y81325000D01*
X36353553Y81325000D01*
X36700000Y80978554D01*
X36700001Y80978554D01*
X37046446Y81324999D01*
X37046446Y81325001D01*
X36700001Y81671447D01*
X36700000Y81671447D01*
X36353553Y81325000D01*
X35646446Y81325000D01*
X35646446Y81325001D01*
X35300001Y81671447D01*
X35300000Y81671447D01*
X34953553Y81325000D01*
X24009871Y81325000D01*
X23980644Y81395560D01*
X23969495Y81422477D01*
X23969490Y81422486D01*
X23881889Y81553589D01*
X23881886Y81553593D01*
X23770392Y81665087D01*
X23770388Y81665090D01*
X23639285Y81752691D01*
X23639272Y81752698D01*
X23493601Y81813036D01*
X23493589Y81813039D01*
X23338945Y81843800D01*
X23338942Y81843800D01*
X23181258Y81843800D01*
X23181255Y81843800D01*
X23026610Y81813039D01*
X23026598Y81813036D01*
X22880927Y81752698D01*
X22880914Y81752691D01*
X22749811Y81665090D01*
X22749807Y81665087D01*
X22638313Y81553593D01*
X22638310Y81553589D01*
X22550709Y81422486D01*
X22550702Y81422473D01*
X22490364Y81276802D01*
X22490361Y81276790D01*
X22459600Y81122147D01*
X500500Y81122147D01*
X500500Y83663647D01*
X29400300Y83663647D01*
X29400300Y83505954D01*
X29431061Y83351311D01*
X29431064Y83351299D01*
X29491402Y83205628D01*
X29491409Y83205615D01*
X29579010Y83074512D01*
X29579013Y83074508D01*
X29690507Y82963014D01*
X29690511Y82963011D01*
X29821614Y82875410D01*
X29821627Y82875403D01*
X29967298Y82815065D01*
X29967303Y82815063D01*
X30121953Y82784301D01*
X30121956Y82784300D01*
X30121958Y82784300D01*
X30135300Y82784300D01*
X30202339Y82764615D01*
X30248094Y82711811D01*
X30259300Y82660300D01*
X30259300Y82616154D01*
X30290061Y82461511D01*
X30290064Y82461499D01*
X30350402Y82315828D01*
X30350409Y82315815D01*
X30438010Y82184712D01*
X30438013Y82184708D01*
X30549507Y82073214D01*
X30549511Y82073211D01*
X30680614Y81985610D01*
X30680627Y81985603D01*
X30824613Y81925963D01*
X30826303Y81925263D01*
X30964187Y81897836D01*
X30980953Y81894501D01*
X30980956Y81894500D01*
X30980958Y81894500D01*
X31138644Y81894500D01*
X31138645Y81894501D01*
X31293297Y81925263D01*
X31438979Y81985606D01*
X31570089Y82073211D01*
X31600676Y82103798D01*
X34500000Y82103798D01*
X34500000Y81946203D01*
X34530741Y81791657D01*
X34530743Y81791649D01*
X34584153Y81662707D01*
X34946446Y82024999D01*
X34946446Y82025001D01*
X34916610Y82054837D01*
X35150000Y82054837D01*
X35150000Y81995163D01*
X35172836Y81940032D01*
X35215032Y81897836D01*
X35270163Y81875000D01*
X35329837Y81875000D01*
X35384968Y81897836D01*
X35427164Y81940032D01*
X35450000Y81995163D01*
X35450000Y82025000D01*
X35653553Y82025000D01*
X36000000Y81678554D01*
X36000001Y81678554D01*
X36346446Y82024999D01*
X36346446Y82025001D01*
X36316610Y82054837D01*
X36550000Y82054837D01*
X36550000Y81995163D01*
X36572836Y81940032D01*
X36615032Y81897836D01*
X36670163Y81875000D01*
X36729837Y81875000D01*
X36784968Y81897836D01*
X36827164Y81940032D01*
X36850000Y81995163D01*
X36850000Y82025001D01*
X37053553Y82025001D01*
X37053553Y82024999D01*
X37415845Y81662707D01*
X37469257Y81791653D01*
X37469258Y81791657D01*
X37499999Y81946203D01*
X37500000Y81946206D01*
X37500000Y82103794D01*
X37499999Y82103798D01*
X37469258Y82258344D01*
X37469257Y82258348D01*
X37415845Y82387294D01*
X37053553Y82025001D01*
X36850000Y82025001D01*
X36850000Y82054837D01*
X36827164Y82109968D01*
X36784968Y82152164D01*
X36729837Y82175000D01*
X36670163Y82175000D01*
X36615032Y82152164D01*
X36572836Y82109968D01*
X36550000Y82054837D01*
X36316610Y82054837D01*
X36000001Y82371447D01*
X36000000Y82371447D01*
X35653553Y82025000D01*
X35450000Y82025000D01*
X35450000Y82054837D01*
X35427164Y82109968D01*
X35384968Y82152164D01*
X35329837Y82175000D01*
X35270163Y82175000D01*
X35215032Y82152164D01*
X35172836Y82109968D01*
X35150000Y82054837D01*
X34916610Y82054837D01*
X34584153Y82387295D01*
X34530743Y82258352D01*
X34530741Y82258344D01*
X34500000Y82103798D01*
X31600676Y82103798D01*
X31681589Y82184711D01*
X31769194Y82315821D01*
X31829537Y82461503D01*
X31860300Y82616158D01*
X31860300Y82740847D01*
X34937705Y82740847D01*
X35300000Y82378554D01*
X35300001Y82378554D01*
X35662293Y82740847D01*
X36337705Y82740847D01*
X36700000Y82378554D01*
X36700001Y82378554D01*
X37062293Y82740847D01*
X36933351Y82794257D01*
X36933343Y82794259D01*
X36778797Y82825000D01*
X36621202Y82825000D01*
X36466656Y82794259D01*
X36466648Y82794257D01*
X36337705Y82740847D01*
X35662293Y82740847D01*
X35533351Y82794257D01*
X35533343Y82794259D01*
X35378797Y82825000D01*
X35221202Y82825000D01*
X35066656Y82794259D01*
X35066648Y82794257D01*
X34937705Y82740847D01*
X31860300Y82740847D01*
X31860300Y82773842D01*
X31860300Y82773845D01*
X31860299Y82773847D01*
X31852101Y82815062D01*
X31829537Y82928497D01*
X31795658Y83010289D01*
X31769197Y83074173D01*
X31769190Y83074186D01*
X31681589Y83205289D01*
X31681586Y83205293D01*
X31570092Y83316787D01*
X31570088Y83316790D01*
X31438981Y83404393D01*
X31438972Y83404398D01*
X31293301Y83464736D01*
X31293289Y83464739D01*
X31138645Y83495500D01*
X31138642Y83495500D01*
X31125300Y83495500D01*
X31116614Y83498051D01*
X31107653Y83496762D01*
X31083612Y83507741D01*
X31058261Y83515185D01*
X31052333Y83522026D01*
X31044097Y83525787D01*
X31029807Y83548022D01*
X31012506Y83567989D01*
X31010218Y83578504D01*
X31006323Y83584565D01*
X31001300Y83619500D01*
X31001300Y83655547D01*
X44181400Y83655547D01*
X44181400Y83497854D01*
X44212161Y83343211D01*
X44212164Y83343199D01*
X44272502Y83197528D01*
X44272509Y83197515D01*
X44360110Y83066412D01*
X44360113Y83066408D01*
X44471607Y82954914D01*
X44471611Y82954911D01*
X44602714Y82867310D01*
X44602727Y82867303D01*
X44728850Y82815062D01*
X44748403Y82806963D01*
X44862332Y82784301D01*
X44903053Y82776201D01*
X44903056Y82776200D01*
X44903058Y82776200D01*
X45060744Y82776200D01*
X45060745Y82776201D01*
X45215397Y82806963D01*
X45361079Y82867306D01*
X45492189Y82954911D01*
X45603689Y83066411D01*
X45691294Y83197521D01*
X45751637Y83343203D01*
X45782400Y83497858D01*
X45782400Y83655542D01*
X45782400Y83655545D01*
X45782399Y83655547D01*
X45751638Y83810190D01*
X45751637Y83810197D01*
X45740968Y83835954D01*
X45691297Y83955873D01*
X45691290Y83955886D01*
X45603689Y84086989D01*
X45603686Y84086993D01*
X45492192Y84198487D01*
X45492188Y84198490D01*
X45361085Y84286091D01*
X45361072Y84286098D01*
X45215401Y84346436D01*
X45215389Y84346439D01*
X45060745Y84377200D01*
X45060742Y84377200D01*
X44903058Y84377200D01*
X44903055Y84377200D01*
X44748410Y84346439D01*
X44748398Y84346436D01*
X44602727Y84286098D01*
X44602714Y84286091D01*
X44471611Y84198490D01*
X44471607Y84198487D01*
X44360113Y84086993D01*
X44360110Y84086989D01*
X44272509Y83955886D01*
X44272502Y83955873D01*
X44212164Y83810202D01*
X44212161Y83810190D01*
X44181400Y83655547D01*
X31001300Y83655547D01*
X31001300Y83663645D01*
X31001299Y83663647D01*
X30997785Y83681311D01*
X30970537Y83818297D01*
X30963223Y83835954D01*
X30910197Y83963973D01*
X30910190Y83963986D01*
X30822589Y84095089D01*
X30822586Y84095093D01*
X30711092Y84206587D01*
X30711088Y84206590D01*
X30579985Y84294191D01*
X30579972Y84294198D01*
X30434301Y84354536D01*
X30434289Y84354539D01*
X30279645Y84385300D01*
X30279642Y84385300D01*
X30121958Y84385300D01*
X30121955Y84385300D01*
X29967310Y84354539D01*
X29967298Y84354536D01*
X29821627Y84294198D01*
X29821614Y84294191D01*
X29690511Y84206590D01*
X29690507Y84206587D01*
X29579013Y84095093D01*
X29579010Y84095089D01*
X29491409Y83963986D01*
X29491402Y83963973D01*
X29431064Y83818302D01*
X29431061Y83818290D01*
X29400300Y83663647D01*
X500500Y83663647D01*
X500500Y86121289D01*
X2149500Y86121289D01*
X2149500Y85878712D01*
X2181161Y85638215D01*
X2243947Y85403896D01*
X2336771Y85179800D01*
X2336776Y85179788D01*
X2458064Y84969711D01*
X2458066Y84969708D01*
X2458067Y84969707D01*
X2605733Y84777264D01*
X2605739Y84777257D01*
X2777256Y84605740D01*
X2777263Y84605734D01*
X2844987Y84553768D01*
X2969711Y84458064D01*
X3179788Y84336776D01*
X3403900Y84243946D01*
X3638211Y84181162D01*
X3818586Y84157416D01*
X3878711Y84149500D01*
X3878712Y84149500D01*
X4121289Y84149500D01*
X4169388Y84155833D01*
X4361789Y84181162D01*
X4596100Y84243946D01*
X4820212Y84336776D01*
X5030289Y84458064D01*
X5222738Y84605735D01*
X5394265Y84777262D01*
X5541936Y84969711D01*
X5663224Y85179788D01*
X5663229Y85179800D01*
X5680728Y85222047D01*
X26240100Y85222047D01*
X26240100Y85064354D01*
X26270861Y84909711D01*
X26270864Y84909699D01*
X26331202Y84764028D01*
X26331209Y84764015D01*
X26418810Y84632912D01*
X26418813Y84632908D01*
X26530307Y84521414D01*
X26530311Y84521411D01*
X26661414Y84433810D01*
X26661427Y84433803D01*
X26798081Y84377200D01*
X26807103Y84373463D01*
X26942961Y84346439D01*
X26961753Y84342701D01*
X26961756Y84342700D01*
X26961758Y84342700D01*
X27119444Y84342700D01*
X27119445Y84342701D01*
X27274097Y84373463D01*
X27419779Y84433806D01*
X27550889Y84521411D01*
X27662389Y84632911D01*
X27749994Y84764021D01*
X27755477Y84777257D01*
X27763667Y84797034D01*
X27810337Y84909703D01*
X27837060Y85044047D01*
X47689800Y85044047D01*
X47689800Y84886354D01*
X47720561Y84731711D01*
X47720564Y84731699D01*
X47780902Y84586028D01*
X47780909Y84586015D01*
X47868510Y84454912D01*
X47868513Y84454908D01*
X47980007Y84343414D01*
X47980011Y84343411D01*
X48111114Y84255810D01*
X48111127Y84255803D01*
X48249502Y84198487D01*
X48256803Y84195463D01*
X48321447Y84182605D01*
X48412149Y84164562D01*
X48474060Y84132177D01*
X48475639Y84130626D01*
X49055839Y83550426D01*
X49055849Y83550415D01*
X49060179Y83546085D01*
X49060180Y83546084D01*
X49171984Y83434280D01*
X49171986Y83434279D01*
X49223749Y83404394D01*
X49223748Y83404394D01*
X49223751Y83404393D01*
X49308909Y83355226D01*
X49308910Y83355225D01*
X49308912Y83355225D01*
X49308915Y83355223D01*
X49461643Y83314299D01*
X49461646Y83314299D01*
X49627353Y83314299D01*
X49627369Y83314300D01*
X50132859Y83314300D01*
X50199898Y83294615D01*
X50245653Y83241811D01*
X50255597Y83172653D01*
X50226572Y83109097D01*
X50220540Y83102619D01*
X50128213Y83010293D01*
X50128210Y83010289D01*
X50040609Y82879186D01*
X50040602Y82879173D01*
X49980264Y82733502D01*
X49980261Y82733490D01*
X49949500Y82578847D01*
X49949500Y82421154D01*
X49980261Y82266511D01*
X49980264Y82266499D01*
X50040602Y82120828D01*
X50040609Y82120815D01*
X50128210Y81989712D01*
X50128213Y81989708D01*
X50239707Y81878214D01*
X50239711Y81878211D01*
X50370814Y81790610D01*
X50370827Y81790603D01*
X50516498Y81730265D01*
X50516503Y81730263D01*
X50671153Y81699501D01*
X50671156Y81699500D01*
X50671158Y81699500D01*
X50828844Y81699500D01*
X50828845Y81699501D01*
X50983497Y81730263D01*
X51129179Y81790606D01*
X51260289Y81878211D01*
X51371789Y81989711D01*
X51459394Y82120821D01*
X51519737Y82266503D01*
X51550500Y82421158D01*
X51550500Y82578842D01*
X51550500Y82578845D01*
X51550499Y82578847D01*
X51534297Y82660300D01*
X51519737Y82733497D01*
X51503026Y82773842D01*
X51459397Y82879173D01*
X51459390Y82879186D01*
X51371789Y83010289D01*
X51371786Y83010293D01*
X51302140Y83079939D01*
X51268655Y83141262D01*
X51273639Y83210954D01*
X51315511Y83266887D01*
X51320895Y83270698D01*
X51354289Y83293011D01*
X51465789Y83404511D01*
X51553394Y83535621D01*
X51613737Y83681303D01*
X51644500Y83835958D01*
X51644500Y83993642D01*
X51644500Y83993645D01*
X51644499Y83993647D01*
X51613738Y84148290D01*
X51613737Y84148297D01*
X51594201Y84195462D01*
X51553397Y84293973D01*
X51553390Y84293986D01*
X51465789Y84425089D01*
X51465786Y84425093D01*
X51354292Y84536587D01*
X51354288Y84536590D01*
X51223185Y84624191D01*
X51223172Y84624198D01*
X51077501Y84684536D01*
X51077489Y84684539D01*
X50922845Y84715300D01*
X50922842Y84715300D01*
X50765158Y84715300D01*
X50765155Y84715300D01*
X50610510Y84684539D01*
X50610498Y84684536D01*
X50464827Y84624198D01*
X50464814Y84624191D01*
X50333125Y84536198D01*
X50266447Y84515320D01*
X50264234Y84515300D01*
X49840797Y84515300D01*
X49773758Y84534985D01*
X49753116Y84551619D01*
X49324874Y84979861D01*
X49291389Y85041184D01*
X49290938Y85043351D01*
X49272895Y85134053D01*
X49260037Y85198697D01*
X49228189Y85275586D01*
X49199697Y85344373D01*
X49199690Y85344386D01*
X49112089Y85475489D01*
X49112086Y85475493D01*
X49005968Y85581611D01*
X56149500Y85581611D01*
X56149500Y85408389D01*
X56176598Y85237299D01*
X56230127Y85072555D01*
X56308768Y84918212D01*
X56410586Y84778072D01*
X56533072Y84655586D01*
X56673212Y84553768D01*
X56827555Y84475127D01*
X56992299Y84421598D01*
X57163389Y84394500D01*
X57163390Y84394500D01*
X57336610Y84394500D01*
X57336611Y84394500D01*
X57507701Y84421598D01*
X57672445Y84475127D01*
X57826788Y84553768D01*
X57966928Y84655586D01*
X58089414Y84778072D01*
X58191232Y84918212D01*
X58269873Y85072555D01*
X58323402Y85237299D01*
X58350500Y85408389D01*
X58350500Y85581611D01*
X70049500Y85581611D01*
X70049500Y85408389D01*
X70076598Y85237299D01*
X70130127Y85072555D01*
X70208768Y84918212D01*
X70310586Y84778072D01*
X70433072Y84655586D01*
X70573212Y84553768D01*
X70727555Y84475127D01*
X70892299Y84421598D01*
X71063389Y84394500D01*
X71063390Y84394500D01*
X71236610Y84394500D01*
X71236611Y84394500D01*
X71407701Y84421598D01*
X71572445Y84475127D01*
X71726788Y84553768D01*
X71866928Y84655586D01*
X71989414Y84778072D01*
X72091232Y84918212D01*
X72169873Y85072555D01*
X72223402Y85237299D01*
X72250500Y85408389D01*
X72250500Y85581611D01*
X75149500Y85581611D01*
X75149500Y85408389D01*
X75176598Y85237299D01*
X75230127Y85072555D01*
X75308768Y84918212D01*
X75410586Y84778072D01*
X75533072Y84655586D01*
X75673212Y84553768D01*
X75827555Y84475127D01*
X75992299Y84421598D01*
X76163389Y84394500D01*
X76163390Y84394500D01*
X76336610Y84394500D01*
X76336611Y84394500D01*
X76507701Y84421598D01*
X76672445Y84475127D01*
X76826788Y84553768D01*
X76966928Y84655586D01*
X77089414Y84778072D01*
X77191232Y84918212D01*
X77269873Y85072555D01*
X77323402Y85237299D01*
X77350500Y85408389D01*
X77350500Y85581611D01*
X89049500Y85581611D01*
X89049500Y85408389D01*
X89076598Y85237299D01*
X89130127Y85072555D01*
X89208768Y84918212D01*
X89310586Y84778072D01*
X89433072Y84655586D01*
X89573212Y84553768D01*
X89727555Y84475127D01*
X89892299Y84421598D01*
X90063389Y84394500D01*
X90063390Y84394500D01*
X90236610Y84394500D01*
X90236611Y84394500D01*
X90407701Y84421598D01*
X90572445Y84475127D01*
X90726788Y84553768D01*
X90866928Y84655586D01*
X90989414Y84778072D01*
X91091232Y84918212D01*
X91169873Y85072555D01*
X91223402Y85237299D01*
X91250500Y85408389D01*
X91250500Y85581611D01*
X91223402Y85752701D01*
X91169873Y85917445D01*
X91091232Y86071788D01*
X91055267Y86121289D01*
X94149500Y86121289D01*
X94149500Y85878712D01*
X94181161Y85638215D01*
X94243947Y85403896D01*
X94336771Y85179800D01*
X94336776Y85179788D01*
X94458064Y84969711D01*
X94458066Y84969708D01*
X94458067Y84969707D01*
X94605733Y84777264D01*
X94605739Y84777257D01*
X94777256Y84605740D01*
X94777263Y84605734D01*
X94844987Y84553768D01*
X94969711Y84458064D01*
X95179788Y84336776D01*
X95403900Y84243946D01*
X95638211Y84181162D01*
X95818586Y84157416D01*
X95878711Y84149500D01*
X95878712Y84149500D01*
X96121289Y84149500D01*
X96169388Y84155833D01*
X96361789Y84181162D01*
X96596100Y84243946D01*
X96820212Y84336776D01*
X97030289Y84458064D01*
X97222738Y84605735D01*
X97394265Y84777262D01*
X97541936Y84969711D01*
X97663224Y85179788D01*
X97756054Y85403900D01*
X97818838Y85638211D01*
X97850500Y85878712D01*
X97850500Y86121288D01*
X97818838Y86361789D01*
X97756054Y86596100D01*
X97663224Y86820212D01*
X97541936Y87030289D01*
X97400668Y87214394D01*
X97394266Y87222737D01*
X97394260Y87222744D01*
X97222743Y87394261D01*
X97222736Y87394267D01*
X97030293Y87541933D01*
X97030292Y87541934D01*
X97030289Y87541936D01*
X96820212Y87663224D01*
X96740712Y87696154D01*
X96596104Y87756053D01*
X96361785Y87818839D01*
X96121289Y87850500D01*
X96121288Y87850500D01*
X95878712Y87850500D01*
X95878711Y87850500D01*
X95638214Y87818839D01*
X95403895Y87756053D01*
X95179794Y87663227D01*
X95179785Y87663223D01*
X94969706Y87541933D01*
X94777263Y87394267D01*
X94777256Y87394261D01*
X94605739Y87222744D01*
X94605733Y87222737D01*
X94458067Y87030294D01*
X94336777Y86820215D01*
X94336773Y86820206D01*
X94243947Y86596105D01*
X94181161Y86361786D01*
X94149500Y86121289D01*
X91055267Y86121289D01*
X90989414Y86211928D01*
X90866928Y86334414D01*
X90726788Y86436232D01*
X90572445Y86514873D01*
X90407701Y86568402D01*
X90407699Y86568403D01*
X90407698Y86568403D01*
X90276271Y86589219D01*
X90236611Y86595500D01*
X90063389Y86595500D01*
X90023728Y86589219D01*
X89892302Y86568403D01*
X89727552Y86514872D01*
X89573211Y86436232D01*
X89493256Y86378141D01*
X89433072Y86334414D01*
X89433070Y86334412D01*
X89433069Y86334412D01*
X89310588Y86211931D01*
X89310588Y86211930D01*
X89310586Y86211928D01*
X89266859Y86151744D01*
X89208768Y86071789D01*
X89130128Y85917448D01*
X89076597Y85752698D01*
X89050352Y85586990D01*
X89049500Y85581611D01*
X77350500Y85581611D01*
X77323402Y85752701D01*
X77269873Y85917445D01*
X77191232Y86071788D01*
X77089414Y86211928D01*
X76966928Y86334414D01*
X76826788Y86436232D01*
X76672445Y86514873D01*
X76507701Y86568402D01*
X76507699Y86568403D01*
X76507698Y86568403D01*
X76376271Y86589219D01*
X76336611Y86595500D01*
X76163389Y86595500D01*
X76123728Y86589219D01*
X75992302Y86568403D01*
X75827552Y86514872D01*
X75673211Y86436232D01*
X75593256Y86378141D01*
X75533072Y86334414D01*
X75533070Y86334412D01*
X75533069Y86334412D01*
X75410588Y86211931D01*
X75410588Y86211930D01*
X75410586Y86211928D01*
X75366859Y86151744D01*
X75308768Y86071789D01*
X75230128Y85917448D01*
X75176597Y85752698D01*
X75150352Y85586990D01*
X75149500Y85581611D01*
X72250500Y85581611D01*
X72223402Y85752701D01*
X72169873Y85917445D01*
X72091232Y86071788D01*
X71989414Y86211928D01*
X71866928Y86334414D01*
X71726788Y86436232D01*
X71572445Y86514873D01*
X71407701Y86568402D01*
X71407699Y86568403D01*
X71407698Y86568403D01*
X71276271Y86589219D01*
X71236611Y86595500D01*
X71063389Y86595500D01*
X71023728Y86589219D01*
X70892302Y86568403D01*
X70727552Y86514872D01*
X70573211Y86436232D01*
X70493256Y86378141D01*
X70433072Y86334414D01*
X70433070Y86334412D01*
X70433069Y86334412D01*
X70310588Y86211931D01*
X70310588Y86211930D01*
X70310586Y86211928D01*
X70266859Y86151744D01*
X70208768Y86071789D01*
X70130128Y85917448D01*
X70076597Y85752698D01*
X70050352Y85586990D01*
X70049500Y85581611D01*
X58350500Y85581611D01*
X58323402Y85752701D01*
X58269873Y85917445D01*
X58191232Y86071788D01*
X58089414Y86211928D01*
X57966928Y86334414D01*
X57826788Y86436232D01*
X57672445Y86514873D01*
X57507701Y86568402D01*
X57507699Y86568403D01*
X57507698Y86568403D01*
X57376271Y86589219D01*
X57336611Y86595500D01*
X57163389Y86595500D01*
X57123728Y86589219D01*
X56992302Y86568403D01*
X56827552Y86514872D01*
X56673211Y86436232D01*
X56593256Y86378141D01*
X56533072Y86334414D01*
X56533070Y86334412D01*
X56533069Y86334412D01*
X56410588Y86211931D01*
X56410588Y86211930D01*
X56410586Y86211928D01*
X56366859Y86151744D01*
X56308768Y86071789D01*
X56230128Y85917448D01*
X56176597Y85752698D01*
X56150352Y85586990D01*
X56149500Y85581611D01*
X49005968Y85581611D01*
X49000592Y85586987D01*
X49000588Y85586990D01*
X48869485Y85674591D01*
X48869472Y85674598D01*
X48723801Y85734936D01*
X48723789Y85734939D01*
X48569145Y85765700D01*
X48569142Y85765700D01*
X48411458Y85765700D01*
X48411455Y85765700D01*
X48256810Y85734939D01*
X48256798Y85734936D01*
X48111127Y85674598D01*
X48111114Y85674591D01*
X47980011Y85586990D01*
X47980007Y85586987D01*
X47868513Y85475493D01*
X47868510Y85475489D01*
X47780909Y85344386D01*
X47780902Y85344373D01*
X47720564Y85198702D01*
X47720561Y85198690D01*
X47689800Y85044047D01*
X27837060Y85044047D01*
X27841100Y85064358D01*
X27841100Y85222042D01*
X27841100Y85222045D01*
X27841099Y85222047D01*
X27830449Y85275587D01*
X27810337Y85376697D01*
X27797210Y85408389D01*
X27749997Y85522373D01*
X27749990Y85522386D01*
X27662389Y85653489D01*
X27662386Y85653493D01*
X27550892Y85764987D01*
X27550888Y85764990D01*
X27419785Y85852591D01*
X27419772Y85852598D01*
X27274101Y85912936D01*
X27274089Y85912939D01*
X27119445Y85943700D01*
X27119442Y85943700D01*
X26961758Y85943700D01*
X26961755Y85943700D01*
X26807110Y85912939D01*
X26807098Y85912936D01*
X26661427Y85852598D01*
X26661414Y85852591D01*
X26530311Y85764990D01*
X26530307Y85764987D01*
X26418813Y85653493D01*
X26418810Y85653489D01*
X26331209Y85522386D01*
X26331202Y85522373D01*
X26270864Y85376702D01*
X26270861Y85376690D01*
X26240100Y85222047D01*
X5680728Y85222047D01*
X5702905Y85275586D01*
X5702905Y85275587D01*
X5731397Y85344373D01*
X5756054Y85403900D01*
X5818838Y85638211D01*
X5850500Y85878712D01*
X5850500Y86121288D01*
X5818838Y86361789D01*
X5759337Y86583847D01*
X48738100Y86583847D01*
X48738100Y86426154D01*
X48768861Y86271511D01*
X48768864Y86271499D01*
X48829202Y86125828D01*
X48829209Y86125815D01*
X48916810Y85994712D01*
X48916813Y85994708D01*
X49028307Y85883214D01*
X49028311Y85883211D01*
X49159414Y85795610D01*
X49159427Y85795603D01*
X49305098Y85735265D01*
X49305103Y85735263D01*
X49441660Y85708100D01*
X49459753Y85704501D01*
X49459756Y85704500D01*
X49459758Y85704500D01*
X49617444Y85704500D01*
X49617445Y85704501D01*
X49622396Y85705486D01*
X49635538Y85708099D01*
X49635543Y85708100D01*
X49735927Y85728069D01*
X49772097Y85735263D01*
X49917779Y85795606D01*
X50048889Y85883211D01*
X50160389Y85994711D01*
X50247994Y86125821D01*
X50308337Y86271503D01*
X50339100Y86426158D01*
X50339100Y86583842D01*
X50339100Y86583845D01*
X50339099Y86583847D01*
X50308338Y86738490D01*
X50308337Y86738497D01*
X50308335Y86738502D01*
X50247997Y86884173D01*
X50247990Y86884186D01*
X50160389Y87015289D01*
X50160386Y87015293D01*
X50048892Y87126787D01*
X50048888Y87126790D01*
X49917785Y87214391D01*
X49917772Y87214398D01*
X49772101Y87274736D01*
X49772089Y87274739D01*
X49617445Y87305500D01*
X49617442Y87305500D01*
X49459758Y87305500D01*
X49459755Y87305500D01*
X49305110Y87274739D01*
X49305098Y87274736D01*
X49159427Y87214398D01*
X49159414Y87214391D01*
X49028311Y87126790D01*
X49028307Y87126787D01*
X48916813Y87015293D01*
X48916810Y87015289D01*
X48829209Y86884186D01*
X48829202Y86884173D01*
X48768864Y86738502D01*
X48768861Y86738490D01*
X48738100Y86583847D01*
X5759337Y86583847D01*
X5756054Y86596100D01*
X5663224Y86820212D01*
X5541936Y87030289D01*
X5400668Y87214394D01*
X5394266Y87222737D01*
X5394260Y87222744D01*
X5222743Y87394261D01*
X5222736Y87394267D01*
X5030293Y87541933D01*
X5030292Y87541934D01*
X5030289Y87541936D01*
X4820212Y87663224D01*
X4740712Y87696154D01*
X4596104Y87756053D01*
X4361785Y87818839D01*
X4121289Y87850500D01*
X4121288Y87850500D01*
X3878712Y87850500D01*
X3878711Y87850500D01*
X3638214Y87818839D01*
X3403895Y87756053D01*
X3179794Y87663227D01*
X3179785Y87663223D01*
X2969706Y87541933D01*
X2777263Y87394267D01*
X2777256Y87394261D01*
X2605739Y87222744D01*
X2605733Y87222737D01*
X2458067Y87030294D01*
X2336777Y86820215D01*
X2336773Y86820206D01*
X2243947Y86596105D01*
X2181161Y86361786D01*
X2149500Y86121289D01*
X500500Y86121289D01*
X500500Y88059696D01*
X20619500Y88059696D01*
X20619500Y87882305D01*
X20654103Y87708342D01*
X20654106Y87708333D01*
X20721983Y87544460D01*
X20721990Y87544447D01*
X20820535Y87396966D01*
X20820538Y87396962D01*
X20945961Y87271539D01*
X20945965Y87271536D01*
X21093446Y87172991D01*
X21093459Y87172984D01*
X21204984Y87126790D01*
X21257334Y87105106D01*
X21257336Y87105106D01*
X21257341Y87105104D01*
X21431304Y87070501D01*
X21431307Y87070500D01*
X21431309Y87070500D01*
X21608693Y87070500D01*
X21608694Y87070501D01*
X21666682Y87082036D01*
X21782658Y87105104D01*
X21782661Y87105106D01*
X21782666Y87105106D01*
X21946547Y87172987D01*
X22094035Y87271536D01*
X22219464Y87396965D01*
X22318013Y87544453D01*
X22385894Y87708334D01*
X22414839Y87853847D01*
X44196000Y87853847D01*
X44196000Y87696154D01*
X44226761Y87541511D01*
X44226764Y87541499D01*
X44287102Y87395828D01*
X44287109Y87395815D01*
X44374710Y87264712D01*
X44374713Y87264708D01*
X44486207Y87153214D01*
X44486211Y87153211D01*
X44617314Y87065610D01*
X44617327Y87065603D01*
X44702572Y87030294D01*
X44763003Y87005263D01*
X44917653Y86974501D01*
X44917656Y86974500D01*
X44917658Y86974500D01*
X45075344Y86974500D01*
X45075345Y86974501D01*
X45229997Y87005263D01*
X45375679Y87065606D01*
X45506789Y87153211D01*
X45618289Y87264711D01*
X45705894Y87395821D01*
X45766237Y87541503D01*
X45797000Y87696158D01*
X45797000Y87853842D01*
X45797000Y87853845D01*
X45796999Y87853847D01*
X45791338Y87882307D01*
X45766237Y88008497D01*
X45731532Y88092284D01*
X45705897Y88154173D01*
X45705890Y88154186D01*
X45618289Y88285289D01*
X45618286Y88285293D01*
X45506792Y88396787D01*
X45506788Y88396790D01*
X45375685Y88484391D01*
X45375672Y88484398D01*
X45230001Y88544736D01*
X45229989Y88544739D01*
X45075345Y88575500D01*
X45075342Y88575500D01*
X44917658Y88575500D01*
X44917655Y88575500D01*
X44763010Y88544739D01*
X44762998Y88544736D01*
X44617327Y88484398D01*
X44617314Y88484391D01*
X44486211Y88396790D01*
X44486207Y88396787D01*
X44374713Y88285293D01*
X44374710Y88285289D01*
X44287109Y88154186D01*
X44287102Y88154173D01*
X44226764Y88008502D01*
X44226761Y88008490D01*
X44196000Y87853847D01*
X22414839Y87853847D01*
X22420500Y87882309D01*
X22420500Y88059691D01*
X22420500Y88059694D01*
X22420499Y88059696D01*
X22385896Y88233659D01*
X22385893Y88233668D01*
X22318016Y88397541D01*
X22318009Y88397554D01*
X22219464Y88545035D01*
X22219461Y88545039D01*
X22094038Y88670462D01*
X22094034Y88670465D01*
X21946553Y88769010D01*
X21946540Y88769017D01*
X21782667Y88836894D01*
X21782658Y88836897D01*
X21608694Y88871500D01*
X21608691Y88871500D01*
X21431309Y88871500D01*
X21431306Y88871500D01*
X21257341Y88836897D01*
X21257332Y88836894D01*
X21093459Y88769017D01*
X21093446Y88769010D01*
X20945965Y88670465D01*
X20945961Y88670462D01*
X20820538Y88545039D01*
X20820535Y88545035D01*
X20721990Y88397554D01*
X20721983Y88397541D01*
X20654106Y88233668D01*
X20654103Y88233659D01*
X20619500Y88059696D01*
X500500Y88059696D01*
X500500Y88993041D01*
X501280Y89006923D01*
X501320Y89007283D01*
X511458Y89097268D01*
X515437Y89108638D01*
X515351Y89117103D01*
X517629Y89124316D01*
X545353Y89203543D01*
X557393Y89228547D01*
X602046Y89299611D01*
X619351Y89321310D01*
X678690Y89380649D01*
X700389Y89397954D01*
X771453Y89442607D01*
X796457Y89454647D01*
X875668Y89482365D01*
X902729Y89488541D01*
X978753Y89497107D01*
X993078Y89498720D01*
X1006960Y89499500D01*
X1065892Y89499500D01*
X24547035Y89499500D01*
X24614074Y89479815D01*
G37*
%TD.AperFunction*%
%TD*%
M02*
