%TF.GenerationSoftware,KiCad,Pcbnew,10.0.5*%
%TF.CreationDate,2026-09-28T21:52:01+03:00*%
%TF.ProjectId,ESC3Phase,45534333-5068-4617-9365-2e6b69636164,B*%
%TF.SameCoordinates,Original*%
%TF.FileFunction,Paste,Top*%
%TF.FilePolarity,Positive*%
%FSLAX46Y46*%
G04 Gerber Fmt 4.6, Leading zero omitted, Abs format (unit mm)*
G04 Created by KiCad (PCBNEW 10.0.5) date 2026-09-28 21:52:01*
%MOMM*%
%LPD*%
G01*
G04 APERTURE LIST*
%ADD10R,2.000000X2.100000*%
%ADD11R,0.800000X0.800000*%
%ADD12R,0.250000X0.600000*%
%ADD13R,2.500000X1.700000*%
%ADD14R,1.000000X4.000000*%
%ADD15R,2.000000X1.500000*%
%ADD16R,2.500000X2.000000*%
%ADD17R,0.320000X0.400000*%
%ADD18R,0.500000X0.800000*%
%ADD19R,6.000000X5.200000*%
%ADD20R,1.600000X1.600000*%
%ADD21R,4.700000X3.000000*%
%ADD22R,0.700000X0.250000*%
%ADD23R,0.300000X0.800000*%
%ADD24R,0.200000X0.750000*%
%ADD25R,0.200000X0.720000*%
%ADD26R,1.550000X0.200000*%
%ADD27R,0.250000X0.750000*%
%ADD28R,0.250000X0.850000*%
%ADD29R,1.550000X0.400000*%
%ADD30R,0.650000X0.250000*%
%ADD31R,0.250000X0.800000*%
%ADD32R,0.975000X0.250000*%
%ADD33R,0.250000X0.700000*%
%ADD34R,2.200000X0.250000*%
%ADD35R,1.300000X0.250000*%
%ADD36R,3.400000X2.350000*%
%ADD37R,0.700000X0.600000*%
%ADD38R,3.200000X3.000000*%
%ADD39R,0.500000X1.500000*%
%ADD40R,1.200000X1.700000*%
%ADD41R,0.400000X1.300000*%
%ADD42R,1.700000X2.500000*%
%ADD43R,1.100000X0.600000*%
%ADD44R,0.400000X1.000000*%
%ADD45R,1.500000X0.900000*%
%ADD46R,0.900000X1.500000*%
%ADD47R,0.900000X0.900000*%
%ADD48R,1.300000X0.400000*%
%ADD49R,2.400000X3.100000*%
%ADD50R,0.600000X0.240000*%
%ADD51R,0.240000X0.600000*%
%ADD52R,5.000000X5.000000*%
G04 APERTURE END LIST*
D10*
%TO.C,D10*%
X19650000Y15400000D03*
X15350000Y15400000D03*
%TD*%
D11*
%TO.C,R20*%
X21100000Y65075000D03*
X19800000Y65075000D03*
%TD*%
D12*
%TO.C,U8*%
X77375000Y12900000D03*
X78025000Y12900000D03*
X78675000Y12900000D03*
X78675000Y15100000D03*
X77375000Y15100000D03*
%TD*%
D11*
%TO.C,R17*%
X31755000Y31900000D03*
X33055000Y31900000D03*
%TD*%
%TO.C,C21*%
X20250000Y61085000D03*
X20250000Y59785000D03*
%TD*%
%TO.C,C7*%
X22900000Y78885000D03*
X21600000Y78885000D03*
%TD*%
D13*
%TO.C,C24*%
X20600000Y50300000D03*
X20600000Y53100000D03*
%TD*%
D11*
%TO.C,R1*%
X18400000Y86205000D03*
X19700000Y86205000D03*
%TD*%
D14*
%TO.C,J8*%
X79400000Y78545000D03*
X81933333Y78545000D03*
X84466667Y78545000D03*
X87000000Y78545000D03*
D15*
X75500000Y88245000D03*
X75500000Y82245000D03*
X90900000Y88245000D03*
X90900000Y82245000D03*
%TD*%
D16*
%TO.C,R30*%
X28000000Y42000000D03*
X28000000Y47000000D03*
%TD*%
D11*
%TO.C,C13*%
X30850000Y26700000D03*
X32150000Y26700000D03*
%TD*%
%TO.C,C60*%
X85404200Y64950000D03*
X84104200Y64950000D03*
%TD*%
%TO.C,C17*%
X35355000Y33100000D03*
X36655000Y33100000D03*
%TD*%
D17*
%TO.C,D61*%
X87325000Y72900000D03*
X87325000Y75500000D03*
%TD*%
D11*
%TO.C,R49*%
X75100000Y70550000D03*
X75100000Y71850000D03*
%TD*%
%TO.C,R48*%
X72700000Y70550000D03*
X72700000Y71850000D03*
%TD*%
D18*
%TO.C,Q1*%
X23605000Y16650000D03*
X24871667Y16650000D03*
X26138333Y16650000D03*
X27405000Y16650000D03*
D19*
X25505000Y21150000D03*
%TD*%
D11*
%TO.C,R61*%
X89650000Y70000000D03*
X90950000Y70000000D03*
%TD*%
D20*
%TO.C,C50*%
X55600000Y47800000D03*
X55600000Y50200000D03*
%TD*%
D11*
%TO.C,R42*%
X58300000Y70550000D03*
X58300000Y71850000D03*
%TD*%
%TO.C,C43*%
X67800000Y64600000D03*
X67800000Y65900000D03*
%TD*%
D17*
%TO.C,D60*%
X77525000Y72900000D03*
X77525000Y75500000D03*
%TD*%
D21*
%TO.C,L1*%
X11050000Y56525000D03*
X11050000Y51025000D03*
%TD*%
D11*
%TO.C,C15*%
X15750000Y29800000D03*
X17050000Y29800000D03*
%TD*%
D22*
%TO.C,U3*%
X29625000Y32000000D03*
X29625000Y32500000D03*
X29625000Y33000000D03*
X29625000Y33500000D03*
X29625000Y34000000D03*
X29625000Y34500000D03*
D23*
X29425000Y34800000D03*
D24*
X28375000Y34825000D03*
D25*
X27925000Y34825000D03*
D26*
X27700000Y34550000D03*
D24*
X27475000Y34825000D03*
X27025000Y34825000D03*
D27*
X26550000Y34825000D03*
X25500000Y34825000D03*
D28*
X25000000Y34775000D03*
X24500000Y34775000D03*
D29*
X24350000Y34550000D03*
D30*
X23900000Y33425000D03*
X23900000Y32925000D03*
X23900000Y32425000D03*
X23900000Y31925000D03*
X23900000Y31425000D03*
X23900000Y30925000D03*
D31*
X24425000Y30200000D03*
D32*
X24062500Y30475000D03*
D12*
X24925000Y30100000D03*
X25425000Y30100000D03*
X25925000Y30100000D03*
X26425000Y30100000D03*
D33*
X29400000Y30100000D03*
X28900000Y30100000D03*
D34*
X28875000Y30450000D03*
D33*
X28400000Y30100000D03*
X27900000Y30100000D03*
D35*
X29325000Y30950000D03*
D36*
X26775000Y32500000D03*
%TD*%
D37*
%TO.C,SW2*%
X49050000Y66150000D03*
X52950000Y66150000D03*
X49050000Y68050000D03*
X52950000Y68050000D03*
%TD*%
D11*
%TO.C,R10*%
X23750000Y37025000D03*
X25050000Y37025000D03*
%TD*%
D18*
%TO.C,Q4*%
X71355000Y38450000D03*
X72621667Y38450000D03*
X73888333Y38450000D03*
X75155000Y38450000D03*
D19*
X73255000Y42950000D03*
%TD*%
D18*
%TO.C,Q3*%
X55105000Y28050000D03*
X56371667Y28050000D03*
X57638333Y28050000D03*
X58905000Y28050000D03*
D19*
X57005000Y32550000D03*
%TD*%
D11*
%TO.C,C8*%
X26100000Y82695000D03*
X24800000Y82695000D03*
%TD*%
%TO.C,R21*%
X7250000Y65125000D03*
X7250000Y63825000D03*
%TD*%
D38*
%TO.C,R52*%
X89600000Y24200000D03*
X89600000Y17400000D03*
%TD*%
D11*
%TO.C,C51*%
X58700000Y47850000D03*
X58700000Y49150000D03*
%TD*%
%TO.C,R16*%
X19250000Y29800000D03*
X20550000Y29800000D03*
%TD*%
%TO.C,C61*%
X89650000Y67500000D03*
X90950000Y67500000D03*
%TD*%
%TO.C,FB1*%
X32350000Y65500000D03*
X33650000Y65500000D03*
%TD*%
%TO.C,R43*%
X60700000Y70550000D03*
X60700000Y71850000D03*
%TD*%
%TO.C,C14*%
X24950000Y39130000D03*
X23650000Y39130000D03*
%TD*%
%TO.C,C30*%
X20145000Y39300000D03*
X21445000Y39300000D03*
%TD*%
%TO.C,C16*%
X31755000Y29700000D03*
X33055000Y29700000D03*
%TD*%
%TO.C,C45*%
X80152500Y60497500D03*
X81452500Y60497500D03*
%TD*%
D18*
%TO.C,Q7*%
X87605000Y28050000D03*
X88871667Y28050000D03*
X90138333Y28050000D03*
X91405000Y28050000D03*
D19*
X89505000Y32550000D03*
%TD*%
D11*
%TO.C,R47*%
X70300000Y70550000D03*
X70300000Y71850000D03*
%TD*%
%TO.C,R12*%
X15750000Y27400000D03*
X17050000Y27400000D03*
%TD*%
%TO.C,R15*%
X19250000Y25000000D03*
X20550000Y25000000D03*
%TD*%
D20*
%TO.C,C41*%
X61800000Y64400000D03*
X61800000Y66800000D03*
%TD*%
D13*
%TO.C,C23*%
X16800000Y50300000D03*
X16800000Y53100000D03*
%TD*%
D11*
%TO.C,C27*%
X39000000Y64850000D03*
X39000000Y66150000D03*
%TD*%
%TO.C,R22*%
X9600000Y65125000D03*
X9600000Y63825000D03*
%TD*%
%TO.C,C55*%
X91200000Y47850000D03*
X91200000Y49150000D03*
%TD*%
%TO.C,C42*%
X66000000Y63050000D03*
X66000000Y64350000D03*
%TD*%
%TO.C,C44*%
X79422500Y65727500D03*
X80722500Y65727500D03*
%TD*%
D18*
%TO.C,Q5*%
X71355000Y28050000D03*
X72621667Y28050000D03*
X73888333Y28050000D03*
X75155000Y28050000D03*
D19*
X73255000Y32550000D03*
%TD*%
D11*
%TO.C,C25*%
X23600000Y51050000D03*
X23600000Y52350000D03*
%TD*%
D38*
%TO.C,R51*%
X73350000Y24200000D03*
X73350000Y17400000D03*
%TD*%
D11*
%TO.C,R24*%
X6000000Y47350000D03*
X6000000Y48650000D03*
%TD*%
%TO.C,R45*%
X65500000Y70550000D03*
X65500000Y71850000D03*
%TD*%
%TO.C,C3*%
X22900000Y86205000D03*
X21600000Y86205000D03*
%TD*%
D39*
%TO.C,J1*%
X52800000Y86850000D03*
X52000000Y86850000D03*
X51200000Y86850000D03*
X50400000Y86850000D03*
D40*
X54150000Y88450000D03*
X49050000Y88450000D03*
%TD*%
D20*
%TO.C,C52*%
X71850000Y47800000D03*
X71850000Y50200000D03*
%TD*%
D11*
%TO.C,C11*%
X31125000Y14000000D03*
X32425000Y14000000D03*
%TD*%
%TO.C,R3*%
X26100000Y75075000D03*
X24800000Y75075000D03*
%TD*%
%TO.C,C10*%
X18150000Y19000000D03*
X16850000Y19000000D03*
%TD*%
D20*
%TO.C,C54*%
X88100000Y47800000D03*
X88100000Y50200000D03*
%TD*%
D41*
%TO.C,U9*%
X22725000Y47400000D03*
X21465000Y47400000D03*
X20195000Y47400000D03*
X18925000Y47400000D03*
X18925000Y41600000D03*
X20195000Y41600000D03*
X21465000Y41600000D03*
X22725000Y41600000D03*
%TD*%
D11*
%TO.C,C40*%
X64200000Y63250000D03*
X64200000Y64550000D03*
%TD*%
%TO.C,R13*%
X19250000Y34600000D03*
X20550000Y34600000D03*
%TD*%
%TO.C,C26*%
X36500000Y64850000D03*
X36500000Y66150000D03*
%TD*%
%TO.C,R2*%
X49900000Y71735000D03*
X48600000Y71735000D03*
%TD*%
%TO.C,R46*%
X67900000Y70550000D03*
X67900000Y71850000D03*
%TD*%
D42*
%TO.C,C12*%
X33100000Y23200000D03*
X35900000Y23200000D03*
%TD*%
D43*
%TO.C,U2*%
X33075000Y16600000D03*
X33075000Y17550000D03*
X33075000Y18500000D03*
X30475000Y18500000D03*
X30475000Y17550000D03*
X30475000Y16600000D03*
%TD*%
D18*
%TO.C,Q6*%
X87605000Y38450000D03*
X88871667Y38450000D03*
X90138333Y38450000D03*
X91405000Y38450000D03*
D19*
X89505000Y42950000D03*
%TD*%
D11*
%TO.C,C2*%
X26100000Y87775000D03*
X24800000Y87775000D03*
%TD*%
D14*
%TO.C,J2*%
X60400000Y78545000D03*
X62933333Y78545000D03*
X65466667Y78545000D03*
X68000000Y78545000D03*
D15*
X56500000Y88245000D03*
X56500000Y82245000D03*
X71900000Y88245000D03*
X71900000Y82245000D03*
%TD*%
D11*
%TO.C,C4*%
X26100000Y85235000D03*
X24800000Y85235000D03*
%TD*%
D44*
%TO.C,U10*%
X81620833Y67850000D03*
X82887500Y67850000D03*
X84154166Y67850000D03*
X85420833Y67850000D03*
X85437500Y73350000D03*
X84170833Y73350000D03*
X82904167Y73350000D03*
X81637500Y73350000D03*
%TD*%
D11*
%TO.C,C6*%
X26100000Y80155000D03*
X24800000Y80155000D03*
%TD*%
D37*
%TO.C,SW1*%
X13550000Y81150000D03*
X17450000Y81150000D03*
X13550000Y83050000D03*
X17450000Y83050000D03*
%TD*%
D11*
%TO.C,C1*%
X21600000Y89075000D03*
X22900000Y89075000D03*
%TD*%
D38*
%TO.C,R50*%
X57100000Y24200000D03*
X57100000Y17400000D03*
%TD*%
D11*
%TO.C,C53*%
X74950000Y47850000D03*
X74950000Y49150000D03*
%TD*%
%TO.C,R40*%
X53500000Y70550000D03*
X53500000Y71850000D03*
%TD*%
%TO.C,R23*%
X7200000Y58150000D03*
X7200000Y59450000D03*
%TD*%
%TO.C,C58*%
X75600000Y13350000D03*
X75600000Y14650000D03*
%TD*%
%TO.C,R11*%
X20550000Y27400000D03*
X19250000Y27400000D03*
%TD*%
D20*
%TO.C,C19*%
X27800000Y37670000D03*
X30200000Y37670000D03*
%TD*%
D13*
%TO.C,C20*%
X23450000Y61835000D03*
X23450000Y59035000D03*
%TD*%
D11*
%TO.C,R14*%
X19250000Y32200000D03*
X20550000Y32200000D03*
%TD*%
%TO.C,D1*%
X20700000Y74975000D03*
X22000000Y74975000D03*
%TD*%
%TO.C,C22*%
X9600000Y61055000D03*
X9600000Y59755000D03*
%TD*%
%TO.C,C5*%
X22900000Y83665000D03*
X21600000Y83665000D03*
%TD*%
%TO.C,R60*%
X89650000Y72500000D03*
X90950000Y72500000D03*
%TD*%
D45*
%TO.C,U1*%
X28750000Y89045000D03*
X28750000Y87775000D03*
X28750000Y86505000D03*
X28750000Y85235000D03*
X28750000Y83965000D03*
X28750000Y82695000D03*
X28750000Y81425000D03*
X28750000Y80155000D03*
X28750000Y78885000D03*
X28750000Y77615000D03*
X28750000Y76345000D03*
X28750000Y75075000D03*
X28750000Y73805000D03*
X28750000Y72535000D03*
D46*
X31785000Y71285000D03*
X33055000Y71285000D03*
X34325000Y71285000D03*
X35595000Y71285000D03*
X36865000Y71285000D03*
X38135000Y71285000D03*
X39405000Y71285000D03*
X40675000Y71285000D03*
X41945000Y71285000D03*
X43215000Y71285000D03*
D45*
X46250000Y72535000D03*
X46250000Y73805000D03*
X46250000Y75075000D03*
X46250000Y76345000D03*
X46250000Y77615000D03*
X46250000Y78885000D03*
X46250000Y80155000D03*
X46250000Y81425000D03*
X46250000Y82695000D03*
X46250000Y83965000D03*
X46250000Y85235000D03*
X46250000Y86505000D03*
X46250000Y87775000D03*
X46250000Y89045000D03*
D47*
X34600000Y82725000D03*
X34600000Y81325000D03*
X34600000Y79925000D03*
X36000000Y82725000D03*
X36000000Y81325000D03*
X36000000Y79925000D03*
X37400000Y82725000D03*
X37400000Y81325000D03*
X37400000Y79925000D03*
%TD*%
D11*
%TO.C,D20*%
X6100000Y42750000D03*
X6100000Y44050000D03*
%TD*%
%TO.C,R41*%
X55900000Y70550000D03*
X55900000Y71850000D03*
%TD*%
%TO.C,R18*%
X35355000Y30400000D03*
X36655000Y30400000D03*
%TD*%
D48*
%TO.C,U4*%
X17850000Y59775000D03*
X17850000Y61035000D03*
X17850000Y62305000D03*
X17850000Y63575000D03*
X12150000Y63575000D03*
X12150000Y62305000D03*
X12150000Y61035000D03*
X12150000Y59775000D03*
D49*
X15000000Y61675000D03*
%TD*%
D11*
%TO.C,C18*%
X33055000Y34600000D03*
X31755000Y34600000D03*
%TD*%
D50*
%TO.C,U6*%
X69772500Y65727500D03*
X69772500Y65227500D03*
X69772500Y64727500D03*
X69772500Y64227500D03*
X69772500Y63727500D03*
X69772500Y63227500D03*
X69772500Y62727500D03*
X69772500Y62227500D03*
X69772500Y61727500D03*
X69772500Y61227500D03*
X69772500Y60727500D03*
X69772500Y60227500D03*
D51*
X70522500Y59477500D03*
X71022500Y59477500D03*
X71522500Y59477500D03*
X72022500Y59477500D03*
X72522500Y59477500D03*
X73022500Y59477500D03*
X73522500Y59477500D03*
X74022500Y59477500D03*
X74522500Y59477500D03*
X75022500Y59477500D03*
X75522500Y59477500D03*
X76022500Y59477500D03*
D50*
X76772500Y60227500D03*
X76772500Y60727500D03*
X76772500Y61227500D03*
X76772500Y61727500D03*
X76772500Y62227500D03*
X76772500Y62727500D03*
X76772500Y63227500D03*
X76772500Y63727500D03*
X76772500Y64227500D03*
X76772500Y64727500D03*
X76772500Y65227500D03*
X76772500Y65727500D03*
D51*
X76022500Y66477500D03*
X75522500Y66477500D03*
X75022500Y66477500D03*
X74522500Y66477500D03*
X74022500Y66477500D03*
X73522500Y66477500D03*
X73022500Y66477500D03*
X72522500Y66477500D03*
X72022500Y66477500D03*
X71522500Y66477500D03*
X71022500Y66477500D03*
X70522500Y66477500D03*
D52*
X73272500Y62977500D03*
%TD*%
D11*
%TO.C,R44*%
X63100000Y70550000D03*
X63100000Y71850000D03*
%TD*%
D18*
%TO.C,Q2*%
X55105000Y38450000D03*
X56371667Y38450000D03*
X57638333Y38450000D03*
X58905000Y38450000D03*
D19*
X57005000Y42950000D03*
%TD*%
M02*
